<?xml version="1.0" encoding="UTF-8"?>
<svg xmlns="http://www.w3.org/2000/svg" viewBox="0 0 708.95 468.46">
  <defs>
    <style>
      .cls-1 {
        fill: #fff;
      }

      .cls-2 {
        fill: #f5f5f5;
      }

      .cls-3 {
        fill: #455a64;
      }

      .cls-4 {
        fill: #ae7461;
      }

      .cls-5 {
        fill: #e0e0e0;
      }

      .cls-6 {
        fill: #bdd7e0;
      }

      .cls-7 {
        fill: #6f4439;
      }

      .cls-8 {
        opacity: .3;
      }

      .cls-9 {
        fill: #ebebeb;
      }

      .cls-10 {
        fill: #263238;
      }
    </style>
  </defs>
  <g id="Background_Complete" data-name="Background Complete">
    <path class="cls-9" d="M689.84,157.69c-1.38-6.02-5.88-8.17-9.4-7.88-3.82,.32-6.62,3.36-6.62,3.36,0,0-.79-4.05-3.89-6.32-2.85-2.09-7.81-2.61-12.13,1.8-9.03,9.2,8.95,29.58,8.95,29.58,0,0,25.97-7.97,23.09-20.54Z"/>
    <path class="cls-9" d="M333.63,26.81c-4.41-8.07-11.73-9.32-16.65-7.48-5.35,2-8.12,7.48-8.12,7.48,0,0-2.78-5.48-8.12-7.48-4.92-1.84-12.24-.58-16.65,7.48-9.21,16.83,24.77,38.75,24.77,38.75,0,0,33.98-21.91,24.77-38.75Z"/>
    <path class="cls-9" d="M381.36,5.2c-2.79-5.1-7.42-5.89-10.53-4.73-3.38,1.26-5.14,4.73-5.14,4.73,0,0-1.76-3.47-5.14-4.73-3.11-1.16-7.74-.37-10.53,4.73-5.82,10.64,15.66,24.5,15.66,24.5,0,0,21.49-13.86,15.66-24.5Z"/>
    <g>
      <g>
        <circle class="cls-2" cx="482.55" cy="49.41" r="44.14"/>
        <path class="cls-5" d="M498.6,48.56c-1.35,2.92-.65,6.11,1.56,7.14,2.21,1.02,5.1-.51,6.45-3.43,1.35-2.92,.65-6.11-1.56-7.14-2.21-1.02-5.1,.51-6.45,3.43Z"/>
        <path class="cls-5" d="M465.31,33.16c-1.35,2.92-.65,6.11,1.56,7.14,2.21,1.02,5.1-.51,6.45-3.43,1.35-2.92,.65-6.11-1.56-7.14-2.21-1.02-5.1,.51-6.45,3.43Z"/>
      </g>
      <g>
        <path class="cls-5" d="M468.27,44.02c-3.75,8.11-.61,17.55,7.03,21.09,7.63,3.53,16.86-.18,20.62-8.3l-27.64-12.79Z"/>
        <path class="cls-9" d="M469.1,59.62s4.34-2.22,8.8-.15c4.46,2.07,5.6,6.82,5.6,6.82,0,0-8.76,1.34-14.4-6.66Z"/>
      </g>
    </g>
    <g>
      <g>
        <rect class="cls-5" x="167.62" y="30.23" width="16.08" height="43.22" transform="translate(-7.47 54.31) rotate(-17.21)"/>
        <rect class="cls-9" x="171.77" y="28.95" width="16.08" height="43.22" transform="translate(-6.91 55.48) rotate(-17.21)"/>
        <path class="cls-1" d="M173.45,40.86c.59,1.91,2.63,2.99,4.54,2.39,1.91-.59,2.99-2.63,2.39-4.54-.59-1.91-2.63-2.99-4.54-2.39-1.91,.59-2.99,2.63-2.39,4.54Z"/>
        <path class="cls-9" d="M163.54,39.78c.11-.14,1.54,.79,3.19,2.08,1.65,1.29,2.9,2.45,2.79,2.59-.11,.14-1.54-.79-3.19-2.08-1.65-1.29-2.9-2.45-2.79-2.59Z"/>
        <path class="cls-9" d="M164.95,44.35c.11-.14,1.54,.79,3.19,2.08,1.65,1.29,2.9,2.45,2.79,2.59-.11,.14-1.54-.79-3.19-2.08-1.65-1.29-2.9-2.45-2.79-2.59Z"/>
        <path class="cls-9" d="M166.37,48.92c.11-.14,1.54,.79,3.19,2.08,1.65,1.29,2.9,2.45,2.79,2.59-.11,.14-1.54-.79-3.19-2.08-1.65-1.29-2.9-2.45-2.79-2.59Z"/>
        <path class="cls-9" d="M167.78,53.49c.11-.14,1.54,.79,3.19,2.08,1.65,1.29,2.9,2.45,2.79,2.59-.11,.14-1.54-.79-3.19-2.08-1.65-1.29-2.9-2.45-2.79-2.59Z"/>
        <path class="cls-9" d="M169.2,58.05c.11-.14,1.54,.79,3.19,2.08,1.65,1.29,2.9,2.45,2.79,2.59-.11,.14-1.54-.79-3.19-2.08-1.65-1.29-2.9-2.45-2.79-2.59Z"/>
        <path class="cls-9" d="M170.61,62.62c.11-.14,1.54,.79,3.19,2.08,1.65,1.29,2.9,2.45,2.79,2.59-.11,.14-1.54-.79-3.19-2.08-1.65-1.29-2.9-2.45-2.79-2.59Z"/>
        <path class="cls-9" d="M172.03,67.19c.11-.14,1.54,.79,3.19,2.08,1.65,1.29,2.9,2.45,2.79,2.59s-1.54-.79-3.19-2.08c-1.65-1.29-2.9-2.45-2.79-2.59Z"/>
        <path class="cls-9" d="M162.33,35.74c.11-.14,1.54,.79,3.19,2.08,1.65,1.29,2.9,2.45,2.79,2.59-.11,.14-1.54-.79-3.19-2.08-1.65-1.29-2.9-2.45-2.79-2.59Z"/>
        <path class="cls-9" d="M163.22,33.08c.11-.14,.99,.36,1.97,1.13,.98,.76,1.68,1.5,1.57,1.64-.11,.14-.99-.36-1.97-1.13-.98-.76-1.68-1.5-1.57-1.64Z"/>
      </g>
      <g>
        <path class="cls-5" d="M165.62,74.03l-12.14-36.22s-8.61,.94-19.27-7.86c-7.05-5.82-7.69-14.11-9.6-17.03-1.17-1.79-5.67,.04-7.62,.9-1.85,.82-4.69,2.87-5.08,6.32-.73,6.4,6.9,18.79,6.9,18.79,0,0,2.36,2.28-1.48,3.47l-13.7,4.24c-1.78,.55-3.34,1.68-4.33,3.25-.87,1.38-1.39,3.24-.5,5.46,2.03,5.08,5.49,6.57,5.83,7.66,.34,1.1-.57,3.48,1.5,6.3,2.07,2.81,2.68,2.33,3.14,3.84,.47,1.51,1.93,5.26,3.61,7.3,1.68,2.03,3.12,2.79,3.12,2.79,0,0,.98,5.2,3.38,7.52,3.15,3.04,12.95,2.67,16.15-.19,1.5-1.34,9.05-5.81,12.59-7.96,3.54-2.15,13.24-9.22,17.5-8.58Z"/>
        <path class="cls-9" d="M170.65,72.93l-11.43-36.9s-8.61,.94-19.27-7.86c-7.05-5.82-11.04-11.06-12.96-13.98-1.17-1.79-3.46-2.53-5.41-1.67-1.85,.82-3.93,2.29-4.32,5.74-.73,6.4,7.28,18.89,7.28,18.89,0,0,2.36,2.28-1.48,3.47l-13.7,4.24c-1.78,.55-3.34,1.68-4.33,3.25-.87,1.38-1.39,3.24-.5,5.46,2.03,5.08,5.49,6.57,5.83,7.66,.34,1.1-.57,3.48,1.5,6.3s2.68,2.33,3.14,3.84c.47,1.51,1.93,5.26,3.61,7.3,1.68,2.03,3.12,2.79,3.12,2.79,0,0,1.12,5.07,3.38,7.52s8.49,2.18,10.41,1.58c1.92-.59,14.79-7.59,18.33-9.74,3.54-2.15,12.54-8.54,16.79-7.91Z"/>
        <path class="cls-9" d="M115.24,31.96c.1-.16,2.07,.89,4.5,2.17,2.43,1.28,4.41,2.32,4.33,2.49-.07,.16-2.18-.62-4.64-1.92-2.45-1.29-4.29-2.59-4.2-2.74Z"/>
        <path class="cls-9" d="M112.98,27.26c.1-.15,1.89,.78,4.18,1.77,2.3,.98,4.12,1.93,4.04,2.1-.07,.15-1.98-.52-4.3-1.51-2.33-1-4.02-2.21-3.92-2.36Z"/>
        <path class="cls-9" d="M111.97,22.69c.11-.17,1.54,.63,3.44,1.28,1.94,.64,3.43,1.48,3.34,1.64-.08,.16-1.61-.39-3.56-1.03-1.98-.68-3.32-1.76-3.23-1.89Z"/>
        <path class="cls-9" d="M112.33,18.51c.07-.16,1.24,.18,2.62,.78,1.38,.59,2.44,1.21,2.37,1.37-.07,.16-1.24-.18-2.62-.78-1.38-.59-2.44-1.21-2.37-1.37Z"/>
        <path class="cls-9" d="M114.44,15.46c.04-.17,.77-.11,1.63,.14,.86,.25,1.5,.59,1.45,.76-.06,.17-.79,.11-1.63-.14-.84-.24-1.49-.58-1.45-.76Z"/>
        <path class="cls-9" d="M118.33,38.13c.07-.16,1.31,.21,2.77,.84,1.46,.63,2.58,1.27,2.51,1.44-.07,.16-1.31-.21-2.77-.84-1.46-.63-2.58-1.27-2.51-1.44Z"/>
        <path class="cls-9" d="M100.02,57.9c.05-.17,2.37,.4,5.18,1.26,2.81,.87,5.04,1.71,4.99,1.88-.05,.17-2.37-.4-5.18-1.27-2.81-.87-5.04-1.71-4.99-1.88Z"/>
        <path class="cls-9" d="M98.3,51.58c.05-.17,1.45,.11,3.13,.64,1.67,.52,2.99,1.08,2.94,1.25-.05,.17-1.45-.11-3.13-.64-1.67-.52-2.99-1.08-2.94-1.25Z"/>
        <path class="cls-9" d="M104.89,66.21c.03-.17,1.81,.03,3.9,.68,2.09,.64,3.68,1.47,3.61,1.63-.07,.17-1.74-.38-3.8-1.01-2.06-.64-3.74-1.12-3.71-1.3Z"/>
        <path class="cls-9" d="M109.09,72.7c.06-.17,1.75,.28,3.78,1.01,2.03,.72,3.62,1.45,3.56,1.62-.06,.17-1.75-.28-3.78-1.01-2.03-.72-3.62-1.45-3.56-1.62Z"/>
        <path class="cls-9" d="M113.29,80.61c.07-.17,1.98,.52,4.34,1.31,2.36,.79,4.3,1.38,4.26,1.56-.04,.17-2.07-.15-4.46-.95-2.4-.8-4.21-1.76-4.14-1.92Z"/>
        <path class="cls-9" d="M117.24,87.14c.07-.16,2.29,.63,5.06,1.54,2.76,.93,5.01,1.63,4.97,1.8-.04,.18-2.39-.25-5.18-1.19-2.79-.92-4.93-1.99-4.85-2.16Z"/>
      </g>
    </g>
    <g>
      <rect class="cls-2" x="18.93" y="171.48" width="158.32" height="57.04" rx="7.31" ry="7.31"/>
      <circle class="cls-5" cx="45.93" cy="199.7" r="10.41"/>
      <rect class="cls-5" x="63.58" y="194.86" width="82.34" height="4.84"/>
      <rect class="cls-5" x="63.58" y="203.4" width="33.23" height="4.84"/>
    </g>
    <g>
      <rect class="cls-2" x="524.49" y="242.76" width="158.32" height="57.04" rx="7.31" ry="7.31"/>
      <circle class="cls-5" cx="551.49" cy="270.99" r="10.41" transform="translate(15.11 570.78) rotate(-55.37)"/>
      <rect class="cls-5" x="569.14" y="266.15" width="82.34" height="4.84"/>
      <rect class="cls-5" x="569.14" y="274.69" width="33.23" height="4.84"/>
    </g>
    <g>
      <g>
        <rect class="cls-5" x="39.01" y="87.12" width="24.16" height="8.99" transform="translate(-53.74 87.74) rotate(-58.74)"/>
        <rect class="cls-9" x="36.93" y="85.86" width="24.16" height="8.99" transform="translate(-53.66 85.36) rotate(-58.74)"/>
        <path class="cls-1" d="M47.32,96.62c.58-.96,.28-2.21-.68-2.79s-2.21-.28-2.79,.68c-.58,.96-.28,2.21,.68,2.79,.96,.58,2.21,.28,2.79-.68Z"/>
        <path class="cls-9" d="M50.54,101.16c-.1,0-.24-.94-.31-2.11-.07-1.17-.05-2.12,.05-2.13,.1,0,.24,.94,.31,2.11,.07,1.17,.05,2.12-.05,2.13Z"/>
        <path class="cls-9" d="M51.93,98.88c-.1,0-.24-.94-.31-2.11-.07-1.17-.05-2.12,.05-2.13,.1,0,.24,.94,.31,2.11,.07,1.17,.05,2.12-.05,2.13Z"/>
        <path class="cls-9" d="M53.31,96.59c-.1,0-.24-.94-.31-2.11-.07-1.17-.05-2.12,.05-2.13,.1,0,.24,.94,.31,2.11,.07,1.17,.05,2.12-.05,2.13Z"/>
        <path class="cls-9" d="M54.7,94.31c-.1,0-.24-.94-.31-2.11-.07-1.17-.05-2.12,.05-2.13,.1,0,.24,.94,.31,2.11,.07,1.17,.05,2.12-.05,2.13Z"/>
        <path class="cls-9" d="M56.09,92.02c-.1,0-.24-.94-.31-2.11-.07-1.17-.05-2.12,.05-2.13,.1,0,.24,.94,.31,2.11,.07,1.17,.05,2.12-.05,2.13Z"/>
        <path class="cls-9" d="M57.48,89.74c-.1,0-.24-.94-.31-2.11-.07-1.17-.05-2.12,.05-2.13,.1,0,.24,.94,.31,2.11,.07,1.17,.05,2.12-.05,2.13Z"/>
        <path class="cls-9" d="M58.86,87.45c-.1,0-.24-.94-.31-2.11-.07-1.17-.05-2.12,.05-2.13,.1,0,.24,.94,.31,2.11,.07,1.17,.05,2.12-.05,2.13Z"/>
        <path class="cls-9" d="M49.29,103.17c-.1,0-.24-.94-.31-2.11-.07-1.17-.05-2.12,.05-2.13,.1,0,.24,.94,.31,2.11,.07,1.17,.05,2.12-.05,2.13Z"/>
        <path class="cls-9" d="M47.85,103.78c-.1,0-.22-.55-.26-1.24-.04-.69,0-1.26,.1-1.26,.1,0,.22,.55,.26,1.24,.04,.69,0,1.26-.1,1.26Z"/>
      </g>
      <g>
        <path class="cls-5" d="M64.11,87.6l-10.67,18.51s3.59,3.26,3.85,10.98c.18,5.11-3.06,8.45-3.57,10.33-.31,1.15,2.12,2.36,3.2,2.86,1.03,.47,2.94,.9,4.53-.21,2.95-2.07,5.31-9.86,5.31-9.86,0,0,.08-1.83,2-.66l6.85,4.16c.89,.54,1.94,.78,2.97,.61,.9-.15,1.87-.62,2.47-1.81,1.38-2.73,.71-4.73,1.05-5.28,.33-.55,1.67-1.05,2.08-2.96,.41-1.91-.02-1.98,.44-2.74,.46-.75,1.49-2.76,1.72-4.22,.23-1.46,.01-2.34,.01-2.34,0,0,1.81-2.34,1.89-4.2,.11-2.45-3.68-6.41-6.07-6.69-1.12-.13-5.79-1.63-8-2.32-2.21-.69-8.77-2.13-10.08-4.14Z"/>
        <path class="cls-9" d="M61.78,85.9l-11.21,18.46s3.59,3.26,3.85,10.98c.18,5.11-.54,8.72-1.05,10.6-.31,1.15,.22,2.39,1.31,2.88,1.03,.47,2.41,.8,4-.32,2.95-2.07,5.21-10.05,5.21-10.05,0,0,.08-1.83,2-.66l6.85,4.16c.89,.54,1.94,.78,2.97,.61,.9-.15,1.87-.62,2.47-1.81,1.38-2.73,.71-4.73,1.05-5.28,.33-.55,1.67-1.05,2.08-2.96,.41-1.91-.02-1.98,.44-2.74s1.49-2.76,1.72-4.22,.01-2.34,.01-2.34c0,0,1.71-2.35,1.89-4.2,.19-1.86-2.24-4.36-3.2-4.95-.96-.58-8.66-3.38-10.87-4.06-2.21-.69-8.22-2.08-9.53-4.1Z"/>
        <path class="cls-9" d="M65.16,124.28c-.1,.02-.4-1.2-.76-2.69-.36-1.49-.66-2.71-.56-2.74,.09-.03,.55,1.14,.92,2.65,.37,1.51,.51,2.76,.41,2.77Z"/>
        <path class="cls-9" d="M64.03,126.97c-.1,.02-.37-1.08-.81-2.4-.44-1.33-.72-2.44-.62-2.47,.09-.02,.52,1.02,.96,2.36,.45,1.34,.56,2.5,.46,2.51Z"/>
        <path class="cls-9" d="M62.49,129.08c-.11,.02-.31-.88-.74-1.92-.45-1.05-.65-1.98-.55-2.01,.1-.02,.44,.82,.89,1.87,.45,1.08,.49,2.04,.4,2.05Z"/>
        <path class="cls-9" d="M60.61,130.48c-.1,.03-.38-.59-.65-1.39-.26-.8-.4-1.47-.3-1.5,.09-.03,.38,.59,.65,1.39,.26,.8,.4,1.47,.3,1.5Z"/>
        <path class="cls-9" d="M58.56,130.73c-.09,.05-.33-.28-.55-.73-.21-.45-.31-.85-.22-.89,.09-.04,.34,.29,.55,.73,.21,.44,.31,.84,.22,.89Z"/>
        <path class="cls-9" d="M66.6,120.7c-.09,.03-.4-.63-.67-1.47-.28-.84-.42-1.55-.33-1.58,.09-.03,.4,.63,.67,1.47,.28,.84,.42,1.55,.33,1.58Z"/>
        <path class="cls-9" d="M81.67,121.04c-.09,.04-.71-1.14-1.39-2.64-.68-1.5-1.15-2.75-1.06-2.79,.09-.04,.71,1.14,1.39,2.64,.68,1.5,1.15,2.75,1.06,2.79Z"/>
        <path class="cls-9" d="M79.66,124.1c-.09,.04-.49-.65-.89-1.55-.4-.89-.65-1.65-.56-1.69,.09-.04,.49,.65,.89,1.55,.4,.89,.65,1.65,.56,1.69Z"/>
        <path class="cls-9" d="M83.34,115.92c-.08,.05-.65-.77-1.16-1.88-.51-1.11-.75-2.08-.66-2.11,.1-.03,.49,.87,.99,1.96,.5,1.1,.92,1.98,.83,2.03Z"/>
        <path class="cls-9" d="M84.5,111.76c-.09,.04-.53-.84-.98-1.95-.45-1.12-.74-2.05-.64-2.09,.09-.04,.53,.84,.98,1.95,.45,1.12,.74,2.05,.64,2.09Z"/>
        <path class="cls-9" d="M86.25,107.06c-.1,.03-.52-1.02-1.06-2.3-.54-1.28-1.01-2.31-.92-2.36,.09-.05,.7,.92,1.26,2.22,.55,1.3,.82,2.41,.73,2.44Z"/>
        <path class="cls-9" d="M87.52,102.99c-.09,.03-.58-1.19-1.23-2.69-.63-1.5-1.17-2.7-1.09-2.75,.09-.05,.78,1.09,1.42,2.61,.65,1.51,.99,2.8,.89,2.83Z"/>
      </g>
    </g>
    <path class="cls-5" d="M665.05,44.03c-1.85-3.37-4.91-3.9-6.96-3.13-2.24,.84-3.4,3.13-3.4,3.13,0,0-1.16-2.29-3.4-3.13-2.06-.77-5.12-.24-6.96,3.13-3.85,7.04,10.36,16.21,10.36,16.21,0,0,14.22-9.17,10.36-16.21Z"/>
    <path class="cls-5" d="M55.08,359.93l6.67,7c.75,.79,1.86,1.16,2.98,.99l9.91-1.46c2.81-.41,4.81,2.44,3.39,4.82l-5.01,8.43c-.56,.95-.61,2.09-.13,3.06l4.28,8.58c1.21,2.43-1.04,5.21-3.8,4.71l-9.77-1.79c-1.1-.2-2.24,.13-3.06,.9l-7.26,6.77c-2.06,1.92-5.45,.78-5.74-1.92l-1.02-9.53c-.12-1.07-.77-2.01-1.76-2.5l-8.77-4.4c-2.48-1.25-2.33-4.73,.26-5.89l9.13-4.11c1.03-.46,1.77-1.38,1.97-2.44l1.85-9.49c.52-2.69,4.01-3.71,5.9-1.72Z"/>
    <g>
      <path class="cls-5" d="M641.98,356.06l12.16,17.38c1.33,1.9,4.17,1.86,5.44-.09l11.77-18.08-29.36,.79Z"/>
      <path class="cls-5" d="M640.68,326.96h30.12c6.38,0,11.56,5.18,11.56,11.56v15.6c0,6.38-5.18,11.56-11.56,11.56h-30.12c-6.38,0-11.56-5.18-11.56-11.56v-15.6c0-6.38,5.18-11.56,11.56-11.56Z"/>
      <path class="cls-1" d="M666.17,342.76c-1.71-3.12-4.54-3.6-6.44-2.89-2.07,.77-3.14,2.89-3.14,2.89,0,0-1.07-2.12-3.14-2.89-1.9-.71-4.73-.23-6.44,2.89-3.56,6.51,9.58,14.99,9.58,14.99,0,0,13.14-8.48,9.58-14.99Z"/>
    </g>
  </g>
  <g id="Floor">
    <path class="cls-10" d="M661.57,445.34c0,.14-143.32,.26-320.08,.26s-320.11-.12-320.11-.26,143.29-.26,320.11-.26,320.08,.12,320.08,.26Z"/>
  </g>
  <g id="Device">
    <g>
      <g>
        <path class="cls-3" d="M524.62,443.65H139.42c-12.73,0-23.05-10.74-23.05-23.99V144.54c0-9.67,7.53-17.5,16.82-17.5h398.6c8.78,0,15.89,7.4,15.89,16.54V419.66c0,13.25-10.32,23.99-23.05,23.99Z"/>
        <g>
          <path class="cls-3" d="M547.22,448.47H120.62c-12.31,0-22.29-10.38-22.29-23.19v-3.61c0-.49,.38-.89,.86-.89h465.57c.47,0,.86,.4,.86,.89v7.67c0,10.57-8.24,19.14-18.4,19.14Z"/>
          <path class="cls-10" d="M547.22,448.47s.21-.02,.63-.05c.42-.05,1.05,0,1.86-.18,1.63-.22,4.09-.78,6.86-2.52,1.4-.83,2.82-2.02,4.16-3.54,1.34-1.52,2.58-3.42,3.46-5.69,.9-2.27,1.37-4.9,1.34-7.72,0-1.41,0-2.88,0-4.38,0-.75,0-1.52,0-2.29,0-.39,.03-.78-.25-1.02-.25-.27-.63-.21-1.02-.21-24.54,.02-60.03,.05-103.9,.08-87.73,.02-208.93,.04-342.78,.07-4.18,0-8.36,0-12.52,0h-3.12s-1.56,0-1.56,0h-1.17c-.12,0-.19,.01-.29,.05-.17,.08-.31,.24-.35,.43-.04,.16-.01,.49-.02,.74v1.62c-.02,1.08,.03,2.15,.09,3.21,.18,2.11,.56,4.22,1.31,6.2,.31,1.01,.81,1.94,1.24,2.9,.54,.9,1,1.85,1.65,2.67,2.38,3.43,5.72,6.08,9.43,7.69,1.87,.78,3.84,1.3,5.83,1.55,1.99,.2,4.02,.16,6.05,.16,4.04,0,8.07,0,12.09,0,8.03,0,15.99,0,23.88,0,31.56,0,62.01,0,91.01,.01,58,.02,110.24,.04,154.1,.05,43.86,.03,79.36,.06,103.89,.08,12.26,.02,21.78,.04,28.25,.05,3.23,.01,5.69,.02,7.35,.02,1.65,0,2.5,.03,2.5,.03,0,0-.85,.02-2.5,.03-1.66,0-4.12,.01-7.35,.02-6.46,.01-15.98,.03-28.25,.05-24.53,.02-60.03,.05-103.89,.08-43.87,.02-96.1,.03-154.1,.05-29,0-59.45,0-91.01,.01-7.89,0-15.85,0-23.88,0-4.01,0-8.04,0-12.09,0-2.02,0-4.05,.04-6.1-.16-2.04-.26-4.04-.78-5.96-1.58-3.8-1.64-7.21-4.35-9.63-7.85-.66-.84-1.13-1.81-1.68-2.72-.44-.98-.95-1.93-1.26-2.96-.76-2.02-1.16-4.17-1.34-6.33-.06-1.09-.11-2.17-.09-3.24v-1.62c.01-.29-.03-.5,.04-.87,.08-.34,.32-.62,.63-.76,.15-.07,.33-.1,.47-.09h2.72s3.12,0,3.12,0c4.16,0,8.33,0,12.52,0,133.85,.03,255.04,.05,342.78,.07,43.86,.03,79.36,.06,103.9,.08h.58c.21,.03,.41,.12,.56,.27,.15,.15,.26,.35,.29,.56,.03,.22,0,.4,.01,.6,0,.78,0,1.54,0,2.29,0,1.51,0,2.97,0,4.38,.03,2.84-.46,5.5-1.37,7.78-.9,2.29-2.15,4.19-3.5,5.72-1.36,1.53-2.79,2.72-4.2,3.54-2.79,1.73-5.27,2.28-6.91,2.48-.82,.16-1.45,.11-1.87,.15-.42,.02-.63,.02-.63,.02Z"/>
        </g>
        <polygon class="cls-10" points="289.5 420.24 295.3 430.48 376.9 430.48 382.28 420.24 289.5 420.24"/>
      </g>
      <g>
        <rect class="cls-1" x="137.52" y="151.12" width="395.39" height="259.35"/>
        <rect class="cls-5" x="137.52" y="151.12" width="395.39" height="26"/>
        <path class="cls-1" d="M153.71,163.04c0,2.18-1.71,3.96-3.81,3.96s-3.81-1.77-3.81-3.96,1.71-3.96,3.81-3.96,3.81,1.77,3.81,3.96Z"/>
        <path class="cls-1" d="M164.84,163.04c0,2.18-1.71,3.96-3.81,3.96s-3.81-1.77-3.81-3.96,1.71-3.96,3.81-3.96,3.81,1.77,3.81,3.96Z"/>
        <path class="cls-1" d="M175.97,163.04c0,2.18-1.71,3.96-3.81,3.96s-3.81-1.77-3.81-3.96,1.71-3.96,3.81-3.96,3.81,1.77,3.81,3.96Z"/>
      </g>
      <circle class="cls-6" cx="194.29" cy="242.94" r="25.95" transform="translate(-114.88 208.54) rotate(-45)"/>
      <rect class="cls-5" x="161.37" y="282.63" width="94.97" height="29.61" rx="4.67" ry="4.67"/>
      <rect class="cls-5" x="161.37" y="321.83" width="94.97" height="29.61" rx="4.67" ry="4.67"/>
      <rect class="cls-5" x="161.37" y="360.14" width="94.97" height="29.61" rx="4.67" ry="4.67"/>
      <rect class="cls-5" x="267.09" y="215.52" width="235.34" height="194.95"/>
    </g>
  </g>
  <g id="Shadow_2" data-name="Shadow 2">
    <g class="cls-8">
      <path d="M200.1,127.05H474.53c4.43,0,8.02,3.59,8.02,8.02V398.39c0,4.43-3.59,8.02-8.02,8.02H200.1c-4.43,0-8.02-3.59-8.02-8.02V135.07c0-4.43,3.59-8.02,8.02-8.02Z"/>
    </g>
  </g>
  <g id="Screen">
    <g>
      <g>
        <g>
          <rect class="cls-1" x="168.3" y="95.47" width="338.74" height="264.64" rx="7.62" ry="7.62" transform="translate(109.89 565.47) rotate(-90)"/>
          <path class="cls-6" d="M212.83,58.42h250.21c3.84,0,6.96,3.12,6.96,6.96v23.05H205.36v-22.54c0-4.12,3.35-7.47,7.47-7.47Z"/>
          <path class="cls-10" d="M470,66.04s-.02-.26-.05-.77c-.08-.51-.18-1.28-.59-2.21-.41-.92-1.11-2.02-2.29-2.96-1.17-.93-2.87-1.64-4.85-1.62-7.95,.01-19.68,.03-34.78,.05-30.21,.02-73.91,.05-127.91,.08-13.5,0-27.65,.01-42.38,.02-7.37,0-14.89,0-22.55,0-3.83,0-7.7,0-11.6,0-1.95,0-3.91,0-5.88,0-.98,0-1.97,0-2.96,0-1,0-1.97-.03-2.9,.21-1.88,.44-3.57,1.66-4.58,3.32-.51,.83-.86,1.76-1.01,2.72-.15,.95-.08,1.97-.1,2.98,0,4.04,0,8.11,0,12.21,0,8.2,0,16.54,0,24.99,0,16.91,0,34.32,.01,52.17,0,71.4,.01,149.9,.02,232.29,0,1.25,.32,2.48,.91,3.58,.62,1.07,1.47,2.03,2.53,2.67,1.05,.66,2.26,1.06,3.5,1.11,1.25,.04,2.55,.01,3.83,.02,5.12,0,10.22,0,15.31,0,10.17,0,20.28,0,30.32,0,20.07,0,39.84,0,59.27,0,38.86,0,76.34,.01,112.04,.02,8.93,0,17.74,0,26.44,0,1.08-.01,2.19,.03,3.24-.03,1.05-.08,2.07-.39,2.98-.91,1.83-1.03,3.18-2.85,3.61-4.89,.24-1.01,.15-2.08,.17-3.15,0-1.07,0-2.14,0-3.2,0-2.13,0-4.25,0-6.37,0-16.91,0-33.33,.01-49.21,.01-31.75,.02-61.33,.03-88.33,.03-54,.06-97.7,.08-127.9,.02-15.1,.04-26.82,.05-34.77,.01-3.97,.02-7,.03-9.04,0-2.04,.03-3.08,.03-3.08,0,0,.02,1.04,.03,3.08,0,2.04,.01,5.07,.03,9.04,.01,7.95,.03,19.68,.05,34.77,.02,30.2,.05,73.9,.08,127.9,0,27,.02,56.58,.03,88.33,0,15.88,0,32.3,.01,49.21,0,2.11,0,4.24,0,6.37,0,1.06,0,2.13,0,3.2-.02,1.05,.08,2.15-.18,3.25-.46,2.17-1.89,4.1-3.83,5.2-.97,.55-2.06,.88-3.17,.97-1.12,.07-2.18,.02-3.27,.03-8.7,0-17.51,0-26.44,0-35.71,0-73.19,0-112.04,.02-19.43,0-39.2,0-59.27,0-10.03,0-20.14,0-30.32,0-5.09,0-10.19,0-15.31,0-1.29,0-2.55,.02-3.86-.02-1.33-.06-2.63-.48-3.75-1.19-1.14-.69-2.05-1.71-2.71-2.86-.64-1.17-.97-2.5-.98-3.83,0-82.39,.01-160.89,.02-232.29,0-17.85,0-35.26,.01-52.17,0-8.46,0-16.79,0-24.99,0-4.1,0-8.17,0-12.21,.02-1.01-.05-2.01,.11-3.05,.16-1.02,.53-2.01,1.07-2.88,1.08-1.76,2.86-3.05,4.85-3.51,1-.25,2.03-.22,3-.22,.99,0,1.97,0,2.96,0,1.97,0,3.93,0,5.88,0,3.9,0,7.77,0,11.6,0,7.66,0,15.18,0,22.55,0,14.74,0,28.88,.01,42.38,.02,54,.04,97.7,.06,127.91,.08,15.1,.02,26.82,.04,34.78,.05,2.01-.02,3.73,.71,4.9,1.66,1.19,.95,1.89,2.07,2.29,3,.4,.95,.49,1.72,.56,2.23,.02,.52,.03,.78,.03,.78Z"/>
        </g>
        <g>
          <path class="cls-10" d="M299.59,113.42l1.33-3.02c1.16,.68,2.7,1.12,4.06,1.12,1.18,0,1.6-.25,1.6-.67,0-1.55-6.8-.3-6.8-4.88,0-2.28,1.91-4.15,5.73-4.15,1.65,0,3.35,.35,4.64,1.07l-1.25,3c-1.21-.61-2.35-.91-3.42-.91-1.21,0-1.6,.35-1.6,.77,0,1.48,6.8,.25,6.8,4.78,0,2.25-1.91,4.14-5.73,4.14-2.05,0-4.13-.51-5.36-1.26Z"/>
          <path class="cls-10" d="M311.8,108.87v-6.76h4.15v6.64c0,1.88,.72,2.58,1.88,2.58s1.88-.7,1.88-2.58v-6.64h4.07v6.76c0,3.69-2.21,5.81-5.99,5.81s-5.99-2.12-5.99-5.81Z"/>
          <path class="cls-10" d="M330.95,111.31h-1.12v3.09h-4.14v-12.29h5.92c3.42,0,5.6,1.79,5.6,4.64,0,1.77-.84,3.11-2.32,3.86l2.58,3.79h-4.43l-2.09-3.09Zm.39-6.01h-1.51v2.88h1.51c1.14,0,1.69-.54,1.69-1.44s-.54-1.44-1.69-1.44Z"/>
          <path class="cls-10" d="M351.9,102.11l-5.2,12.29h-4.07l-5.2-12.29h4.46l2.93,7.18,3-7.18h4.07Z"/>
          <path class="cls-10" d="M362.53,111.28v3.13h-10.22v-12.29h9.99v3.13h-5.92v1.44h5.2v2.99h-5.2v1.62h6.15Z"/>
          <path class="cls-10" d="M371.35,109.94v4.46h-4.15v-4.51l-4.64-7.78h4.37l2.51,4.25,2.53-4.25h4l-4.64,7.83Z"/>
        </g>
        <g>
          <rect class="cls-6" x="250.02" y="184.21" width="32.48" height="32.48" rx="3.86" ry="3.86"/>
          <polygon class="cls-1" points="265.8 208.19 256.7 201.16 259.15 197.98 265.25 202.7 273.93 192.71 276.96 195.35 265.8 208.19"/>
        </g>
        <rect class="cls-5" x="299.83" y="145.94" width="115.73" height="7.74"/>
        <rect class="cls-5" x="250.02" y="133.57" width="32.48" height="32.48" rx="3.86" ry="3.86"/>
        <rect class="cls-6" x="299.83" y="198.31" width="92.65" height="7.74"/>
        <rect class="cls-5" x="250.02" y="237.09" width="32.48" height="32.48" rx="3.86" ry="3.86"/>
        <rect class="cls-5" x="299.83" y="250.68" width="102.47" height="7.74"/>
        <rect class="cls-5" x="250.02" y="289.45" width="32.48" height="32.48" rx="3.86" ry="3.86"/>
        <rect class="cls-5" x="250.02" y="338.94" width="32.48" height="32.48" rx="3.86" ry="3.86"/>
        <rect class="cls-5" x="299.83" y="303.05" width="62.43" height="7.74"/>
        <rect class="cls-5" x="299.83" y="351.97" width="115.73" height="7.74"/>
      </g>
      <path class="cls-1" d="M225.39,72.62c0,2.63-2.13,4.76-4.76,4.76s-4.76-2.13-4.76-4.76,2.13-4.76,4.76-4.76,4.76,2.13,4.76,4.76Z"/>
      <path class="cls-1" d="M238.25,72.62c0,2.63-2.13,4.76-4.76,4.76s-4.76-2.13-4.76-4.76,2.13-4.76,4.76-4.76,4.76,2.13,4.76,4.76Z"/>
      <path class="cls-1" d="M251.11,72.62c0,2.63-2.13,4.76-4.76,4.76s-4.76-2.13-4.76-4.76,2.13-4.76,4.76-4.76,4.76,2.13,4.76,4.76Z"/>
    </g>
  </g>
  <g id="Shadow_1" data-name="Shadow 1">
    <g class="cls-8">
      <rect x="349.03" y="265.83" width="177.86" height="54.74" rx="3.86" ry="3.86"/>
    </g>
  </g>
  <g id="Stars">
    <g>
      <g>
        <rect class="cls-1" x="342.33" y="256.35" width="177.86" height="54.74" rx="3.86" ry="3.86"/>
        <path class="cls-10" d="M516.34,311.09s.41,.02,1.16-.21c.71-.23,1.85-.87,2.4-2.3,.3-.7,.23-1.57,.24-2.51,0-.94,0-1.97-.01-3.09,0-2.23-.02-4.81-.02-7.71-.01-5.8-.03-12.9-.04-21.14,0-4.12-.01-8.53-.02-13.2,0-.59,.02-1.16-.14-1.71-.15-.55-.43-1.06-.82-1.48-.77-.88-1.95-1.3-3.16-1.21-2.47,0-5,0-7.59,0-41.5,.02-98.82,.05-162.12,.08-.93,0-1.84,.36-2.5,1.01-.67,.64-1.07,1.53-1.1,2.45,0,1.96,0,3.92,0,5.87,0,3.91,0,7.79,0,11.65,0,7.71,0,15.31,0,22.77,0,1.87,0,3.72,0,5.57,.02,.94-.1,1.85,.26,2.64,.32,.8,.93,1.47,1.69,1.87,.38,.2,.79,.33,1.22,.38,.41,.04,.88,.02,1.34,.03,.91,0,1.82,0,2.73,0,1.81,0,3.62,0,5.41,0,7.18,0,14.21,0,21.07,0,27.43,.02,52.14,.04,72.89,.06,20.74,.03,37.53,.06,49.14,.08,5.79,.02,10.29,.04,13.36,.05,1.52,.01,2.68,.02,3.47,.03,.78,0,1.18,.03,1.18,.03,0,0-.4,.02-1.18,.03-.79,0-1.95,.01-3.47,.03-3.06,.01-7.57,.03-13.36,.05-11.61,.02-28.4,.05-49.14,.08-20.75,.02-45.45,.03-72.89,.06-6.86,0-13.89,0-21.07,0-1.8,0-3.6,0-5.41,0-.91,0-1.82,0-2.73,0-.46,0-.9,.02-1.4-.03-.48-.05-.96-.2-1.39-.43-.87-.45-1.57-1.21-1.93-2.13-.18-.45-.28-.94-.29-1.44v-1.39c0-1.85,0-3.71,0-5.57,0-7.46,0-15.06,0-22.77,0-3.85,0-7.74,0-11.65,0-1.96,0-3.92,0-5.89,.03-1.05,.49-2.08,1.26-2.81,.76-.73,1.81-1.16,2.86-1.15,63.31,.03,120.62,.06,162.12,.08,2.59,0,5.12,0,7.59,0,1.25-.09,2.59,.38,3.41,1.34,.42,.46,.73,1.02,.89,1.62,.17,.6,.15,1.22,.15,1.8,0,4.67-.01,9.08-.02,13.2-.02,8.24-.03,15.34-.04,21.14,0,2.9-.02,5.48-.02,7.71,0,1.12,0,2.15-.01,3.09-.01,.93,.05,1.82-.27,2.55-.58,1.47-1.75,2.1-2.48,2.32-.76,.21-1.17,.16-1.17,.16Z"/>
      </g>
      <g>
        <path class="cls-6" d="M429.52,272.36l-2.51,5.09c-.28,.57-.83,.97-1.46,1.06l-5.61,.82c-1.59,.23-2.22,2.18-1.07,3.31l4.06,3.96c.46,.45,.67,1.09,.56,1.72l-.96,5.59c-.27,1.58,1.39,2.79,2.81,2.04l5.02-2.64c.56-.3,1.24-.3,1.8,0l5.02,2.64c1.42,.75,3.08-.46,2.81-2.04l-.96-5.59c-.11-.63,.1-1.27,.56-1.72l4.06-3.96c1.15-1.12,.52-3.07-1.07-3.31l-5.61-.82c-.63-.09-1.18-.49-1.46-1.06l-2.51-5.09c-.71-1.44-2.77-1.44-3.48,0Z"/>
        <path class="cls-6" d="M461.85,272.36l-2.51,5.09c-.28,.57-.83,.97-1.46,1.06l-5.61,.82c-1.59,.23-2.22,2.18-1.07,3.31l4.06,3.96c.46,.45,.67,1.09,.56,1.72l-.96,5.59c-.27,1.58,1.39,2.79,2.81,2.04l5.02-2.64c.56-.3,1.24-.3,1.8,0l5.02,2.64c1.42,.75,3.08-.46,2.81-2.04l-.96-5.59c-.11-.63,.1-1.27,.56-1.72l4.06-3.96c1.15-1.12,.52-3.07-1.07-3.31l-5.61-.82c-.63-.09-1.18-.49-1.46-1.06l-2.51-5.09c-.71-1.44-2.77-1.44-3.48,0Z"/>
        <path class="cls-5" d="M494.18,272.36l-2.51,5.09c-.28,.57-.83,.97-1.46,1.06l-5.61,.82c-1.59,.23-2.22,2.18-1.07,3.31l4.06,3.96c.46,.45,.67,1.09,.56,1.72l-.96,5.59c-.27,1.58,1.39,2.79,2.81,2.04l5.02-2.64c.56-.3,1.24-.3,1.8,0l5.02,2.64c1.42,.75,3.08-.46,2.81-2.04l-.96-5.59c-.11-.63,.1-1.27,.56-1.72l4.06-3.96c1.15-1.12,.52-3.07-1.07-3.31l-5.61-.82c-.63-.09-1.18-.49-1.46-1.06l-2.51-5.09c-.71-1.44-2.77-1.44-3.48,0Z"/>
        <path class="cls-6" d="M397.19,272.36l-2.51,5.09c-.28,.57-.83,.97-1.46,1.06l-5.61,.82c-1.59,.23-2.22,2.18-1.07,3.31l4.06,3.96c.46,.45,.67,1.09,.56,1.72l-.96,5.59c-.27,1.58,1.39,2.79,2.81,2.04l5.02-2.64c.56-.3,1.24-.3,1.8,0l5.02,2.64c1.42,.75,3.08-.46,2.81-2.04l-.96-5.59c-.11-.63,.1-1.27,.56-1.72l4.06-3.96c1.15-1.12,.52-3.07-1.07-3.31l-5.61-.82c-.63-.09-1.18-.49-1.46-1.06l-2.51-5.09c-.71-1.44-2.77-1.44-3.48,0Z"/>
        <path class="cls-6" d="M364.87,272.36l-2.51,5.09c-.28,.57-.83,.97-1.46,1.06l-5.61,.82c-1.59,.23-2.22,2.18-1.07,3.31l4.06,3.96c.46,.45,.67,1.09,.56,1.72l-.96,5.59c-.27,1.58,1.39,2.79,2.81,2.04l5.02-2.64c.56-.3,1.24-.3,1.8,0l5.02,2.64c1.42,.75,3.08-.46,2.81-2.04l-.96-5.59c-.11-.63,.1-1.27,.56-1.72l4.06-3.96c1.15-1.12,.52-3.07-1.07-3.31l-5.61-.82c-.63-.09-1.18-.49-1.46-1.06l-2.51-5.09c-.71-1.44-2.77-1.44-3.48,0Z"/>
      </g>
    </g>
  </g>
  <g id="Speech_Bubble" data-name="Speech Bubble">
    <g>
      <g>
        <path class="cls-1" d="M144.52,251.05H28.37c-10.13,0-18.34,8.21-18.34,18.34v43.56c0,10.13,8.21,18.34,18.34,18.34H95.43c3.04,6.57,8.73,11.85,15.16,15.33,5.26,2.84,10.99,4.64,16.83,6,2.29,.53,4.01-2.07,2.57-3.94-3.9-5.07-6.58-11.1-7.8-17.39h22.32c10.13,0,18.34-8.21,18.34-18.34v-43.56c0-10.13-8.21-18.34-18.34-18.34Z"/>
        <path class="cls-10" d="M144.52,251.05s.19,0,.58,.01c.38,.03,.96,0,1.7,.11,1.49,.16,3.73,.62,6.33,1.95,2.56,1.35,5.49,3.71,7.57,7.43,1.01,1.86,1.79,4.04,2.1,6.45,.16,1.2,.18,2.46,.18,3.74,0,1.28,0,2.6,0,3.95,0,10.83,.07,23.95,.02,39-.04,1.9-.43,3.82-1.11,5.65-.68,1.83-1.62,3.62-2.9,5.18-2.52,3.12-6.14,5.59-10.32,6.51-2.08,.49-4.26,.51-6.4,.49-2.16,0-4.34,0-6.55,0-4.41,0-8.93,0-13.54,0l.22-.27c.95,4.85,2.79,9.68,5.54,14.09,.69,1.1,1.44,2.17,2.23,3.22,.43,.57,.65,1.33,.52,2.06-.13,.72-.53,1.39-1.13,1.81-.59,.44-1.38,.59-2.09,.46-.68-.14-1.32-.31-1.98-.47-1.31-.33-2.63-.69-3.94-1.08-5.23-1.57-10.47-3.71-15.14-6.98-4.64-3.25-8.76-7.6-11.24-12.95l.23,.15c-15.44,0-31.44,0-47.82,0-4.08,0-8.14,0-12.17,0-2.02,0-4.03,0-6.03,0-1,.02-2.02-.04-3.02-.11l-1.5-.23c-.5-.07-.98-.24-1.47-.35-1.94-.54-3.79-1.39-5.45-2.5-1.65-1.14-3.11-2.53-4.32-4.09-1.22-1.56-2.18-3.33-2.81-5.19-.63-1.86-1.03-3.81-1.03-5.76,0-15.4,.01-30.26,.02-44.42,0-1.8,.39-3.56,.89-5.25,.54-1.69,1.36-3.26,2.31-4.72,1-1.43,2.18-2.72,3.49-3.83,1.35-1.07,2.79-2.01,4.35-2.68,1.56-.65,3.18-1.18,4.84-1.38,1.66-.26,3.32-.21,4.94-.21,3.25,0,6.45,0,9.6,0,12.58,.01,24.31,.02,35.01,.03,21.4,.03,38.71,.06,50.69,.08,5.98,.02,10.62,.04,13.78,.05,1.57,.01,2.77,.02,3.58,.03,.81,0,1.22,.03,1.22,.03,0,0-.41,.02-1.22,.03-.82,0-2.02,.01-3.58,.03-3.16,.01-7.8,.03-13.78,.05-11.98,.02-29.29,.05-50.69,.08-10.7,0-22.42,.02-35.01,.03-3.15,0-6.35,0-9.6,0-1.63,0-3.26-.04-4.87,.21-1.62,.19-3.2,.71-4.72,1.35-1.52,.66-2.92,1.58-4.24,2.62-1.28,1.09-2.42,2.35-3.4,3.74-.93,1.43-1.72,2.96-2.25,4.6-.49,1.65-.86,3.36-.86,5.11,0,14.15,0,29,0,44.39,0,1.9,.4,3.79,1.01,5.6,.61,1.81,1.54,3.53,2.73,5.05,1.18,1.53,2.6,2.88,4.2,3.98,1.62,1.08,3.42,1.9,5.3,2.43,.48,.11,.94,.27,1.43,.34l1.46,.22c.98,.06,1.96,.12,2.97,.11,2,0,4.01,0,6.03,0,4.03,0,8.09,0,12.17,0,16.39,0,32.38,0,47.82,0h.16l.07,.15c2.44,5.25,6.49,9.54,11.07,12.75,4.61,3.23,9.8,5.36,14.99,6.92,1.3,.39,2.61,.75,3.91,1.07,.65,.16,1.32,.33,1.95,.46,.6,.11,1.24,0,1.72-.37,.5-.35,.83-.9,.94-1.49,.1-.59-.07-1.21-.43-1.69-.8-1.06-1.56-2.14-2.25-3.26-2.78-4.46-4.64-9.34-5.59-14.25l-.05-.27h.28c4.61,0,9.12,0,13.54,0,2.21,0,4.39,0,6.55,0,2.16,.02,4.27,0,6.31-.47,4.08-.88,7.63-3.29,10.1-6.35,1.26-1.52,2.18-3.27,2.85-5.06,.67-1.79,1.05-3.67,1.1-5.53,.03-15.03,.06-28.16,.09-38.98-.03-2.7,.12-5.28-.16-7.66-.3-2.38-1.05-4.54-2.04-6.38-2.04-3.68-4.92-6.04-7.46-7.4-2.58-1.34-4.79-1.83-6.27-2.01-.74-.12-1.32-.1-1.7-.14-.38-.03-.58-.05-.58-.05Z"/>
      </g>
      <circle class="cls-6" cx="36.38" cy="289.45" r="10.79" transform="translate(-194.01 110.5) rotate(-45)"/>
      <rect class="cls-5" x="54.67" y="278.74" width="85.35" height="5.02"/>
      <rect class="cls-5" x="54.67" y="290.72" width="85.35" height="5.02"/>
      <rect class="cls-5" x="54.67" y="302.71" width="34.44" height="5.02"/>
    </g>
  </g>
  <g id="Character">
    <g>
      <g>
        <path class="cls-10" d="M563.47,432.62l.94,17.2s-17.16,6.73-17.3,9.93l33.41-.63-.37-26.85-16.68,.36Z"/>
        <path class="cls-3" d="M580.52,459.11l-.04-2.6-32.08,1.51s-1.47,.68-1.29,1.72l33.41-.63Z"/>
        <path class="cls-1" d="M563.87,449.65c0,.16,.83,.22,1.64,.73,.83,.49,1.25,1.19,1.4,1.12,.15-.03-.11-1.01-1.11-1.6-.99-.61-1.97-.39-1.93-.25Z"/>
        <path class="cls-1" d="M560.39,451.17c-.03,.16,.68,.42,1.24,1.1,.59,.66,.74,1.41,.9,1.4,.15,.02,.25-.93-.47-1.77-.71-.84-1.67-.89-1.68-.73Z"/>
        <path class="cls-1" d="M558.48,455.4c.15,.03,.36-.79-.08-1.67-.43-.89-1.21-1.23-1.27-1.09-.09,.14,.41,.61,.76,1.34,.36,.72,.42,1.41,.59,1.42Z"/>
      </g>
      <g>
        <path class="cls-10" d="M626.88,430.52l5.61,20.07,9.02,14.59c.65,1.05,.27,2.43-.82,3.01h0c-.61,.32-1.34,.33-1.95,.02-3.93-1.99-18.35-9.38-18.68-10.88-.38-1.73-7.33-20.77-7.33-20.77l14.15-6.04Z"/>
        <path class="cls-3" d="M640.69,468.19l-21.04-12.2,.26,.84c.22,.73,.69,1.36,1.34,1.77,1.72,1.1,6.53,4.04,17.44,9.62,.63,.32,1.39,.31,2.01-.04h0Z"/>
        <path class="cls-1" d="M633.48,460.87c.13,.02,.26-1.16,1.28-2.08,.99-.95,2.17-1.01,2.16-1.14,0-.05-.3-.13-.78-.06-.48,.07-1.14,.34-1.69,.86-.55,.52-.86,1.15-.97,1.63-.11,.48-.05,.78,0,.79Z"/>
        <path class="cls-1" d="M635.72,463.1c.12,.06,.56-.79,1.5-1.39,.93-.63,1.88-.71,1.87-.84,.03-.12-1.06-.25-2.12,.46-1.07,.7-1.37,1.75-1.25,1.78Z"/>
        <path class="cls-1" d="M629.8,458.25c.12,.07,.8-1.23,2.18-2.31,1.36-1.1,2.78-1.46,2.75-1.59,0-.12-1.57,.06-3.03,1.23-1.48,1.16-2.01,2.64-1.89,2.67Z"/>
        <path class="cls-1" d="M627.58,452.29c.09,.1,1.05-.69,2.47-1.18,1.41-.51,2.66-.49,2.66-.63,.03-.11-1.3-.35-2.81,.19-1.52,.53-2.41,1.54-2.32,1.61Z"/>
        <path class="cls-1" d="M625.76,447.61c.1,.1,1-.91,2.54-1.3,1.53-.43,2.81,0,2.84-.14,.02-.05-.27-.24-.81-.36-.54-.13-1.32-.16-2.15,.06-.82,.22-1.49,.64-1.89,1.02-.41,.38-.57,.68-.53,.72Z"/>
      </g>
      <g>
        <path class="cls-10" d="M622.71,181.68c.11-2-1.74-3.89-3.74-3.83,1.93-1.65,1.81-5.12-.23-6.64-2.04-1.51-5.4-.62-6.42,1.71-.92-3.78-5.12-6.42-8.92-5.63-3.81,.8-6.59,4.9-5.92,8.73l.04,18.52c.41,1.68,1.76,3.1,3.42,3.58s3.56,0,4.8-1.2c1.4,1.33,3.72,1.56,5.35,.53,1.63-1.03,2.43-3.21,1.84-5.05,.69,1.36,2.64,1.72,3.97,.99,1.34-.73,2.07-2.27,2.22-3.79,.15-1.52-.19-3.03-.54-4.52,1.99,.27,4.02-1.41,4.12-3.42Z"/>
        <path class="cls-10" d="M605.84,185.91c-2.43-6.16-6.9-10.69-13.18-12.82-3.54-1.2-5.25-.93-8.04-1.06-2.79-.13-5.54,.5-7.77,2.18-2.64,2-5.1,4.39-6.44,7.42-1.38,3.11-2.78,6.24-3.57,9.54-.79,3.31-.96,6.84,.11,10.07l7.77,4.06c4.49,1.61,9.05,3.23,13.81,3.61,4.76,.38,9.82-.62,13.43-3.74,5.02-4.33,6.32-13.11,3.89-19.27Z"/>
        <path class="cls-4" d="M598.54,183.52l-9.57-7.87-2.97-.58c-6.45-2.04-13.17,3.64-14.89,8.84-1.9,5.78-4,12.91-4.45,17.48-.9,9.18,6.21,12.25,6.21,12.25l-1.78,8.56,6.88,7.49,9.7-7.21,12.83-35.08c.45-1.6-.4-3.28-1.96-3.87Z"/>
        <path class="cls-7" d="M580.2,203.5c.09-.47-.04-.95-.27-1.33-.47-.76-1.39-1.11-2.23-.86-.84,.25-1.54,1.1-1.7,2.05h0c.22,.65,.69,1.2,1.33,1.47,.1,.04,.2,.08,.3,.11,.5,.15,1.06,.14,1.55-.1,.5-.24,.91-.75,1.02-1.33Z"/>
        <path class="cls-10" d="M572.78,192.73c-.18,.59,.18,1.23,.79,1.43,.61,.2,1.26-.12,1.43-.72,.18-.59-.18-1.23-.79-1.43-.62-.2-1.26,.12-1.43,.72Z"/>
        <path class="cls-10" d="M572.15,187.43c.1,.18,1.12-.23,2.34,.09,1.22,.3,1.95,1.16,2.12,1.05,.08-.05,0-.35-.31-.74-.31-.38-.89-.83-1.65-1.02-.76-.19-1.47-.08-1.91,.11-.45,.19-.65,.42-.59,.51Z"/>
        <path class="cls-10" d="M576.83,199.27c.02-.07-.7-.4-1.88-.87-.3-.11-.58-.25-.58-.48-.01-.24,.2-.54,.45-.87,.49-.68,1-1.38,1.54-2.13,2.16-3.04,3.8-5.56,3.68-5.65-.12-.09-1.97,2.31-4.13,5.34-.52,.75-1.02,1.47-1.5,2.15-.21,.32-.52,.67-.48,1.18,.02,.25,.21,.48,.39,.59,.18,.11,.36,.16,.51,.21,1.22,.39,1.98,.59,2,.53Z"/>
        <path class="cls-7" d="M572.86,213.62s5.84,1.93,12.64-.07c0,0-4.55,5.82-13.17,2.69l.53-2.62Z"/>
        <path class="cls-10" d="M580.2,201.05c-.19-.06-.54,1.26-1.92,1.9-1.37,.65-2.74,.13-2.8,.31-.04,.08,.25,.34,.84,.51,.58,.17,1.48,.21,2.32-.19,.84-.39,1.34-1.08,1.52-1.61,.19-.54,.13-.9,.04-.92Z"/>
        <path class="cls-10" d="M573.9,183.38c.13,.35,1.11,.4,2.18,.77,1.08,.34,1.89,.9,2.2,.69,.14-.1,.1-.42-.2-.82-.29-.39-.87-.84-1.6-1.08-.74-.24-1.46-.23-1.93-.09-.48,.14-.7,.37-.65,.54Z"/>
        <path class="cls-10" d="M585.6,196.02c-.16,.6-.79,.96-1.42,.8-.63-.15-1.01-.76-.85-1.36,.16-.6,.79-.96,1.42-.8,.63,.15,1.01,.76,.85,1.36Z"/>
        <path class="cls-10" d="M588.49,192.16c-.18,.1-.84-.78-2.05-1.14-1.2-.38-2.27-.02-2.36-.21-.04-.08,.18-.31,.65-.47,.46-.16,1.19-.24,1.94-.01,.75,.23,1.3,.7,1.58,1.09,.28,.4,.33,.7,.24,.74Z"/>
        <path class="cls-10" d="M589,188.09c-.32,.2-1.16-.36-2.28-.71-1.1-.38-2.12-.44-2.25-.79-.05-.17,.18-.4,.67-.53,.49-.14,1.23-.14,1.99,.11,.76,.25,1.35,.7,1.66,1.1,.31,.4,.36,.72,.21,.82Z"/>
        <path class="cls-10" d="M596.59,199.62l-2,1.08c-4.5-8.28-12.19-27.86-11.78-26.71,0,0,5.03-.4,9.59,1.96,4.56,2.36,12.93,7.7,10.97,13.34-1.96,5.64-6.77,10.33-6.77,10.33Z"/>
        <path class="cls-4" d="M594.34,201.47c.17-.66,1.34-2.01,2.01-1.94,1.8,.18,4.89,1.14,3.77,5.54-1.53,6.02-7.26,3.24-7.23,3.07,.03-.14,.85-4.41,1.45-6.67Z"/>
        <path class="cls-7" d="M595.12,206.36s.09,.1,.24,.23c.15,.12,.44,.25,.78,.22,.7-.07,1.49-.95,1.79-2.02,.15-.54,.17-1.1,.09-1.58-.07-.49-.28-.87-.59-1.01-.3-.15-.58-.02-.69,.13-.12,.15-.12,.28-.15,.28-.02,.01-.1-.13,0-.37,.06-.11,.16-.24,.33-.32,.17-.08,.4-.09,.62,0,.46,.15,.77,.68,.86,1.21,.12,.54,.11,1.16-.06,1.77-.35,1.2-1.26,2.18-2.19,2.21-.45,0-.77-.21-.92-.4-.15-.2-.15-.34-.12-.34Z"/>
        <path class="cls-3" d="M605.82,200s.09-.38,.27-1.06c.18-.68,.4-1.67,.57-2.92,.34-2.47,.3-6.03-.93-9.66-1.23-3.63-3.35-6.48-5.12-8.25-.88-.89-1.67-1.55-2.22-1.98-.56-.43-.87-.66-.86-.68,0,0,.09,.04,.25,.13,.16,.1,.4,.24,.68,.45,.58,.4,1.4,1.03,2.31,1.91,1.83,1.74,4.02,4.61,5.27,8.31,1.25,3.69,1.25,7.31,.85,9.8-.2,1.25-.46,2.25-.68,2.92-.1,.34-.21,.59-.27,.77-.07,.17-.11,.26-.12,.26Z"/>
      </g>
      <path class="cls-10" d="M552.32,283.74c-.51,.52-11.11,24.79-10.58,37.64,.54,12.85,8.29,57.59,8.29,57.59l12.39,69.21h17.99s0-44.25-1.61-56.36c-1.61-12.11-3.49-18.79-4.03-27.68-.54-8.9-.69-27.61-1.23-26.87-.54,.74,41.49,108.44,41.49,108.44l17.68-1.17s-6.41-36.97-7.75-43.98c-1.34-7.01-6.71-28.51-10.74-39.39s-5.44-38-11.01-49.67c-5.57-11.67-6.71-22.94-6.71-22.94l-44.19-4.83Z"/>
      <path class="cls-6" d="M612.72,40.31l10.7,29.96c1.2,3.37,4.06,5.98,7.63,6.97l31.75,8.85c8.99,2.51,11.2,13.76,3.74,19.04l-26.35,18.65c-2.96,2.1-4.64,5.47-4.49,9.02l1.38,31.53c.39,8.93-10.08,14.29-17.73,9.07l-26.98-18.43c-3.03-2.07-6.92-2.6-10.4-1.4l-30.9,10.64c-8.75,3.01-17.44-4.93-14.7-13.44l9.67-30.04c1.09-3.38,.36-7.07-1.94-9.88l-20.48-24.96c-5.8-7.07-.69-17.34,8.64-17.37l32.96-.13c3.71-.02,7.15-1.78,9.2-4.71l18.24-26.06c5.17-7.38,17.01-5.79,20.04,2.7Z"/>
      <path class="cls-4" d="M532.88,168.04l2.19-3.71s-5.52-11.5-5.56-12.54c-.03-1.04,5.11-8.18,5.11-8.18l5.93-.94s.47,1.39-.92,1.87c-1.39,.47-3.25,.95-3.25,.95l-1.57,2.5s2.7-.81,3.46-1.01c.76-.2,7.41-.16,7.33,.91-.07,1.07-1.05,2.71-2.41,2.83s-4.83,1.13-4.83,1.13c0,0-1.29,.8-.37,1.26,.93,.46,5.16-.74,5.96,.1,.8,.84-.23,1.81-.97,1.65-.74-.16-4.31,.88-4.31,.88,0,0,4.76,4.48,4.8,6.91s-1.68,9.75-1.68,9.75l-8.92-4.34Z"/>
      <path class="cls-4" d="M626.23,185.17s-1.18-7.67-.76-9.32c.42-1.65,7.28-7.36,6.77-7.33-.51,.02-4.73-2.87-4.62-3.72l.1-.85s-.62-2.12,.18-2.62c.8-.51,3.3,.84,3.3,.84,0,0,2.48-1.23,4.23-.83,1.75,.4,2.77,4.58,2.77,4.58,0,0,2.12-1.04,1.71-2.69-.41-1.65-.91-3.7-.91-3.7,0,0,.95-.75,1.8,.59,.84,1.34,1.67,6.81,1.37,8.54-.3,1.72-7.17,5.37-7.48,6.58s1.46,8.97,1.46,8.97l-9.93,.96Z"/>
      <g>
        <path class="cls-6" d="M593.1,275.02l11.16-52.4-15.1-2.37s-4.64,3.44-10.02,3.44-7.55-5.29-7.55-5.29l-9.77-2.36s-13.62,14.81-15.53,32.84c-.5,4.68,1.54,15.81,2.62,21.21,.41,2.06,.43,4.17,.07,6.23l-3.57,20.26c13.56,12.99,36.71,11.12,52.37-.96,1.62-2.19,.26-6.28-.98-8.71l-3.68-11.88Z"/>
        <path class="cls-6" d="M532.61,167.04s-15.78,30.94-13.25,36.08c4.94,10.04,32.9,32.58,32.9,32.58l12.53-17.15-29.23-19.92,8.31-28.5-11.25-3.1Z"/>
        <path class="cls-6" d="M624.32,183.81l2.2,28.39-28.75,9.32-.95,25.32,37.92-17.53c4.45-1.69,7.09-8.93,6.9-15.77-.34-12.41-5.2-34.1-5.2-34.1l-12.12,4.36Z"/>
        <path class="cls-10" d="M559.88,218.98c.12,.08-1.97,3.68-4.67,8.04-2.7,4.37-4.99,7.85-5.11,7.77-.12-.08,1.97-3.68,4.67-8.04,2.7-4.37,4.99-7.85,5.11-7.77Z"/>
        <path class="cls-10" d="M627.54,217.7c-.13,.06-.72-.95-1.31-2.24-.59-1.29-.97-2.39-.84-2.46,.13-.06,.72,.94,1.31,2.24,.6,1.3,.97,2.4,.84,2.46Z"/>
        <path class="cls-10" d="M600.1,236.31c-.14,.02-.54-2.45-.55-5.52-.02-3.08,.35-5.55,.49-5.53,.15,.01,.01,2.48,.03,5.53,.01,3.04,.18,5.51,.03,5.53Z"/>
      </g>
    </g>
  </g>
</svg>