<?xml version="1.0" encoding="UTF-8"?>
<svg xmlns="http://www.w3.org/2000/svg" viewBox="0 0 750 500">
  <defs>
    <style>
      .cls-1 {
        fill: #ed7c67;
      }

      .cls-1, .cls-2, .cls-3, .cls-4, .cls-5, .cls-6, .cls-7, .cls-8, .cls-9, .cls-10, .cls-11, .cls-12, .cls-13, .cls-14, .cls-15, .cls-16, .cls-17, .cls-18, .cls-19, .cls-20, .cls-21, .cls-22, .cls-23, .cls-24, .cls-25, .cls-26, .cls-27, .cls-28, .cls-29 {
        fill-rule: evenodd;
      }

      .cls-2 {
        fill: #1b7154;
      }

      .cls-30, .cls-8, .cls-16 {
        fill: #fff;
      }

      .cls-3 {
        fill: #efd3d3;
      }

      .cls-4 {
        fill: #b72e2e;
      }

      .cls-5 {
        fill: #5f9850;
      }

      .cls-6, .cls-31 {
        fill: #00000f;
      }

      .cls-7, .cls-32 {
        fill: #101537;
      }

      .cls-33, .cls-22 {
        fill: #e4e1e8;
      }

      .cls-9 {
        fill: #0d1431;
      }

      .cls-10 {
        fill: #f29c94;
      }

      .cls-11, .cls-34 {
        fill: #1e1f31;
      }

      .cls-35 {
        fill: #f8b243;
      }

      .cls-12 {
        fill: #fcc100;
      }

      .cls-13 {
        fill: #d64c47;
      }

      .cls-14 {
        fill: #070725;
      }

      .cls-15 {
        fill: #0e2d34;
      }

      .cls-16 {
        stroke: #1e1f31;
        stroke-miterlimit: 10;
        stroke-width: .57px;
      }

      .cls-17, .cls-36 {
        fill: #f5c890;
      }

      .cls-18, .cls-37, .cls-38 {
        fill: #f1f1f1;
      }

      .cls-19 {
        fill: #db4a46;
      }

      .cls-20 {
        fill: #fcb187;
      }

      .cls-21 {
        fill: #294d3c;
      }

      .cls-39 {
        fill: #1874ba;
      }

      .cls-23 {
        fill: #aeabba;
      }

      .cls-24 {
        fill: #f18a00;
      }

      .cls-37 {
        font-family: OpenSans-Extrabold, 'Open Sans';
        font-size: 41.66px;
        font-weight: 700;
      }

      .cls-25, .cls-40 {
        fill: #3b405f;
      }

      .cls-41 {
        letter-spacing: -.04em;
      }

      .cls-26 {
        fill: #1f223f;
      }

      .cls-27 {
        fill: #a6c86b;
      }

      .cls-42 {
        letter-spacing: .01em;
      }

      .cls-28 {
        fill: #4a9075;
      }

      .cls-29 {
        fill: #f5ac83;
      }
    </style>
  </defs>
  <g id="BACKGROUND">
    <rect class="cls-30" x="125" width="500" height="500"/>
    <rect class="cls-30" width="750" height="500"/>
  </g>
  <g id="OBJECTS">
    <g>
      <path class="cls-18" d="M180.71,335.04h-59.65c-32.1,0-58.37,26.27-58.37,58.37h0c0,32.1,26.27,58.37,58.37,58.37h504.38c51.99,0,94.52-42.53,94.52-94.52h0c0-51.99-42.53-94.52-94.52-94.52h0c-21.98,0-39.96-17.98-39.96-39.96h0c0-21.98,17.98-39.96,39.96-39.96h48.1c22.85,0,41.55-18.7,41.55-41.55h0c0-22.85-18.7-41.55-41.55-41.55h-60.82c-8.9,0-16.17-7.28-16.17-16.18h0c0-8.9,7.28-16.18,16.17-16.18h10.72c6.14,0,11.16-5.02,11.16-11.16h0c0-6.14-5.02-11.16-11.16-11.16h-70.35c-14.82,0-16.47,17.5-53.89,17.5h-86.78c-8.01,0-14.57,6.56-14.57,14.57h0c0,8.01,6.56,14.57,14.57,14.57h13.99c11.61,0,21.11,9.5,21.11,21.11h0c0,11.61-9.5,21.11-21.11,21.11h-42.11c-56.85,0-64.89,14.86-74.84,44.41-9.96,29.55-61.67,31.93-61.67,31.93h-70.71c-17.5,0-31.81,14.31-31.81,31.81h0c0,17.5,14.31,31.81,31.81,31.81h3.64c16.83,0,30.6,13.77,30.6,30.6h0c0,16.83-13.77,30.59-30.6,30.59h0ZM654.78,67.36c-6.17,0-11.16-5-11.16-11.16s5-11.16,11.16-11.16,11.16,5,11.16,11.16-5,11.16-11.16,11.16Z"/>
      <path class="cls-18" d="M487.73,413.27c-.56-7.66-.82-15.09-.79-22.3,.03-7.32,.35-14.39,.96-21.19,2.27-25.45,8.45-47.41,17.66-66.16,9.97-20.3,23.49-36.84,39.45-50.01,14.79-12.2,31.65-21.49,49.71-28.17,19.38-7.17,40.14-11.33,61.2-12.88,7.11-.52,14.27-.74,21.46-.68,7.27,.07,14.53,.43,21.73,1.07h0c.82,.07,1.53,.46,2.02,1.05,.49,.58,.75,1.35,.68,2.16l-.03,.21c-.29,2.81-6.77,62.93-36.06,117.25-29.63,54.95-82.51,103.99-175.7,82.39-.66-.15-1.23-.52-1.63-1.02-.39-.48-.63-1.08-.66-1.72h0Zm210.81-195.61c-3.49,1.36-17.81,7.19-37.93,18.54,7.84,1.4,25.62,4.7,33.6,7.25,2.64-12.77,3.89-22.12,4.33-25.78h0Zm-4.92,28.58h-.03c-9.22-3.02-33.26-7.21-36.84-7.83-10,5.79-21.27,12.88-33.24,21.37l62.38,16.41c3.33-10.97,5.85-21.17,7.73-29.94h0Zm-8.57,32.66l-64.55-16.98c-11.13,8.04-22.82,17.29-34.63,27.84,12.8,3.9,74,22.66,84.37,27.9,6.11-13.21,10.97-26.43,14.81-38.77h0Zm-16.01,41.33c-10.43-5.34-77.99-25.93-85.63-28.25-9.44,8.56-18.93,17.96-28.26,28.23l96.14,30.69c.12,.04,.23,.09,.33,.16,4.13-6.15,7.92-12.48,11.38-18.9,2.13-3.95,4.14-7.94,6.03-11.92h0Zm-19.06,33.23l-96.92-30.94c-7.25,8.11-14.4,16.76-21.33,25.97,15.66,5.29,95.9,30.26,96.15,30.34,.22,.07,.42,.19,.57,.34,8.04-7.87,15.18-16.56,21.53-25.71h0Zm-23.74,27.83c-8.5-2.65-83.6-26.04-96.29-30.41-5.94,8.02-11.71,16.45-17.24,25.31,18.96,9.36,82.68,25.9,82.87,25.95,.38,.1,.69,.34,.87,.66,11.06-5.88,20.95-13.2,29.79-21.52h0Zm-33.03,23.18c-10.21-2.69-64.73-17.23-82.01-25.85-3.53,5.75-6.96,11.68-10.28,17.79,7.27,2.87,39.88,15.38,60.94,17.54,.6,.06,1.07,.48,1.23,1.03,10.87-2.34,20.89-5.92,30.12-10.5h0Zm-36.34,11.69c-21.57-3.37-51.08-14.77-57.29-17.23-2.5,4.7-4.94,9.5-7.29,14.42,24.22,5.43,45.64,5.97,64.58,2.82h0Zm-66.25-5.91c2.19-4.5,4.44-8.9,6.75-13.22-2.91-8.07-5.07-22.04-6.12-29.88-.1,.96-.19,1.92-.28,2.89-.6,6.72-.92,13.69-.95,20.93-.02,6.21,.17,12.63,.6,19.28h0Zm1.5-50.42c.64,.08,1.16,.59,1.24,1.25,0,.07,2.27,20.58,5.87,32.52,3.21-5.85,6.52-11.53,9.92-17.04-1.14-3.91-7.32-25.79-9.4-50.41-3.4,10.4-5.98,21.61-7.63,33.68h0Zm9.25-38.41c.52,.18,.91,.66,.95,1.24,1.54,22.38,6.76,43.06,8.85,50.64,5.37-8.51,10.95-16.62,16.68-24.35-1.67-4.95-11.38-34.42-12.74-56.32-2.41,3.94-4.68,8.05-6.78,12.34-2.57,5.23-4.9,10.71-6.96,16.45h0Zm15.82-32.08c.38,.24,.65,.66,.67,1.15,.76,19.82,9.3,47.25,12.07,55.69,6.84-9.05,13.88-17.55,21.02-25.54-12.77-27.07-14.7-49.12-14.99-54.6-6.91,6.97-13.21,14.73-18.78,23.31h0Zm21.16-25.66c.25,.25,.4,.59,.41,.97,0,.07,.26,23.51,14.26,53.69,9.36-10.3,18.88-19.73,28.34-28.32-5.73-12.9-11.27-45.04-12.01-49.43-7.88,4.49-15.37,9.61-22.38,15.39-2.96,2.45-5.84,5.01-8.62,7.7h0Zm33.56-24.52c.08,.14,.13,.3,.16,.46,.02,.1,5.65,34.34,11.52,48.38,11.95-10.7,23.79-20.08,35.06-28.24-4.15-16.54-4.05-34.47-4-37.37-6.4,1.67-12.7,3.64-18.85,5.92-8.25,3.05-16.24,6.65-23.89,10.83h0Zm45.55-17.47c.03,.12,.04,.25,.04,.38,0,.06-.49,18.59,3.64,35.92,12.18-8.68,23.66-15.92,33.85-21.83-1.26-9.19-.54-18.76-.4-20.4-12.58,1-25.03,2.95-37.13,5.94h0Zm39.98-6.15c0,.07,0,.15,0,.22,0,.03-.9,9.48,.22,18.85,18.51-10.56,32.42-16.59,38.01-18.87-6.07-.47-12.18-.74-18.3-.79-6.61-.06-13.27,.13-19.93,.59Z"/>
      <g>
        <path class="cls-18" d="M302.88,291.9c-2.65-5.79-8.1-14.78-18.98-24.32-18.47-16.19-31.2-36.39-22.56-46.62,8.32-9.86,34.49,13.1,51.43,65.63l-9.85,5.29-.04,.02Z"/>
        <path class="cls-3" d="M265.75,226.2c-.38-.25-.49-.77-.24-1.15,.25-.38,.77-.49,1.16-.24,.03,.02,2.3,1.49,5.83,4.54l-1.86-4.41c-.12-.28,.01-.61,.3-.73,.28-.12,.61,.01,.73,.3l2.76,6.55c1.61,1.47,3.41,3.21,5.32,5.24l-1.32-5.61c-.07-.3,.11-.6,.41-.67,.3-.07,.6,.11,.67,.41l1.76,7.52c1.95,2.15,4,4.57,6.09,7.29l-.96-4.91c-.06-.3,.14-.59,.44-.65,.3-.06,.59,.14,.65,.44l1.4,7.17c2.13,2.9,4.28,6.1,6.38,9.61l-.4-4.78c-.03-.3,.2-.57,.51-.6,.3-.03,.57,.2,.6,.5l.59,7.11c1.91,3.36,3.77,6.99,5.52,10.88l.39-2.82c.04-.3,.32-.52,.63-.47,.3,.04,.52,.32,.47,.63l-.64,4.6c1.29,3.01,2.51,6.17,3.64,9.49l.5-2.8c.05-.3,.34-.5,.65-.45,.3,.05,.5,.34,.45,.65l-.87,4.81c.53,1.65,1.03,3.34,1.51,5.06l-1.51,.81c-.48-1.73-.98-3.42-1.5-5.07-1.2-.68-4.11-2.24-5.67-2.39-.31-.03-.53-.3-.5-.6,.03-.31,.3-.53,.6-.5,1.38,.13,3.57,1.17,5.06,1.96-.43-1.29-.87-2.56-1.32-3.8-1.25-.55-4.38-1.82-6.92-1.97-.31-.02-.54-.28-.52-.59,.02-.31,.28-.54,.59-.52,2.17,.14,4.72,1.02,6.32,1.66-.96-2.53-1.97-4.96-3.02-7.29-1.97-.37-8.24-1.48-11.19-1.16-.3,.03-.58-.19-.61-.49-.03-.3,.19-.58,.49-.61,2.78-.31,8.2,.57,10.75,1.03-1.15-2.47-2.34-4.83-3.55-7.07-1.94-.42-8.31-1.66-13.35-1.2-.31,.03-.58-.2-.6-.5-.03-.31,.2-.58,.5-.6,4.54-.42,10.1,.5,12.75,1.03-.61-1.1-1.23-2.17-1.86-3.21-1.94-.54-8.61-2.2-16.02-1.83-.31,.02-.57-.22-.58-.53-.02-.31,.22-.57,.53-.58,6.49-.32,12.43,.88,15.25,1.58-2.3-3.73-4.65-7.08-6.96-10.08-2.49-.06-12.2-.22-17.08,.67-.3,.06-.59-.14-.65-.45-.06-.3,.14-.59,.45-.65,4.52-.83,12.97-.78,16.4-.71-1.75-2.21-3.46-4.22-5.11-6.03-2.4,.18-11.24,.84-13.38,1.13-.3,.04-.58-.17-.62-.47s.17-.58,.47-.62c1.96-.26,9.37-.84,12.57-1.08-2.17-2.33-4.21-4.3-5.99-5.92-2.25,.31-7.67,1.07-9,1.35-.3,.06-.59-.13-.66-.43-.06-.3,.13-.6,.43-.66,1.19-.25,5.57-.87,8.14-1.23-3.74-3.28-6.17-4.86-6.2-4.87Z"/>
      </g>
      <g>
        <path class="cls-3" d="M328.76,351.24c-7.8-9.32-23.75-24.55-52.82-38.48-45.98-22.03-82.2-53.53-69.61-75.34,12.35-21.41,79.75,11.42,141.76,103.41-7.41,4.8-13.8,8.17-19.33,10.41Z"/>
        <path class="cls-8" d="M336.44,341.58c-1.21,.05-4.4,.35-8.48,1.98-.28,.11-.61-.02-.72-.31-.11-.28,.02-.61,.31-.72,3.57-1.42,6.52-1.87,8.13-2-1.09-1.51-2.18-3-3.26-4.46-1.93,.14-8.14,.59-10.45,.94-.3,.05-.59-.16-.63-.47-.05-.3,.16-.59,.47-.63,2.13-.32,7.39-.72,9.84-.9-2.04-2.73-4.07-5.37-6.09-7.95-1.86,.21-7.61,.91-13.91,2.37-.3,.07-.6-.12-.67-.42-.07-.3,.12-.6,.42-.67,5.71-1.32,10.99-2.03,13.36-2.31-2.04-2.58-4.07-5.08-6.1-7.51-2.55,.28-10.82,1.29-19.87,3.38-.3,.07-.6-.12-.67-.42-.07-.3,.12-.6,.42-.67,8.38-1.93,16.07-2.94,19.26-3.32-2.66-3.17-5.3-6.2-7.91-9.11-2.68,.13-13.76,.88-21.81,4.32-.28,.12-.61,0-.73-.29-.12-.28,0-.61,.29-.73,7.5-3.2,17.54-4.12,21.31-4.36-3.22-3.55-6.39-6.9-9.53-10.08-3.62,.54-18.15,3.02-24.54,8.51-.23,.2-.58,.17-.78-.06-.2-.23-.17-.58,.06-.78,6.21-5.32,19.61-7.88,24.29-8.64-3.33-3.34-6.6-6.48-9.81-9.42-2.6,.85-13.45,4.58-23.41,10.8-.26,.16-.6,.08-.76-.18-.16-.26-.08-.6,.17-.76,9.43-5.89,19.65-9.58,23.06-10.72-1.9-1.73-3.79-3.38-5.64-4.98-2.49,.76-13.08,4.24-26.76,12.51-.26,.16-.6,.07-.76-.19-.16-.26-.08-.6,.19-.76,12.76-7.71,22.89-11.31,26.33-12.41-4.41-3.74-8.68-7.12-12.79-10.15-3.12,1.36-18.87,8.39-26.92,14.63-.24,.19-.59,.14-.78-.1s-.14-.59,.1-.78c7.73-5.99,22.39-12.67,26.56-14.51-2.39-1.75-4.74-3.39-7.01-4.91-2.67,1.19-14.87,6.81-25.75,14.55-.25,.18-.6,.12-.77-.13-.18-.25-.12-.6,.13-.77,10.26-7.3,21.66-12.72,25.3-14.37-5.33-3.52-10.31-6.46-14.88-8.9-2.66,.9-14.66,5.12-23.39,11.33-.25,.18-.6,.12-.77-.13-.18-.25-.12-.6,.13-.77,8.02-5.71,18.74-9.76,22.69-11.14-1.89-.99-3.7-1.89-5.43-2.71-2.18,.43-10.25,2.25-20.44,7.28-.27,.14-.61,.02-.75-.25-.14-.27-.02-.61,.25-.75,8.7-4.3,15.9-6.29,19.27-7.06-13.97-6.42-22.38-7.59-22.45-7.6-.46-.07-.77-.5-.7-.95,.07-.45,.5-.77,.95-.7,.05,0,3.75,.52,10.29,2.72-1.93-2.01-4.65-4.78-5.33-5.12-.27-.13-.39-.47-.25-.74,.13-.28,.47-.39,.74-.25,1.06,.52,5.58,5.27,7.13,6.91,2.66,.96,5.7,2.16,9.08,3.68l-6.48-10.35c-.16-.26-.08-.6,.17-.76,.26-.16,.6-.08,.76,.18l7.37,11.77c2.32,1.08,4.79,2.31,7.4,3.69l-7.09-12.32c-.15-.26-.06-.61,.2-.76,.27-.15,.6-.06,.76,.2l7.99,13.88c3.9,2.13,8.08,4.6,12.51,7.49l-6.35-12.86c-.14-.28-.03-.61,.25-.75,.27-.14,.61-.02,.75,.25l7.19,14.57c2.02,1.35,4.09,2.78,6.21,4.3l-5.45-11.61c-.13-.28-.01-.61,.26-.74,.28-.13,.61-.01,.74,.26l6.31,13.44c3.93,2.88,8,6.07,12.2,9.59l-4.35-11.43c-.11-.29,.03-.61,.32-.72,.29-.11,.61,.03,.72,.32l5.07,13.3c1.67,1.42,3.35,2.9,5.06,4.43l-2.66-8.79c-.09-.29,.08-.6,.37-.69,.29-.09,.6,.08,.69,.37l3.2,10.55c3.17,2.89,6.4,5.97,9.68,9.24l-2.64-9.83c-.08-.3,.1-.6,.39-.68,.3-.08,.6,.1,.68,.39l3.13,11.69c2.88,2.91,5.79,5.99,8.74,9.21l-1.94-8.77c-.07-.3,.12-.6,.42-.66,.3-.07,.6,.12,.66,.42l2.36,10.67c2.57,2.86,5.17,5.84,7.79,8.95l-.8-8c-.03-.31,.19-.58,.5-.61,.3-.03,.58,.19,.61,.5l.97,9.63c1.89,2.27,3.8,4.62,5.71,7.03l.22-6.91c0-.31,.27-.55,.57-.54,.31,0,.55,.27,.54,.57l-.26,8.23c1.76,2.24,3.53,4.54,5.31,6.89l.39-4.49c.03-.31,.3-.53,.6-.5,.31,.03,.53,.3,.51,.6l-.5,5.72c1.33,1.78,2.65,3.59,3.99,5.43l1.49-3.79c.11-.29,.43-.42,.72-.31,.29,.11,.42,.43,.31,.72l-1.75,4.46c1.09,1.51,2.17,3.05,3.26,4.61-.49,.28-.98,.56-1.46,.83-1.04-1.49-2.08-2.96-3.12-4.41Z"/>
      </g>
      <g>
        <path class="cls-3" d="M337.09,457.43c.36-9.38,.14-18.26-.61-26.66-3.81-42.78-21.29-73.31-46.06-93.76-24.74-20.42-56.73-30.74-89.63-33.15-11.66-.85-23.41-.72-34.97,.32-.64,.05-1.11,.62-1.06,1.26,0,.03,0,.07,.01,.1,.26,2.48,11.83,112.49,81.64,151.89h90.68Z"/>
        <path class="cls-8" d="M172.11,310.02c-.56-.21-1.18,.07-1.39,.62-.21,.56,.07,1.18,.62,1.39,.1,.04,11.85,4.4,29.4,14.31-6.01,1.07-19.73,3.62-25.69,5.56-.57,.18-.88,.79-.69,1.36,.18,.57,.79,.88,1.36,.69,7-2.28,25.24-5.46,27.96-5.93,7.59,4.39,16.14,9.77,25.22,16.21l-47.36,12.46c-.58,.15-.92,.74-.77,1.32s.74,.92,1.32,.77l49.09-12.91c8.45,6.1,17.32,13.12,26.28,21.12-9.74,2.97-56.45,17.29-64.1,21.21-.53,.27-.74,.92-.47,1.45,.27,.53,.92,.74,1.45,.47,7.89-4.05,59.19-19.68,64.98-21.44,7.16,6.5,14.36,13.62,21.44,21.42l-72.95,23.29c-.57,.18-.88,.79-.7,1.36,.18,.57,.79,.88,1.36,.7l73.88-23.58c5.5,6.16,10.93,12.72,16.18,19.71-11.88,4.02-72.77,22.96-72.95,23.02-.57,.18-.88,.78-.71,1.35,.18,.57,.78,.88,1.35,.71,.19-.06,63.47-19.75,73.67-23.26,4.5,6.08,8.88,12.48,13.08,19.21-14.38,7.1-62.74,19.66-62.88,19.69-.58,.15-.92,.74-.77,1.32,.15,.58,.74,.92,1.32,.78,.14-.04,49.02-12.72,63.48-19.94,2.68,4.36,5.28,8.86,7.8,13.5-3.65,1.44-15.68,6.07-28.03,9.52h7.56c10.04-3.14,18.76-6.52,21.5-7.61,1.33,2.5,2.63,5.03,3.91,7.61h2.41c-1.51-3.07-3.06-6.09-4.64-9.05,3.18-8.83,5.18-26.99,5.19-27.04,.07-.59-.36-1.12-.95-1.19-.59-.07-1.12,.36-1.19,.95,0,.05-1.72,15.62-4.46,24.67-2.43-4.44-4.94-8.75-7.53-12.93,.91-3.1,5.98-21.07,7.32-40.74,.04-.59-.4-1.11-1-1.15-.59-.04-1.11,.4-1.15,1-1.16,16.98-5.13,32.67-6.72,38.43-4.07-6.46-8.31-12.61-12.66-18.48,1.31-3.87,9.1-27.53,9.74-44.27,.02-.6-.44-1.1-1.04-1.12-.6-.02-1.1,.44-1.12,1.04-.58,15.04-7.06,35.86-9.16,42.25-5.19-6.86-10.53-13.32-15.95-19.38,11.2-23.73,11.41-42.38,11.41-42.43,.01-.6-.46-1.09-1.06-1.1-.6-.01-1.09,.46-1.1,1.06,0,.05-.2,17.84-10.82,40.74-7.1-7.82-14.32-14.97-21.5-21.49,4.67-10.5,9.16-37.81,9.17-37.89,.1-.59-.3-1.14-.89-1.24-.59-.1-1.14,.3-1.24,.89-.01,.08-4.29,26.05-8.74,36.71-9.07-8.12-18.05-15.24-26.6-21.42,3.43-13.68,3.03-28.62,3.03-28.66-.01-.59-.51-1.07-1.1-1.05-.6,.01-1.07,.51-1.05,1.1,0,.04,.37,14.1-2.76,27.25-9.24-6.59-17.95-12.08-25.68-16.57,1.05-7.65,.29-15.65,.29-15.67-.05-.59-.58-1.03-1.17-.97-.59,.05-1.03,.58-.97,1.17,0,.02,.68,7.19-.16,14.31-18.39-10.49-30.78-15.09-30.89-15.12Z"/>
      </g>
      <g>
        <path class="cls-15" d="M355.5,271.26c-15.15-10.4-35.22-27.9-50.18-54.58-21.21-37.81,42.33,1.59,88.37,45.75l-30,8.83h-8.19Z"/>
        <g>
          <path class="cls-2" d="M294.2,359.41c9.86,13.27,36.83,40.97,62.62,69.97l30.56,18.44,9.87-18.95c-16.59-40.84-40.7-83.9-64.1-107.76-41.05-41.87-73.55-8.25-38.96,38.3Z"/>
          <path class="cls-15" d="M387.87,446.88c-27.31-66.71-90.13-127.72-90.36-127.94-.45-.44-1.14-.4-1.55,.08-.41,.48-.37,1.23,.07,1.67,.23,.22,62.04,60.26,89.36,125.93l1.99,1.2,.49-.94Z"/>
        </g>
        <path class="cls-15" d="M343.85,458.05c-17.33-11.9-40.29-31.92-57.42-62.45-24.27-43.27,48.43,1.82,101.12,52.34l-34.32,10.11h-9.37Z"/>
        <g>
          <path class="cls-27" d="M357.15,138.92c6.1,16.18,15.36,54.28,26.29,93.68-4.71,16.13-14.85,30-28.29,39.48-24.45-37.02-45.98-79.65-53.88-113.27-15.47-65.81,32.66-81.49,55.88-19.88Z"/>
          <path class="cls-5" d="M369.29,259.05c-34.46-62.51-50.48-138.43-50.55-138.75-.15-.71,.26-1.42,.92-1.58,.66-.16,1.31,.28,1.47,.99,.07,.31,15.91,75.36,49.83,137.27-.54,.7-1.1,1.39-1.67,2.07Z"/>
        </g>
        <g>
          <path class="cls-27" d="M378.49,450.78c-2.47-9.02-6.33-19.75-12.31-29.72-14-23.32-37.81-24.52-43.2-17.74-3.87,4.87-9.05,24.96-.99,48.46h45.56c3.73,0,7.39-.35,10.94-1Z"/>
          <path class="cls-5" d="M365.33,451.78c-.91-1.57-1.85-3.16-2.84-4.76,.23-4.24,.75-16.16-.16-22.62-.06-.46-.37-.76-.68-.66-.31,.1-.51,.55-.45,1.01,.79,5.59,.46,15.53,.22,20.56-3.99-6.31-8.61-12.75-13.92-19-.24-12.21-2.11-20.51-2.11-20.54-.1-.45-.43-.69-.73-.55-.3,.15-.47,.63-.37,1.08,0,.02,1.69,7.47,2.03,18.62-5.98-6.87-12.81-13.46-20.58-19.33-.57-.43-1.27-.09-1.56,.75-.29,.84-.06,1.88,.51,2.31,3.78,2.86,7.33,5.89,10.68,9.05-2.37,.36-5.94,1.2-9.26,3.16-.3,.18-.44,.67-.32,1.11,.12,.44,.46,.65,.75,.48,4-2.37,8.38-3.04,10.41-3.24,5.17,5.04,9.81,10.35,13.95,15.73-4.09,1.14-14.03,4.37-23,11.02-.28,.21-.4,.72-.26,1.15,.14,.42,.49,.59,.77,.38,9.58-7.1,20.32-10.25,23.58-11.1,3.86,5.14,7.28,10.33,10.29,15.38h3.05Z"/>
        </g>
      </g>
      <g>
        <path class="cls-24" d="M618.67,222.74c-14.56,2.19-39.85,5.22-42.99,4.13-4.25-1.48-28.21-26.34-30.29-32.79,0,0-.2-.71,.65-.84,.85-.13,3.83,.24,4.76-.85,.93-1.1,1.6-.21,2.26,1.18,.66,1.39,19.79,17.57,24.76,20.79,4.97,3.22,34.3-10.29,38.15-11.46,17.83-5.43,24.24,16.6,2.69,19.84Z"/>
        <path class="cls-31" d="M393.38,78.53h155.34c14.29,0,25.89,11.6,25.89,25.89V425.89c0,14.29-11.6,25.89-25.89,25.89h-155.34c-14.29,0-25.89-11.6-25.89-25.89V104.42c0-14.29,11.6-25.89,25.89-25.89Z"/>
        <path class="cls-31" d="M384.86,78.53h155.34c14.29,0,25.89,11.6,25.89,25.89V425.89c0,14.29-11.6,25.89-25.89,25.89h-155.34c-14.29,0-25.89-11.6-25.89-25.89V104.42c0-14.29,11.6-25.89,25.89-25.89Z"/>
        <rect class="cls-32" x="363.09" y="82.64" width="198.89" height="365.02" rx="21.77" ry="21.77"/>
        <path class="cls-30" d="M384.86,90.87h155.34c7.48,0,13.54,6.07,13.54,13.54V425.89c0,7.48-6.07,13.54-13.54,13.54h-155.34c-7.48,0-13.54-6.07-13.54-13.54V104.42c0-7.47,6.07-13.54,13.54-13.54Z"/>
        <path class="cls-7" d="M462.54,103.22h-46.44c-3.27,0-5.95-2.68-5.95-5.95v-2.28c-.78-2.38-3.03-4.12-5.66-4.12l5.66-2.07v-2.16h104.77v2.16l5.66,2.07c-2.63,0-4.88,1.73-5.66,4.12v2.28c0,3.27-2.68,5.95-5.95,5.95h-46.44Z"/>
        <path class="cls-6" d="M450.83,95.04c-.9,0-1.63-.73-1.63-1.63s.73-1.63,1.63-1.63h30.24c.9,0,1.63,.73,1.63,1.63s-.73,1.63-1.63,1.63h-30.24Zm-5.45-3.27c.9,0,1.63,.73,1.63,1.63s-.73,1.63-1.63,1.63h-1.39c-.9,0-1.63-.73-1.63-1.63s.73-1.63,1.63-1.63h1.39Z"/>
        <g>
          <g>
            <path class="cls-18" d="M534.43,416.31h-10.89c-.53,0-1.01,.22-1.36,.56h0c-.35,.35-.56,.83-.56,1.36v11.13c-.01,.32,.03,.5,.4,.63,.58,.25,.59,.05,.78-.31l.02-.04c.17-.29,.8-1.35,1.78-2.07,.52-.38,1.14-.67,1.83-.67h.84v.71c0,.44,.18,.84,.47,1.12,.29,.29,.69,.47,1.12,.47h5.95c.47,0,.9,.2,1.26,.46,.67,.49,1.11,1.19,1.26,1.45l.03,.06c.18,.36,.33,.51,.8,.31,.37-.16,.39-.31,.37-.61,.08-2.69,0-5.58,0-8.27,0-.44-.18-.83-.47-1.12-.29-.29-.69-.47-1.12-.47h-.6v-2.78c0-.53-.22-1.01-.57-1.36-.35-.35-.83-.57-1.36-.57h0Zm-9.36,6.9h-.65c-.2,0-.37-.17-.37-.37s.16-.37,.37-.37h.65c.21,0,.37,.17,.37,.37s-.17,.37-.37,.37h0Zm1.4-.74h6.02c.2,0,.37,.17,.37,.37s-.17,.37-.37,.37h-6.02c-.2,0-.37-.17-.37-.37s.17-.37,.37-.37h0Zm6.42-2.86h.65c.21,0,.37,.17,.37,.37s-.17,.37-.37,.37h-.65c-.21,0-.37-.17-.37-.37s.17-.37,.37-.37h0Zm-1.4,.74h-7.08c-.2,0-.37-.17-.37-.37s.16-.37,.37-.37h7.08c.2,0,.37,.17,.37,.37s-.17,.37-.37,.37h0Zm-2.99,6.55h5.92c.53,0,1.01-.22,1.36-.56s.57-.83,.57-1.36v-2.73h.6c.1,0,.19,.04,.25,.1,.06,.07,.1,.16,.1,.25v6.5c-.15-.15-.32-.29-.5-.43-.55-.4-1.22-.71-1.99-.71h-5.95c-.1,0-.18-.04-.25-.1-.06-.06-.1-.15-.1-.25v-.71h0Zm-4.96-9.36h10.89c.19,0,.36,.08,.49,.2,.13,.12,.2,.3,.2,.49v6.75c0,.19-.08,.36-.2,.49-.12,.12-.3,.2-.49,.2h-8c-.99,0-1.85,.39-2.56,.91-.39,.29-.73,.61-1.02,.93v-9.28c0-.19,.08-.36,.2-.49,.13-.12,.3-.2,.49-.2Z"/>
            <path class="cls-18" d="M484.26,410.84c-1.24,0-2.36,.5-3.17,1.31-.81,.81-1.31,1.93-1.31,3.17s.5,2.36,1.31,3.17l.04,.03c.81,.79,1.92,1.28,3.13,1.28s2.35-.5,3.17-1.31h0c.81-.82,1.31-1.94,1.31-3.17s-.5-2.36-1.31-3.17c-.81-.81-1.93-1.31-3.17-1.31h0Zm-4.99,16.07v-.02s0-.02,0-.02v-.39c0-1.36,.55-2.59,1.43-3.5l.03-.03c.91-.9,2.15-1.47,3.52-1.47s2.62,.56,3.52,1.47c.9,.9,1.47,2.15,1.47,3.52v3.61c0,.07-.03,.14-.07,.18h0s-.11,.08-.18,.08h-9.46c-.07,0-.14-.03-.18-.08-.05-.05-.08-.11-.08-.18v-3.18h0Zm-1.23-.02v3.2c0,.41,.17,.78,.44,1.05h0c.27,.27,.64,.44,1.05,.44h9.46c.41,0,.78-.17,1.05-.44h0c.27-.28,.44-.65,.44-1.06v-3.2s0-.02,0-.02v-.39c0-1.71-.7-3.27-1.83-4.4-1.13-1.13-2.68-1.83-4.4-1.83s-3.27,.7-4.4,1.83l-.04,.04c-1.11,1.12-1.79,2.67-1.79,4.36v.41h0Zm3.93-13.86c.59-.59,1.4-.95,2.3-.95s1.71,.36,2.3,.95c.59,.59,.95,1.4,.95,2.3s-.36,1.71-.95,2.3h0c-.59,.59-1.4,.95-2.3,.95s-1.68-.35-2.27-.92l-.03-.03c-.59-.59-.95-1.4-.95-2.3s.36-1.71,.95-2.3Z"/>
            <path class="cls-18" d="M436.32,416.95c-.39,.14-.77,.31-1.12,.51-.36,.21-.7,.45-1.01,.72l-1.27-.73-.06-.03c-.21-.1-.45-.12-.66-.07-.23,.06-.45,.21-.58,.44l-1.16,2.01c-.13,.23-.16,.48-.1,.72,.06,.23,.21,.45,.44,.58l1.27,.73c-.02,.12-.04,.25-.06,.38-.04,.29-.06,.57-.06,.85s.02,.57,.06,.85c.02,.13,.04,.25,.06,.38l-1.27,.73c-.23,.13-.38,.34-.44,.58-.06,.23-.04,.49,.1,.72l1.16,2.01c.13,.23,.34,.38,.58,.44,.23,.06,.49,.04,.72-.09l1.27-.73c.31,.27,.65,.51,1.01,.72,.35,.2,.73,.38,1.12,.51v1.46c0,.26,.11,.5,.28,.67,.17,.17,.41,.28,.67,.28h2.32c.26,0,.5-.11,.67-.28l.05-.06c.14-.17,.23-.38,.23-.61v-1.46c.39-.14,.77-.31,1.12-.51,.36-.21,.7-.45,1.01-.72l1.27,.73,.06,.03c.21,.1,.45,.12,.66,.07,.23-.06,.44-.21,.58-.44l1.16-2.01c.13-.23,.16-.49,.1-.72-.06-.23-.21-.44-.44-.58l-1.27-.73c.02-.12,.04-.25,.06-.38,.04-.29,.06-.58,.06-.85s-.02-.57-.06-.86c-.02-.13-.04-.25-.06-.37l1.27-.73c.23-.13,.38-.34,.44-.57,.06-.23,.04-.49-.1-.72l-1.16-2.01c-.13-.23-.34-.38-.58-.44-.23-.06-.49-.04-.72,.09l-1.27,.73c-.31-.27-.65-.51-1.01-.72-.35-.2-.73-.38-1.12-.51v-1.46c0-.26-.11-.5-.28-.67-.17-.17-.41-.28-.67-.28h-2.32c-.26,0-.5,.11-.67,.28l-.05,.06c-.14,.17-.23,.38-.23,.61v1.46h0Zm-.5,1.58c.38-.22,.8-.4,1.24-.52,.29-.05,.5-.31,.5-.61v-1.64h1.75v1.64c0,.27,.18,.52,.46,.59,.45,.12,.88,.3,1.28,.53,.4,.23,.77,.51,1.09,.84,.19,.2,.5,.26,.76,.11l1.42-.82,.88,1.52-1.38,.8c-.26,.13-.4,.43-.32,.72,.06,.23,.11,.46,.14,.68,.03,.22,.04,.45,.04,.7s-.02,.48-.04,.7c-.03,.22-.08,.45-.14,.68h0c-.07,.26,.04,.55,.29,.69l1.42,.82-.88,1.52-1.42-.82c-.24-.14-.54-.1-.75,.1-.33,.33-.7,.62-1.1,.85-.38,.22-.8,.4-1.24,.52-.28,.05-.5,.3-.5,.61v1.63h-1.75v-1.63c0-.27-.18-.52-.46-.59-.45-.12-.88-.3-1.28-.53-.4-.23-.77-.51-1.09-.84-.19-.2-.5-.26-.76-.11l-1.42,.82-.88-1.52,1.37-.79c.27-.12,.42-.43,.34-.72-.06-.23-.11-.46-.14-.68-.03-.22-.04-.45-.04-.7s.02-.48,.04-.7c.03-.22,.08-.45,.14-.68h0c.07-.26-.04-.55-.29-.69l-1.42-.82,.88-1.52,1.42,.82c.24,.14,.54,.1,.75-.1,.33-.33,.7-.61,1.1-.85h0Zm2.61,1.23c.89,0,1.7,.36,2.29,.93l.04,.04c.6,.6,.97,1.42,.97,2.33s-.37,1.73-.97,2.33h0c-.6,.6-1.42,.97-2.33,.97s-1.74-.37-2.33-.97c-.6-.6-.97-1.42-.97-2.33s.37-1.74,.97-2.33c.6-.6,1.42-.97,2.33-.97h0Zm-1.46,1.84c.37-.37,.89-.6,1.46-.6s1.06,.22,1.43,.58l.03,.03c.37,.37,.6,.89,.6,1.46s-.23,1.09-.6,1.46h0c-.37,.37-.89,.61-1.46,.61s-1.08-.23-1.46-.61c-.37-.37-.6-.89-.6-1.46s.23-1.09,.6-1.46Z"/>
            <path class="cls-18" d="M388.1,420.98c-1.07,1.07-1.6,2.46-1.6,3.86s.53,2.8,1.6,3.86l.04,.03c1.06,1.04,2.44,1.57,3.83,1.57,1.2,0,2.41-.4,3.4-1.19l2.28,2.28c.24,.24,.63,.24,.87,0,.24-.24,.24-.63,0-.87l-2.28-2.28c.79-.99,1.19-2.2,1.19-3.4,0-1.4-.53-2.79-1.6-3.86-1.07-1.07-2.47-1.6-3.86-1.6s-2.79,.53-3.86,1.6h0Zm6.87,6.84h-.01s-.01,.03-.01,.03c-.82,.82-1.9,1.23-2.98,1.23s-2.14-.4-2.96-1.21l-.03-.03c-.82-.83-1.24-1.91-1.24-2.99s.41-2.17,1.24-2.99c.83-.82,1.91-1.24,2.99-1.24s2.16,.41,2.99,1.24c.83,.82,1.24,1.91,1.24,2.99s-.41,2.15-1.23,2.98Z"/>
          </g>
          <path class="cls-13" d="M522.04,419.88c1.79,0,3.24-1.46,3.24-3.24s-1.46-3.24-3.24-3.24-3.24,1.46-3.24,3.24,1.46,3.24,3.24,3.24Z"/>
          <path class="cls-8" d="M522.41,418.18h-.64v-2.4c-.23,.22-.5,.38-.82,.48v-.58c.17-.05,.35-.16,.54-.31,.19-.15,.33-.33,.4-.53h.52v3.34Z"/>
          <g>
            <path class="cls-18" d="M383.56,97.77c-.3,0-.55-.25-.55-.55s.25-.55,.55-.55h11.97c.3,0,.55,.25,.55,.55s-.25,.55-.55,.55h-11.97Zm0,7.86c-.3,0-.55-.25-.55-.55s.25-.55,.55-.55h11.97c.3,0,.55,.25,.55,.55s-.25,.55-.55,.55h-11.97Zm0-3.93c-.3,0-.55-.25-.55-.55s.25-.55,.55-.55h11.97c.3,0,.55,.25,.55,.55s-.25,.55-.55,.55h-11.97Z"/>
            <path class="cls-18" d="M541.57,97.72h0Zm-14.39,.61h7.03v5.66h-7.03c-.16,0-.3-.06-.4-.17-.1-.1-.17-.24-.17-.4v-4.52c0-.16,.06-.3,.17-.4,.1-.1,.25-.17,.4-.17h0Zm13.22-1.09h-13.22c-.46,0-.87,.19-1.17,.49-.3,.3-.49,.72-.49,1.17v4.52c0,.46,.19,.87,.49,1.17,.3,.3,.71,.49,1.17,.49h13.22c.44,0,.84-.17,1.14-.45l.04-.03c.3-.3,.49-.72,.49-1.17v-4.52c0-.46-.19-.87-.49-1.17-.3-.3-.72-.49-1.17-.49Z"/>
          </g>
        </g>
      </g>
      <path class="cls-6" d="M62.67,460h-5.41c-2.26,0-4.11-1.85-4.11-4.11h0c0-2.26,1.85-4.11,4.11-4.11h5.41c2.26,0,4.11,1.85,4.11,4.11h0c0,2.26-1.85,4.11-4.11,4.11Z"/>
      <path class="cls-38" d="M386.38,301.14h82.17c.83,0,1.51,.68,1.51,1.51v2.93c0,.83-.68,1.51-1.51,1.51h-82.17c-.83,0-1.51-.68-1.51-1.51v-2.93c0-.83,.68-1.51,1.51-1.51Z"/>
      <path class="cls-38" d="M386.38,290.06h82.17c.83,0,1.51,.68,1.51,1.51v2.93c0,.83-.68,1.51-1.51,1.51h-82.17c-.83,0-1.51-.68-1.51-1.51v-2.92c0-.83,.68-1.51,1.51-1.51Z"/>
      <path class="cls-38" d="M386.38,278.98h82.17c.83,0,1.51,.68,1.51,1.51v2.93c0,.83-.68,1.51-1.51,1.51h-82.17c-.83,0-1.51-.68-1.51-1.51v-2.93c0-.83,.68-1.51,1.51-1.51Z"/>
      <path class="cls-6" d="M677.89,460h-5.41c-2.26,0-4.11-1.85-4.11-4.11h0c0-2.26,1.85-4.11,4.11-4.11h5.41c2.26,0,4.11,1.85,4.11,4.11h0c0,2.26-1.85,4.11-4.11,4.11Z"/>
      <path class="cls-10" d="M389.17,193.09h149.76c1.37,0,2.62,.56,3.52,1.46,.9,.9,1.46,2.15,1.46,3.52v15.95c0,1.37-.56,2.62-1.46,3.52l-.04,.04c-.9,.88-2.13,1.43-3.48,1.43h-149.76c-1.37,0-2.61-.56-3.52-1.46h0c-.9-.91-1.46-2.15-1.46-3.52v-15.95c0-1.37,.56-2.61,1.46-3.52,.9-.9,2.15-1.46,3.52-1.46h0Zm149.76,1.37h-149.76c-.99,0-1.9,.41-2.55,1.06h0c-.65,.65-1.06,1.56-1.06,2.55v15.95c0,1,.41,1.9,1.06,2.55h0c.65,.66,1.56,1.06,2.55,1.06h149.76c.98,0,1.87-.39,2.52-1.03l.03-.03c.66-.66,1.06-1.56,1.06-2.55v-15.95c0-.99-.41-1.9-1.06-2.55s-1.56-1.06-2.55-1.06Z"/>
      <g>
        <path class="cls-12" d="M431.69,202.84h5.34c.35-.01,.65,.21,.76,.54,.11,.33,0,.68-.29,.89l-4.32,3.13,1.66,5.07c.11,.33,0,.68-.29,.89-.28,.2-.65,.2-.93,0l-4.31-3.15-4.31,3.15c-.28,.21-.65,.21-.93,0-.28-.21-.4-.55-.29-.89l1.66-5.07-4.32-3.13c-.28-.21-.4-.55-.29-.89,.11-.33,.41-.55,.76-.55h5.34s1.64-5.07,1.64-5.07c.11-.33,.4-.55,.75-.55s.65,.22,.75,.55l1.64,5.08Z"/>
        <path class="cls-12" d="M454.86,202.84h5.34c.35-.01,.65,.21,.76,.54,.11,.33,0,.68-.29,.89l-4.32,3.13,1.66,5.07c.11,.33,0,.68-.29,.89-.28,.2-.65,.2-.93,0l-4.31-3.15-4.31,3.15c-.28,.21-.65,.21-.93,0-.28-.21-.4-.55-.29-.89l1.66-5.07-4.32-3.13c-.28-.21-.4-.55-.29-.89,.11-.33,.41-.55,.76-.55h5.34s1.64-5.07,1.64-5.07c.11-.33,.4-.55,.75-.55s.65,.22,.75,.55l1.64,5.08Z"/>
        <path class="cls-12" d="M478.02,202.84h5.34c.35-.01,.65,.21,.75,.54,.11,.33,0,.68-.29,.89l-4.32,3.13,1.66,5.07c.11,.33,0,.68-.29,.89-.28,.2-.65,.2-.93,0l-4.31-3.15-4.31,3.15c-.28,.21-.65,.21-.93,0-.28-.21-.4-.55-.29-.89l1.66-5.07-4.32-3.13c-.28-.21-.4-.55-.29-.89,.11-.33,.41-.55,.75-.55h5.34s1.64-5.07,1.64-5.07c.11-.33,.41-.55,.75-.55s.65,.22,.75,.55l1.64,5.08Z"/>
        <path class="cls-12" d="M501.19,202.84h5.34c.35-.01,.65,.21,.76,.54,.11,.33,0,.68-.29,.89l-4.32,3.13,1.66,5.07c.11,.33,0,.68-.29,.89-.28,.2-.65,.2-.93,0l-4.31-3.15-4.31,3.15c-.28,.21-.65,.21-.93,0-.28-.21-.4-.55-.29-.89l1.66-5.07-4.32-3.13c-.28-.21-.4-.55-.29-.89,.11-.33,.41-.55,.76-.55h5.34s1.64-5.07,1.64-5.07c.11-.33,.4-.55,.75-.55s.65,.22,.75,.55l1.64,5.08Z"/>
        <path class="cls-23" d="M524.36,202.84h5.34c.35-.01,.65,.21,.76,.54,.11,.33,0,.68-.29,.89l-4.33,3.13,1.66,5.07c.11,.33,0,.68-.29,.89-.28,.2-.65,.2-.93,0l-4.31-3.15-4.31,3.15c-.28,.21-.65,.21-.93,0-.28-.21-.4-.55-.29-.89l1.66-5.07-4.32-3.13c-.28-.21-.4-.55-.29-.89,.11-.33,.41-.55,.76-.55h5.34s1.64-5.07,1.64-5.07c.11-.33,.4-.55,.75-.55s.65,.22,.75,.55l1.64,5.08Z"/>
        <path class="cls-12" d="M408.53,202.84h5.34c.35-.01,.65,.21,.75,.54,.11,.33,0,.68-.29,.89l-4.32,3.13,1.66,5.07c.11,.33,0,.68-.29,.89-.28,.2-.65,.2-.93,0l-4.31-3.15-4.31,3.15c-.28,.21-.65,.21-.93,0-.28-.21-.4-.55-.29-.89l1.66-5.07-4.32-3.13c-.28-.21-.4-.55-.29-.89,.11-.33,.41-.55,.75-.55h5.34s1.64-5.07,1.64-5.07c.11-.33,.4-.55,.75-.55s.65,.22,.75,.55l1.64,5.08Z"/>
      </g>
      <path class="cls-38" d="M386.38,313.03h155.34c.83,0,1.51,.68,1.51,1.51v2.93c0,.83-.68,1.51-1.51,1.51h-155.34c-.83,0-1.51-.68-1.51-1.51v-2.93c0-.83,.68-1.51,1.51-1.51Z"/>
      <text class="cls-37" transform="translate(382.28 151.44)"><tspan class="cls-42" x="0" y="0">REVIE</tspan><tspan class="cls-41" x="119.82" y="0">W</tspan></text>
      <path class="cls-38" d="M386.38,155.63h155.34c.83,0,1.51,.68,1.51,1.51v2.93c0,.83-.68,1.51-1.51,1.51h-155.34c-.83,0-1.51-.68-1.51-1.51v-2.93c0-.83,.68-1.51,1.51-1.51Z"/>
      <path class="cls-19" d="M512.97,291.86c14.71,0,26.7-12,26.7-26.7s-12-26.7-26.7-26.7-26.7,12-26.7,26.7,12,26.7,26.7,26.7Z"/>
      <path class="cls-8" d="M512.97,279.4l11.32-13.53c8.79-10.51-6.02-17.31-11.32-9.36-5.3-7.95-20.11-1.15-11.32,9.36l11.32,13.53Z"/>
      <g>
        <path class="cls-19" d="M668.57,84.06h-58.44c-4.25,0-7.72,3.47-7.72,7.72v54.45c0,.36,.2,.66,.53,.8s.69,.07,.94-.19l13.15-13.15h51.54c4.25,0,7.72-3.47,7.72-7.72v-34.18c0-4.25-3.47-7.72-7.72-7.72Z"/>
        <g>
          <path class="cls-8" d="M657.57,114.37c3.03,0,5.5-2.47,5.5-5.5s-2.47-5.5-5.5-5.5-5.5,2.47-5.5,5.5,2.47,5.5,5.5,5.5Z"/>
          <path class="cls-8" d="M639.35,114.37c3.03,0,5.5-2.47,5.5-5.5s-2.47-5.5-5.5-5.5-5.5,2.47-5.5,5.5,2.47,5.5,5.5,5.5Z"/>
          <path class="cls-8" d="M621.12,114.37c3.03,0,5.5-2.47,5.5-5.5s-2.47-5.5-5.5-5.5-5.5,2.47-5.5,5.5,2.47,5.5,5.5,5.5Z"/>
        </g>
      </g>
      <path class="cls-39" d="M390.35,328.61h55.52c3.02,0,5.48,2.45,5.48,5.48v42.69c0,3.02-2.45,5.48-5.48,5.48h-55.52c-3.02,0-5.48-2.45-5.48-5.48v-42.69c0-3.02,2.45-5.48,5.48-5.48Z"/>
      <path class="cls-38" d="M386.38,267.9h82.17c.83,0,1.51,.68,1.51,1.51v2.93c0,.83-.68,1.51-1.51,1.51h-82.17c-.83,0-1.51-.68-1.51-1.51v-2.92c0-.83,.68-1.51,1.51-1.51Z"/>
      <path class="cls-38" d="M386.38,256.81h82.17c.83,0,1.51,.68,1.51,1.51v2.93c0,.83-.68,1.51-1.51,1.51h-82.17c-.83,0-1.51-.68-1.51-1.51v-2.93c0-.83,.68-1.51,1.51-1.51Z"/>
      <path class="cls-38" d="M386.38,245.73h82.17c.83,0,1.51,.68,1.51,1.51v2.93c0,.83-.68,1.51-1.51,1.51h-82.17c-.83,0-1.51-.68-1.51-1.51v-2.93c0-.83,.68-1.51,1.51-1.51Z"/>
      <rect class="cls-36" x="384.87" y="223.97" width="85.18" height="15.18" rx="3.85" ry="3.85"/>
      <path class="cls-6" d="M75.87,460H671.59c2.26,0,4.11-1.85,4.11-4.11h0c0-2.26-1.85-4.11-4.11-4.11H75.87c-2.26,0-4.11,1.85-4.11,4.11h0c0,2.26,1.85,4.11,4.11,4.11Z"/>
      <path class="cls-8" d="M410.07,349.58c.71-1.54,1.86-3.2,3.68-4.18,1.62-.87,2.5-2.28,2.98-3.98,.51-1.8,.57-3.97,.57-6.22,0-.44,.36-.81,.81-.81h2.38c.17,0,.36,.03,.54,.09,.74,.23,1.6,1,2.25,2.13,.6,1.06,1.05,2.49,1.05,4.12,0,.89-.13,1.84-.44,2.83-.65,2.07-.72,3.18-.49,3.75,.13,.32,.51,.39,.93,.39h5.97c.59,0,1.24,.06,1.87,.23,.79,.21,1.54,.6,2.11,1.25,.57,.65,.94,1.54,.94,2.75,0,.54-.08,1.15-.24,1.84,.4,.98,1.58,4.42-.71,6.51,.09,1.05,.11,3.59-1.79,4.81-.32,1.06-1.53,4.04-5.24,4.04h-10.94c-2.18,0-4.36-1.51-5.73-2.69v.32c0,.69-.28,1.32-.74,1.77l-.05,.05c-.45,.43-1.06,.69-1.72,.69h-4.97c-.69,0-1.32-.28-1.77-.74s-.74-1.08-.74-1.77v-15.7c0-.69,.28-1.32,.74-1.77l.05-.05c.45-.42,1.06-.69,1.72-.69h4.97c.69,0,1.32,.28,1.77,.74,.09,.09,.17,.18,.24,.28h0Zm.5,14.68c.73,.76,3.32,3.27,5.73,3.27h10.94c3.17,0,3.76-3.11,3.76-3.12,.05-.23,.2-.44,.43-.56,1.6-.8,1.26-3.36,1.21-3.73-.06-.3,.05-.62,.31-.82,2.01-1.48,.68-4.64,.48-5.08-.1-.17-.13-.38-.07-.59,.18-.65,.26-1.21,.26-1.7,0-.78-.21-1.32-.54-1.69-.33-.38-.81-.61-1.32-.75-.48-.13-.99-.17-1.46-.17h-5.97c-1,0-1.94-.25-2.41-1.38-.37-.89-.34-2.37,.44-4.84,.26-.83,.37-1.62,.37-2.36,0-1.33-.36-2.48-.84-3.33-.44-.78-.94-1.27-1.33-1.39h-.06s-1.58-.01-1.58-.01c-.02,2.08-.13,4.08-.63,5.85-.59,2.1-1.7,3.84-3.77,4.96-3.11,1.67-3.86,5.93-3.94,6.51v10.94h0Zm-2.51-14.09h-4.97c-.23,0-.45,.09-.61,.23l-.03,.03c-.16,.16-.26,.39-.26,.63v15.7c0,.25,.1,.47,.26,.63,.16,.16,.39,.26,.64,.26h4.97c.23,0,.45-.09,.61-.23l.03-.03c.16-.16,.26-.39,.26-.63v-15.7c0-.25-.1-.47-.26-.63-.16-.16-.39-.26-.63-.26Z"/>
      <path class="cls-38" d="M386.38,388.19h155.34c.83,0,1.51,.68,1.51,1.51v2.93c0,.83-.68,1.51-1.51,1.51h-155.34c-.83,0-1.51-.68-1.51-1.51v-2.93c0-.83,.68-1.51,1.51-1.51Z"/>
      <rect class="cls-38" x="384.87" y="398.63" width="158.36" height="5.94" rx="1.51" ry="1.51"/>
      <path class="cls-38" d="M459.55,376.31h82.17c.83,0,1.51,.68,1.51,1.51v2.93c0,.83-.68,1.51-1.51,1.51h-82.17c-.83,0-1.51-.68-1.51-1.51v-2.93c0-.83,.68-1.51,1.51-1.51Z"/>
      <path class="cls-38" d="M459.55,365.23h82.17c.83,0,1.51,.68,1.51,1.51v2.93c0,.83-.68,1.51-1.51,1.51h-82.17c-.83,0-1.51-.68-1.51-1.51v-2.93c0-.83,.68-1.51,1.51-1.51Z"/>
      <path class="cls-38" d="M459.55,354.14h82.17c.83,0,1.51,.68,1.51,1.51v2.93c0,.83-.68,1.51-1.51,1.51h-82.17c-.83,0-1.51-.68-1.51-1.51v-2.93c0-.83,.68-1.51,1.51-1.51Z"/>
      <path class="cls-35" d="M462.98,328.61h75.32c2.72,0,4.93,2.21,4.93,4.93v9.57c0,2.72-2.21,4.93-4.93,4.93h-75.32c-2.72,0-4.93-2.21-4.93-4.93v-9.57c0-2.72,2.21-4.93,4.93-4.93Z"/>
      <path class="cls-22" d="M386.95,166.07h0c.75,0,1.36,.61,1.36,1.35v20.42c0,.75-.61,1.36-1.36,1.36h0c-.75,0-1.36-.61-1.36-1.36v-20.42c0-.75,.61-1.35,1.36-1.35Z"/>
      <path class="cls-22" d="M393.37,166.07h0c.75,0,1.36,.61,1.36,1.35v20.42c0,.75-.61,1.36-1.36,1.36h0c-.75,0-1.36-.61-1.36-1.36v-20.42c0-.75,.61-1.35,1.36-1.35Z"/>
      <path class="cls-33" d="M399.8,166.07h0c.75,0,1.35,.61,1.35,1.35v20.42c0,.75-.61,1.35-1.35,1.35h0c-.75,0-1.36-.61-1.36-1.36v-20.42c0-.75,.61-1.36,1.36-1.36Z"/>
      <path class="cls-33" d="M406.22,166.07h0c.75,0,1.35,.61,1.35,1.35v20.42c0,.75-.61,1.36-1.36,1.36h0c-.75,0-1.35-.61-1.35-1.35v-20.42c0-.75,.61-1.35,1.35-1.35Z"/>
      <path class="cls-22" d="M412.64,166.07h0c.75,0,1.36,.61,1.36,1.35v20.42c0,.75-.61,1.36-1.36,1.36h0c-.75,0-1.36-.61-1.36-1.36v-20.42c0-.75,.61-1.35,1.36-1.35Z"/>
      <path class="cls-33" d="M419.07,166.07h0c.75,0,1.35,.61,1.35,1.35v20.42c0,.75-.61,1.36-1.36,1.36h0c-.75,0-1.35-.61-1.35-1.35v-20.42c0-.75,.61-1.35,1.35-1.35Z"/>
      <path class="cls-22" d="M425.49,166.07h0c.75,0,1.36,.61,1.36,1.35v20.42c0,.75-.61,1.36-1.36,1.36h0c-.75,0-1.36-.61-1.36-1.36v-20.42c0-.75,.61-1.35,1.36-1.35Z"/>
      <path class="cls-33" d="M431.92,166.07h0c.75,0,1.35,.61,1.35,1.35v20.42c0,.75-.61,1.35-1.35,1.35h0c-.75,0-1.36-.61-1.36-1.36v-20.42c0-.75,.61-1.35,1.35-1.35Z"/>
      <path class="cls-22" d="M438.34,166.07h0c.75,0,1.36,.61,1.36,1.35v20.42c0,.75-.61,1.36-1.36,1.36h0c-.75,0-1.36-.61-1.36-1.36v-20.42c0-.75,.61-1.35,1.36-1.35Z"/>
      <path class="cls-22" d="M444.77,166.07h0c.75,0,1.36,.61,1.36,1.35v20.42c0,.75-.61,1.36-1.36,1.36h0c-.75,0-1.36-.61-1.36-1.36v-20.42c0-.75,.61-1.35,1.36-1.35Z"/>
      <path class="cls-22" d="M451.19,166.07h0c.75,0,1.35,.61,1.35,1.35v20.42c0,.75-.61,1.36-1.35,1.36h0c-.75,0-1.36-.61-1.36-1.36v-20.42c0-.75,.61-1.35,1.36-1.35Z"/>
      <path class="cls-22" d="M457.61,166.07h0c.75,0,1.36,.61,1.36,1.35v20.42c0,.75-.61,1.36-1.36,1.36h0c-.75,0-1.35-.61-1.35-1.36v-20.42c0-.75,.61-1.35,1.35-1.35Z"/>
      <path class="cls-22" d="M464.04,166.07h0c.75,0,1.35,.61,1.35,1.35v20.42c0,.75-.61,1.36-1.35,1.36h0c-.75,0-1.36-.61-1.36-1.36v-20.42c0-.75,.61-1.35,1.36-1.35Z"/>
      <path class="cls-22" d="M470.46,166.07h0c.75,0,1.36,.61,1.36,1.35v20.42c0,.75-.61,1.36-1.36,1.36h0c-.75,0-1.36-.61-1.36-1.36v-20.42c0-.75,.61-1.35,1.36-1.35Z"/>
      <path class="cls-22" d="M476.89,166.07h0c.75,0,1.36,.61,1.36,1.35v20.42c0,.75-.61,1.36-1.36,1.36h0c-.75,0-1.35-.61-1.35-1.36v-20.42c0-.75,.61-1.35,1.35-1.35Z"/>
      <path class="cls-22" d="M483.31,166.07h0c.75,0,1.35,.61,1.35,1.35v20.42c0,.75-.61,1.36-1.35,1.36h0c-.75,0-1.36-.61-1.36-1.36v-20.42c0-.75,.61-1.35,1.36-1.35Z"/>
      <path class="cls-22" d="M489.74,166.07h0c.75,0,1.36,.61,1.36,1.35v20.42c0,.75-.61,1.36-1.36,1.36h0c-.75,0-1.35-.61-1.35-1.36v-20.42c0-.75,.61-1.35,1.35-1.35Z"/>
      <path class="cls-22" d="M496.16,166.07h0c.75,0,1.35,.61,1.35,1.35v20.42c0,.75-.61,1.36-1.35,1.36h0c-.75,0-1.36-.61-1.36-1.36v-20.42c0-.75,.61-1.35,1.36-1.35Z"/>
      <path class="cls-22" d="M502.58,166.07h0c.75,0,1.36,.61,1.36,1.35v20.42c0,.75-.61,1.36-1.36,1.36h0c-.75,0-1.36-.61-1.36-1.36v-20.42c0-.75,.61-1.35,1.36-1.35Z"/>
      <path class="cls-22" d="M509.01,166.07h0c.75,0,1.36,.61,1.36,1.35v20.42c0,.75-.61,1.36-1.36,1.36h0c-.75,0-1.35-.61-1.35-1.36v-20.42c0-.75,.61-1.35,1.35-1.35Z"/>
      <path class="cls-22" d="M515.43,166.07h0c.75,0,1.35,.61,1.35,1.35v20.42c0,.75-.61,1.36-1.35,1.36h0c-.75,0-1.36-.61-1.36-1.36v-20.42c0-.75,.61-1.35,1.36-1.35Z"/>
      <path class="cls-22" d="M521.86,166.07h0c.75,0,1.36,.61,1.36,1.35v20.42c0,.75-.61,1.36-1.36,1.36h0c-.75,0-1.36-.61-1.36-1.36v-20.42c0-.75,.61-1.35,1.36-1.35Z"/>
      <path class="cls-22" d="M528.28,166.07h0c.75,0,1.36,.61,1.36,1.35v20.42c0,.75-.61,1.36-1.36,1.36h0c-.75,0-1.36-.61-1.36-1.36v-20.42c0-.75,.61-1.35,1.36-1.35Z"/>
      <path class="cls-33" d="M534.71,166.07h0c.75,0,1.35,.61,1.35,1.35v20.42c0,.75-.61,1.35-1.35,1.35h0c-.75,0-1.36-.61-1.36-1.36v-20.42c0-.75,.61-1.36,1.36-1.36Z"/>
      <path class="cls-33" d="M541.13,166.07h0c.75,0,1.36,.61,1.36,1.36v20.42c0,.75-.61,1.36-1.36,1.36h0c-.75,0-1.35-.61-1.35-1.35v-20.42c0-.75,.61-1.35,1.35-1.35Z"/>
      <g>
        <path class="cls-21" d="M142.59,320.07c16.08-8.55,20.16,10.05,13.91,25.45-6.25,15.4-38.34,67.2-40.01,87.74-.65,7.96-2.13,7.09-3.4,1.51-6.34-27.85,7.37-102.94,29.51-114.7Z"/>
        <g>
          <path class="cls-28" d="M108.53,249.51c-18.44-16.6-29.97,6.64-26.78,29.06,3.19,22.42,28.52,101.47,23.96,129.18-1.77,10.74,.48,10.08,4,3.12,17.56-34.72,24.21-138.5-1.18-161.36Z"/>
          <path class="cls-2" d="M105.32,415.45c.39,1.03,1.27,.52,2.45-1.2,19.22-64.02-10.72-159.67-10.82-159.98-.16-.53-.72-.82-1.25-.66-.53,.16-.82,.72-.66,1.25,.09,.31,30.44,97.27,10.28,160.59Z"/>
        </g>
        <g>
          <path class="cls-27" d="M68.26,302.7c-17.87-7.78-20.67,12.4-12.72,28.31,7.95,15.91,46.5,68.49,50,90.26,1.36,8.44,2.87,7.39,3.76,1.33,4.44-30.24-16.44-109.19-41.04-119.9Z"/>
          <path class="cls-5" d="M107.16,427.11c.55,.67,1.08,.07,1.52-1.5-1.62-52.47-47.73-116.27-47.87-116.48-.25-.35-.74-.43-1.09-.18-.35,.25-.43,.74-.18,1.09,.15,.21,46.88,64.88,47.62,117.06Z"/>
        </g>
        <g>
          <polygon class="cls-25" points="93.42 415.49 127.75 415.49 136.71 423.58 129.39 451.78 110.58 451.78 91.78 451.78 84.45 423.58 93.42 415.49"/>
          <rect class="cls-40" x="81.61" y="404.99" width="57.94" height="18.58" rx="2.84" ry="2.84"/>
          <polygon class="cls-7" points="136.71 423.58 135.2 429.37 85.96 429.37 84.45 423.58 136.71 423.58"/>
        </g>
      </g>
      <path class="cls-18" d="M253.54,180.5c0-.63-.51-1.13-1.14-1.13s-1.13,.51-1.13,1.13v2.67h-2.67c-.63,0-1.13,.51-1.13,1.13s.51,1.13,1.13,1.13h2.67v2.67c0,.63,.51,1.13,1.13,1.13s1.14-.51,1.14-1.13v-2.67h2.67c.63,0,1.13-.51,1.13-1.13s-.51-1.13-1.13-1.13h-2.67v-2.67Z"/>
      <path class="cls-18" d="M101.7,232.77h0Zm3.44-13.1c1.2-1.2,2.85-1.94,4.68-1.94s3.48,.74,4.68,1.94c1.2,1.2,1.94,2.85,1.94,4.68s-.74,3.48-1.94,4.68c-1.2,1.2-2.85,1.94-4.68,1.94s-3.48-.74-4.68-1.94c-1.2-1.2-1.94-2.85-1.94-4.68s.74-3.48,1.94-4.68h0Zm1.43-6.56c-.92,.27-1.79,.64-2.59,1.1-.83,.48-1.59,1.06-2.27,1.71-.13,.13-.33,.15-.48,.06l-3.07-1.77h-.02c-.18-.11-.38-.12-.56-.07-.19,.05-.36,.17-.46,.35v.02s-2.18,3.75-2.18,3.75c-.1,.18-.12,.39-.07,.58,.05,.19,.17,.36,.35,.46h.02s3.05,1.77,3.05,1.77c.16,.09,.23,.28,.19,.45h0c-.11,.45-.2,.92-.26,1.4-.06,.46-.09,.94-.09,1.42s.03,.96,.09,1.42c.06,.48,.14,.94,.26,1.4,.05,.19-.05,.38-.21,.46l-3.05,1.76h0c-.18,.11-.3,.28-.35,.46-.05,.19-.03,.4,.07,.58l2.18,3.77h0c.1,.18,.27,.3,.46,.35,.19,.05,.4,.03,.58-.07h.02s3.05-1.78,3.05-1.78c.16-.09,.36-.06,.48,.06,.68,.66,1.45,1.24,2.27,1.71,.81,.47,1.69,.84,2.61,1.11,.18,.05,.3,.21,.3,.39v3.55c0,.21,.09,.4,.22,.54,.14,.14,.33,.22,.54,.22h4.35c.21,0,.4-.09,.54-.22s.22-.33,.22-.54v-3.55c0-.19,.13-.35,.31-.4,.92-.26,1.79-.64,2.59-1.1,.83-.48,1.59-1.06,2.28-1.71,.14-.13,.35-.15,.5-.05l3.05,1.76c.18,.1,.39,.12,.58,.07,.19-.05,.36-.17,.46-.35v-.02s2.18-3.75,2.18-3.75h0c.1-.18,.12-.39,.07-.58-.05-.19-.17-.36-.35-.46l-3.07-1.77c-.16-.09-.23-.28-.19-.45h0c.11-.45,.2-.92,.26-1.4,.06-.47,.09-.94,.09-1.43s-.03-.96-.09-1.43c-.06-.48-.14-.94-.26-1.4-.05-.19,.05-.38,.21-.46l3.05-1.76c.18-.1,.3-.27,.35-.46,.05-.19,.03-.4-.07-.58v-.02s-2.18-3.75-2.18-3.75h0c-.1-.18-.27-.3-.46-.35-.19-.05-.4-.03-.58,.07h0s-3.07,1.78-3.07,1.78c-.16,.09-.37,.06-.49-.07-.68-.66-1.44-1.23-2.27-1.71-.81-.47-1.69-.84-2.61-1.11-.18-.05-.3-.21-.3-.39v-3.55c0-.21-.09-.4-.22-.54-.14-.14-.33-.22-.54-.22h-4.35c-.21,0-.4,.09-.54,.22-.14,.14-.22,.33-.22,.54v3.55c0,.19-.13,.35-.31,.4Z"/>
      <path class="cls-18" d="M160.41,202.42c1.43-1.43,3.15-2.59,5.06-3.38,1.84-.76,3.85-1.18,5.96-1.18s4.12,.42,5.96,1.18c1.91,.79,3.63,1.95,5.06,3.38,1.43,1.43,2.59,3.15,3.38,5.06,.76,1.84,1.18,3.85,1.18,5.96s-.42,4.12-1.18,5.96c-.79,1.91-1.95,3.63-3.38,5.06-1.43,1.43-3.15,2.59-5.06,3.38-1.84,.76-3.85,1.18-5.96,1.18s-4.12-.42-5.96-1.18c-1.91-.79-3.63-1.95-5.06-3.38-1.43-1.43-2.59-3.15-3.38-5.06-.76-1.84-1.18-3.85-1.18-5.96s.42-4.12,1.18-5.96c.79-1.91,1.95-3.63,3.38-5.06h0Zm5.61-2.05c-1.73,.71-3.28,1.77-4.59,3.07-1.31,1.31-2.36,2.87-3.07,4.59-.69,1.66-1.07,3.49-1.07,5.41s.38,3.75,1.07,5.41c.71,1.72,1.77,3.28,3.07,4.59,1.31,1.31,2.86,2.36,4.59,3.07,1.66,.69,3.49,1.07,5.41,1.07s3.74-.38,5.41-1.07c1.73-.71,3.29-1.77,4.59-3.07,1.31-1.31,2.36-2.86,3.07-4.59,.69-1.66,1.07-3.49,1.07-5.41s-.38-3.75-1.07-5.41c-.71-1.72-1.77-3.28-3.07-4.59-1.31-1.31-2.86-2.36-4.59-3.07-1.66-.69-3.49-1.07-5.41-1.07s-3.75,.38-5.41,1.07h0Zm-1.72-11.47c-.98,.28-1.93,.62-2.87,1.02-.95,.4-1.87,.87-2.76,1.38-.9,.52-1.77,1.1-2.6,1.72-.83,.63-1.63,1.31-2.37,2.03-.26,.25-.59,.4-.93,.44-.35,.04-.7-.03-1.02-.21-2.29-1.32-4.7-2.63-6.94-4.01-.11-.06-.22-.09-.34-.1-.13-.01-.26,0-.38,.03-.13,.03-.25,.09-.35,.17-.1,.08-.19,.17-.25,.29-1.67,2.52-3.34,5.79-4.89,8.46-.07,.11-.11,.24-.12,.36-.02,.13,0,.26,.03,.39,.03,.13,.09,.25,.17,.35,.08,.1,.17,.19,.29,.25,2.06,1.36,4.71,2.72,6.89,3.98,.32,.18,.55,.46,.69,.77,.05,.11,.08,.22,.1,.34l.14,.05-.16,.64c-.12,.51-.23,1.01-.33,1.52-.09,.49-.17,1-.23,1.54-.06,.52-.11,1.04-.14,1.55-.03,.5-.05,1.02-.05,1.57s.02,1.07,.05,1.57c.03,.51,.08,1.03,.14,1.55,.06,.53,.14,1.05,.23,1.54,.09,.5,.2,1.01,.33,1.52,.09,.38,.05,.75-.1,1.08-.15,.32-.41,.59-.74,.76l-6.11,3.53h0s-.72,.42-.72,.42c-.12,.07-.21,.15-.29,.25-.08,.1-.14,.22-.17,.35-.04,.13-.05,.27-.03,.39,.02,.12,.06,.25,.12,.36l4.52,7.83h0s.37,.63,.37,.63c.07,.11,.15,.21,.25,.29,.1,.08,.22,.14,.35,.17,.13,.04,.26,.04,.39,.03,.12-.02,.24-.06,.36-.12,2.19-1.37,4.65-2.69,6.91-3.99,.32-.18,.67-.25,1.01-.21,.35,.04,.68,.19,.93,.44h0c.75,.72,1.54,1.4,2.38,2.03,.83,.63,1.7,1.2,2.6,1.72,.89,.52,1.82,.98,2.78,1.39,.94,.4,1.92,.75,2.92,1.04,.35,.1,.65,.31,.86,.59,.21,.28,.33,.62,.33,.99v7.97c0,.13,.03,.26,.08,.38,.05,.12,.12,.23,.22,.32,.09,.09,.2,.17,.32,.22,.11,.05,.24,.07,.37,.07h9.78c.13,0,.26-.03,.37-.07,.12-.05,.23-.12,.32-.22,.09-.09,.17-.2,.22-.32,.05-.11,.07-.24,.07-.38v-7.97c0-.38,.13-.73,.35-1.01,.23-.29,.54-.5,.9-.58,.98-.28,1.93-.62,2.87-1.02,.95-.41,1.87-.87,2.76-1.38,.9-.52,1.77-1.1,2.6-1.72,.83-.63,1.63-1.31,2.38-2.03,.28-.27,.62-.42,.98-.45,.36-.03,.74,.05,1.05,.26l6.82,3.94c.11,.07,.24,.11,.36,.12,.13,.02,.26,0,.39-.03,.13-.03,.25-.09,.35-.17,.1-.08,.19-.17,.25-.29,1.62-2.83,3.27-5.64,4.89-8.47,.07-.11,.11-.24,.12-.36,.02-.13,0-.26-.03-.39-.03-.13-.09-.25-.17-.35-.07-.1-.17-.19-.28-.25l-6.9-3.98c-.32-.18-.55-.46-.69-.77-.04-.08-.07-.17-.09-.26l-.18-.04,.18-.73c.12-.51,.23-1.01,.33-1.51,.09-.49,.17-1,.23-1.54,.06-.52,.11-1.04,.14-1.55,.03-.5,.05-1.02,.05-1.57s-.02-1.07-.05-1.57c-.03-.51-.08-1.03-.14-1.55-.07-.54-.14-1.06-.23-1.54-.09-.5-.2-1.01-.33-1.51-.09-.38-.05-.75,.1-1.08,.15-.32,.41-.59,.73-.76l6.83-3.95c.11-.06,.21-.15,.28-.25,.08-.1,.14-.22,.17-.35,.03-.13,.05-.26,.03-.39-.02-.12-.06-.25-.12-.36-1.67-2.48-3.34-5.8-4.89-8.46-.07-.12-.15-.21-.25-.29-.1-.08-.22-.14-.35-.17-.13-.04-.26-.05-.39-.03-.12,.01-.24,.06-.36,.12l-6.91,3.99c-.32,.19-.69,.25-1.04,.21-.35-.05-.68-.21-.93-.46-.75-.72-1.54-1.4-2.36-2.02-.82-.62-1.69-1.19-2.59-1.71-.89-.51-1.82-.98-2.78-1.39-.94-.4-1.92-.75-2.92-1.04-.35-.1-.65-.31-.86-.59-.21-.28-.33-.62-.33-.99v-7.97c0-.13-.03-.26-.08-.38-.05-.12-.12-.23-.22-.32-.09-.09-.2-.17-.32-.22-.11-.05-.24-.07-.37-.07h-9.78c-.13,0-.26,.03-.37,.07-.12,.05-.23,.12-.32,.22-.18,.18-.29,.43-.29,.7v7.97c0,.38-.13,.73-.35,1.01-.23,.29-.55,.5-.91,.58h0Zm-3.44-.3c-1,.43-1.98,.92-2.92,1.46-.96,.55-1.87,1.16-2.75,1.82-.87,.66-1.71,1.38-2.5,2.14-.03,.03-.07,.05-.11,.05s-.08,0-.12-.02c-2.32-1.34-4.65-2.67-6.96-4.02-.28-.15-.57-.24-.87-.27-.31-.04-.62-.01-.92,.07-.3,.08-.6,.22-.85,.42-.25,.19-.46,.43-.62,.71-1.68,2.72-3.28,5.68-4.89,8.46-.16,.28-.26,.59-.3,.9-.04,.32-.02,.64,.06,.95,.08,.31,.22,.6,.42,.85,.19,.25,.43,.46,.71,.62,2.22,1.37,4.63,2.67,6.9,3.98,.04,.02,.06,.05,.08,.09,.02,.04,.02,.08,.01,.12l-.16,.64h0c-.07,.32-.13,.63-.19,.96-.1,.55-.18,1.1-.25,1.63-.06,.53-.11,1.07-.15,1.63-.03,.56-.05,1.11-.05,1.65s.02,1.09,.05,1.65c.03,.56,.08,1.11,.15,1.64,.06,.53,.15,1.08,.25,1.63,.1,.55,.22,1.08,.34,1.6,.01,.04,0,.09-.01,.12-.02,.04-.05,.08-.09,.09-2.54,1.35-5.11,2.95-7.62,4.4l.09,.11-.08,.1c-.2,.26-.34,.55-.42,.85-.08,.3-.1,.63-.06,.95,.04,.31,.14,.62,.3,.9l5.25,9.1,.1-.06c.05,.05,.11,.09,.16,.14,.26,.2,.55,.34,.85,.42,.3,.08,.62,.1,.95,.06,.3-.04,.6-.13,.88-.29,2.3-1.22,4.66-2.69,6.93-4,.03-.02,.07-.02,.12-.02,.04,0,.08,.02,.11,.05,.79,.76,1.63,1.48,2.5,2.14,.87,.66,1.79,1.26,2.74,1.82,.94,.55,1.92,1.04,2.94,1.46,1,.43,2.04,.79,3.09,1.1,.04,.01,.08,.04,.1,.07,.03,.04,.04,.08,.04,.12v7.97c0,.33,.07,.64,.19,.93,.12,.3,.31,.57,.53,.79,.22,.22,.49,.4,.79,.53,.29,.12,.6,.19,.93,.19h9.78c.33,0,.64-.07,.93-.19,.3-.12,.56-.3,.79-.53,.22-.22,.4-.49,.53-.79,.12-.29,.19-.6,.19-.93v-7.97s.01-.09,.04-.12c.02-.03,.06-.06,.11-.07h.03c1.06-.32,2.09-.68,3.07-1.1,1-.43,1.98-.92,2.92-1.46,.96-.55,1.87-1.16,2.75-1.82,.88-.66,1.71-1.38,2.51-2.14,.03-.03,.07-.05,.11-.05,.04,0,.09,0,.12,.03l6.9,3.98c.28,.16,.59,.26,.9,.3,.32,.04,.64,.02,.95-.06,.31-.08,.6-.22,.85-.42,.24-.18,.45-.42,.61-.69,1.81-2.92,3.53-6.11,5.25-9.1l-.09-.06c.02-.08,.03-.15,.04-.23,.04-.32,.02-.64-.06-.95-.08-.3-.22-.6-.42-.85-.19-.25-.43-.46-.71-.62l-6.9-3.98s-.06-.05-.08-.09c-.02-.04-.02-.08-.01-.12l.18-.73h-.01c.06-.29,.12-.58,.17-.87,.1-.55,.19-1.09,.25-1.63,.06-.53,.11-1.08,.15-1.64,.03-.56,.05-1.11,.05-1.65s-.02-1.09-.05-1.65c-.03-.56-.08-1.11-.15-1.64-.06-.53-.15-1.07-.25-1.63-.1-.55-.22-1.08-.34-1.6,0-.04,0-.09,.01-.13,.02-.04,.05-.07,.09-.09l6.89-3.98c.28-.17,.52-.38,.71-.63,.2-.26,.34-.55,.42-.85,.08-.3,.1-.62,.06-.95-.04-.3-.13-.6-.29-.88-1.64-3.04-3.53-6.11-5.26-9.12l-.1,.06c-.05-.05-.11-.09-.16-.14-.26-.2-.55-.34-.85-.42-.3-.08-.63-.1-.95-.06-.31,.04-.62,.14-.9,.3l-.51,.29h0s-6.4,3.7-6.4,3.7c-.04,.02-.08,.03-.12,.03-.04,0-.08-.03-.11-.05l-.02-.02c-.78-.75-1.62-1.46-2.5-2.13-.88-.66-1.79-1.26-2.73-1.81s-1.92-1.04-2.93-1.46c-1-.43-2.04-.8-3.09-1.1-.04-.01-.08-.04-.1-.07-.03-.04-.04-.08-.04-.12v-7.97c0-.33-.07-.64-.19-.93-.12-.3-.31-.57-.53-.79-.22-.22-.49-.41-.79-.53-.29-.12-.6-.19-.93-.19h-9.78c-.33,0-.64,.07-.93,.19-.3,.12-.56,.3-.79,.53-.44,.44-.71,1.05-.71,1.72v7.97s-.02,.09-.04,.12c-.02,.03-.06,.05-.11,.07h-.03c-1.06,.32-2.09,.68-3.07,1.1Z"/>
      <path class="cls-18" d="M339.33,49.44c0-.63-.51-1.13-1.13-1.13s-1.13,.51-1.13,1.13v2.67h-2.67c-.63,0-1.14,.51-1.14,1.13s.51,1.13,1.14,1.13h2.67v2.67c0,.63,.51,1.13,1.13,1.13s1.13-.51,1.13-1.13v-2.67h2.67c.63,0,1.14-.51,1.14-1.13s-.51-1.13-1.14-1.13h-2.67v-2.67Z"/>
      <path class="cls-18" d="M686.24,66.15c0-.63-.51-1.13-1.13-1.13s-1.13,.51-1.13,1.13v2.67h-2.67c-.63,0-1.14,.51-1.14,1.13s.51,1.13,1.14,1.13h2.67v2.67c0,.63,.51,1.13,1.13,1.13s1.13-.51,1.13-1.13v-2.67h2.67c.63,0,1.13-.51,1.13-1.13s-.51-1.13-1.13-1.13h-2.67v-2.67Z"/>
      <path class="cls-18" d="M705.51,189.49c0-.63-.51-1.13-1.13-1.13s-1.13,.51-1.13,1.13v2.67h-2.67c-.63,0-1.14,.51-1.14,1.13s.51,1.13,1.14,1.13h2.67v2.67c0,.63,.51,1.14,1.13,1.14s1.13-.51,1.13-1.14v-2.67h2.67c.63,0,1.13-.51,1.13-1.13s-.51-1.13-1.13-1.13h-2.67v-2.67Z"/>
      <path class="cls-18" d="M704.22,373.22c0-.63-.51-1.13-1.13-1.13s-1.13,.51-1.13,1.13v2.67h-2.67c-.63,0-1.13,.51-1.13,1.13s.51,1.14,1.13,1.14h2.67v2.67c0,.63,.51,1.13,1.13,1.13s1.13-.51,1.13-1.13v-2.67h2.67c.63,0,1.13-.51,1.13-1.14s-.51-1.13-1.13-1.13h-2.67v-2.67Z"/>
      <path class="cls-18" d="M171.01,425.9c0-.63-.51-1.13-1.13-1.13s-1.13,.51-1.13,1.13v2.67h-2.67c-.63,0-1.14,.51-1.14,1.13s.51,1.13,1.14,1.13h2.67v2.67c0,.63,.51,1.13,1.13,1.13s1.13-.51,1.13-1.13v-2.67h2.67c.63,0,1.14-.51,1.14-1.13s-.51-1.13-1.14-1.13h-2.67v-2.67Z"/>
      <path class="cls-18" d="M48.95,402.78c0-.63-.51-1.13-1.13-1.13s-1.13,.51-1.13,1.13v2.67h-2.67c-.63,0-1.14,.51-1.14,1.13s.51,1.13,1.14,1.13h2.67v2.67c0,.63,.51,1.14,1.13,1.14s1.13-.51,1.13-1.14v-2.67h2.67c.63,0,1.13-.51,1.13-1.13s-.51-1.13-1.13-1.13h-2.67v-2.67Z"/>
      <path class="cls-18" d="M151.74,288.43c0-.63-.51-1.13-1.13-1.13s-1.13,.51-1.13,1.13v2.67h-2.67c-.63,0-1.13,.51-1.13,1.13s.51,1.13,1.13,1.13h2.67v2.67c0,.63,.51,1.13,1.13,1.13s1.13-.51,1.13-1.13v-2.67h2.67c.63,0,1.13-.51,1.13-1.13s-.51-1.13-1.13-1.13h-2.67v-2.67Z"/>
      <path class="cls-18" d="M36.11,278.15c0-.63-.51-1.13-1.13-1.13s-1.13,.51-1.13,1.13v2.67h-2.67c-.63,0-1.13,.51-1.13,1.13s.51,1.13,1.13,1.13h2.67v2.67c0,.63,.51,1.14,1.13,1.14s1.13-.51,1.13-1.14v-2.67h2.67c.63,0,1.13-.51,1.13-1.13s-.51-1.13-1.13-1.13h-2.67v-2.67Z"/>
      <path class="cls-18" d="M282.04,95.96h0Zm3.44-13.09c1.2-1.2,2.85-1.94,4.68-1.94s3.48,.74,4.68,1.94c1.2,1.2,1.94,2.85,1.94,4.68s-.74,3.48-1.94,4.68c-1.2,1.2-2.85,1.94-4.68,1.94s-3.48-.74-4.68-1.94-1.94-2.85-1.94-4.68,.74-3.48,1.94-4.68h0Zm1.43-6.56c-.92,.26-1.79,.64-2.59,1.1-.83,.48-1.59,1.06-2.28,1.71-.13,.13-.33,.15-.48,.06l-3.07-1.77h-.02c-.18-.11-.38-.12-.56-.07-.19,.05-.36,.17-.46,.35v.02s-2.18,3.75-2.18,3.75c-.1,.18-.12,.39-.07,.58,.05,.19,.17,.36,.35,.46h.02s3.05,1.77,3.05,1.77c.16,.09,.23,.28,.19,.45h0c-.11,.45-.2,.92-.26,1.4-.06,.46-.09,.94-.09,1.42s.03,.96,.09,1.42c.06,.48,.15,.94,.26,1.4,.05,.19-.05,.38-.21,.46l-3.05,1.76h0c-.18,.1-.3,.27-.35,.46-.05,.19-.03,.4,.07,.58l2.18,3.77h0c.1,.18,.27,.3,.46,.35,.19,.05,.4,.03,.58-.07h.02s3.05-1.78,3.05-1.78c.16-.09,.36-.06,.48,.06,.68,.66,1.45,1.24,2.27,1.71,.81,.47,1.69,.84,2.61,1.11,.18,.05,.3,.21,.3,.39v3.55c0,.21,.09,.4,.22,.54,.14,.14,.33,.22,.54,.22h4.35c.21,0,.4-.09,.54-.22,.14-.14,.22-.33,.22-.54v-3.55c0-.19,.13-.35,.31-.4,.92-.26,1.79-.64,2.59-1.1,.83-.48,1.59-1.06,2.28-1.71,.14-.13,.35-.15,.5-.05l3.05,1.76c.18,.1,.39,.12,.58,.07,.19-.05,.36-.17,.46-.35v-.02s2.18-3.75,2.18-3.75h0c.1-.18,.12-.39,.07-.58-.05-.19-.17-.36-.35-.46l-3.07-1.77c-.16-.09-.23-.28-.19-.45h0c.11-.45,.2-.92,.26-1.4,.06-.46,.09-.94,.09-1.42s-.03-.96-.09-1.43c-.06-.48-.14-.94-.26-1.4-.05-.19,.05-.38,.21-.46l3.05-1.76c.18-.1,.3-.27,.35-.46,.05-.19,.03-.4-.07-.58v-.02s-2.18-3.75-2.18-3.75h0c-.1-.18-.27-.3-.46-.35-.19-.05-.4-.03-.58,.07h0s-3.07,1.78-3.07,1.78c-.16,.1-.37,.06-.49-.07-.68-.66-1.44-1.23-2.27-1.71-.81-.47-1.69-.84-2.61-1.11-.18-.05-.3-.21-.3-.39v-3.55c0-.21-.09-.4-.22-.54-.14-.14-.33-.22-.54-.22h-4.35c-.21,0-.4,.09-.54,.22-.14,.14-.22,.33-.22,.54v3.55c0,.19-.13,.35-.31,.4Z"/>
      <path class="cls-18" d="M643.08,173.05h0Zm3.44-13.1c1.2-1.2,2.85-1.94,4.68-1.94s3.48,.74,4.68,1.94c1.2,1.2,1.94,2.85,1.94,4.68s-.74,3.48-1.94,4.68c-1.2,1.2-2.85,1.94-4.68,1.94s-3.48-.74-4.68-1.94c-1.2-1.2-1.94-2.85-1.94-4.68s.74-3.48,1.94-4.68h0Zm1.43-6.56c-.92,.26-1.79,.64-2.59,1.1-.83,.48-1.59,1.06-2.28,1.71-.13,.13-.33,.15-.48,.06l-3.07-1.78h-.02c-.18-.11-.38-.12-.56-.07-.19,.05-.36,.17-.46,.35v.02s-2.18,3.75-2.18,3.75c-.1,.18-.12,.39-.07,.58,.05,.19,.17,.36,.35,.46h.02s3.05,1.77,3.05,1.77c.16,.09,.23,.28,.19,.45h0c-.11,.45-.2,.92-.26,1.4-.06,.47-.09,.94-.09,1.43s.03,.96,.09,1.42c.06,.48,.14,.94,.26,1.4,.05,.19-.05,.38-.21,.46l-3.05,1.76h0c-.18,.1-.3,.27-.35,.46-.05,.19-.03,.4,.07,.58l2.17,3.77h0c.1,.18,.27,.3,.46,.35,.19,.05,.4,.03,.58-.07h.02s3.05-1.77,3.05-1.77c.16-.09,.36-.06,.48,.06,.68,.66,1.45,1.24,2.27,1.71,.81,.47,1.69,.84,2.61,1.11,.18,.05,.3,.21,.3,.39v3.55c0,.21,.09,.4,.22,.54,.14,.14,.33,.22,.54,.22h4.35c.21,0,.4-.09,.54-.22,.14-.14,.22-.33,.22-.54v-3.55c0-.19,.13-.35,.31-.4,.92-.26,1.79-.64,2.59-1.1,.83-.48,1.59-1.05,2.28-1.71,.14-.13,.35-.15,.5-.05l3.05,1.76c.18,.1,.39,.12,.58,.07,.19-.05,.36-.17,.46-.35v-.02s2.18-3.75,2.18-3.75h0c.1-.18,.12-.39,.07-.58-.05-.19-.17-.36-.35-.46l-3.07-1.77c-.16-.09-.23-.28-.19-.45h0c.11-.45,.2-.92,.26-1.4,.06-.46,.09-.94,.09-1.42s-.03-.96-.09-1.43c-.06-.48-.14-.94-.26-1.4-.05-.19,.05-.38,.21-.46l3.05-1.76c.18-.1,.3-.27,.35-.46,.05-.19,.03-.4-.07-.58v-.02s-2.17-3.75-2.17-3.75h0c-.1-.18-.27-.3-.46-.35-.19-.05-.4-.03-.58,.07h0l-3.07,1.78c-.16,.1-.37,.06-.49-.07-.68-.66-1.44-1.23-2.27-1.71-.81-.47-1.69-.84-2.61-1.11-.18-.05-.3-.21-.3-.39v-3.55c0-.21-.09-.4-.22-.54-.14-.14-.33-.22-.54-.22h-4.35c-.21,0-.4,.09-.54,.22-.14,.14-.22,.33-.22,.54v3.55c0,.19-.13,.35-.31,.4Z"/>
      <path class="cls-18" d="M493.08,64.36h0Zm3.44-13.1c1.2-1.2,2.85-1.94,4.68-1.94s3.48,.74,4.68,1.94c1.2,1.2,1.94,2.85,1.94,4.68s-.74,3.48-1.94,4.68c-1.2,1.2-2.85,1.94-4.68,1.94s-3.48-.74-4.68-1.94c-1.2-1.2-1.94-2.85-1.94-4.68s.74-3.48,1.94-4.68h0Zm1.43-6.56c-.92,.26-1.79,.64-2.59,1.1-.83,.48-1.59,1.06-2.28,1.71-.13,.13-.33,.15-.48,.06l-3.07-1.78h-.02c-.18-.11-.38-.12-.56-.07-.19,.05-.36,.17-.46,.35v.02s-2.17,3.75-2.17,3.75c-.1,.18-.12,.39-.07,.58,.05,.19,.17,.36,.35,.46h.02s3.05,1.77,3.05,1.77c.16,.09,.23,.28,.19,.45h0c-.11,.45-.2,.92-.26,1.4-.06,.47-.09,.94-.09,1.43s.03,.96,.09,1.42c.06,.48,.14,.94,.26,1.4,.05,.19-.05,.38-.21,.46l-3.05,1.76h0c-.18,.1-.3,.27-.35,.46-.05,.19-.03,.4,.07,.58l2.17,3.77h0c.11,.18,.27,.3,.46,.35,.19,.05,.4,.03,.58-.07h.02s3.05-1.77,3.05-1.77c.16-.09,.36-.06,.48,.06,.68,.66,1.45,1.24,2.27,1.71,.81,.47,1.69,.84,2.61,1.11,.18,.05,.29,.21,.29,.39v3.55c0,.21,.09,.4,.22,.54,.14,.14,.33,.22,.54,.22h4.35c.21,0,.4-.09,.54-.22s.22-.33,.22-.54v-3.55c0-.19,.13-.35,.31-.4,.92-.26,1.79-.64,2.59-1.1,.83-.48,1.59-1.05,2.28-1.71,.14-.13,.35-.15,.5-.05l3.05,1.76c.18,.1,.39,.12,.58,.07,.19-.05,.36-.17,.46-.35v-.02s2.18-3.75,2.18-3.75h0c.1-.18,.13-.39,.07-.58-.05-.19-.17-.36-.35-.46l-3.07-1.77c-.16-.09-.23-.28-.19-.45h0c.11-.45,.2-.92,.26-1.4,.06-.46,.09-.94,.09-1.42s-.03-.96-.09-1.43c-.06-.48-.14-.94-.26-1.4-.05-.19,.05-.38,.21-.46l3.05-1.76c.18-.1,.3-.27,.35-.46,.05-.19,.03-.4-.07-.58v-.02s-2.17-3.75-2.17-3.75h0c-.1-.18-.27-.3-.46-.35-.19-.05-.4-.03-.58,.07h0l-3.07,1.78c-.17,.09-.37,.06-.49-.07-.68-.66-1.44-1.23-2.27-1.71-.81-.47-1.69-.84-2.61-1.11-.18-.05-.3-.21-.3-.39v-3.55c0-.21-.09-.4-.22-.54-.14-.14-.33-.22-.54-.22h-4.35c-.21,0-.4,.09-.54,.22s-.22,.33-.22,.54v3.55c0,.19-.13,.35-.31,.4Z"/>
      <g>
        <path class="cls-13" d="M653.89,443.55s-1.2-2.11-2.97-1.17c-1.77,.94-2.08,.83-3.75-.28-1.67-1.11-5.14,.17-5.14,.17,0,0-10.12,3.5-11.42,4.05-1.3,.55-2.34,1.61-2.34,4.66l1.41,1.5h23.86s1.2-1.05,1.25-1.94c.05-.89,.05-5.66-.89-6.99Z"/>
        <rect class="cls-30" x="627.38" y="450.6" width="28.21" height="2.88" rx=".83" ry=".83"/>
        <path class="cls-13" d="M595.27,443.02s-1.26-2.22-3.13-1.23c-1.87,.99-2.2,.88-3.95-.29-1.76-1.17-5.42,.17-5.42,.17,0,0-10.66,3.68-12.04,4.27-1.37,.58-2.47,1.7-2.47,4.91l1.48,1.58h25.15s1.26-1.11,1.32-2.05c.06-.94,.06-5.96-.93-7.37Z"/>
        <rect class="cls-30" x="567.32" y="450.44" width="29.73" height="3.04" rx=".88" ry=".88"/>
        <path class="cls-29" d="M546.46,210.28c-1.49-1.69-1.83-3.52-1.83-4.72s.43-3.23-.34-5.88c-.77-2.65-1.64-1.78-1.88-.19-.24,1.59-.96,3.61-.96,3.61,0,0-4.05-3.37-5.59-4.91-1.54-1.54-3.18-1.4-3.08-.15,.1,1.25,.58,1.25,.1,1.45-.48,.19-.92,.48-.72,1.35l.19,.87s-1.06,.14-1.11,.96c-.05,.82,.67,1.88,.67,1.88,0,0-1.21,.63-.96,1.2,.24,.58,3.04,3.71,5.01,5.01,1.98,1.3,5.2,2.89,6.17,4.14,.96,1.25,4.34-4.62,4.34-4.62Z"/>
        <path class="cls-6" d="M608.16,281.93c-1.92-.49-3.67-.99-4.31,1.42-6.68,25.41-10.79,48.06-12.84,73.72-.71,10.65,8.41,13.2,11.97,11.31,10.66-5.68,32.09-73.08,32.14-73.46,1.55-10.73-26.96-12.99-26.96-12.99Z"/>
        <path class="cls-9" d="M616.02,285.99c-1.97,.14-3.8,.2-3.65,2.69,1.57,26.22,4.72,49.03,10.77,74.05,2.65,10.34,12.1,9.92,14.89,7.01,8.36-8.71,7.72-79.44,7.65-79.82-1.87-10.67-29.66-3.94-29.66-3.94Z"/>
        <path class="cls-6" d="M590.33,362.74c-.6,18.17,.34,57.35-4.83,79.2,1.56,1.9,6.56,3.29,8.77,1.31,1.94-1.75,12.16-51.83,14.16-79.68,0,0,.67-9.94-2.99-13.42-3.58-3.4-14.41-3.12-15.11,12.59Z"/>
        <path class="cls-9" d="M624.26,368.33c4.83,16.56,16.87,50.66,19.72,73.21,.84,6.68,8.46,2.02,8.69,1.62,1.3-2.27-4.17-52.6-10.95-79.69,0,0-2.46-9.65-7.02-11.82-4.46-2.12-14.67,1.52-10.44,16.68Z"/>
        <path class="cls-12" d="M645.83,290.76c-6.13,14.63-41.74,12.7-44.85,6.64h0c-1.04-2.04-.44-5.05,.03-7.75,6.01-34.52-8.87-76.47,15.28-88.37l3.31-1.63c.24-1.32,.01-2.71-.53-4.11,2.71-.48,5.06,3.4,7.97,3.52l2.79-1.06c19.44,10.26,9.15,37.24,12.17,61.91,1.31,10.7,6.61,24.2,3.83,30.85Z"/>
        <path class="cls-12" d="M621.83,232.49c-16.14,3.79-35,8.82-38.6,8.03-4.65-1.02-36.76-18.02-42.48-25.22-.09-.12,3.68-4.86,4.18-5.51,.95-1.23,.23-2.03,1.09-.66,.86,1.36,31.53,12.42,37.38,15.21,5.85,2.79,27.56-11.13,31.78-12.75,19.52-7.48,30.54,15.29,6.66,20.9Z"/>
        <path class="cls-29" d="M595.39,167.35l-1.16,6.99s5.72,17.56,8.64,20.54c2.92,2.98,5.32,4.02,9.43,2.44,4.11-1.58,2.83-8.27,2.81-10.3-.02-2.03-5.91-19.66-19.72-19.67Z"/>
        <path class="cls-29" d="M611.22,188.65l-4.01,2.48s6.93,12.99,7.78,13.35c.85,.37,15.02-6.12,13.65-7.92-1.36-1.8-3.07-3.28-4.08-5.33-1-2.05-2-4.91-2-4.91l-11.35,2.32Z"/>
        <path class="cls-8" d="M613.61,202.56s-.59,.72-.41,1.48c.12,.5,.4,1.88,.58,2.76,.09,.45,.15,.76,.15,.76,0,0,1.15,.93,4.97-.99,3.81-1.92,10.69-6.32,11.08-7.07,.4-.75-1.53-3.93-1.53-3.93,0,0-9.56,5.43-14.84,6.98Z"/>
        <path class="cls-14" d="M594.23,174.34s1.86-4.21,5.08-1.22c3.22,2.98,2.32,9.07,2.74,9.76,.42,.7,.78-3.98,3.14-3.81,2.36,.18,1.29,6.14,.99,8.37-.3,2.23,3.11,4.47,5.5,5.77,2.39,1.29,11.79-.88,12.88-1.97,1.09-1.09,4.78-16.97,.49-27.85-4.29-10.89-15.56-11.51-22.33-6.86-5.97,4.1-6.14-1.44-10.89,3.23-4.12,4.04-.94,12.2,2.38,14.59Z"/>
        <path class="cls-14" d="M594.31,173.16c.12,.04,.18,.17,.14,.29-.04,.12-.17,.18-.29,.14-.02,0-6.24-2.23-5.67-10.35,0-.13,.12-.22,.24-.21s.22,.12,.21,.24c-.55,7.78,5.35,9.88,5.37,9.89Z"/>
        <path class="cls-14" d="M607.97,156.2c.09-.09,.23-.09,.32,0,.09,.09,.09,.23,0,.32-.01,.01-4.57,4.8-11.76,.98-.11-.06-.15-.2-.09-.31,.06-.11,.2-.15,.31-.09,6.89,3.66,11.21-.88,11.22-.9Z"/>
        <path class="cls-29" d="M594.35,171.41s-.31,7.18-.26,8.5c.06,1.32,1.18,2.23,1.47,4.05,.3,1.83-.13,5.64-.04,6.59,.09,.95,2.24,.43,2.81,.94,.06,.06,4.64,5.92,4.7,6.04,1.66,4.02,5.64,.86,7.8-.36l-6.3-7.55-5.55-21.84c-2.27,.82-4.08,1.99-4.61,3.61Z"/>
      </g>
      <g>
        <path class="cls-1" d="M349.81,299.01c.15,3.7,.54,4.94,2.07,6.37,2.13,2-1.03,3.85-.63,5.98,.15,.84,1.27,.11,2.02-.49,.75-.6-.84,1.83,.21,1.44,1.03-.41,1.87-1.4,1.87-1.4,0,0-.34,1.83,.36,1.59,3.25-1.16,1.96-9.61,.58-11.67-.11-.19-3.76-4.86-5.59-6.06-1.1-.71-.79,1.79-.79,1.79l-.09,2.43Z"/>
        <path class="cls-20" d="M350.55,292.34c5.53,7.31,6.92,6.53,6.71,11.67-.04,1.35-.04,2.3-.02,2.97,.07,3.16-2.71,.93-2.54-3.37,0,0-3.37-1.78-3.57-6.04-.19-4.24-.58-5.24-.58-5.24h0Z"/>
        <path class="cls-38" d="M411.21,187.84c-5.07-3.57-11.12-4.77-16.79-3.78-5.68,.97-10.99,4.11-14.57,9.2-3.59,5.07-4.77,11.12-3.79,16.79,.97,5.68,4.13,10.97,9.2,14.56,5.08,3.57,11.12,4.77,16.81,3.8,5.67-.99,10.98-4.13,14.55-9.2,3.59-5.09,4.77-11.12,3.8-16.81-.97-5.66-4.11-10.97-9.2-14.56h0Z"/>
        <path class="cls-12" d="M401.8,199.49l8.32-.03c.54,0,1.02,.34,1.19,.85,.17,.51-.03,1.08-.45,1.39l-6.76,4.88,2.58,7.89c.17,.54,0,1.08-.42,1.39-.46,.31-1.03,.31-1.48,0l-6.7-4.91-6.73,4.91c-.45,.31-1.02,.31-1.48,0-.43-.31-.59-.85-.43-1.39l2.58-7.89-6.76-4.88c-.42-.31-.59-.88-.45-1.39,.17-.51,.65-.85,1.19-.85l8.32,.03,2.55-7.92c.17-.54,.62-.85,1.19-.85,.54,0,.99,.31,1.16,.85l2.56,7.92Z"/>
        <path class="cls-17" d="M381.85,219.85h34.29c-3.57,4.69-8.66,7.61-14.08,8.56-5.68,.97-11.72-.22-16.81-3.8-1.83-1.31-3.42-2.84-4.75-4.52,.41-.15,.88-.24,1.35-.24h0Z"/>
        <path class="cls-14" d="M337.75,203.34s-4.43,7.4,2,14.41c10.75,11.72,13.85,31.99-5.7,26.96-19.54-5.01-16.94-24.88-15.2-28.16,1.74-3.27,.49-15.54,4.58-16.19,4.08-.66,14.32,2.97,14.32,2.97h0Z"/>
        <path class="cls-14" d="M291.3,438.72l-1.03,.9s1.27,10.3,.52,14.13h2.15l1.57-10.99-3.22-4.04Z"/>
        <path class="cls-14" d="M248.71,432.58l-1.03,1.25s1.27,14.51,.54,19.91h2.13l1.57-15.48-3.22-5.68Z"/>
        <path class="cls-1" d="M315.01,329.79s-13.37,30.51-15.67,34.79c-2.32,4.28-22.59,34.96-29.52,50.13-6.92,15.16-7.25,14.92-7.18,19.13,.09,4.21,1.65,10.36,1.74,10.86,.07,.49,.99,5.42,.34,5.59-.67,.17-6.6-5.89-6.6-5.89,0,0-3.14-4.09-3.72-5.16-.56-1.07-4.08-3.81-4.08-3.81l-2.6-5.78s4.77-1.57,7.82-6.67c3.05-5.12,25.41-58.56,27.9-62.35,2.47-3.8,10.47-14.92,12.86-19.61,2.39-4.71,2.06-21.2,2.06-21.2l16.66,9.99Z"/>
        <path class="cls-20" d="M308.58,323.19s-3.63,28.53-3.96,31.67c-.32,3.12-5.78,69.91-5.1,73.54,.65,3.63,5.61,15.74,8.82,18.81,3.22,3.05-1.66,3.7-2.8,3.78-1.16,.09-13.78-13.42-14.27-14.1-.5-.65-.5-1.48-.5-1.48,0,0,2.23-7.83,2.15-9.14-.07-1.33-3.29-52.11-2.64-57.23,.65-5.1,1.64-14,1.81-16.66,.17-2.64-1.33-34.63-.99-36.61,.34-1.96,17.48,7.42,17.48,7.42h0Z"/>
        <path class="cls-9" d="M325.99,262.56l-3.07,8.08s1.08,2.97,.41,9.24c-.65,6.26-4.77,43.04-2.47,62.82,0,0-29.02,14.51-56.73-11.7,0,0,9.57-11.55,13.52-26.55,3.96-15.01,15.01-43.21,26.72-47.25,11.7-4.04,21.61,5.37,21.61,5.37h0Z"/>
        <path class="cls-4" d="M328.45,224.21s-5.25,5.44-6.17,11.01c-.92,5.55,5.09,35.69,5.33,37.41,.26,1.7,20.6,28.57,20.6,28.57l4.45-6.79s-16.51-23.2-17.13-26.36c-.62-3.16,.26-23.69,.26-23.69l-.75-14.23-6.6-5.93Z"/>
        <path class="cls-16" d="M327.37,198.87l1.1,6.84s-4.34,6.6-2.58,11.98c1.76,5.39-10.84-3.07-14.3-6.97-3.46-3.91-2.04-5.93-2.04-5.93,0,0,6.02-5.23,7.42-10.9,1.42-5.65,10.4,4.97,10.4,4.97h0Z"/>
        <path class="cls-1" d="M331.37,215.63c-.08-.65-.15-4.86-.15-4.86,0,0,.65-4.62,2.64-5.44,1.98-.82-5.24-4.62-5.24-4.62,0,0-7.22-1.31-8.02-.36-.8,.94-1.74,5.5-1.74,5.5,0,0,.67,7.33,1.83,7.48,1.18,.15,10.68,2.3,10.68,2.3h0Z"/>
        <path class="cls-20" d="M338.48,176.83c1.37,1.01,3.2,2.21,3.83,5.23,.69,3.4,.06,8.79,.69,11.2,.88,3.31,1.79,3.8,1.61,4.45-.17,.58-1.1,.47-2.13,1.06-.58,.36-.6,1.87-.79,2.51-.8,2.62,.26,5.94-6.92,5.14-5.5-.62-10.3-2.9-14.17-6.08s-4.66-14-1.38-17.01c3.25-3.01,10.51-11.35,19.26-6.51h0Z"/>
        <path class="cls-19" d="M318.86,205.85s-13.24,10.04-14.98,18.7c-1.76,8.66,3.53,23.58-3.22,33.47,0,0-1.36,1.57-1.4,1.98-.04,.41,10.96,15.26,24.33,14.43,0,0,.49-.34,.52-.88,.06-.52,8.99-19.07,11.63-22.38,2.64-3.29,4.86-8.41,5.2-11.05,.34-2.64-7.45-14.31-8.28-17.78-.82-3.46-1.45-11.57-1.45-11.57,0,0-6.6,.99-12.36-4.92h0Z"/>
        <path class="cls-8" d="M331.22,210.76s-4.9,.75-9.93-2.82c-.9,.19-1.51,.3-1.63,.28-.5-.06-7.17,5.06,3.33,7.9,6.96,1.87,8.19,2.36,8.75,1.12l-.53-6.49Z"/>
        <path class="cls-4" d="M341.06,261.62s-15.39-30.35-17.57-34.22c-2.21-3.85-7.87-5.33-10.83-3.37-2.97,1.96-1.29,11.7,3.95,19.43,5.24,7.72,18.86,24.64,20.27,25.2,1.4,.56,3.48,.19,4.11-.99,.64-1.16,.73-4.94,.07-6.06h0Z"/>
        <path class="cls-34" d="M388.06,225.68l-10.28,19.03c-.39,.71-.13,1.59,.58,1.98,.71,.39,1.61,.13,1.98-.58l10.38-19.2c-.92-.26-1.81-.65-2.66-1.23h0Z"/>
        <path class="cls-4" d="M370.28,241.2c-6.71,4.02-30.68,17.93-32.48,19.05-2.08,1.29-4.39,5.76-1.25,8.19,3.14,2.43,8.97-.73,11.82-2.84,2.47-1.81,18.68-15.59,23.48-19.63-1.37-1.46-1.63-3.38-1.57-4.77h0Z"/>
        <path class="cls-20" d="M387.44,236.08c.09-.22-1.07-3.12-1.61-3.8-.52-.65-1.08-1.63-3.29-1.31-2.19,.32-2.79,.34-3.74,.94-.95,.6-5.95,7.52-6.81,8.23-.11,.09-.73,.47-1.72,1.07-.06,1.38,.21,3.31,1.57,4.77,.77-.64,1.25-1.03,1.33-1.1,.64-.45,4.17-.65,4.86-.95,.67-.3,2.24-3.57,2.94-4.04,.71-.45,2.22,.73,2.06,1.25,0,0,1.03-.39,1.29-.84,.26-.45,.37-1.25,.37-1.25,0,0,.92-.19,1.12-.39,.19-.2,.32-.93,.32-.93,.67-.56,.92-.8,1.31-1.63h0Z"/>
        <path class="cls-14" d="M342.29,181.91s2.94-8.3-1.18-11.33c-4.52-3.33-23.13-9.83-23.67,1.03,0,0-5.98-.11-7.67,4.81-1.68,4.92,.95,10.43-6.54,15.11-7.5,4.67-19.97,17.03-14.77,29.77,5.18,12.73,21.71,16.25,31.62,9.01,9.91-7.25,8.15-13.61,7.8-17.39-.37-3.76,2.84-7.31,6.43-10.02,3.59-2.73,4.08-6.34,1.63-9.95-2.47-3.63,1.36-9.57,6.36-11.03h0Z"/>
        <path class="cls-26" d="M264.38,444.7s1.4,.24,2.15,.6c.73,.35,5.14,4.13,5.65,4.52,.49,.37,1.93,3.93-1.91,3.93h-6.92c-1.4,0-5.57-5.27-7.09-7.39-1.53-2.13-8.82-11.35-9.24-11.96-.41-.62-1.05-4.9,.69-4.75,0,0,13.18,16.38,13.46,16.7,.3,.3,.82,.63,2.02,.88,1.22,.24,1.18-.99,1.18-2.52h0Z"/>
        <path class="cls-26" d="M307.61,446.42s1.42-.06,2.17,.15c.73,.21,5.14,3.1,5.65,3.38,.49,.3,2.02,3.79-1.91,3.79h-9.35c-1.91,0-3.14-2.23-4.66-4.04-1.53-1.81-8.82-9.57-9.24-10.1-.41-.54-1.05-4.69,.69-4.9,0,0,13.18,13.74,13.46,13.98,.28,.24,.82,.47,2.02,.47s1.16-1.21,1.16-2.75h0Z"/>
        <path class="cls-11" d="M412.38,186.18c-5.53-3.91-12.13-5.2-18.32-4.13-6.19,1.07-11.97,4.51-15.87,10.04-3.91,5.53-5.2,12.13-4.13,18.32,1.07,6.19,4.49,11.97,10.02,15.87,5.53,3.91,12.13,5.2,18.32,4.13,6.19-1.07,11.97-4.51,15.87-10.04,3.91-5.53,5.22-12.13,4.13-18.3-1.07-6.19-4.49-11.98-10.02-15.89h0Zm-17.78-1.01c5.38-.93,11.14,.19,15.95,3.59,4.83,3.4,7.82,8.45,8.75,13.84,.93,5.4-.21,11.14-3.61,15.97-3.4,4.82-8.43,7.82-13.84,8.73-5.38,.93-11.12-.19-15.95-3.59-4.83-3.4-7.82-8.45-8.75-13.84-.92-5.38,.2-11.14,3.61-15.97,3.4-4.82,8.43-7.81,13.84-8.73h0Z"/>
      </g>
    </g>
  </g>
</svg>