<?xml version="1.0" encoding="UTF-8"?>
<svg xmlns="http://www.w3.org/2000/svg" xmlns:xlink="http://www.w3.org/1999/xlink" viewBox="0 0 606.22 336.34">
  <defs>
    <style>
      .cls-1 {
        fill: #f27749;
      }

      .cls-2 {
        fill: #9bacb2;
      }

      .cls-3, .cls-4 {
        fill: #fff;
      }

      .cls-5 {
        fill: #d39142;
      }

      .cls-6 {
        fill: #f2682d;
      }

      .cls-7 {
        fill: #02403f;
      }

      .cls-8 {
        stroke-width: .55px;
      }

      .cls-8, .cls-9, .cls-10, .cls-11, .cls-12, .cls-13, .cls-14, .cls-15, .cls-16, .cls-17, .cls-18, .cls-19, .cls-20, .cls-21 {
        stroke-miterlimit: 10;
      }

      .cls-8, .cls-9, .cls-11, .cls-12, .cls-14, .cls-15, .cls-16, .cls-17, .cls-18, .cls-19, .cls-20, .cls-21 {
        fill: none;
      }

      .cls-8, .cls-20 {
        stroke: #fff;
      }

      .cls-22 {
        opacity: .34;
      }

      .cls-22, .cls-23 {
        fill: #f1f1f1;
      }

      .cls-24 {
        fill: #cc5c45;
      }

      .cls-9, .cls-21 {
        stroke: #f6e7da;
      }

      .cls-25 {
        clip-path: url(#clippath-2);
      }

      .cls-26 {
        isolation: isolate;
      }

      .cls-27, .cls-28 {
        fill: #cf5223;
      }

      .cls-10, .cls-13, .cls-14, .cls-19 {
        stroke-width: .32px;
      }

      .cls-10, .cls-29 {
        fill: #001929;
      }

      .cls-10, .cls-17, .cls-19 {
        stroke: #001929;
      }

      .cls-11 {
        stroke: #f1f1f1;
      }

      .cls-11, .cls-16 {
        stroke-width: 1.11px;
      }

      .cls-30 {
        fill: #f7a096;
      }

      .cls-12 {
        stroke: #8f3231;
        stroke-width: 2.77px;
      }

      .cls-31 {
        opacity: .58;
      }

      .cls-32, .cls-33 {
        fill: #e3d0bd;
      }

      .cls-34 {
        opacity: .21;
      }

      .cls-34, .cls-33, .cls-28 {
        mix-blend-mode: multiply;
      }

      .cls-13, .cls-14 {
        stroke: #000;
      }

      .cls-35 {
        opacity: .57;
      }

      .cls-36 {
        fill: #001d55;
      }

      .cls-37 {
        opacity: .26;
      }

      .cls-38 {
        fill: #070b0c;
      }

      .cls-15 {
        stroke-width: .7px;
      }

      .cls-15, .cls-16 {
        stroke: #070b0c;
      }

      .cls-15, .cls-21 {
        stroke-linecap: round;
      }

      .cls-39 {
        fill: #f1500c;
      }

      .cls-40 {
        clip-path: url(#clippath);
      }

      .cls-41 {
        fill: #913424;
      }

      .cls-42 {
        fill: #02595d;
      }

      .cls-43 {
        fill: #d44f18;
      }

      .cls-44 {
        fill: #f6e7da;
      }

      .cls-45 {
        opacity: .46;
      }

      .cls-17 {
        stroke-width: .36px;
      }

      .cls-18 {
        stroke: #fcfcfc;
        stroke-width: .46px;
      }

      .cls-20 {
        stroke-width: .45px;
      }

      .cls-4 {
        opacity: .27;
      }

      .cls-21 {
        stroke-width: .75px;
      }

      .cls-46 {
        fill: #8f3231;
      }

      .cls-28 {
        opacity: .42;
      }

      .cls-47 {
        fill: #fad082;
      }

      .cls-48 {
        fill: #fcfcfc;
      }
    </style>
    <clipPath id="clippath">
      <path class="cls-23" d="M324.39,45.22s1.69,39.65,8.87,39.46c8.42-.22,10.42-39.24,10.42-39.24l12.3,7.98s.65,21.78,3.33,31.59c2,7.32,9.64,9.64,9.64,9.64l12.64,148.31-93.78-2,10.03-145.44s9.15-2.21,10.26-11.52l2.66-31.92,13.63-6.87Z"/>
    </clipPath>
    <clipPath id="clippath-2">
      <path class="cls-23" d="M360.85,52.73s3.5,17.37,23.42,12.42c19.92-4.95,14.95-23.57,14.95-23.57l25.64,7.86s16.91,10.81,23.77,18.32l-10.84,18.85-6.93-3.63,13.14,35.82-70.97,22.21-11.53-38.9-3.04,6.75-26.29-7.87,11.39-27.39,17.3-20.87Z"/>
    </clipPath>
  </defs>
  <g class="cls-26">
    <g id="OBJECTS">
      <g>
        <g>
          <g>
            <path class="cls-23" d="M340.08,238.35c2.72,5.47,5.51,10.9,8.39,16.29,3.26,6.11,6.61,12.18,10.07,18.18-4.86,12.98-8.76,26.32-11.62,39.89l-32.65-.07s9.97-36.1,25.81-74.28Z"/>
            <path class="cls-23" d="M362.43,262.97c-1.02,2.43-2,4.87-2.95,7.33-6.39-11.15-12.4-22.51-18.11-34.01-.08-.16-.17-.27-.28-.36,.87-2.08,1.77-4.16,2.67-6.24,6.57,10.83,12.76,21.88,18.58,33.14,.03,.06,.06,.1,.09,.15Z"/>
            <path class="cls-23" d="M399.36,276.02c-3.27,5.94-6.58,11.86-9.22,18.11-2.31,5.47-4.34,11.43-4.27,17.44-3.58-4.98-7.05-10.03-10.41-15.16-5.1-7.79-9.97-15.74-14.64-23.79,6.81-17.99,15.5-35.27,25.86-51.49,6.24-9.77,13.09-19.14,20.49-28.04,.04,0,.07,.02,.11,.02,4.99,.52,9.96,1.18,14.91,1.98,3.9,.63,7.78,1.36,11.64,2.17-1.04,3.46-2.52,6.68-4.43,9.47-13.37,19.53,5.02,12.28,15.42,17.48,.64,.32,1.3,.74,1.97,1.24-7.8,3.08-14.35,8.41-20.28,14.22-10.91,10.69-19.81,22.99-27.16,36.34Z"/>
            <path class="cls-23" d="M356.13,286.06c1.17-3.66,2.43-7.3,3.75-10.91,7.52,12.91,15.57,25.52,24.3,37.64l-35.14-.08c1.91-9,4.28-17.89,7.09-26.65Z"/>
            <path class="cls-23" d="M408.78,191.18c7.36-8.69,15.27-16.92,23.66-24.62,3.58,8.67,4.26,19.38,1.95,28.69-8.47-1.77-17.02-3.12-25.62-4.07Z"/>
            <path class="cls-23" d="M416.42,151.12c.34,2.98-2.3,6.12-5.45,5.65-2.86-.42-4.72-3.67-3.93-6.36,.03-.09,.04-.18,.05-.27,3.42-.39,6.53-.13,9.34,.68-.01,.09-.02,.19,0,.3Z"/>
            <path class="cls-23" d="M393.31,292.11c2.7-5.84,5.88-11.45,8.98-17.08,3.61-6.56,7.73-12.84,12.3-18.77,4.52-5.86,9.49-11.39,14.85-16.49,5.32-5.06,11.22-9.69,18.12-12.38,.38-.15,.59-.44,.67-.75,7.32,6.84,13.56,23.41-3.37,37.67-19.53,16.45-15.42,18.51-12.34,30.84,3.08,12.34-1.79,17.74-1.79,17.74l-42.7-.1c-.43-7.17,2.35-14.3,5.3-20.69Z"/>
            <path class="cls-23" d="M431.5,164.58c-10.01,9.13-19.32,19-27.86,29.51-15.24,18.76-28.05,39.48-38,61.51-.73,1.62-1.45,3.26-2.15,4.89-5.65-10.87-11.65-21.55-18-32.02-.24-.4-.61-.53-.97-.49,16.25-36.88,37.6-72.85,60.37-77.49-.69,3.73,1.97,7.78,5.81,8.34,4.14,.59,8.03-3.19,7.85-7.28,5.78,2.34,10.12,7.08,13,13-.01,.01-.02,.02-.04,.03Z"/>
          </g>
          <g>
            <path class="cls-44" d="M434.95,313.32s14.65-22.16,30.43-41.89c4.45,5.34,8.75,10.8,12.89,16.38,.02,.03,.04,.05,.06,.07-6.61,7.74-12.85,15.8-18.7,24.13-.2,.28-.13,.55,.05,.74l-24.73,.57Z"/>
            <path class="cls-44" d="M479.21,286.86c-4.17-5.61-8.5-11.11-12.98-16.48,2.36-2.93,4.75-5.8,7.1-8.52,3.7,6.83,7.09,13.84,9.04,21.38-1.06,1.2-2.12,2.4-3.16,3.62Z"/>
            <path class="cls-44" d="M460.77,312.68c2.44-3.47,4.94-6.9,7.51-10.27,.75-.99,1.51-1.97,2.28-2.95,.05,0,.1,.01,.15,.01,10.14-.02,20.37-.19,30.37,1.74,.84,.16,1.19-1.12,.35-1.28-9.83-1.9-19.87-1.81-29.85-1.79,7.26-9.19,15.05-17.97,23.28-26.31,.12,.98,.57,1.77,1.47,2.29,7.84,4.57,8.49-11.76,22.21-5.23,13.72,6.53-26.78,43.11-26.78,43.11l-31.03,.71s.02-.03,.03-.04Z"/>
            <path class="cls-44" d="M494.99,269.84c1.7-8.65,16.89-25.7,4.62-28.37-5.34-1.16-15.05,7.58-25.35,19.32,3.7,6.8,7.12,13.78,9.17,21.27,1.52-1.7,3.06-3.38,4.62-5.05,2.27-2.43,4.59-4.82,6.94-7.17Z"/>
          </g>
          <g>
            <path class="cls-23" d="M287.83,238.35c-2.72,5.47-5.51,10.9-8.39,16.29-3.26,6.11-6.61,12.18-10.07,18.18,4.86,12.98,8.76,26.32,11.62,39.89l32.65-.07s-9.97-36.1-25.81-74.28Z"/>
            <path class="cls-23" d="M265.48,262.97c1.02,2.43,2,4.87,2.95,7.33,6.39-11.15,12.4-22.51,18.11-34.01,.08-.16,.17-.27,.28-.36-.87-2.08-1.77-4.16-2.67-6.24-6.57,10.83-12.76,21.88-18.58,33.14-.03,.06-.06,.1-.09,.15Z"/>
            <path class="cls-23" d="M228.55,276.02c3.27,5.94,6.58,11.86,9.22,18.11,2.31,5.47,4.34,11.43,4.27,17.44,3.58-4.98,7.05-10.03,10.41-15.16,5.1-7.79,9.97-15.74,14.64-23.79-6.81-17.99-15.5-35.27-25.86-51.49-6.24-9.77-13.09-19.14-20.49-28.04-.04,0-.07,.02-.11,.02-4.99,.52-9.96,1.18-14.91,1.98-3.9,.63-7.78,1.36-11.64,2.17,1.04,3.46,2.52,6.68,4.43,9.47,13.37,19.53-5.02,12.28-15.42,17.48-.64,.32-1.3,.74-1.97,1.24,7.8,3.08,14.35,8.41,20.28,14.22,10.91,10.69,19.81,22.99,27.16,36.34Z"/>
            <path class="cls-23" d="M271.78,286.06c-1.17-3.66-2.43-7.3-3.75-10.91-7.52,12.91-15.57,25.52-24.3,37.64l35.14-.08c-1.91-9-4.28-17.89-7.09-26.65Z"/>
            <path class="cls-23" d="M219.13,191.18c-7.36-8.69-15.27-16.92-23.66-24.62-3.58,8.67-4.26,19.38-1.95,28.69,8.47-1.77,17.02-3.12,25.62-4.07Z"/>
            <path class="cls-23" d="M211.49,151.12c-.34,2.98,2.3,6.12,5.45,5.65,2.86-.42,4.72-3.67,3.93-6.36-.03-.09-.04-.18-.05-.27-3.42-.39-6.53-.13-9.34,.68,.01,.09,.02,.19,0,.3Z"/>
            <path class="cls-23" d="M234.6,292.11c-2.7-5.84-5.88-11.45-8.98-17.08-3.61-6.56-7.73-12.84-12.3-18.77-4.52-5.86-9.49-11.39-14.85-16.49-5.32-5.06-11.22-9.69-18.12-12.38-.38-.15-.59-.44-.67-.75-7.32,6.84-13.56,23.41,3.37,37.67,19.53,16.45,15.42,18.51,12.34,30.84-3.08,12.34,1.79,17.74,1.79,17.74l42.7-.1c.43-7.17-2.35-14.3-5.3-20.69Z"/>
            <path class="cls-23" d="M196.41,164.58c10.01,9.13,19.32,19,27.86,29.51,15.24,18.76,28.05,39.48,38,61.51,.73,1.62,1.45,3.26,2.15,4.89,5.65-10.87,11.65-21.55,18-32.02,.24-.4,.61-.53,.97-.49-16.25-36.88-37.6-72.85-60.37-77.49,.69,3.73-1.97,7.78-5.81,8.34-4.14,.59-8.03-3.19-7.85-7.28-5.78,2.34-10.12,7.08-13,13,.01,.01,.02,.02,.04,.03Z"/>
          </g>
          <g>
            <path class="cls-44" d="M196.63,313.32s-14.65-22.16-30.43-41.89c-4.45,5.34-8.75,10.8-12.89,16.38-.02,.03-.04,.05-.06,.07,6.61,7.74,12.85,15.8,18.7,24.13,.2,.28,.13,.55-.05,.74l24.73,.57Z"/>
            <path class="cls-44" d="M152.37,286.86c4.17-5.61,8.5-11.11,12.98-16.48-2.36-2.93-4.75-5.8-7.1-8.52-3.7,6.83-7.09,13.84-9.04,21.38,1.06,1.2,2.12,2.4,3.16,3.62Z"/>
            <path class="cls-44" d="M170.8,312.68c-2.44-3.47-4.94-6.9-7.51-10.27-.75-.99-1.51-1.97-2.28-2.95-.05,0-.1,.01-.15,.01-10.14-.02-20.37-.19-30.37,1.74-.84,.16-1.19-1.12-.35-1.28,9.83-1.9,19.87-1.81,29.85-1.79-7.26-9.19-15.05-17.97-23.28-26.31-.12,.98-.57,1.77-1.47,2.29-7.84,4.57-8.49-11.76-22.21-5.23-13.72,6.53,26.78,43.11,26.78,43.11l31.03,.71s-.02-.03-.03-.04Z"/>
            <path class="cls-44" d="M143.52,277.01c1.56,1.67,3.1,3.35,4.62,5.05,2.05-7.48,5.47-14.46,9.17-21.27-10.3-11.75-20.01-20.48-25.35-19.32-12.27,2.67,2.92,19.72,4.62,28.37,2.35,2.35,4.66,4.74,6.94,7.17Z"/>
          </g>
        </g>
        <g>
          <g>
            <rect class="cls-9" x=".5" y="78.37" width="42.57" height="17.29"/>
            <rect class="cls-9" x="41.74" y="94.99" width="42.57" height="17.29"/>
          </g>
          <g>
            <rect class="cls-9" x="563.16" y="46.44" width="42.57" height="17.29" transform="translate(1168.88 110.18) rotate(180)"/>
            <rect class="cls-9" x="521.92" y="63.07" width="42.57" height="17.29" transform="translate(1086.41 143.43) rotate(180)"/>
          </g>
        </g>
        <g>
          <path class="cls-11" d="M560.96,147.76c0-2.82-2.29-5.11-5.11-5.11s-5.11,2.29-5.11,5.11,2.29,5.11,5.11,5.11,5.11-2.29,5.11-5.11Z"/>
          <path class="cls-11" d="M80.69,234.06c0-2.82-2.29-5.11-5.11-5.11s-5.11,2.29-5.11,5.11,2.29,5.11,5.11,5.11,5.11-2.29,5.11-5.11Z"/>
          <circle class="cls-44" cx="561.97" cy="121.28" r="7.72"/>
          <path class="cls-44" d="M169.62,5.87c0-3.05-2.47-5.51-5.51-5.51s-5.51,2.47-5.51,5.51,2.47,5.51,5.51,5.51,5.51-2.47,5.51-5.51Z"/>
          <circle class="cls-44" cx="573.8" cy="251.95" r="8.82" transform="translate(-32.88 94.9) rotate(-9.19)"/>
          <circle class="cls-44" cx="67.62" cy="206.73" r="9.92" transform="translate(-126.37 108.36) rotate(-45)"/>
          <circle class="cls-11" cx="212" cy="8.53" r="7.98" transform="translate(122.6 200.95) rotate(-67.38)"/>
        </g>
      </g>
      <g>
        <path class="cls-12" d="M195.37,310.48V55.86c0-17.45,14.15-31.6,31.6-31.6h186.02c17.45,0,31.6,14.15,31.6,31.6v254.62"/>
        <g>
          <path class="cls-12" d="M174.31,326.22v-2.87c0-6.74,5.46-12.2,12.2-12.2h19.49c6.74,0,12.2,5.46,12.2,12.2v2.87"/>
          <g>
            <path class="cls-38" d="M179.19,324c0-2.94-2.38-5.32-5.32-5.32s-5.32,2.38-5.32,5.32,2.38,5.32,5.32,5.32,5.32-2.38,5.32-5.32Z"/>
            <path class="cls-32" d="M177.29,324c0-1.89-1.54-3.43-3.43-3.43s-3.43,1.54-3.43,3.43,1.54,3.43,3.43,3.43,3.43-1.54,3.43-3.43Z"/>
          </g>
          <g>
            <path class="cls-38" d="M223.58,324c0-2.94-2.38-5.32-5.32-5.32s-5.32,2.38-5.32,5.32,2.38,5.32,5.32,5.32,5.32-2.38,5.32-5.32Z"/>
            <path class="cls-32" d="M221.69,324c0-1.89-1.54-3.43-3.43-3.43s-3.43,1.54-3.43,3.43,1.54,3.43,3.43,3.43,3.43-1.54,3.43-3.43Z"/>
          </g>
        </g>
        <g>
          <path class="cls-12" d="M421.73,326.22v-2.87c0-6.74,5.46-12.2,12.2-12.2h19.49c6.74,0,12.2,5.46,12.2,12.2v2.87"/>
          <g>
            <path class="cls-38" d="M426.61,324c0-2.94-2.38-5.32-5.32-5.32s-5.32,2.38-5.32,5.32,2.38,5.32,5.32,5.32,5.32-2.38,5.32-5.32Z"/>
            <path class="cls-32" d="M424.72,324c0-1.89-1.54-3.43-3.43-3.43s-3.43,1.54-3.43,3.43,1.54,3.43,3.43,3.43,3.43-1.54,3.43-3.43Z"/>
          </g>
          <g>
            <path class="cls-38" d="M471,324c0-2.94-2.38-5.32-5.32-5.32s-5.32,2.38-5.32,5.32,2.38,5.32,5.32,5.32,5.32-2.38,5.32-5.32Z"/>
            <path class="cls-32" d="M469.11,324c0-1.89-1.54-3.43-3.43-3.43s-3.43,1.54-3.43,3.43,1.54,3.43,3.43,3.43,3.43-1.54,3.43-3.43Z"/>
          </g>
        </g>
      </g>
      <g>
        <g>
          <g>
            <path class="cls-7" d="M255.95,53.27s21.32,12.81,41.38-.82c0,0-1.29,22.11-19.65,22.02-18.36-.09-21.73-21.21-21.73-21.21Z"/>
            <g class="cls-37">
              <path class="cls-48" d="M259.48,59.61c8.67,4.49,18.91,5.4,28.22,2.46,.72-.23,.41-1.36-.31-1.13-9.01,2.84-18.93,2.01-27.32-2.34-.67-.35-1.26,.66-.59,1.01h0Z"/>
            </g>
          </g>
          <g>
            <path class="cls-36" d="M235.72,79c22.05-.27,44.1-.54,66.14-.81,6.3-.08,12.6-.15,18.9-.23,.75,0,.75-1.18,0-1.17-22.05,.27-44.1,.54-66.14,.81-6.3,.08-12.6,.15-18.9,.23-.75,0-.75,1.18,0,1.17h0Z"/>
            <g>
              <path class="cls-36" d="M274.09,27.07c-.71-2.37-.33-4.55,2.21-5.38s5.4,0,6.84,2.45c1.87,3.18,.48,6.82-1.45,9.57-1.66,2.37-3.61,4.64-3.76,7.66-.04,.75,1.13,.75,1.17,0,.14-2.97,2.37-5.24,3.94-7.58s2.61-5.35,1.89-8.29c-1.11-4.56-6.54-6.89-10.5-4.22-2.09,1.41-2.14,3.88-1.47,6.09,.22,.72,1.34,.41,1.13-.31h0Z"/>
              <path class="cls-36" d="M278.8,42.98c15.68,9.2,29.86,20.81,41.97,34.38,.5,.56,1.33-.27,.83-.83-12.17-13.63-26.44-25.32-42.21-34.56-.65-.38-1.24,.63-.59,1.01h0Z"/>
              <path class="cls-36" d="M278.54,41.28c-13.41,7.04-26.05,15.81-36.64,26.68-2.93,3.01-5.68,6.19-8.25,9.51-.46,.6,.56,1.18,1.01,.59,9.18-11.9,20.92-21.65,33.63-29.57,3.54-2.2,7.16-4.26,10.84-6.2,.67-.35,.08-1.36-.59-1.01h0Z"/>
            </g>
          </g>
          <path class="cls-42" d="M256.53,49.53s-.39,22.85,20.36,23.84c20.76,.99,20.09-23.51,20.09-23.51l13.28,8.74s-10.72,28.84,3.32,38.59l2.05,2.02,24.91,93.65-112.77,1.61,15.02-96.85v.26h0c4.96-.69,10.31-15.14,5.69-22.11l-3.71-16.68,11.75-9.56Z"/>
          <path class="cls-7" d="M242.43,173.5c-7.51-18.45,1.84-68.28,.36-72.08l-14.42,93.23,39.34-1.32c-12.22-.38-22.54-13.11-25.28-19.83Z"/>
          <g>
            <path class="cls-48" d="M262.3,86.96c3.01,0,3.02-4.68,0-4.68s-3.02,4.68,0,4.68h0Z"/>
            <path class="cls-48" d="M283.31,114.61c3.01,0,3.02-4.68,0-4.68s-3.02,4.68,0,4.68h0Z"/>
            <path class="cls-48" d="M252.01,132.59c3.01,0,3.02-4.68,0-4.68s-3.02,4.68,0,4.68h0Z"/>
            <path class="cls-48" d="M293.13,90.26c3.01,0,3.02-4.68,0-4.68s-3.02,4.68,0,4.68h0Z"/>
            <path class="cls-48" d="M310.55,151.9c3.01,0,3.02-4.68,0-4.68s-3.02,4.68,0,4.68h0Z"/>
            <path class="cls-48" d="M264.6,173.32c3.01,0,3.02-4.68,0-4.68s-3.02,4.68,0,4.68h0Z"/>
            <path class="cls-48" d="M281.09,148.36c3.01,0,3.02-4.68,0-4.68s-3.02,4.68,0,4.68h0Z"/>
            <path class="cls-48" d="M312.79,183.72c3.01,0,3.02-4.68,0-4.68s-3.02,4.68,0,4.68h0Z"/>
            <path class="cls-48" d="M313.6,119.71c3.01,0,3.02-4.68,0-4.68s-3.02,4.68,0,4.68h0Z"/>
            <path class="cls-48" d="M242.92,178.58c3.01,0,3.02-4.68,0-4.68s-3.02,4.68,0,4.68h0Z"/>
            <path class="cls-48" d="M253.78,67.56c3.01,0,3.02-4.68,0-4.68s-3.02,4.68,0,4.68h0Z"/>
            <path class="cls-48" d="M301.93,64.96c3.01,0,3.02-4.68,0-4.68s-3.02,4.68,0,4.68h0Z"/>
            <path class="cls-48" d="M260.82,107.29c3.01,0,3.02-4.68,0-4.68s-3.02,4.68,0,4.68h0Z"/>
            <path class="cls-48" d="M294.39,169.18c3.01,0,3.02-4.68,0-4.68s-3.02,4.68,0,4.68h0Z"/>
            <path class="cls-48" d="M250.9,158.23c3.01,0,3.02-4.68,0-4.68s-3.02,4.68,0,4.68h0Z"/>
            <path class="cls-48" d="M297.89,126.73c3.01,0,3.02-4.68,0-4.68s-3.02,4.68,0,4.68h0Z"/>
            <path class="cls-48" d="M269.16,127.3c3.01,0,3.02-4.68,0-4.68s-3.02,4.68,0,4.68h0Z"/>
            <path class="cls-48" d="M305.15,102.27c3.01,0,3.02-4.68,0-4.68s-3.02,4.68,0,4.68h0Z"/>
            <path class="cls-48" d="M247.6,112.46c3.01,0,3.02-4.68,0-4.68s-3.02,4.68,0,4.68h0Z"/>
            <path class="cls-48" d="M324.55,170.34c3.01,0,3.02-4.68,0-4.68s-3.02,4.68,0,4.68h0Z"/>
            <path class="cls-48" d="M281.32,184.78c3.01,0,3.02-4.68,0-4.68s-3.02,4.68,0,4.68h0Z"/>
            <path class="cls-48" d="M277.39,90.79c3.01,0,3.02-4.68,0-4.68s-3.02,4.68,0,4.68h0Z"/>
          </g>
        </g>
        <g>
          <g>
            <path class="cls-44" d="M289.82,45.63c1.1-.21,2.13,1.03,2.73,1.77,.94,1.16,1.69,2.5,2.34,3.84,1.62,3.34,2.38,7.08,3.1,10.7,1.75,8.85,2.12,17.91,1.25,26.88-.25,2.6-.61,5.19-1.04,7.76-.22,1.27-.45,2.53-.71,3.79-.13,.64-.26,1.27-.4,1.91-.08,.38-.14,1.69-.51,1.86h.74l.22,.42-.71,.54h.13c.94,.12,.94-1.36,0-1.46h-.13c-.35-.05-.6,.25-.71,.53-.2,.5,0,1.11,.54,1.28,.79,.26,1.25-.46,1.47-1.1,.86-2.54,1.17-5.45,1.61-8.09,.87-5.29,1.39-10.64,1.44-16s-.38-10.66-1.25-15.91c-.75-4.52-1.61-9.25-3.55-13.43-1.13-2.44-3.53-7.39-6.94-6.72-.93,.18-.54,1.6,.39,1.42h0Z"/>
            <polygon class="cls-44" points="271.61 154.53 283.83 168.18 300.61 160.33 311.28 106.96 282.28 101.16 271.61 154.53"/>
            <g>
              <g>
                <g>
                  <path class="cls-38" d="M296.18,139.52c.34-.46,.46-1.03,.41-1.59-.06-.67-.28-1.31-.57-1.93,.02-.07,.03-.14,.04-.23l-1.17-2.47-2.38,1.27,2-4.81,4.83,1.17-1.8,.96,1.45,3.06,.03,.23c.18,1.32-.31,2.63-1.3,3.51-.46,.41-.99,.7-1.56,.86,.01-.01,.02-.03,.03-.04Z"/>
                  <path class="cls-38" d="M294.81,136.7c.36,.09,.63-.03,.8-.13,.16,.38,.28,.77,.35,1.17,.08,.46,.05,.94-.21,1.34-.18,.29-.46,.49-.76,.64-.31,0-.62-.05-.92-.12l-3.03-.77,.74-2.89,3.03,.77Z"/>
                </g>
                <g>
                  <path class="cls-38" d="M280.9,132.51c.18,.54,.58,.97,1.07,1.25,.58,.34,1.23,.53,1.91,.65,.04,.06,.1,.11,.16,.16l2.69,.46,.33-2.68,2.79,4.4-3.73,3.28,.25-2.03-3.34-.57-.21-.11c-1.18-.61-1.97-1.77-2.13-3.09-.07-.61,0-1.21,.2-1.77,0,.02,0,.03,.01,.05Z"/>
                  <path class="cls-38" d="M284,133.01c-.28,.24-.34,.53-.35,.73-.4-.09-.79-.21-1.16-.39-.42-.2-.8-.5-.98-.94-.13-.32-.14-.65-.08-.99,.18-.25,.39-.48,.63-.68l2.37-2.03,1.94,2.27-2.37,2.03Z"/>
                </g>
                <g>
                  <path class="cls-38" d="M294.35,123.52c-.56-.11-1.13,.04-1.61,.33-.57,.35-1.06,.83-1.48,1.36-.07,.01-.14,.03-.22,.07l-1.7,2.14,2.19,1.58-5.19,.32-1.07-4.85,1.66,1.2,2.11-2.65,.19-.13c1.11-.74,2.5-.88,3.73-.38,.57,.23,1.06,.58,1.46,1.02-.02,0-.03,0-.05-.01Z"/>
                  <path class="cls-38" d="M292.42,125.99c-.08-.36-.3-.56-.47-.66,.27-.31,.57-.59,.9-.83,.38-.27,.82-.46,1.29-.41,.34,.04,.64,.2,.91,.4,.13,.28,.23,.57,.29,.88l.64,3.06-2.92,.61-.64-3.06Z"/>
                </g>
              </g>
              <path class="cls-38" d="M280.8,144.62l13.86,2.77c.71,.14,1.4-.32,1.54-1.03h0c.14-.71-.32-1.4-1.03-1.54l-13.86-2.77c-.71-.14-1.4,.32-1.54,1.03h0c-.14,.71,.32,1.4,1.03,1.54Z"/>
              <path class="cls-38" d="M279.51,151.04l13.86,2.77c.71,.14,1.4-.32,1.54-1.03h0c.14-.71-.32-1.4-1.03-1.54l-13.86-2.77c-.71-.14-1.4,.32-1.54,1.03h0c-.14,.71,.32,1.4,1.03,1.54Z"/>
            </g>
          </g>
          <g>
            <circle class="cls-38" cx="294.81" cy="109.45" r="2.21"/>
            <path class="cls-44" d="M295.66,109.6c-6.46-15.65-9.9-32.94-10.11-49.85-.03-2.26,.05-4.51,.12-6.77,.08-2.39,0-4.8,1.61-6.76,.6-.73-.44-1.78-1.04-1.04-2.51,3.07-2.08,7.42-2.15,11.16-.08,4.38,.11,8.77,.5,13.13,.81,9.01,2.46,17.96,4.9,26.68,1.32,4.7,2.88,9.33,4.75,13.84,.36,.87,1.79,.49,1.42-.39h0Z"/>
          </g>
        </g>
      </g>
      <g>
        <g>
          <g>
            <path class="cls-5" d="M312.11,52.14s20.67,13.26,40.87,.39c0,0,2.9,18.85-19.27,19.52-25.49,.76-21.6-19.91-21.6-19.91Z"/>
            <g class="cls-37">
              <path class="cls-48" d="M315.42,58.51c8.43,4.68,18.51,5.86,27.79,3.23,.71-.2,.41-1.32-.31-1.11-8.98,2.55-18.74,1.42-26.9-3.12-.65-.36-1.23,.64-.58,1h0Z"/>
            </g>
          </g>
          <g>
            <path class="cls-36" d="M291.41,76.95c21.83,.37,43.66,.74,65.49,1.12,6.17,.11,12.33,.21,18.5,.32,.74,.01,.74-1.14,0-1.16-21.83-.37-43.66-.74-65.49-1.12-6.17-.11-12.33-.21-18.5-.32-.74-.01-.74,1.14,0,1.16h0Z"/>
            <g>
              <path class="cls-38" d="M330.77,26.79c-.63-2.37-.17-4.49,2.35-5.24s5.33,.17,6.67,2.64c1.75,3.2,.26,6.74-1.72,9.41-1.71,2.3-3.69,4.47-3.92,7.46-.06,.74,1.1,.74,1.16,0,.23-2.92,2.51-5.1,4.12-7.37s2.71-5.2,2.09-8.13c-.97-4.53-6.28-6.99-10.25-4.45-2.1,1.34-2.2,3.77-1.61,5.98,.19,.72,1.31,.41,1.11-.31h0Z"/>
              <path class="cls-38" d="M334.98,42.65c15.22,9.53,28.88,21.41,40.44,35.15,.48,.57,1.29-.25,.82-.82-11.62-13.81-25.37-25.75-40.67-35.33-.63-.4-1.21,.6-.58,1h0Z"/>
              <path class="cls-38" d="M334.74,40.97c-13.32,6.5-25.94,14.71-36.66,25.01-3.05,2.93-5.93,6.04-8.61,9.31-.47,.57,.35,1.39,.82,.82,9.4-11.48,21.22-20.77,33.99-28.24,3.6-2.11,7.29-4.07,11.05-5.9,.67-.33,.08-1.32-.58-1h0Z"/>
            </g>
          </g>
          <g>
            <path class="cls-23" d="M324.39,45.22s1.69,39.65,8.87,39.46c8.42-.22,10.42-39.24,10.42-39.24l12.3,7.98s.65,21.78,3.33,31.59c2,7.32,9.64,9.64,9.64,9.64l12.64,148.31-93.78-2,10.03-145.44s9.15-2.21,10.26-11.52l2.66-31.92,13.63-6.87Z"/>
            <g class="cls-40">
              <g class="cls-35">
                <path class="cls-44" d="M317.61,115.39c-1.85-.89-3.69-1.86-5.18-3.26-1.49-1.41-2.61-3.31-2.68-5.36-.02-.66,.26-1.51,.92-1.51,.42,0,.74,.36,.99,.7,2.03,2.66,3.96,5.4,5.79,8.2-.59-.16-.83-.85-.97-1.44-.7-2.98-1.03-6.05-.98-9.12,0-.43,.15-1.01,.58-1.02,.31-.01,.54,.29,.69,.57,1.78,3.23,2.47,7.06,1.93,10.71,.51-2.82,1.32-5.59,2.42-8.23,.31-.74,.9-1.61,1.67-1.41,.76,.19,.88,1.22,.81,2-.17,1.95-.53,3.94-1.52,5.63-.99,1.69-2.7,3.06-4.66,3.2"/>
                <path class="cls-44" d="M361.38,206.18c-1.85-.89-3.69-1.86-5.18-3.26-1.49-1.41-2.61-3.31-2.68-5.36-.02-.66,.26-1.51,.92-1.51,.42,0,.74,.36,.99,.7,2.03,2.66,3.96,5.4,5.79,8.2-.59-.16-.83-.85-.97-1.44-.7-2.98-1.03-6.05-.98-9.12,0-.43,.15-1.01,.58-1.02,.31-.01,.54,.29,.69,.57,1.78,3.23,2.47,7.06,1.93,10.71,.51-2.82,1.32-5.59,2.42-8.23,.31-.74,.9-1.61,1.67-1.41,.76,.19,.88,1.22,.81,2-.17,1.95-.53,3.94-1.52,5.63-.99,1.69-2.7,3.06-4.66,3.2"/>
                <path class="cls-44" d="M313.9,56.77c2.03-.26,4.11-.45,6.12-.09,2.02,.37,4,1.35,5.17,3.03,.38,.54,.61,1.4,.05,1.76-.35,.23-.82,.1-1.21-.04-3.15-1.12-6.26-2.36-9.33-3.72,.58-.18,1.16,.26,1.6,.68,2.21,2.12,4.16,4.51,5.79,7.11,.23,.37,.43,.92,.07,1.17-.26,.18-.61,.05-.89-.1-3.26-1.74-5.92-4.57-7.45-7.93,1.11,2.64,1.94,5.4,2.46,8.22,.15,.79,.12,1.84-.63,2.1-.74,.25-1.4-.54-1.77-1.23-.92-1.73-1.7-3.59-1.8-5.55-.09-1.96,.6-4.04,2.16-5.22"/>
                <path class="cls-44" d="M352.65,141.15c-.65-1.94-1.24-3.94-1.27-5.99-.03-2.05,.55-4.18,1.98-5.66,.46-.47,1.26-.86,1.72-.39,.29,.3,.25,.78,.19,1.2-.49,3.31-1.11,6.6-1.84,9.87-.29-.53,.03-1.18,.36-1.7,1.65-2.58,3.62-4.96,5.86-7.05,.32-.3,.82-.6,1.14-.3,.23,.22,.16,.59,.07,.89-1.07,3.53-3.34,6.69-6.34,8.84,2.38-1.6,4.93-2.94,7.59-4,.74-.3,1.78-.48,2.18,.22,.39,.68-.26,1.48-.87,1.98-1.52,1.24-3.19,2.37-5.1,2.84-1.9,.47-4.08,.19-5.54-1.11"/>
                <path class="cls-44" d="M299.63,202.69c-.65-1.94-1.24-3.94-1.27-5.99s.55-4.18,1.98-5.66c.46-.47,1.26-.86,1.72-.39,.29,.3,.25,.78,.19,1.2-.49,3.31-1.11,6.6-1.84,9.87-.29-.53,.03-1.18,.36-1.7,1.65-2.58,3.62-4.96,5.86-7.05,.32-.3,.82-.6,1.14-.3,.23,.22,.16,.59,.07,.89-1.07,3.53-3.34,6.69-6.34,8.84,2.38-1.6,4.93-2.94,7.59-4,.74-.3,1.78-.48,2.18,.22,.39,.68-.26,1.48-.87,1.98-1.52,1.24-3.19,2.37-5.1,2.84-1.9,.47-4.08,.19-5.54-1.11"/>
                <path class="cls-44" d="M323.83,235.15c-.65-1.94-1.24-3.94-1.27-5.99-.03-2.05,.55-4.18,1.98-5.66,.46-.47,1.26-.86,1.72-.39,.29,.3,.25,.78,.19,1.2-.49,3.31-1.11,6.6-1.84,9.87-.29-.53,.03-1.18,.36-1.7,1.65-2.58,3.62-4.96,5.86-7.05,.32-.3,.82-.6,1.14-.3,.23,.22,.16,.59,.07,.89-1.07,3.53-3.34,6.69-6.34,8.84,2.38-1.6,4.93-2.94,7.59-4,.74-.3,1.78-.48,2.18,.22,.39,.68-.26,1.48-.87,1.98-1.52,1.24-3.19,2.37-5.1,2.84-1.9,.47-4.08,.19-5.54-1.11"/>
                <path class="cls-44" d="M345.55,85.72c-.65-1.94-1.24-3.94-1.27-5.99-.03-2.05,.55-4.18,1.98-5.66,.46-.47,1.26-.86,1.72-.39,.29,.3,.25,.78,.19,1.2-.49,3.31-1.11,6.6-1.84,9.87-.29-.53,.03-1.18,.36-1.7,1.65-2.58,3.62-4.96,5.86-7.05,.32-.3,.82-.6,1.14-.3,.23,.22,.16,.59,.07,.89-1.07,3.53-3.34,6.69-6.34,8.84,2.38-1.6,4.93-2.94,7.59-4,.74-.3,1.78-.48,2.18,.22,.39,.68-.26,1.48-.87,1.98-1.52,1.24-3.19,2.37-5.1,2.84-1.9,.47-4.08,.19-5.54-1.11"/>
                <path class="cls-44" d="M333.55,169.83c-2.05,.12-4.13,.17-6.11-.34-1.99-.5-3.89-1.63-4.94-3.38-.34-.57-.51-1.44,.07-1.76,.37-.2,.82-.04,1.2,.13,3.07,1.34,6.08,2.79,9.04,4.36-.59,.14-1.14-.34-1.54-.79-2.06-2.27-3.84-4.79-5.28-7.49-.2-.38-.36-.95,.01-1.18,.27-.16,.61,0,.88,.16,3.13,1.96,5.59,4.97,6.88,8.43-.92-2.71-1.56-5.52-1.89-8.37-.09-.8,0-1.84,.78-2.05,.76-.2,1.36,.63,1.68,1.35,.8,1.79,1.45,3.7,1.41,5.66-.04,1.96-.88,3.99-2.52,5.06"/>
              </g>
            </g>
          </g>
          <g>
            <path class="cls-18" d="M313.09,51.1c1.77,11.53,3.1,51.77-15.08,48.44"/>
            <path class="cls-18" d="M368.29,97.65c-17.29,3.33-19.2-40.39-13.97-45.23"/>
          </g>
          <path class="cls-5" d="M300.67,200.85c.19-4.02-1.6-97.76-2.95-101.56l-9.91,142.35h25.27c-9.86-5.81-13.3-21.73-12.41-40.79Z"/>
        </g>
        <g>
          <g>
            <path class="cls-44" d="M331.91,40.63c-2.92-1.2-6.09,2.82-7.58,4.74-2.76,3.56-4.5,7.85-6.14,12.01-3.81,9.67-5.84,19.92-6.37,30.28-.16,3.11-.19,6.22-.12,9.34,.02,.75-.09,2.1,.91,2.32,.82,.18,1.24-.6,1.1-1.29-.07-.34-.4-.51-.71-.54h-.13c-.95-.09-.94,1.38,0,1.46h.13c-.24-.17-.47-.35-.71-.53l-.04-.06,.52-.52,.43,.07v-.45c.05-.2-.03-.74-.03-.91-.01-.53-.02-1.05-.02-1.58,0-1.19,0-2.38,.02-3.57,.04-2.19,.14-4.38,.31-6.56,.34-4.41,.96-8.8,1.9-13.12s2.2-8.58,3.77-12.72c1.4-3.72,2.92-7.63,5.1-10.97,1.02-1.56,2.19-3.05,3.56-4.32,.9-.84,2.37-2.2,3.71-1.65,.88,.36,1.26-1.07,.39-1.42h0Z"/>
            <polygon class="cls-44" points="327.88 152.36 313.23 163.35 298.31 152.36 298.31 97.93 327.88 97.93 327.88 152.36"/>
            <g>
              <g>
                <g>
                  <path class="cls-38" d="M306.73,132.83c-.25-.51-.25-1.1-.09-1.64,.19-.64,.53-1.23,.93-1.78,0-.07,0-.15,0-.23l1.63-2.19,2.09,1.71-1.02-5.1-4.96,.2,1.58,1.3-2.03,2.71-.08,.22c-.43,1.26-.21,2.64,.59,3.7,.37,.49,.84,.88,1.36,1.15,0-.02-.02-.03-.02-.05Z"/>
                  <path class="cls-38" d="M308.63,130.33c-.37,.02-.62-.15-.76-.29-.23,.34-.43,.7-.57,1.08-.16,.43-.23,.92-.06,1.36,.13,.32,.35,.57,.62,.77,.3,.06,.61,.08,.93,.06l3.12-.17-.16-2.98-3.12,.17Z"/>
                </g>
                <g>
                  <path class="cls-38" d="M323.09,128.95c-.28,.5-.76,.84-1.29,1.02-.63,.22-1.31,.28-2,.26-.05,.05-.12,.09-.19,.12l-2.73-.08,.2-2.69-3.59,3.76,3.01,3.95,.15-2.04,3.39,.1,.22-.06c1.28-.37,2.28-1.34,2.69-2.61,.19-.58,.24-1.19,.16-1.77,0,.02-.02,.03-.02,.05Z"/>
                  <path class="cls-38" d="M319.95,128.83c.23,.29,.23,.59,.2,.79,.41,0,.82-.05,1.21-.15,.45-.11,.88-.33,1.14-.73,.19-.28,.26-.61,.28-.95-.13-.28-.29-.55-.48-.79l-1.93-2.46-2.35,1.84,1.93,2.46Z"/>
                </g>
                <g>
                  <path class="cls-38" d="M311.66,117.49c.57,0,1.1,.26,1.51,.64,.5,.45,.87,1.02,1.19,1.62,.07,.03,.13,.06,.2,.11l1.25,2.43-2.45,1.12,5.03,1.33,2-4.54-1.86,.85-1.55-3.01-.17-.17c-.94-.94-2.28-1.35-3.58-1.1-.6,.12-1.15,.37-1.63,.72,.02,0,.03,0,.05,0Z"/>
                  <path class="cls-38" d="M313.07,120.3c.14-.34,.41-.49,.59-.55-.21-.36-.44-.69-.72-.99-.32-.34-.72-.61-1.19-.65-.34-.03-.66,.07-.97,.22-.18,.25-.34,.52-.46,.81l-1.22,2.87,2.75,1.17,1.22-2.87Z"/>
                </g>
              </g>
              <path class="cls-38" d="M320.82,140.85h-14.13c-.72,0-1.31-.59-1.31-1.31h0c0-.72,.59-1.31,1.31-1.31h14.13c.72,0,1.31,.59,1.31,1.31h0c0,.72-.59,1.31-1.31,1.31Z"/>
              <path class="cls-38" d="M320.82,147.39h-14.13c-.72,0-1.31-.59-1.31-1.31h0c0-.72,.59-1.31,1.31-1.31h14.13c.72,0,1.31,.59,1.31,1.31h0c0,.72-.59,1.31-1.31,1.31Z"/>
            </g>
          </g>
          <g>
            <path class="cls-38" d="M311.82,104.08c-.26-1.19,.49-2.37,1.68-2.63s2.37,.49,2.63,1.68-.49,2.37-1.68,2.63-2.37-.49-2.63-1.68Z"/>
            <path class="cls-44" d="M314.41,104.29c4.84-7.25,8.83-15.05,12.18-23.09s6.18-16.8,7.93-25.56c.47-2.36,.87-4.75,1.23-7.13,.34-2.19,.31-4.22-.75-6.21-.44-.84-1.72-.09-1.27,.74,1.08,2.03,.77,4.11,.39,6.28-.34,1.98-.64,3.96-1.03,5.93-.82,4.13-1.88,8.21-3.12,12.24-2.56,8.32-5.86,16.43-9.86,24.16-2.11,4.09-4.43,8.07-6.98,11.89-.53,.79,.75,1.53,1.27,.74h0Z"/>
          </g>
        </g>
      </g>
      <g>
        <g>
          <g>
            <path class="cls-38" d="M520.93,51.76c-3.1-18.84-14.2-6.55-11.86-11.31,2.34-4.76,1.92-13.06-3.87-16.18-5.79-3.13-1.68,.54-2.23-6.43-.55-6.97-11.44-10.69-11.44-10.69-6.46-.48-13.27,.89-18.42,4.81-1.88,1.43-3.88,6.56-3.88,14.99,0,0,1.77,12.41-2.22,14.19-6.68,2.97-.09,9.07,1.93,10.28l32.6-.72,.18-4.29,1.49,4.25,17.73,1.08Z"/>
            <path class="cls-38" d="M497.2,14.24c-.97-2.18-1.95-4.44-1.99-6.83-.04-2.39,1.12-4.96,3.33-5.86,2.34-.94,5.03,.24,6.89,1.94,2.45,2.23,4.07,5.7,3.21,8.9s-4.85,5.47-7.73,3.83"/>
            <path class="cls-47" d="M473.92,31.35l2.17,7.51c.61,3.42-2.59,6.28-5.92,5.29h0c-3.26-.98-4.41-5.01-2.15-7.56l5.9-5.24Z"/>
            <path class="cls-1" d="M491.63,26.56c.03,.31,.31,.53,.62,.49,1.29-.18,4.24-.85,5.1,2.48,.88,3.36-2.13,5.71-4.07,6.08-.56,.11-1.85,.39-2.18,.86-1.01,1.44-1.19,4.31-1.64,7.92-.99,7.97,5.54,10.7,5.54,10.7,0,0-37.37,40.13-20.01,2.62,0,0-.82-18.52-.93-18.6-1.78-1.37-8-1.24-5.87-14.8,1.97-12.56,10.95-12.87,13.26-12.77,1.95,.09,8.61-.37,10.17,15.03Z"/>
            <g>
              <path class="cls-43" d="M496.02,30.7s-2.6-4.02-4.41,2.06l4.41-2.06Z"/>
              <path class="cls-6" d="M480.41,28.05c-1.68,.18-2.89,1.69-2.71,3.37,.18,1.68,1.69,2.89,3.37,2.71,1.68-.18,2.89-1.69,2.71-3.37s-1.69-2.89-3.37-2.71Z"/>
              <path class="cls-6" d="M467.92,30.85c1.36-.44,2.26-1.78,2.1-3.25-.12-1.13-.85-2.05-1.83-2.48,0,0-.85,3.53-.28,5.72Z"/>
              <path class="cls-3" d="M470.26,28.95l4.93,1.69s-2.05,1.94-3.39,1.21c-1.34-.74-1.54-2.9-1.54-2.9Z"/>
              <path class="cls-39" d="M473.86,25.19l-.3,3.4-1.7-.5c-.31-.09-.41-.49-.18-.72l2.18-2.18Z"/>
              <path d="M479.13,23.11c.48,.51-.02-1.42-.73-1.78-.72-.36-1.56-.15-1.87,.47,0,0,1.46,.09,2.6,1.31Z"/>
              <path d="M469.97,20.96c-.64,.27,.58-1.29,1.39-1.34,.8-.04,1.49,.48,1.52,1.18,0,0-1.38-.5-2.91,.16Z"/>
              <path d="M476.79,25.89c-.15,.58-.5,1-.78,.92-.28-.07-.39-.6-.24-1.19,.15-.58,.5-1,.78-.92,.28,.07,.39,.6,.24,1.19Z"/>
              <path d="M472.23,24.41c-.14,.56-.48,.95-.75,.88-.27-.07-.37-.58-.23-1.13,.14-.56,.48-.95,.75-.88,.27,.07,.37,.58,.23,1.13Z"/>
              <path class="cls-43" d="M474.07,39.1s5.91,.34,8.8-.23c2.89-.57-7.09,9.68-8.8,.23Z"/>
            </g>
            <path class="cls-38" d="M471.71,14.52s4.43,.39,8.31,3.33c4.54,3.44,2.8-4.34,5.24,1.46,2.43,5.8,.97,8.77,8.53,7.03,0,0-1.35-29.55-22.08-11.82Z"/>
          </g>
          <path class="cls-33" d="M578.76,330.56c0-1.93-27.19-3.49-60.72-3.49s-60.72,1.56-60.72,3.49,27.19,3.49,60.72,3.49,60.72-1.56,60.72-3.49Z"/>
          <g>
            <path class="cls-43" d="M479.76,296.12l-3.58,26.96s1.65,4.78,1.65,7.72c-3.56,2.45-23.48,2.7-25.07,.75,3.77-3.77,13.22-9.2,13.22-9.2l-3.86-26.71,17.64,.49Z"/>
            <path class="cls-6" d="M471.12,300.47l4.69,31.98s1.03,.81,2.02-1.29c.59-1.26-.18-2.21-1.56-7.26l2.85-23.71-7.99,.28Z"/>
            <path class="cls-43" d="M526.32,295.63l8.21,24.63s-1.94,9.34-2.18,9.96c-.87,2.17,6.87,3.33,6.87,3.33l.22-36.36-13.12-1.55Z"/>
            <path class="cls-6" d="M534.65,295.63l4.75,29.1s8.44,5.81,9.1,3.98c.27-.76-5.01-6.92-6.1-8.88l.59-23.71-8.33-.49Z"/>
            <path class="cls-47" d="M452.09,330.43c-.64,.48-1.64,2.77-.72,2.78l18.57,.15c.45,0,8.91-.47,9.24-.69,.03-.02-.49-2.69-.49-2.69l-26.6,.44Z"/>
            <polygon class="cls-47" points="462.29 330.66 457.19 326.44 465.97 322.34 472.71 330.66 462.29 330.66"/>
            <path class="cls-6" d="M549.78,329.24c.76,1.16,.34,2.55-1.04,3.37-2.23,1.33-7.09,1.15-7.09,1.15,0,0-4.86,.27-7.16-.74-1.54-.67-2.75-1.66-2.56-2.95l.27-1.73c.02-.15,5.91-.79,5.91-.79l.89-9.98,10.79,11.66Z"/>
            <g>
              <polygon class="cls-47" points="531.24 328.22 549.64 327.77 543.87 321.79 533.23 322.01 531.24 328.22"/>
              <polygon class="cls-47" points="553.18 335.09 530.35 335.31 531.68 330.43 550.74 330.43 553.18 335.09"/>
            </g>
          </g>
          <g>
            <path class="cls-42" d="M499.31,108.52c5.77,10.2,14.26,17.17,17.57,30.14,3.84,15.03,41.98,142.29,49.83,170.72-1.86,.45-39.46,0-39.46,0l-40.25-140.69c-1.01-3.52-6.2-2.78-6.18,.88l.76,140.24s-27.45,1-28.38,.89c-3.12-33.68-10.43-162.18,14.57-203.51,11.43-1.58,19.95,.97,31.54,1.32Z"/>
            <path class="cls-20" d="M469.83,109.4s-14.08,28.13-14.08,63.7,2.78,137.16,2.78,137.16"/>
            <line class="cls-20" x1="559.17" y1="308.93" x2="498.99" y2="108.53"/>
            <line class="cls-20" x1="491.4" y1="108.04" x2="509.73" y2="143.99"/>
            <path class="cls-34" d="M466.22,108.17l50.05,33.32c3.95,.46-5.55-15.69-16.96-32.97l-33.09-.35Z"/>
            <line class="cls-20" x1="458.3" y1="146.87" x2="473.82" y2="111.4"/>
          </g>
          <path class="cls-1" d="M395.4,104c10.53-.32,17.56-.31,18.55-.24l33.95-.74-.1-.09s1.71,0,2.92-.1c.58-.04,1.07-.45,1.21-1.02,3.26-13.74,9.85-49.96,21.66-47.01,.17,.04,4.16,.63,3.73,1.16-3.87,4.87-10.92,28.82-10.92,28.82-.08,.36-.07,1.97-.06,4.28,4.16,23.84-.81,25.68-.81,25.68-.7,.43-1.55,.8-2.51,1.1-.02,.02-.04,.05-.05,.07l-.05-.04c-15.16,4.71-59.02-5.53-59.02-5.53-3.57-.96-11.54-6.27-8.48-6.36Z"/>
          <g>
            <path class="cls-43" d="M472.14,62.45c.83-4.09,1.51-7.63,1.44-7.64-2.15-.54-4.13,.23-5.95,1.92,.06,5.09-.41,10.14-1.29,15.14,1.99-3.11,3.86-6.31,5.8-9.42Z"/>
            <path class="cls-43" d="M458.59,113.41c-.13,1.12-.13,2.24-.07,3.37,1.63-.2,3.1-.49,4.37-.88l.05,.04s.04-.05,.05-.07c.96-.3,1.8-.67,2.51-1.1,0,0,2.68-1.01,2.46-10.98-4.75,.42-8.85,5.18-9.37,9.63Z"/>
          </g>
          <path class="cls-30" d="M410.56,103.7s-7.96-5.04-8.3-3.82c-.66,2.4,5.96,4.93,5.13,5.68,0,0,1.92-1.19,3.17-1.86Z"/>
          <path class="cls-44" d="M474.7,53.93c-.17-1-1,.17-2.66,.67-3.44,7.31-10.66,26.72-10.37,32.36,.4,7.98,3.93,18.15,3.5,19.35,0,0,7.09,3.1,34.14,1.77,.49-8.33,15.61-34.58,2.13-49.04-1.48-2.31-8.14-7.22-11.52-8.58,0,0-17.55,26.08-15.22,3.47Z"/>
          <path class="cls-47" d="M491.55,32.7l4.61,6.31c1.75,3-.28,6.79-3.75,7h0c-3.4,.2-5.86-3.19-4.61-6.36l3.75-6.95Z"/>
        </g>
        <path class="cls-5" d="M458.9,108.73s15.08-51.48,33.71-51.99c15.28-.41,29.21,4.95,43.43,40.11l-12.27,1.31s-12.41-37.87-28.12-40.36c-15.71-2.49-23.03,47.26-23.03,47.26l-13.73,3.67Z"/>
        <g>
          <path class="cls-23" d="M459.86,99.42h83.66v60.42c0,7.33-5.95,13.28-13.28,13.28h-57.1c-7.33,0-13.28-5.95-13.28-13.28v-60.42h0Z" transform="translate(-13.63 67.63) rotate(-7.61)"/>
          <g>
            <g>
              <path class="cls-44" d="M488.77,158.64c-.88-1.15-1.19-2.59-1.08-4.02,.13-1.69,.67-3.33,1.39-4.9-.05-.17-.09-.36-.1-.57l2.91-6.27,6.06,3.15-5.18-12.12-12.19,3.08,4.59,2.39-3.6,7.78-.07,.59c-.41,3.34,.85,6.65,3.39,8.86,1.17,1.02,2.53,1.73,3.97,2.13-.03-.03-.06-.07-.08-.1Z"/>
              <path class="cls-44" d="M492.18,151.45c-.9,.24-1.61-.05-2.03-.32-.39,.97-.69,1.96-.85,2.98-.18,1.16-.1,2.39,.56,3.39,.48,.72,1.17,1.22,1.94,1.59,.78-.02,1.56-.13,2.33-.34l7.64-2.04-1.95-7.31-7.64,2.04Z"/>
            </g>
            <g>
              <path class="cls-44" d="M527.28,140.48c-.43,1.38-1.44,2.47-2.67,3.19-1.46,.87-3.11,1.37-4.81,1.68-.11,.14-.25,.28-.41,.41l-6.8,1.23-.9-6.77-6.94,11.2,9.53,8.2-.68-5.13,8.44-1.52,.52-.28c2.97-1.58,4.95-4.52,5.31-7.87,.16-1.54-.03-3.07-.54-4.48-.01,.04-.02,.09-.04,.13Z"/>
              <path class="cls-44" d="M519.44,141.83c.72,.6,.89,1.34,.91,1.84,1.02-.24,2-.56,2.93-1.01,1.05-.52,2.02-1.29,2.45-2.4,.32-.8,.33-1.66,.19-2.5-.46-.62-1-1.2-1.61-1.71l-6.06-5.08-4.86,5.79,6.06,5.08Z"/>
            </g>
            <g>
              <path class="cls-44" d="M492.99,118.06c1.42-.28,2.85,.07,4.08,.8,1.46,.86,2.7,2.06,3.79,3.4,.18,.03,.37,.08,.56,.16l4.35,5.37-5.49,4.05,13.16,.68,2.59-12.3-4.17,3.07-5.4-6.66-.5-.32c-2.82-1.84-6.35-2.16-9.45-.85-1.43,.6-2.67,1.51-3.66,2.63,.04,0,.09-.02,.13-.03Z"/>
              <path class="cls-44" d="M497.94,124.28c.18-.92,.75-1.42,1.18-1.68-.7-.78-1.45-1.49-2.3-2.08-.96-.67-2.1-1.15-3.29-.99-.86,.11-1.61,.51-2.28,1.04-.32,.71-.57,1.46-.72,2.24l-1.53,7.76,7.42,1.47,1.53-7.76Z"/>
            </g>
          </g>
        </g>
      </g>
      <g>
        <g>
          <path class="cls-24" d="M188.13,36.92s4.39,45.84-.96,50.45c-5.36,4.61-76.77-.66-71.44-16.37,0,0-.64-5.21,4.17-5.97,4.82-.76,19.11-5.15,54.03-1.84,0,0,3.91-29.24,3.97-31.83,0,0,4.84-11.86,6.66-11.53,1.83,.33-.66,8.98-.66,8.98l5.65,3.16-1.42,4.94Z"/>
          <path class="cls-24" d="M183.9,28.82s8.92-9.87,9.81-8.87-2.99,6.54-2.99,6.54c0,0,6.43-5.65,6.32-3.66-.11,2-4.21,5.54-4.21,5.54,0,0,5.43-4.32,5.54-3.21,.11,1.11-5.1,5.1-5.1,5.1,0,0,5.54-1.88,5.32-.89-.22,1-11.2,11.2-11.2,11.2l-3.49-11.75Z"/>
          <path class="cls-46" d="M154.99,62.04c-21.42-.5-31.26,2.39-35.09,3-4.82,.76-4.17,5.97-4.17,5.97-3.57,10.53,27.34,16.37,49.73,17.68-3.95-8.69-7.48-17.56-10.47-26.64Z"/>
          <path class="cls-42" d="M128.74,56.71s-18.63-3.09-18.09,11.43c.54,14.53,36.84,24.38,46.7,22.02l.04-31.38-28.66-2.08Z"/>
          <path class="cls-7" d="M157.21,89.7c-2.9,3.47-31.24-3.82-34.34-8.55,0,0-.48-15.86,.72-16.19,12.3-3.34,33.62,24.74,33.62,24.74Z"/>
        </g>
        <g>
          <ellipse class="cls-33" cx="87.34" cy="332.34" rx="69.49" ry="4"/>
          <g>
            <polygon class="cls-24" points="146 320.74 145.75 307.51 133.01 308.49 133.33 321.21 139.29 331.55 150.01 323.28 146 320.74"/>
            <path class="cls-46" d="M144.77,307.76l-9.8,20.83s1.89-3.27-1.96-6.72v-14.11s11.76,0,11.76,0Z"/>
            <path class="cls-42" d="M148.01,319.84l1.63-8.69s-16.43,2.04-17.62,1c-.24-.21,.12,7.32,.08,7.69l-1.5,13.65h37.74c.44,0,.9-.47,.79-1.03-2-10.14-21.11-12.62-21.11-12.62Z"/>
            <g>
              <path class="cls-8" d="M152.61,331.14s1.47-6.98,6.43-8.27c0,0,7.81,2.57,9.65,8.45h-37.68"/>
              <path class="cls-8" d="M148.98,313.47l-6.09,.46c-1.53,.12-2.72,1.39-2.72,2.93h0c0,1.62,1.31,2.93,2.93,2.94l4.92,.03"/>
              <line class="cls-8" x1="131.84" y1="322.68" x2="139.65" y2="331.23"/>
            </g>
          </g>
          <g>
            <polygon class="cls-24" points="85.47 322.46 89.39 309.72 75.67 309.23 72.73 322.7 77.8 331.55 88.53 323.28 85.47 322.46"/>
            <path class="cls-46" d="M86.45,309.72l-11.27,15.68s.17,.51-3.68-2.94l4.41-13.23,10.54,.49Z"/>
            <path class="cls-42" d="M87.28,321.51l3.84-7.54s-17.26,.38-18.46-.67c-.24-.21-1.26,7.83-1.3,8.2l-1.5,13.65h37.74c.44,0,.9-.47,.79-1.03-2-10.14-21.11-12.62-21.11-12.62Z"/>
            <g>
              <path class="cls-8" d="M91.87,332.81s1.47-6.98,6.43-8.27c0,0,7.81,2.57,9.65,8.45h-37.68"/>
              <line class="cls-8" x1="71.1" y1="324.36" x2="78.91" y2="332.9"/>
              <path class="cls-8" d="M89.95,315.97l-7.75-.37c-1.53,.12-2.72,1.39-2.72,2.93h0c0,1.62,1.31,2.93,2.93,2.94l4.92,.03"/>
            </g>
          </g>
          <g>
            <path class="cls-23" d="M146.07,155.98s4.85,58.05,5.31,74.09c.46,16.04-3.67,78.67-3.67,78.67l-16.22-.05s-17.17-110.68-36.78-149.36l51.35-3.35Z"/>
            <polyline class="cls-20" points="139.38 298.81 136.81 225.3 125.41 182.29"/>
            <polygon class="cls-44" points="129.46 309.1 148.2 308.74 149.3 298.08 127.62 298.08 129.46 309.1"/>
          </g>
          <g>
            <path class="cls-23" d="M146.11,155.98s-11.22,48.39-22.62,82.63c-9.21,27.67-33.61,71.36-33.61,71.36l-16.31-.71,17.33-69.82c1.05-4.13,1.71-8.35,1.98-12.61,1.01-16.08-2.29-48.56-3.68-69.38l56.91-1.46Z"/>
            <path class="cls-20" d="M82.41,299.18c-.37-1.1,22.42-67.27,22.42-75.72s-1.91-50.65-1.91-50.65"/>
            <polygon class="cls-44" points="71.75 309.1 89.88 309.96 96.72 299.17 73.93 298.07 71.75 309.1"/>
          </g>
          <g>
            <path class="cls-42" d="M102.24,55.07s-19,7.62-20.6,28.62c-1.6,20.99-2.15,89.54-2.15,89.54l71.32-1.75-3.97-87.86c-.26-5.35-1.91-10.53-4.78-15.02-2.65-4.14-5.75-8.83-7.52-9.05l-28.43-7.31-3.88,2.83Z"/>
            <path class="cls-7" d="M96.37,57.32c-10.74,8.41-14.6,19.86-15.4,30.36-1.6,20.99-.67,85.57-.67,85.57l34.58-1.11"/>
            <g>
              <g>
                <path class="cls-44" d="M116.31,118.75c-.68-.94-.9-2.11-.78-3.26,.14-1.36,.61-2.66,1.23-3.91-.04-.14-.06-.29-.07-.46l2.48-4.98,4.8,2.67-3.88-9.86-9.87,2.19,3.64,2.03-3.08,6.17-.07,.47c-.41,2.68,.53,5.37,2.52,7.2,.91,.84,1.99,1.45,3.15,1.81-.02-.03-.04-.06-.07-.08Z"/>
                <path class="cls-44" d="M119.22,113.05c-.73,.17-1.29-.08-1.62-.3-.34,.77-.6,1.56-.76,2.37-.17,.92-.14,1.92,.37,2.74,.37,.59,.91,1.01,1.52,1.32,.63,0,1.26-.07,1.88-.22l6.19-1.46-1.39-5.92-6.19,1.46Z"/>
              </g>
              <g>
                <path class="cls-44" d="M147.7,105.05c-.38,1.1-1.21,1.95-2.22,2.51-1.19,.66-2.53,1.03-3.91,1.24-.09,.11-.2,.22-.34,.32l-5.5,.83-.57-5.46-5.84,8.84,7.47,6.82-.43-4.14,6.82-1.02,.43-.21c2.43-1.2,4.09-3.52,4.45-6.2,.17-1.23,.05-2.47-.33-3.61-.01,.03-.02,.07-.03,.1Z"/>
                <path class="cls-44" d="M141.36,105.95c.56,.5,.68,1.1,.69,1.5,.82-.17,1.62-.4,2.38-.75,.86-.39,1.65-.99,2.03-1.87,.27-.64,.3-1.33,.21-2.01-.36-.51-.78-.99-1.26-1.42l-4.75-4.23-4.04,4.54,4.75,4.23Z"/>
              </g>
              <g>
                <path class="cls-44" d="M120.65,86.22c1.15-.2,2.29,.12,3.27,.74,1.16,.73,2.12,1.72,2.97,2.82,.14,.03,.29,.07,.44,.14l3.38,4.42-4.51,3.13,10.56,.86,2.37-9.83-3.42,2.37-4.19-5.48-.39-.27c-2.22-1.55-5.05-1.89-7.58-.91-1.16,.45-2.18,1.15-3.01,2.03,.03,0,.07-.02,.1-.02Z"/>
                <path class="cls-44" d="M124.49,91.34c.17-.73,.64-1.13,.98-1.32-.54-.64-1.13-1.23-1.8-1.72-.76-.56-1.66-.97-2.62-.87-.69,.07-1.31,.37-1.86,.78-.28,.56-.49,1.16-.63,1.78l-1.42,6.2,5.93,1.35,1.42-6.2Z"/>
              </g>
            </g>
          </g>
          <g>
            <path class="cls-24" d="M110.22,36.08l-5.97,17.34,4.07,5.18c16.55,16.44,19.21,3.8,17.29-2.35h0l-1.14-11.79-11.86-10.73s-1.82,1.3-2.05,1.77c-.23,.47-.34,.59-.34,.59Z"/>
            <path class="cls-46" d="M112.61,33.72l11.86,10.73,.39,4.22s-9.92,2.39-13.6-13.42"/>
          </g>
          <g>
            <path class="cls-24" d="M121.54,144.65c-2.1,.03-30.77,3.92-49.43,2.64-5.14-.35-7.71-7.97-6.73-12.97l7.09-43.18,28.31,1.67c-.04,.29-8.98,24.55-10.25,33.97-.45,3.37-.92,2.59,2.16,3.11l25.62,1.41s2.51-.55,3.75-1.27c0,0,7.23-7.11,7.9-3.56-.67,2.66-2.44,7.54-2.44,7.54,0,0,15.08,8.87,16.63,11.08,.64,.91-22.61-.44-22.61-.44Z"/>
            <path class="cls-46" d="M96.27,103.64c2.76-8.65,4.49-10.66,4.52-10.82l-28.31-1.67-3.26,21.31c8.96-3.12,17.96-6.15,27.06-8.83Z"/>
            <path class="cls-46" d="M73.64,140.87c-1.24-2.46-5.19-6.86-8.41-5.41-.44,4.94,2.11,11.51,6.88,11.84,.72,.05,1.46,.09,2.21,.12,.56-2.08,.46-4.28-.68-6.54Z"/>
            <path class="cls-42" d="M107.92,75.65s7-17.7-7.24-20.12c-14.24-2.42-35.93,35.84-35.75,46.02l42.95,3.38,.05-29.28Z"/>
            <path class="cls-20" d="M103.81,58.41c.89,1.33,7.69,6.13,4.07,46.52"/>
          </g>
          <g>
            <path class="cls-29" d="M132.19,12.52c.33,3.33-1.02,5.4-1.02,5.4-8.25,5.3-18.75,14.52-18.75,14.52,0,0-3.84-.69-3.86-1.65-.13-5.17-.73-11.04-1.07-14.06-.15-1.27-1.58-3.71-1.58-3.71,0,0,.69-7.21,13.63-8.15,3.68-.27,11.64-2,12.64,7.65Z"/>
            <path class="cls-24" d="M111.46,29.75c-.14,.38-.61,.49-.89,.21-.97-.95-2.89-2.25-3.58,1.53-.94,5.12,4.41,4.24,4.84,4.93,.86,1.4,3.64,6.1,7.77,7.92,2.52,1.11,6.25,1.29,9-1.35,2.75-2.64,4.27,.47,3.11-27.76,0,0-.64,2.3-3.36,1.75-1.88-.38-3.36-1.96-5.42-2.53-1.68-.47-6.28-1.63-8.27,4.2-.91,2.68-2.36,8.87-3.2,11.09Z"/>
            <g>
              <path class="cls-3" d="M131.33,34.24s-1.66,.83-5.71,.44c0,0,2.18,2.95,3.78,2.38,1.6-.57,1.93-2.83,1.93-2.83Z"/>
              <path class="cls-46" d="M107.79,31.1l2.82,2.13s-1.05-5.15-2.82-2.13Z"/>
              <path class="cls-29" d="M128.02,28.25c0,.62-.24,1.12-.55,1.12s-.55-.5-.55-1.12,.24-1.12,.55-1.12,.55,.5,.55,1.12Z"/>
              <ellipse class="cls-29" cx="131.02" cy="27.7" rx=".55" ry="1.12"/>
              <path class="cls-29" d="M123.43,23.44c-.81,.56,.46-1.99,1.56-2.27,1.1-.28,2.18,.27,2.42,1.24,0,0-2.04-.33-3.98,1.03Z"/>
              <path class="cls-29" d="M131.73,23.17c-1.16-.15-1.99,.05-1.99,.05,.15-.92,1-1.56,2.01-1.59"/>
              <path class="cls-46" d="M129.9,27.67l1.66,4.73c.03,.08-.02,.16-.1,.17l-1.96,.15c-.07,0-.12-.06-.12-.13l.3-4.88c0-.13,.17-.16,.22-.04Z"/>
            </g>
            <g>
              <line class="cls-19" x1="132.06" y1="27.9" x2="136.33" y2="27.33"/>
              <g>
                <path class="cls-13" d="M135.96,26.54h.65v1.41h-.65c-.35,0-.64-.29-.64-.64v-.14c0-.35,.29-.64,.64-.64Z" transform="translate(-1.36 8) rotate(-3.35)"/>
                <path class="cls-4" d="M128.66,28.19c.17,2.88-1.57,5.32-3.89,5.46-2.31,.14-4.33-2.09-4.5-4.96-.17-2.88,1.57-5.32,3.89-5.46,2.31-.14,4.33,2.09,4.5,4.96Z"/>
                <path class="cls-17" d="M128.66,28.19c.17,2.88-1.57,5.32-3.89,5.46-2.31,.14-4.33-2.09-4.5-4.96-.17-2.88,1.57-5.32,3.89-5.46,2.31-.14,4.33,2.09,4.5,4.96Z"/>
                <path class="cls-14" d="M136.84,27.6c.16,2.81-1.2,5.17-3.05,5.27-1.85,.11-3.48-2.08-3.64-4.88-.16-2.81,1.2-5.17,3.05-5.27,1.85-.11,3.48,2.08,3.64,4.88Z"/>
                <path class="cls-14" d="M136.84,27.6c.16,2.81-1.2,5.17-3.05,5.27-1.85,.11-3.48-2.08-3.64-4.88-.16-2.81,1.2-5.17,3.05-5.27,1.85-.11,3.48,2.08,3.64,4.88Z"/>
                <path class="cls-4" d="M136.84,27.6c.16,2.81-1.2,5.17-3.05,5.27-1.85,.11-3.48-2.08-3.64-4.88-.16-2.81,1.2-5.17,3.05-5.27,1.85-.11,3.48,2.08,3.64,4.88Z"/>
                <path class="cls-4" d="M124.69,23.24c-.17-.02-.35-.02-.53-.01-1.7,.1-3.08,1.44-3.64,3.28,1.43-1.03,2.81-2.14,4.17-3.27Z"/>
                <path class="cls-4" d="M127.25,24.63c-.16-.18-.32-.35-.5-.5-2.07,1.76-4.18,3.47-6.43,4.99,.03,.27,.09,.53,.15,.78,2.28-1.73,4.54-3.49,6.78-5.27Z"/>
                <path class="cls-4" d="M122.16,32.72c.75,.63,1.65,.98,2.61,.93,2.31-.14,4.05-2.58,3.89-5.46-.01-.24-.04-.48-.08-.72-2.1,1.8-4.23,3.55-6.42,5.24Z"/>
                <path class="cls-4" d="M132.28,32.43c1.45-1.1,2.95-2.13,4.47-3.13,.09-.54,.13-1.11,.09-1.7-.06-.98-.3-1.88-.66-2.64-1.81,1.71-3.61,3.43-5.73,4.75,.37,1.21,1.02,2.19,1.82,2.72Z"/>
                <path class="cls-4" d="M134.04,22.83c-.27-.09-.56-.13-.84-.11-1.42,.08-2.56,1.5-2.93,3.43,1.25-1.12,2.51-2.22,3.77-3.32Z"/>
                <path class="cls-19" d="M136.84,27.6c.16,2.81-1.2,5.17-3.05,5.27-1.85,.11-3.48-2.08-3.64-4.88-.16-2.81,1.2-5.17,3.05-5.27,1.85-.11,3.48,2.08,3.64,4.88Z"/>
                <path class="cls-17" d="M128.65,28.75s.66-2.31,1.53-.09"/>
                <path class="cls-10" d="M119.54,27.5h.65v1.41h-.65c-.35,0-.64-.29-.64-.64v-.14c0-.35,.29-.64,.64-.64Z" transform="translate(-1.44 7.02) rotate(-3.35)"/>
                <line class="cls-19" x1="111.32" y1="29.48" x2="120.17" y2="28.17"/>
              </g>
            </g>
          </g>
        </g>
      </g>
      <g>
        <g>
          <g>
            <path class="cls-41" d="M172.24,51.11s9.76,12.13,26.89-4.61c0,0,25.82,21.09-7.58,30.8-17.41,5.06-19.32-26.18-19.32-26.18Z"/>
            <g class="cls-37">
              <path class="cls-48" d="M171.31,66.02c5.11,1.58,10.66,1.38,15.89,.57s10.76-2.46,15.61-5.01c.66-.35,.08-1.34-.58-1-4.64,2.44-9.78,3.98-14.95,4.83s-10.63,1.05-15.66-.5c-.71-.22-1.02,.9-.31,1.11h0Z"/>
            </g>
          </g>
          <g>
            <path class="cls-36" d="M233.94,73.19c.74,0,.74-1.16,0-1.16s-.74,1.16,0,1.16h0Z"/>
            <path class="cls-36" d="M151.44,89c.74,0,.74-1.16,0-1.16s-.74,1.16,0,1.16h0Z"/>
            <g>
              <path class="cls-29" d="M184.61,25.38c4.38,.63,5.77,5.71,4.61,9.42-1.06,3.4-3.68,6.42-3.2,10.18,.09,.73,1.25,.74,1.16,0-.55-4.3,3.14-7.74,3.58-11.92,.4-3.81-1.74-8.21-5.84-8.79-.73-.1-1.04,1.01-.31,1.11h0Z"/>
              <path class="cls-29" d="M179.79,31.8c-.56-1.09-1.12-2.47-.85-3.66,.2-.85,.76-1.42,1.52-1.85,.65-.37,.07-1.36-.58-1-.98,.56-1.79,1.42-2.05,2.54-.36,1.57,.25,3.18,.97,4.55,.34,.66,1.34,.08,1-.58h0Z"/>
              <path class="cls-29" d="M187.21,46.5c16.79,6.19,32.58,14.99,46.66,26.04,.58,.45,1.4-.36,.82-.82-14.25-11.17-30.18-20.07-47.17-26.33-.7-.26-1,.86-.31,1.11h0Z"/>
              <path class="cls-29" d="M186.58,44.91c-11.73,9.12-22.42,19.76-30.8,32.07-2.36,3.47-4.53,7.08-6.47,10.8-.34,.66,.65,1.24,1,.58,6.87-13.19,16.56-24.72,27.56-34.66,3.07-2.78,6.26-5.43,9.53-7.98,.59-.46-.24-1.27-.82-.82h0Z"/>
            </g>
          </g>
          <path class="cls-1" d="M170.53,57.59s2.3,9.37,19.16,5.5c15.89-3.65,15.34-12.73,15.34-12.73l28.27,7.28c.07,.02,.12,.05,.18,.09,1.53,1.19,24.87,19.48,30.9,27.82l-21.41,23.31-5.98-11.99,21.94,81.47-82.21,17.92-17.86-84.91,2.12,15.84-29.96-10.78,8.67-33.13c1.63-4.09,4.32-7.67,7.81-10.37l23.04-15.33Z"/>
          <g class="cls-45">
            <path class="cls-21" d="M163.37,64.65c2.58,6.86,2.95,14.77-.14,21.41s-9.99,11.67-17.32,11.46c-1.5-.04-3.02-.29-4.48,.06-3,.73-4.81,3.7-6.29,6.41"/>
            <path class="cls-21" d="M152.82,116.27c8.33-6.59,20.96-7.06,29.75-1.12,9.48,6.4,13.59,19.22,10.94,30.35-2.65,11.13-11.3,20.31-21.71,25.04"/>
            <path class="cls-21" d="M200.44,188.26c-3.94-8.16-.73-19.06,7.01-23.78,5.69-3.47,12.93-3.68,18.58-7.23,7.07-4.45,10.48-13.38,17.77-17.45"/>
            <path class="cls-21" d="M178.85,74.1c.91,4,.56,8.18,1.01,12.26,.45,4.08,1.98,8.4,5.48,10.55,3.87,2.38,8.89,1.41,13.24,2.72,5.44,1.64,9.11,6.55,12.98,10.71,3.87,4.16,9.25,8.07,14.78,6.75"/>
            <path class="cls-21" d="M218.41,54.63c-3.07,7.35,.22,16.42,6.63,21.15,6.41,4.73,15.21,5.45,22.83,3.11"/>
          </g>
          <g>
            <path class="cls-18" d="M132.54,111.41c8.05,3.64,27.87,9.79,27.87,9.79"/>
            <path class="cls-18" d="M240.53,103.07s14.58-16.8,18.71-22.6"/>
          </g>
          <g>
            <path class="cls-27" d="M166.09,60.6l5.36-10,18.43,11.77-4.23,15.5s-13.33-8.67-19.57-17.26Z"/>
            <path class="cls-27" d="M209.1,51.93l-8.93-7.01-10.95,17.58,11.98,11.76s5.63-11.96,7.89-22.33Z"/>
          </g>
        </g>
        <g>
          <g>
            <g>
              <polygon class="cls-44" points="227.13 145.53 210.58 154.85 196.73 141.54 204.07 85.59 234.47 89.58 227.13 145.53"/>
              <g>
                <g>
                  <g>
                    <path class="cls-38" d="M208.02,122.6c-.18-.56-.11-1.16,.13-1.7,.28-.64,.71-1.2,1.2-1.71,0-.07,.02-.15,.04-.23l1.97-2.03,1.91,2.04-.36-5.38-5.13-.46,1.45,1.55-2.45,2.52-.11,.22c-.61,1.23-.57,2.69,.11,3.88,.31,.55,.74,1.01,1.25,1.36,0-.02-.01-.03-.02-.05Z"/>
                    <path class="cls-38" d="M210.31,120.29c-.38-.03-.61-.24-.74-.4-.28,.32-.53,.66-.73,1.03-.23,.42-.36,.91-.25,1.39,.09,.34,.29,.63,.53,.88,.3,.1,.62,.16,.95,.19l3.23,.25,.24-3.09-3.23-.25Z"/>
                  </g>
                  <g>
                    <path class="cls-38" d="M225.36,120.81c-.35,.47-.89,.76-1.46,.87-.68,.14-1.39,.11-2.09,0-.06,.04-.13,.08-.21,.1l-2.79-.45,.57-2.74-4.2,3.39,2.57,4.46,.43-2.08,3.47,.56,.24-.04c1.36-.21,2.53-1.07,3.12-2.32,.27-.57,.4-1.19,.4-1.8-.01,.01-.02,.03-.03,.04Z"/>
                    <path class="cls-38" d="M222.15,120.27c.2,.33,.16,.64,.1,.83,.42,.05,.85,.06,1.27,0,.48-.06,.95-.22,1.27-.59,.23-.27,.35-.6,.41-.94-.09-.3-.22-.6-.39-.88l-1.65-2.79-2.66,1.58,1.65,2.79Z"/>
                  </g>
                  <g>
                    <path class="cls-38" d="M215.16,107.49c.59,.08,1.09,.41,1.47,.86,.45,.53,.76,1.16,1,1.83,.06,.04,.13,.08,.19,.14l.95,2.67-2.67,.82,4.99,2.05,2.67-4.4-2.03,.62-1.18-3.31-.15-.19c-.84-1.09-2.16-1.7-3.54-1.61-.63,.04-1.24,.22-1.77,.52,.02,0,.04,0,.05,0Z"/>
                    <path class="cls-38" d="M216.23,110.57c.19-.33,.48-.45,.68-.49-.16-.39-.36-.77-.61-1.11-.28-.39-.66-.73-1.14-.83-.35-.07-.69-.02-1.02,.09-.22,.23-.42,.49-.58,.77l-1.65,2.79,2.67,1.57,1.65-2.79Z"/>
                  </g>
                </g>
                <path class="cls-38" d="M221.42,132.74l-14.53-1.91c-.74-.1-1.27-.78-1.17-1.52h0c.1-.74,.78-1.27,1.52-1.17l14.53,1.91c.74,.1,1.27,.78,1.17,1.52h0c-.1,.74-.78,1.27-1.52,1.17Z"/>
                <path class="cls-38" d="M220.54,139.47l-14.53-1.91c-.74-.1-1.27-.78-1.17-1.52h0c.1-.74,.78-1.27,1.52-1.17l14.53,1.91c.74,.1,1.27,.78,1.17,1.52h0c-.1,.74-.78,1.27-1.52,1.17Z"/>
              </g>
            </g>
            <path class="cls-38" d="M224.85,95.62c-.11-1.26,.82-2.37,2.08-2.48s2.37,.82,2.48,2.08c.11,1.26-.82,2.37-2.08,2.48-1.26,.11-2.37-.82-2.48-2.08Z"/>
          </g>
          <g>
            <path class="cls-44" d="M192.87,46.92c.96-1.01,2.65-.7,3.85-.37,1.54,.42,3,1.15,4.25,2.15,2.7,2.15,5.12,4.69,7.29,7.37,4.5,5.55,7.91,11.91,10.91,18.38,.86,1.85,1.68,3.71,2.48,5.59,.41,.95,.81,1.89,1.21,2.84,.15,.37,1.33,2.45,1.13,2.79l.54-.31,.32,.23-.29,.71,.1-.05c.7-.39,.07-1.47-.63-1.08l-.1,.05c-.25,.14-.35,.44-.29,.71,.28,1.19,1.75,.68,1.6-.44-.12-.9-.75-1.91-1.1-2.75-.41-.99-.83-1.97-1.25-2.96-1.74-4.06-3.55-8.08-5.61-11.99-3.96-7.52-8.97-15.08-15.81-20.28-2.22-1.69-7.08-3.99-9.49-1.47-.56,.58,.33,1.47,.88,.88h0Z"/>
            <g>
              <g>
                <circle class="cls-44" cx="230.74" cy="102.9" r="20.95" transform="translate(24.92 249.42) rotate(-59.48)"/>
                <path class="cls-22" d="M223.96,108.28c-5.15-6.06-7-13.74-6.56-21.53-5.79,4.8-8.81,12.56-7.16,20.43,2.37,11.32,13.47,18.58,24.8,16.21,4.5-.94,8.34-3.28,11.21-6.45-8.46,.06-16.65-2.04-22.29-8.67Z"/>
              </g>
              <g>
                <circle class="cls-16" cx="230.74" cy="102.9" r="17.5" transform="translate(21.06 243.84) rotate(-57.94)"/>
                <g>
                  <g>
                    <path class="cls-15" d="M228.3,115.95c-2.66-3.59-3.61-8.41-2.49-12.74,1.11-4.33,4.26-8.1,8.32-9.96,.98,3.23,1.97,6.54,1.91,9.91-.09,5.15-2.81,10.18-7.05,13.08"/>
                    <path class="cls-15" d="M228.68,115.92c-.65-5.72,.66-11.64,3.66-16.54"/>
                    <path class="cls-15" d="M229.17,109.31c1.2-.62,2.4-1.24,3.6-1.86"/>
                    <path class="cls-15" d="M229.88,104.21c-.39-1.14-.79-2.28-1.18-3.42"/>
                  </g>
                  <g>
                    <path class="cls-38" d="M240.02,101.56c.75,0,.76-1.17,0-1.17s-.76,1.17,0,1.17h0Z"/>
                    <path class="cls-38" d="M240.44,107.37c.75,0,.76-1.17,0-1.17s-.76,1.17,0,1.17h0Z"/>
                    <path class="cls-38" d="M237.55,112.59c.75,0,.76-1.17,0-1.17s-.76,1.17,0,1.17h0Z"/>
                    <path class="cls-38" d="M222.66,109.97c.75,0,.76-1.17,0-1.17s-.76,1.17,0,1.17h0Z"/>
                    <path class="cls-38" d="M222.23,103.37c.75,0,.76-1.17,0-1.17s-.76,1.17,0,1.17h0Z"/>
                    <path class="cls-38" d="M225.36,97.78c.75,0,.76-1.17,0-1.17s-.76,1.17,0,1.17h0Z"/>
                  </g>
                </g>
              </g>
            </g>
          </g>
          <g>
            <path class="cls-38" d="M230.74,89.42c-.21-1.01-1.2-1.66-2.21-1.45s-1.66,1.2-1.45,2.21,1.2,1.66,2.21,1.45c1.01-.21,1.66-1.2,1.45-2.21Z"/>
            <path class="cls-44" d="M229.49,89.43c-7.84-4.91-15-10.92-21.44-17.55-3.26-3.35-6.34-6.88-9.16-10.6-1.33-1.76-2.6-3.55-3.8-5.4-1.34-2.07-2.59-4.27-2.44-6.82,.05-.8-1.2-.8-1.25,0-.22,3.64,2.11,6.8,4.08,9.65s4.27,5.8,6.61,8.53c5.04,5.87,10.65,11.28,16.7,16.12,3.22,2.57,6.56,4.98,10.06,7.17,.68,.43,1.31-.65,.63-1.08h0Z"/>
          </g>
        </g>
        <path class="cls-28" d="M158.87,111.36s43.58,73.31,59.08,75.96l-41.22,8.95-17.86-84.91Z"/>
      </g>
      <g>
        <g>
          <g>
            <g>
              <path class="cls-2" d="M361.36,56.43s23.8,6.08,38.91-12.5c0,0,5.05,21.28-12.34,26.4-17.4,5.12-26.57-13.9-26.57-13.9Z"/>
              <g class="cls-37">
                <path class="cls-48" d="M366.48,61.42c9.47,1.79,19.42-.24,27.4-5.66,.61-.42,.03-1.42-.58-1-7.72,5.24-17.34,7.28-26.51,5.54-.73-.14-1.04,.98-.31,1.11h0Z"/>
              </g>
            </g>
            <g>
              <path class="cls-36" d="M349.5,86.51c20.84-6.52,41.67-13.04,62.51-19.56,5.88-1.84,11.77-3.68,17.65-5.53,.71-.22,.41-1.34-.31-1.11-20.84,6.52-41.67,13.04-62.51,19.56-5.88,1.84-11.77,3.68-17.65,5.53-.71,.22-.41,1.34,.31,1.11h0Z"/>
              <g>
                <path class="cls-38" d="M371.1,26.52c-.74-1.13-1.47-2.55-.97-3.93,.32-.88,1.05-1.52,1.82-2,2.31-1.43,5.14-1.2,7.08,.79,2.32,2.38,2.2,5.89,1.26,8.84s-2.27,5.67-1.52,8.72c.18,.72,1.29,.42,1.11-.31-.75-3.07,.96-6.01,1.75-8.89,.71-2.59,.66-5.42-.74-7.78-2.31-3.91-7.75-4.63-10.89-1.29-1.81,1.93-1.25,4.4,.08,6.43,.41,.62,1.41,.04,1-.58h0Z"/>
                <path class="cls-38" d="M380.04,40.22c17.44,4.26,34.15,11.22,49.45,20.62,.64,.39,1.22-.61,.58-1-15.38-9.45-32.19-16.46-49.73-20.74-.72-.18-1.03,.94-.31,1.11h0Z"/>
                <path class="cls-38" d="M379.35,38.68c-10.67,10.44-20.14,22.3-27.08,35.57-1.93,3.7-3.65,7.5-5.14,11.4-.27,.69,.85,1,1.11,.31,5.3-13.83,13.62-26.38,23.38-37.46,2.73-3.1,5.59-6.1,8.55-8.99,.53-.52-.28-1.34-.82-.82h0Z"/>
              </g>
            </g>
            <g>
              <path class="cls-23" d="M360.85,52.73s3.5,17.37,23.42,12.42c19.92-4.95,14.95-23.57,14.95-23.57l25.64,7.86s16.91,10.81,23.77,18.32l-10.84,18.85-6.93-3.63,13.14,35.82-70.97,22.21-11.53-38.9-3.04,6.75-26.29-7.87,11.39-27.39,17.3-20.87Z"/>
              <g class="cls-25">
                <g class="cls-31">
                  <path class="cls-48" d="M396.03,102.21c-2.45,.94-5.39,.42-7.36-1.31-.26-.23-.53-.51-.58-.85-.09-.52,.33-1.02,.83-1.19s1.04-.09,1.56,.01c1.91,.4,3.74,1.2,5.34,2.32"/>
                  <path class="cls-48" d="M418.72,84.7c2.54-.64,5.4,.23,7.16,2.18,.23,.26,.46,.56,.48,.92,.02,.53-.45,.97-.97,1.08-.51,.11-1.05-.03-1.54-.2-1.85-.63-3.57-1.63-5.03-2.94"/>
                  <path class="cls-48" d="M431.26,59.12c-2.45,.94-5.39,.42-7.36-1.31-.26-.23-.53-.51-.58-.85-.09-.52,.33-1.02,.83-1.19,.5-.17,1.04-.09,1.56,.02,1.91,.4,3.74,1.2,5.34,2.32"/>
                  <path class="cls-48" d="M349.02,93.63c-2.45,.94-5.39,.42-7.36-1.31-.26-.23-.52-.51-.58-.85-.09-.52,.33-1.02,.83-1.19s1.04-.09,1.56,.01c1.91,.4,3.74,1.2,5.34,2.32"/>
                  <path class="cls-48" d="M354.93,72.37c-1.15-2.01-1.08-4.65,.16-6.6,.17-.26,.37-.53,.67-.62,.44-.15,.93,.16,1.15,.57s.22,.9,.19,1.36c-.1,1.72-.55,3.43-1.31,4.97"/>
                  <path class="cls-48" d="M403.52,62.55c-1.41,1.4-2.65,3.3-2.26,5.25,.16,.8,.79,1.64,1.6,1.55,.85-.1,1.24-1.11,1.38-1.96,.29-1.78,.29-3.61,0-5.39"/>
                  <path class="cls-48" d="M368.13,72.98c.19,1.53,.35,3.1,.02,4.61-.33,1.51-1.23,2.97-2.64,3.61-.75,.34-1.8,.33-2.22-.38-.26-.44-.19-1-.07-1.5,.58-2.45,2.05-4.67,4.07-6.16"/>
                  <path class="cls-48" d="M421.98,114.77c.51,1.31,1.01,2.67,1.06,4.07,.05,1.41-.41,2.91-1.52,3.78-.59,.47-1.52,.7-2.05,.17-.33-.33-.39-.84-.4-1.31-.04-2.29,.76-4.59,2.21-6.37"/>
                  <path class="cls-48" d="M383.74,132.93c2.02-1.9,2.69-5.09,1.6-7.64-.32-.75-.89-1.51-1.7-1.56-1.2-.08-1.87,1.39-1.94,2.6-.12,2,.47,4.04,1.62,5.68"/>
                </g>
              </g>
            </g>
            <g>
              <path class="cls-18" d="M334.7,95.64c8.41,2.7,16.67,5.87,24.73,9.49"/>
              <path class="cls-18" d="M433.88,83.6c2.39-6.71,5.33-13.22,8.77-19.46"/>
              <path class="cls-18" d="M357.38,58c1.82,4.16,5.81,6.91,9.78,9.1,3.75,2.07,7.76,3.86,12.03,4.28,7.12,.69,14.34-2.71,18.94-8.19,4.6-5.48,6.71-12.8,6.52-19.96"/>
            </g>
            <path class="cls-2" d="M370.51,114.82c-2.81-2.89-5.47-5.93-7.95-9.11l10.46,35.3,26.99-8.45c-11.19-2.41-20.88-8.89-29.5-17.74Z"/>
          </g>
          <g>
            <g>
              <g>
                <circle class="cls-44" cx="423.9" cy="62.95" r="20.95" transform="translate(48.38 269.43) rotate(-37.25)"/>
                <path class="cls-22" d="M415.81,66.04c-3.08-7.33-2.52-15.21,.25-22.51-6.97,2.82-12.19,9.31-13,17.32-1.16,11.51,7.23,21.79,18.74,22.95,4.58,.46,8.94-.6,12.64-2.76-8.08-2.5-15.26-6.97-18.63-15Z"/>
              </g>
              <g>
                <circle class="cls-16" cx="423.9" cy="62.95" r="17.5"/>
                <g>
                  <g>
                    <path class="cls-15" d="M417.63,74.65c-1.45-4.23-.9-9.11,1.47-12.9,2.37-3.79,6.51-6.43,10.95-6.98-.04,3.38-.1,6.82-1.18,10.03-1.65,4.88-5.75,8.85-10.68,10.34"/>
                    <path class="cls-15" d="M418,74.74c1.11-5.65,4.14-10.89,8.49-14.67"/>
                    <path class="cls-15" d="M420.47,68.59c1.33-.23,2.66-.46,3.99-.69"/>
                    <path class="cls-15" d="M422.69,63.94c-.03-1.21-.06-2.41-.09-3.62"/>
                  </g>
                  <g>
                    <path class="cls-38" d="M433.32,64.5c.75,0,.76-1.17,0-1.17s-.76,1.17,0,1.17h0Z"/>
                    <path class="cls-38" d="M431.97,70.17c.75,0,.76-1.17,0-1.17s-.76,1.17,0,1.17h0Z"/>
                    <path class="cls-38" d="M427.64,74.28c.75,0,.76-1.17,0-1.17s-.76,1.17,0,1.17h0Z"/>
                    <path class="cls-38" d="M414.23,67.28c.75,0,.76-1.17,0-1.17s-.76,1.17,0,1.17h0Z"/>
                    <path class="cls-38" d="M415.82,60.86c.75,0,.76-1.17,0-1.17s-.76,1.17,0,1.17h0Z"/>
                    <path class="cls-38" d="M420.5,56.47c.75,0,.76-1.17,0-1.17s-.76,1.17,0,1.17h0Z"/>
                  </g>
                </g>
              </g>
            </g>
            <path class="cls-38" d="M427.97,50.1c.1-1.03-.64-1.94-1.67-2.05s-1.94,.64-2.05,1.67,.64,1.94,1.67,2.05c1.03,.1,1.94-.64,2.05-1.67Z"/>
            <path class="cls-44" d="M426.82,48.54c-4.14-6.84-6.23-17.62-15.47-19.42-3.77-.73-7.23,1.01-9.61,3.88-2.7,3.25-3.85,7.31-5.58,11.09-.52,1.13-1.09,2.24-1.77,3.28-.39,.6-2.03,2.92-2.48,1.46s-.23-3.13-.16-4.6c.04-.8-1.21-.8-1.25,0-.07,1.51-.71,6.04,1.52,6.37,1.82,.27,3.13-2.01,3.9-3.29,1.13-1.89,1.94-3.96,2.77-6,1.56-3.87,3.45-8.33,7.41-10.29,4.44-2.2,9.16,.47,12.05,3.92,3.48,4.15,4.83,9.66,7.6,14.24,.42,.69,1.5,.06,1.08-.63h0Z"/>
            <path class="cls-44" d="M392.11,41.66c3.38-6.21,6.66-12.43,12.55-16.65,3.1-2.22,7.08-3.99,10.96-3.14,3.5,.77,6.1,3.56,7.59,6.71,2.02,4.28,1.95,9.2,1.93,13.82,0,.8,1.25,.81,1.25,0,.03-7.53-.46-17.54-8.5-21.09-7.56-3.34-15.7,2.99-20.15,8.64-2.69,3.41-4.65,7.29-6.72,11.08-.38,.71,.69,1.34,1.08,.63h0Z"/>
          </g>
        </g>
        <g>
          <path class="cls-1" d="M444,81.58s29.75,39.88,36.83,34.88c0,0,36.76-45.09,20.58-57.1-9.61-7.13-16.42,21.32-25.98,37.49-.29,.49-27.45-24.92-27.45-24.92,0,0-6.62-9.63-7.43-8.76-1.17,1.27,1.66,9.31,1.66,9.31,0,0-1.55,2.22-3.77,5.43,.22,.22,4.7,3.05,5.54,3.66Z"/>
          <path class="cls-43" d="M501.42,59.37c-.9-.67-1.77-1.01-2.62-1.09,.28,.42,.55,.84,.8,1.27,.65,.57,1.16,1.36,1.44,2.41,1.81,6.78,2.1,13.4,1.27,19.89,.01,.02,.03,.03,.04,.05,3.83-9.38,4.97-18.16-.93-22.53Z"/>
          <path class="cls-43" d="M475.33,112.36c-.53,.72-.98,1.5-1.4,2.3,2.97,1.99,5.43,2.85,6.9,1.81,0,0,1.44-1.77,3.62-4.69-3.16-2.38-6.29-3.26-9.12,.58Z"/>
        </g>
      </g>
    </g>
  </g>
</svg>