<?xml version="1.0" encoding="UTF-8"?>
<svg xmlns="http://www.w3.org/2000/svg" xmlns:xlink="http://www.w3.org/1999/xlink" viewBox="0 0 678 376.97">
  <defs>
    <style>
      .cls-1 {
        fill: #fff;
      }

      .cls-2 {
        fill: #fafafa;
      }

      .cls-3 {
        fill: #455a64;
      }

      .cls-4 {
        opacity: .2;
      }

      .cls-5, .cls-6 {
        fill: #e0e0e0;
      }

      .cls-7 {
        fill: #b78876;
      }

      .cls-8 {
        opacity: .3;
      }

      .cls-6 {
        fill-rule: evenodd;
      }

      .cls-9 {
        clip-path: url(#clippath);
      }

      .cls-10 {
        fill: #ebebeb;
      }

      .cls-11 {
        fill: none;
      }

      .cls-12 {
        fill: #7393a2;
      }

      .cls-13 {
        fill: #263238;
      }
    </style>
    <clipPath id="clippath">
      <path class="cls-11" d="M356.31,226.43H221.19c-6.59,0-11.94-5.34-11.94-11.94h0c0-6.59,5.34-11.94,11.94-11.94h135.12c4.72,0,8.55,3.83,8.55,8.55v6.77c0,4.72-3.83,8.55-8.55,8.55Z"/>
    </clipPath>
  </defs>
  <g id="Background_Complete" data-name="Background Complete">
    <g>
      <circle class="cls-5" cx="577.85" cy="126.26" r="12.3" transform="translate(27.66 343.38) rotate(-33.86)"/>
      <circle class="cls-5" cx="541.34" cy="126.26" r="13.1"/>
      <circle class="cls-5" cx="513.28" cy="103.09" r="13.9"/>
      <circle class="cls-5" cx="507.58" cy="67.46" r="14.52"/>
      <circle class="cls-5" cx="525.37" cy="36.27" r="15.01"/>
      <circle class="cls-5" cx="559.54" cy="23.95" r="16.36"/>
      <circle class="cls-5" cx="604.98" cy="102.8" r="11.88" transform="translate(366.61 668.26) rotate(-76.79)"/>
      <circle class="cls-5" cx="611.33" cy="67.06" r="11.02"/>
      <circle class="cls-5" cx="593" cy="35.86" r="10.07"/>
    </g>
    <g>
      <g>
        <path class="cls-11" d="M176.21,9.84c2.8,.35,5.51,1.08,8.06,2.13l5.92-4.96,10.17,7.74-3.2,7.03c1.69,2.18,3.11,4.59,4.2,7.2l7.69,.68,1.72,12.67-7.23,2.7c-.35,2.8-1.08,5.51-2.13,8.06l4.96,5.92-7.74,10.17-7.03-3.2c-2.18,1.69-4.59,3.11-7.2,4.2l-.68,7.69-12.67,1.72-2.7-7.23c-2.8-.35-5.51-1.08-8.06-2.13l-5.92,4.96-10.17-7.74,3.21-7.03c-1.69-2.18-3.11-4.59-4.2-7.2l-7.69-.68-1.72-12.67,7.23-2.7c.35-2.8,1.08-5.51,2.13-8.06l-4.96-5.92,7.74-10.17,7.03,3.2c2.18-1.69,4.59-3.11,7.2-4.2l.68-7.69,12.66-1.72,2.7,7.23h0Zm-5.2,17.58c-7.5,1.02-12.76,7.93-11.74,15.43,1.02,7.5,7.93,12.76,15.43,11.74,7.5-1.02,12.76-7.93,11.74-15.43-1.02-7.5-7.93-12.76-15.43-11.74Z"/>
        <path class="cls-5" d="M171.01,27.42s1.19-.35,3.39-.18c2.16,.17,5.46,1.08,8.33,3.88,1.41,1.39,2.7,3.23,3.43,5.46,.72,2.22,1.01,4.8,.43,7.39-.26,1.3-.74,2.58-1.4,3.79-.65,1.22-1.51,2.37-2.55,3.36-2.05,2.03-4.86,3.41-7.88,3.85-3.03,.39-6.11-.19-8.63-1.61-1.27-.68-2.41-1.55-3.36-2.56-.97-.99-1.77-2.1-2.37-3.28-1.26-2.34-1.66-4.91-1.56-7.24,.11-2.35,.87-4.46,1.86-6.18,2.02-3.47,4.96-5.22,7-5.96,2.08-.75,3.32-.73,3.32-.73,.02,.1-1.21,.19-3.2,1.02-1.96,.81-4.75,2.58-6.63,5.95-.92,1.67-1.61,3.7-1.69,5.94-.07,2.22,.34,4.66,1.55,6.87,.57,1.12,1.34,2.16,2.26,3.09,.91,.95,1.98,1.77,3.19,2.41,2.38,1.33,5.29,1.87,8.15,1.5,2.86-.42,5.51-1.71,7.45-3.62,.99-.93,1.81-2.02,2.43-3.17,.64-1.14,1.1-2.36,1.35-3.59,.58-2.45,.32-4.91-.34-7.04-.67-2.14-1.88-3.91-3.21-5.27-2.71-2.74-5.87-3.71-7.97-3.97-2.14-.26-3.35-.03-3.36-.13Z"/>
        <path class="cls-5" d="M176.21,9.84s-.07-.14-.2-.44c-.13-.33-.31-.78-.54-1.36-.48-1.25-1.18-3.05-2.09-5.39l.13,.08c-3.24,.46-7.5,1.06-12.65,1.79l.17-.18c-.2,2.33-.41,4.92-.65,7.69v.14s-.14,.05-.14,.05c-2.39,1.01-4.83,2.39-7.13,4.19l-.12,.1-.14-.06c-2.19-.99-4.57-2.07-7.04-3.18l.34-.09c-2.43,3.21-5.01,6.61-7.72,10.19v-.39c1.53,1.83,3.23,3.85,4.96,5.91l.13,.15-.08,.18c-.98,2.37-1.74,5.11-2.09,7.97l-.02,.2-.19,.07c-2.24,.84-4.71,1.77-7.23,2.71l.22-.38c.54,3.98,1.13,8.27,1.73,12.66l-.33-.32c2.4,.21,5.03,.44,7.69,.67l.23,.02,.09,.21c.99,2.38,2.39,4.86,4.15,7.11l.14,.18-.1,.21c-1,2.2-2.1,4.6-3.2,7.03l-.12-.47c3.22,2.45,6.67,5.07,10.17,7.74h-.49c1.87-1.56,3.89-3.25,5.92-4.95l.18-.15,.22,.09c2.42,1,5.14,1.75,7.95,2.1h0s0,0,0,0c.14,.11-.32-.25,.32,.25h0s0,.02,0,.02v.03s.03,.06,.03,.06l.04,.11,.09,.23,.17,.46,.34,.91,.68,1.81c.45,1.21,.9,2.41,1.35,3.61l-.42-.25c4.28-.58,8.5-1.15,12.67-1.72l-.34,.35c.23-2.59,.46-5.15,.68-7.69l.02-.23,.22-.09c2.57-1.07,4.97-2.47,7.11-4.14l.18-.14,.21,.1c2.38,1.09,4.72,2.15,7.03,3.21l-.45,.11c2.65-3.47,5.23-6.86,7.75-10.16v.45c-1.67-2.01-3.32-3.99-4.94-5.93l-.14-.16,.08-.2c1.08-2.6,1.78-5.29,2.12-7.96l.03-.21,.19-.07c2.48-.92,4.89-1.82,7.24-2.69l-.21,.35c-.59-4.46-1.16-8.66-1.69-12.67l.27,.26c-2.7-.24-5.24-.47-7.69-.7l-.17-.02-.07-.16c-1.13-2.72-2.55-5.09-4.14-7.15l-.1-.12,.07-.14c1.17-2.55,2.23-4.85,3.23-7.02l.07,.28c-3.93-3.02-7.27-5.59-10.14-7.79h.22c-2.38,1.96-4.33,3.57-5.95,4.92l-.06,.05-.07-.03c-2.59-1.08-4.63-1.57-5.98-1.86-.65-.12-1.16-.22-1.52-.29-.35-.06-.51-.09-.5-.1,0,0,.18,0,.51,.04,.34,.04,.86,.1,1.54,.23,1.36,.25,3.42,.69,6.05,1.75l-.13,.02c1.61-1.36,3.54-3,5.89-5l.11-.09,.11,.09c2.88,2.17,6.25,4.71,10.2,7.7l.15,.11-.08,.17c-.98,2.18-2.02,4.48-3.18,7.04l-.03-.27c1.63,2.08,3.09,4.48,4.25,7.25l-.24-.17c2.45,.21,4.99,.43,7.69,.66l.24,.02,.03,.24c.55,4,1.13,8.21,1.74,12.66l.04,.26-.25,.09c-2.35,.88-4.75,1.78-7.23,2.72l.22-.28c-.34,2.73-1.05,5.49-2.14,8.15l-.06-.36c1.63,1.94,3.28,3.91,4.97,5.91l.19,.22-.18,.23c-2.51,3.31-5.09,6.7-7.73,10.18l-.18,.24-.27-.12c-2.31-1.05-4.65-2.12-7.03-3.2l.39-.05c-2.2,1.71-4.65,3.15-7.28,4.25l.24-.32c-.22,2.54-.45,5.1-.67,7.69l-.03,.31-.31,.04c-4.16,.57-8.39,1.14-12.67,1.72l-.31,.04-.11-.29c-.45-1.2-.9-2.4-1.35-3.61l-.68-1.81-.34-.91-.17-.46-.09-.23-.04-.11-.02-.06v-.03s-.02-.01-.02-.01h0c.64,.5,.18,.13,.32,.25h0s0,0,0,0c-2.88-.36-5.67-1.13-8.15-2.15l.4-.06c-2.03,1.7-4.05,3.39-5.92,4.96l-.24,.2-.25-.19c-3.5-2.66-6.95-5.29-10.17-7.74l-.25-.19,.13-.28c1.11-2.43,2.2-4.83,3.21-7.03l.05,.39c-1.8-2.31-3.23-4.85-4.24-7.29l.31,.23c-2.66-.24-5.3-.47-7.69-.69l-.29-.03-.04-.29c-.59-4.4-1.17-8.69-1.7-12.67l-.04-.28,.26-.1c2.52-.94,4.99-1.86,7.24-2.69l-.22,.28c.37-2.93,1.16-5.72,2.16-8.14l.05,.33c-1.73-2.07-3.42-4.09-4.95-5.93l-.16-.19,.15-.2c2.72-3.56,5.32-6.95,7.76-10.15l.14-.18,.2,.09c2.46,1.13,4.83,2.22,7.02,3.22l-.27,.03c2.35-1.82,4.83-3.2,7.27-4.21l-.14,.19c.25-2.77,.49-5.36,.71-7.69v-.16s.17-.02,.17-.02c5.16-.67,9.43-1.22,12.67-1.65h.1s.03,.08,.03,.08c.84,2.34,1.49,4.14,1.94,5.39,.21,.6,.37,1.06,.49,1.4,.11,.32,.16,.48,.15,.49Z"/>
      </g>
      <path class="cls-6" d="M115.03,83.7c3.96,.5,7.78,1.52,11.39,3.01l8.37-7.02,14.38,10.94-4.53,9.94c2.39,3.08,4.4,6.49,5.94,10.18l10.88,.96,2.43,17.91-10.23,3.82c-.49,3.96-1.52,7.79-3.01,11.39l7.02,8.37-10.94,14.38-9.94-4.53c-3.08,2.39-6.49,4.4-10.18,5.93l-.96,10.88-17.91,2.43-3.82-10.23c-3.96-.49-7.78-1.52-11.39-3.01l-8.37,7.02-14.38-10.94,4.53-9.94c-2.39-3.08-4.4-6.49-5.93-10.18l-10.88-.96-2.43-17.91,10.23-3.82c.49-3.96,1.52-7.79,3.01-11.39l-7.02-8.37,10.94-14.38,9.94,4.53c3.08-2.39,6.49-4.4,10.18-5.93l.96-10.88,17.91-2.43,3.82,10.23h0Zm-7.35,24.86c-10.61,1.44-18.04,11.21-16.6,21.82,1.44,10.61,11.21,18.04,21.82,16.6,10.61-1.44,18.04-11.21,16.6-21.82-1.44-10.61-11.21-18.04-21.82-16.6Z"/>
    </g>
  </g>
  <g id="Floor">
    <path class="cls-13" d="M678,376.64c0,.14-151.79,.26-338.98,.26s-339.02-.12-339.02-.26,151.76-.26,339.02-.26,338.98,.12,338.98,.26Z"/>
  </g>
  <g id="Device">
    <g>
      <g>
        <g>
          <rect class="cls-3" x="133.36" y="80.89" width="437.31" height="289.19" rx="14.57" ry="14.57"/>
          <path class="cls-3" d="M116.27,351.41h473.79v7.51c0,9.82-7.97,17.8-17.8,17.8H134.07c-9.82,0-17.8-7.97-17.8-17.8v-7.51h0Z"/>
          <rect class="cls-13" x="145.1" y="92.38" width="412.61" height="244.22"/>
          <polygon class="cls-13" points="308.91 348.69 314.79 358.05 397.52 358.05 402.98 348.69 308.91 348.69"/>
        </g>
        <g>
          <path class="cls-10" d="M156.87,100.65h389.92c1.81,0,3.27,1.47,3.27,3.27v228.62c0,1.81-1.47,3.27-3.27,3.27H156.87c-1.81,0-3.27-1.47-3.27-3.27V103.92c0-1.81,1.47-3.27,3.27-3.27Z"/>
          <polygon class="cls-2" points="549.64 336.16 153.17 336.16 153.6 118.23 549.64 118.23 549.64 336.16"/>
          <path class="cls-13" d="M186.11,109.73c0,1.75-1.42,3.17-3.17,3.17s-3.17-1.42-3.17-3.17,1.42-3.17,3.17-3.17,3.17,1.42,3.17,3.17Z"/>
          <path class="cls-13" d="M166.92,109.73c0,1.75-1.42,3.17-3.17,3.17s-3.17-1.42-3.17-3.17,1.42-3.17,3.17-3.17,3.17,1.42,3.17,3.17Z"/>
          <path class="cls-13" d="M176.14,109.73c0,1.75-1.42,3.17-3.17,3.17s-3.17-1.42-3.17-3.17,1.42-3.17,3.17-3.17,3.17,1.42,3.17,3.17Z"/>
        </g>
        <path class="cls-13" d="M566.91,348.69c0,.16-97.06,.28-216.77,.28s-216.79-.13-216.79-.28,97.04-.28,216.79-.28,216.77,.13,216.77,.28Z"/>
      </g>
      <g>
        <path class="cls-10" d="M490.6,226.43H221.19c-6.59,0-11.94-5.34-11.94-11.94h0c0-6.59,5.34-11.94,11.94-11.94H490.6c6.59,0,11.94,5.34,11.94,11.94h0c0,6.59-5.34,11.94-11.94,11.94Z"/>
        <path class="cls-5" d="M360.39,226.43h-14.44c-6.66,0-12.05-5.4-12.05-12.05h0c0-6.66,5.16-11.82,11.82-11.82l14.68,.06c6.66,0,12.04,5.63,12.04,12.28h0c0,6.66-5.4,11.52-12.05,11.52Z"/>
        <g class="cls-9">
          <path class="cls-12" d="M352.92,226.43H221.19c-6.59,0-11.94-5.34-11.94-11.94h0c0-6.59,5.34-11.94,11.94-11.94h131.73c6.59,0,11.94,5.34,11.94,11.94h0c0,6.59-5.34,11.94-11.94,11.94Z"/>
          <g class="cls-4">
            <polygon class="cls-1" points="225.75 202.56 240.33 226.43 250.64 226.43 235.48 202.56 225.75 202.56"/>
          </g>
          <g class="cls-4">
            <polygon class="cls-1" points="203.69 202.56 218.27 226.43 228.58 226.43 213.42 202.56 203.69 202.56"/>
          </g>
          <g class="cls-4">
            <polygon class="cls-1" points="247.09 202.56 261.66 226.43 271.98 226.43 256.82 202.56 247.09 202.56"/>
          </g>
          <g class="cls-4">
            <polygon class="cls-1" points="268.43 202.56 283 226.43 293.32 226.43 278.16 202.56 268.43 202.56"/>
          </g>
          <g class="cls-4">
            <polygon class="cls-1" points="289.76 202.56 304.34 226.43 314.65 226.43 299.49 202.56 289.76 202.56"/>
          </g>
          <g class="cls-4">
            <polygon class="cls-1" points="311.1 202.56 325.67 226.43 335.99 226.43 320.83 202.56 311.1 202.56"/>
          </g>
          <g class="cls-4">
            <polygon class="cls-1" points="332.44 202.56 347.01 226.43 357.33 226.43 342.17 202.56 332.44 202.56"/>
          </g>
          <g class="cls-4">
            <polygon class="cls-1" points="353.77 202.56 368.35 226.43 378.66 226.43 363.5 202.56 353.77 202.56"/>
          </g>
        </g>
      </g>
    </g>
    <g>
      <path class="cls-12" d="M290.71,249.3c2.53,0,3.99,1.25,3.99,3.44s-1.45,3.6-3.99,3.6h-2.32v3.04h-1.7v-10.07h4.01Zm-2.32,5.51h2.24c1.55,0,2.43-.66,2.43-2.03s-.88-1.96-2.43-1.96h-2.24v3.99Z"/>
      <path class="cls-12" d="M296.64,259.37v-10.68h1.65v10.68h-1.65Z"/>
      <path class="cls-12" d="M307.84,256.18h-5.78c.26,1.18,1.17,1.91,2.37,1.91,.83,0,1.6-.32,2.16-.89l.88,.94c-.75,.82-1.84,1.29-3.17,1.29-2.36,0-3.91-1.57-3.91-3.87s1.6-3.88,3.87-3.9c2.69,0,3.78,1.76,3.58,4.52Zm-1.44-1.21c-.06-1.24-.88-1.99-2.13-1.99s-2.06,.76-2.24,1.99h4.37Z"/>
      <path class="cls-12" d="M314.45,258.44c-.55,.68-1.42,1.01-2.53,1.01-1.65,0-2.69-1.02-2.69-2.37s1.05-2.29,2.89-2.3h2.32v-.23c0-.96-.62-1.54-1.83-1.54-.73,0-1.5,.26-2.26,.78l-.68-1.15c1.06-.63,1.84-.96,3.3-.96,1.97,0,3.08,1.01,3.09,2.69v5.02s-1.61,0-1.61,0v-.93Zm-.02-1.76v-.7h-2.07c-1.08,0-1.58,.29-1.58,1.02,0,.69,.56,1.14,1.48,1.14,1.18,0,2.09-.62,2.17-1.45Z"/>
      <path class="cls-12" d="M323.55,252.42l-.6,1.22c-.68-.42-1.53-.68-2.2-.68s-1.12,.22-1.12,.76c0,1.41,4.07,.65,4.06,3.42,0,1.57-1.4,2.27-2.94,2.27-1.12,0-2.32-.37-3.08-1.06l.59-1.18c.66,.59,1.73,.95,2.56,.95,.71,0,1.25-.24,1.25-.82,0-1.57-4.03-.69-4.02-3.45,0-1.55,1.35-2.22,2.82-2.22,.96,0,1.98,.29,2.68,.78Z"/>
      <path class="cls-12" d="M332.37,256.18h-5.79c.26,1.18,1.17,1.91,2.37,1.91,.83,0,1.6-.32,2.16-.89l.88,.94c-.75,.82-1.84,1.29-3.17,1.29-2.36,0-3.91-1.57-3.91-3.87s1.6-3.88,3.87-3.9c2.69,0,3.78,1.76,3.58,4.52Zm-1.44-1.21c-.06-1.24-.88-1.99-2.13-1.99s-2.06,.76-2.24,1.99h4.37Z"/>
      <path class="cls-12" d="M347.11,259.37l-2.39-7.86-2.42,7.86h-1.76l-3.34-10.07h1.83l2.45,8.19,2.43-8.17h1.67s2.45,8.17,2.45,8.17l2.43-8.19h1.76l-3.37,10.07h-1.74Z"/>
      <path class="cls-12" d="M357.51,258.44c-.55,.68-1.42,1.01-2.53,1.01-1.65,0-2.69-1.02-2.69-2.37s1.05-2.29,2.89-2.3h2.32v-.23c0-.96-.62-1.54-1.83-1.54-.73,0-1.5,.26-2.26,.78l-.68-1.15c1.07-.63,1.84-.96,3.3-.96,1.97,0,3.08,1.01,3.09,2.69v5.02s-1.61,0-1.61,0v-.93Zm-.02-1.76v-.7h-2.07c-1.08,0-1.58,.29-1.58,1.02,0,.69,.56,1.14,1.48,1.14,1.18,0,2.09-.62,2.17-1.45Z"/>
      <path class="cls-12" d="M363.43,249.53c0,.58-.42,.99-.96,.99s-.96-.42-.96-.99,.42-1.01,.96-1.01,.96,.42,.96,1.01Zm-1.78,9.84v-7.66h1.64v7.66h-1.64Z"/>
      <path class="cls-12" d="M370.36,258.88c-.6,.36-1.24,.56-1.89,.56-1.15,0-2.14-.66-2.14-2.23v-3.97h-1.08v-1.24h1.08v-2.1h1.64v2.1h2.26v1.24h-2.26v3.67c0,.79,.3,1.04,.82,1.04,.35,0,.71-.11,1.15-.33l.42,1.27Z"/>
      <path class="cls-12" d="M379.31,248.69c-1.05,1.64-1.7,3.84-1.7,6.23s.65,4.59,1.7,6.23h-1.5c-1.14-1.64-1.76-3.84-1.76-6.23s.62-4.59,1.76-6.23h1.5Z"/>
      <path class="cls-12" d="M385.07,255.39v-2.39h1.58v2.39h1.47v1.51h-1.47v2.47h-1.58v-2.47h-4.81v-1.27l3.44-6.33h1.64l-3.27,6.09h2.99Z"/>
      <path class="cls-12" d="M391.45,250.82v2.17h1.38c2.19-.01,3.6,1.28,3.6,3.05,0,2.04-1.47,3.38-3.73,3.38-1.19,0-2.59-.46-3.58-1.15l.68-1.38c.8,.68,1.81,1.06,2.72,1.06,1.31,0,2.1-.68,2.1-1.81,0-1.02-.79-1.65-2.09-1.65-.6,0-1.97,.06-2.65,.13v-5.32h6.13v1.53s-4.56,0-4.56,0Z"/>
      <path class="cls-12" d="M403.21,252.26c0,1.89-1.01,3.02-2.66,3.02s-2.66-1.14-2.66-3.02,1.01-2.99,2.66-2.99,2.66,1.12,2.66,2.99Zm-4.22,0c0,1.29,.56,2.04,1.55,2.04s1.57-.75,1.57-2.04-.58-2.01-1.57-2.01-1.55,.73-1.55,2.01Zm8.2-2.96h1.58l-7.4,10.07h-1.6l7.41-10.07Zm3.6,7.09c0,1.89-1.01,3.01-2.66,3.01s-2.66-1.12-2.66-3.01,1.01-2.99,2.66-2.99,2.66,1.12,2.66,2.99Zm-4.22,0c0,1.29,.56,2.03,1.55,2.03s1.57-.73,1.57-2.03-.58-2.03-1.57-2.03-1.55,.75-1.55,2.03Z"/>
      <path class="cls-12" d="M414.85,248.69c1.14,1.64,1.76,3.84,1.76,6.23s-.62,4.59-1.76,6.23h-1.5c1.05-1.64,1.7-3.84,1.7-6.23s-.65-4.59-1.7-6.23h1.5Z"/>
    </g>
    <g>
      <path d="M307.71,174.31h1.68v10.27h6.35v1.46h-8.02v-11.73Z"/>
      <path d="M316.49,180.18c0-3.43,2.65-6,6.25-6s6.22,2.55,6.22,6-2.65,6-6.22,6-6.25-2.56-6.25-6Zm10.79,0c0-2.6-1.94-4.51-4.54-4.51s-4.57,1.91-4.57,4.51,1.94,4.51,4.57,4.51,4.54-1.91,4.54-4.51Z"/>
      <path d="M338.83,183.11h-6.23l-1.29,2.93h-1.73l5.31-11.73h1.66l5.33,11.73h-1.76l-1.29-2.93Zm-.59-1.34l-2.53-5.75-2.53,5.75h5.06Z"/>
      <path d="M343.62,174.31h4.94c3.77,0,6.33,2.38,6.33,5.86s-2.56,5.86-6.33,5.86h-4.94v-11.73Zm4.84,10.27c2.9,0,4.76-1.78,4.76-4.41s-1.86-4.41-4.76-4.41h-3.17v8.81h3.17Z"/>
      <path d="M357.46,174.31h1.68v11.73h-1.68v-11.73Z"/>
      <path d="M372.74,174.31v11.73h-1.37l-7.04-8.75v8.75h-1.68v-11.73h1.37l7.04,8.75v-8.75h1.67Z"/>
      <path d="M384.38,180.11h1.61v4.57c-1.17,.99-2.8,1.49-4.44,1.49-3.6,0-6.25-2.53-6.25-6s2.65-6,6.28-6c1.86,0,3.43,.62,4.51,1.81l-1.04,1.04c-.97-.94-2.08-1.36-3.4-1.36-2.71,0-4.67,1.89-4.67,4.51s1.96,4.51,4.66,4.51c.99,0,1.91-.22,2.75-.75v-3.82Z"/>
      <path d="M388.37,184.99c0-.67,.52-1.14,1.14-1.14s1.11,.47,1.11,1.14-.5,1.16-1.11,1.16-1.14-.49-1.14-1.16Z"/>
      <path d="M392.17,184.99c0-.67,.52-1.14,1.14-1.14s1.11,.47,1.11,1.14-.5,1.16-1.11,1.16-1.14-.49-1.14-1.16Z"/>
      <path d="M395.97,184.99c0-.67,.52-1.14,1.14-1.14s1.11,.47,1.11,1.14-.5,1.16-1.11,1.16-1.14-.49-1.14-1.16Z"/>
    </g>
  </g>
  <g id="Character">
    <g>
      <g>
        <polygon class="cls-7" points="270.04 376.2 307.6 375.8 304.63 362.37 271.06 359.87 270.04 376.2"/>
        <g>
          <g>
            <path class="cls-12" d="M289,359.42l17.4,1.14s7-17.3,10.24-17.4l-1,33.81-27.18-.67,.55-16.89Z"/>
            <path class="cls-5" d="M304.62,370.98c.16,.66,.88,1.13,1.55,1,.67-.13,1.15-.86,1.01-1.53-.15-.66-1-1.26-1.64-1.05-.65,.21-1.17,1.09-.87,1.7"/>
            <path class="cls-5" d="M315.63,376.97l-2.74-.17,1.99-32.35s.7-1.49,1.75-1.28l-1,33.81Z"/>
            <path class="cls-13" d="M306.24,360.01c.16,.01,.22,.84,.72,1.67,.49,.84,1.19,1.28,1.12,1.43-.04,.15-1.02-.12-1.61-1.14-.6-1.01-.38-2-.23-1.96Z"/>
            <path class="cls-13" d="M307.81,356.51c.16-.03,.42,.69,1.1,1.27,.66,.6,1.42,.77,1.4,.93,.02,.16-.95,.24-1.78-.5-.84-.73-.88-1.7-.72-1.7Z"/>
            <path class="cls-13" d="M312.12,354.62c.03,.15-.8,.36-1.69-.09-.9-.44-1.23-1.23-1.09-1.3,.14-.09,.61,.43,1.35,.79,.73,.38,1.42,.44,1.43,.61Z"/>
            <path class="cls-13" d="M302.25,360.19c.15,.07-.1,.82-.07,1.76,.02,.94,.31,1.67,.16,1.75-.12,.09-.71-.64-.74-1.74-.03-1.1,.51-1.86,.64-1.78Z"/>
          </g>
          <path class="cls-13" d="M298.73,360.02c.07,0,.15,.66-.06,1.69-.11,.52-.29,1.12-.6,1.76-.15,.32-.33,.64-.54,.96-.1,.15-.21,.33-.41,.5-.18,.18-.62,.27-.88,.05-.25-.18-.36-.49-.36-.73,0-.25,.06-.45,.11-.63,.1-.37,.24-.72,.39-1.04,.31-.64,.7-1.15,1.07-1.53,.75-.76,1.37-1.01,1.4-.95,.05,.08-.48,.44-1.1,1.22-.31,.39-.63,.89-.9,1.48-.13,.3-.24,.62-.33,.96-.1,.36-.12,.66,.04,.76,.06,.04,.08,.04,.19-.03,.1-.07,.2-.22,.3-.37,.2-.29,.38-.59,.54-.88,.31-.58,.53-1.14,.68-1.62,.3-.96,.36-1.6,.45-1.59Z"/>
          <path class="cls-13" d="M298.96,360.25c.02,.06-.58,.37-1.65,.4-.53,.01-1.17-.06-1.85-.29-.34-.11-.68-.27-1.02-.46-.33-.21-.77-.46-.82-1.11,0-.33,.27-.61,.49-.69,.23-.11,.43-.12,.63-.16,.4-.05,.78-.03,1.14,.03,.72,.13,1.31,.44,1.73,.78,.86,.69,1.03,1.38,.98,1.39-.08,.05-.39-.53-1.21-1.06-.41-.26-.95-.5-1.58-.58-.31-.04-.64-.05-.98,0-.36,.04-.65,.17-.62,.3,0,.17,.25,.46,.54,.61,.3,.18,.6,.33,.91,.45,.6,.23,1.19,.34,1.68,.38,.99,.08,1.61-.08,1.64,0Z"/>
        </g>
      </g>
      <path class="cls-7" d="M36.52,365.64l-2.87,11-32.19-.3s4.4-3.33,20.58-3.08l1.57-7.62h12.92Z"/>
      <g>
        <path class="cls-13" d="M69.48,216.7c-.89-1.84-1.79-3.69-2.31-5.67s-.63-4.11,.05-6.04c.68-1.93,2.23-3.61,4.21-4.11,1.22-.31,2.56-.17,3.72-.66,1.34-.57,2.2-1.88,3.21-2.93,1.59-1.64,3.72-2.75,5.97-3.1,1.18-.18,2.43-.16,3.53,.33s2.01,1.49,2.15,2.68c1.37-.54,2.76-1.08,4.23-1.25,1.46-.16,3.04,.09,4.19,1.01,1.15,.92,1.75,2.6,1.16,3.95,1.17-.76,2.88-.3,3.68,.84,.8,1.14,.71,2.76-.03,3.94-.75,1.17-2.56,2.28-3.93,2.54-1.37,.26-2.96,.47-4.3,.1"/>
        <g>
          <g>
            <path class="cls-7" d="M85.39,260.09h0c5.77-.71,9.89-5.95,9.22-11.73-.38-3.23-.71-5.92-.71-5.92,0,0,8.14-1.69,7.83-9.91-.32-8.21-2.7-26.98-2.7-26.98h0c-9.71-3.6-20.6-1.67-28.48,5.06l-1.17,1,4.19,39.11c.63,5.88,5.96,10.1,11.82,9.38Z"/>
            <path class="cls-12" d="M93.9,242.32s-5.17,.69-10.85-2.5c0,0,2.83,5.78,10.98,4.62l-.13-2.13Z"/>
          </g>
          <g>
            <path class="cls-7" d="M70.83,220.06c-.14-.05-5.72-1.38-5.26,4.22,.46,5.6,5.99,3.98,5.99,3.82,0-.16-.73-8.04-.73-8.04Z"/>
            <path class="cls-12" d="M69.67,226.12s-.09,.08-.25,.17c-.15,.09-.43,.16-.73,.08-.61-.17-1.19-1.07-1.3-2.07-.06-.51,.01-1,.16-1.42,.14-.42,.38-.73,.67-.81,.29-.09,.52,.07,.6,.22,.09,.15,.06,.27,.09,.27,.02,.01,.11-.1,.05-.33-.03-.11-.11-.24-.25-.33-.14-.1-.35-.14-.55-.1-.43,.07-.79,.5-.95,.95-.19,.46-.27,1.02-.21,1.59,.13,1.13,.79,2.13,1.62,2.3,.4,.07,.72-.08,.88-.22,.16-.15,.18-.28,.16-.29Z"/>
          </g>
          <g>
            <g>
              <g>
                <path class="cls-13" d="M97.14,219.09c.05,.62-.43,1.17-1.07,1.24-.64,.07-1.21-.38-1.26-1-.05-.62,.43-1.17,1.07-1.24,.64-.07,1.21,.38,1.26,1Z"/>
                <path class="cls-13" d="M98.06,217.18c-.14,.16-1.06-.45-2.32-.38-1.26,.05-2.15,.75-2.3,.6-.07-.06,.06-.35,.45-.66,.38-.31,1.04-.63,1.83-.67,.79-.04,1.46,.22,1.86,.5,.4,.28,.55,.55,.48,.62Z"/>
              </g>
              <g>
                <path class="cls-13" d="M85.13,219.69c.05,.62-.43,1.17-1.07,1.24-.64,.07-1.21-.38-1.26-1-.05-.62,.43-1.17,1.07-1.24,.64-.07,1.21,.38,1.26,1Z"/>
                <path class="cls-13" d="M85.68,218.04c-.14,.16-1.06-.45-2.32-.38-1.26,.05-2.15,.75-2.3,.6-.07-.06,.06-.35,.45-.66,.38-.31,1.04-.63,1.83-.67,.79-.04,1.46,.22,1.86,.5,.4,.28,.55,.55,.48,.62Z"/>
              </g>
              <path class="cls-13" d="M90.73,227.16c0-.07,.77-.25,2.03-.47,.32-.05,.62-.13,.66-.35,.06-.24-.09-.58-.26-.94-.34-.76-.7-1.56-1.08-2.4-1.5-3.42-2.6-6.25-2.46-6.31,.14-.06,1.47,2.67,2.97,6.09,.36,.84,.71,1.65,1.04,2.42,.14,.36,.37,.76,.23,1.26-.07,.25-.3,.43-.51,.5-.2,.07-.38,.09-.54,.1-1.28,.13-2.07,.18-2.08,.11Z"/>
              <path class="cls-13" d="M87.06,228.22c.2-.02,.28,1.35,1.5,2.26,1.22,.92,2.67,.69,2.69,.88,.02,.08-.31,.28-.93,.33-.6,.05-1.5-.1-2.24-.66-.75-.56-1.09-1.34-1.17-1.9-.08-.57,.05-.92,.15-.91Z"/>
            </g>
            <path class="cls-13" d="M97.49,214.98c-.21,.3-1.09,.04-2.14,.08-1.05,0-1.92,.29-2.14,0-.1-.14,.03-.43,.4-.73,.37-.29,.99-.54,1.71-.56,.72-.01,1.35,.21,1.73,.49,.38,.28,.52,.56,.43,.71Z"/>
          </g>
        </g>
        <path class="cls-13" d="M83.81,213.56c-.13,.16-.46,.12-.88,.05-.43-.07-.97-.14-1.57-.13-.6,.01-1.14,.1-1.56,.18-.42,.08-.75,.13-.89-.02-.13-.14-.03-.51,.39-.89,.41-.38,1.16-.72,2.03-.74,.87-.02,1.63,.3,2.05,.67,.43,.37,.55,.73,.43,.88Z"/>
        <path class="cls-13" d="M99.57,208.05s-5.4,2.13-12,0c-4.33-1.4-9.18-1.66-10.09-.69-.91,.97-.5,5.15-4.3,6.97,0,0,1.48,7.87-1.72,8.07-3.2,.2-3.1-12.36-3.1-12.36l7.15-4.95,8.18-2.88,7.89-1.2,7.68,1.14,.3,5.91Z"/>
      </g>
      <g>
        <path class="cls-12" d="M111.62,259.21l24.64,23.06,38.95-26.62,12.18,14.02-37.45,29.99c-3.76,3.35-8.56,5.3-13.59,5.52h0c-6.9,.3-13.53-2.69-17.88-8.05l-13.2-11.14,6.37-26.78Z"/>
        <path class="cls-12" d="M88.73,249.3l22.89,9.91-.77,6.34,10.65,42.23,11.59,8.46-9.6,14.08c-2.15,3.16-4.98,5.82-8.27,7.77l-22.83,13.58c-4.45,1.63-9.4-.47-11.31-4.8l-20.19-45.81-20.29,62.93c-1.31,4.07-5.37,6.6-9.61,5.99l-8.04-1.17c-2.73-.4-4.52-3.08-3.83-5.75l22.69-88.22c1.21-4.65,3.17-8.97,5.76-12.88,4.91-7.4,13.18-11.88,22.06-12.13l19.09-.54Z"/>
        <path class="cls-12" d="M96.75,249.96l-.85-4.59-24.26-1.63-.02,6.1c.17,1.73,2.99,1.22,5.64,2.31l11.88,2.37c2.92,.23,9.1-.86,7.61-4.56Z"/>
        <path class="cls-13" d="M121.75,307.99s-.26-.56-.63-1.61c-.37-1.05-.88-2.57-1.49-4.46-1.21-3.78-2.77-9.04-4.28-14.91-1.51-5.87-2.67-11.23-3.43-15.13-.38-1.95-.67-3.53-.84-4.62-.18-1.1-.26-1.7-.23-1.71,.04,0,.18,.59,.42,1.67,.26,1.17,.59,2.72,1,4.59,.85,3.87,2.07,9.21,3.58,15.07,1.51,5.86,3.01,11.13,4.13,14.93,.54,1.84,.99,3.36,1.33,4.51,.31,1.06,.47,1.66,.43,1.67Z"/>
        <path class="cls-13" d="M68.23,280.19c.07,.03-.31,1.23-.97,3.15-.72,2.06-1.62,4.65-2.62,7.5-1,2.85-1.9,5.44-2.62,7.5-.67,1.92-1.08,3.11-1.15,3.09-.07-.02,.22-1.25,.8-3.2,.58-1.95,1.45-4.63,2.48-7.56,1.03-2.93,2.02-5.56,2.76-7.46,.75-1.89,1.25-3.05,1.32-3.02Z"/>
        <g class="cls-4">
          <path d="M60.82,301.17c1.94,4.42,3.88,8.84,5.83,13.26,.31,.72,.64,1.45,1.18,2.01,.54,.57,1.34,.95,2.1,.77,1.44-.33,1.8-2.18,1.86-3.65,.34-9.67-.01-19.57-3.37-28.64-.24-.66-.7-1.44-1.4-1.35-.63,.08-.92,.8-1.09,1.41-1.58,5.67-3.16,11.35-4.74,17.02"/>
        </g>
        <g class="cls-4">
          <path d="M123.77,302.08c.8-.43,1.19-1.4,1.18-2.3-.01-.91-.36-1.77-.72-2.61-2.64-6.17-6.22-11.94-10.57-17.05l4.78,17.01,5.32,4.95Z"/>
        </g>
        <g>
          <path class="cls-5" d="M48.07,294.46c-.06,0,.18-5.78,.54-12.91,.35-7.13,.69-12.9,.74-12.9,.06,0-.18,5.78-.54,12.91-.35,7.13-.69,12.9-.74,12.9Z"/>
          <path class="cls-5" d="M52.57,274.41s.03,.17,.05,.48c.02,.31,.03,.76,0,1.31-.05,1.1-.29,2.63-.85,4.23-.57,1.6-1.36,2.93-2.02,3.82-.33,.45-.61,.79-.83,1.01-.21,.23-.33,.35-.34,.34-.03-.03,.43-.53,1.05-1.44,.62-.9,1.38-2.23,1.94-3.8,.56-1.58,.81-3.08,.9-4.17,.09-1.09,.06-1.78,.1-1.78Z"/>
          <path class="cls-5" d="M44.39,275.22s.09,.6,.27,1.54c.18,.95,.54,2.24,1.14,3.58,.61,1.34,1.34,2.46,1.92,3.23,.59,.77,1,1.2,.97,1.23-.01,.01-.12-.09-.32-.28-.2-.19-.46-.48-.77-.85-.62-.75-1.39-1.87-2-3.23-.61-1.36-.94-2.68-1.09-3.64-.07-.48-.12-.87-.13-1.15-.01-.27-.01-.42,0-.42Z"/>
          <path class="cls-5" d="M51.54,271s.02,.13,.03,.38c0,.24,0,.59-.04,1.02-.07,.86-.25,2.05-.62,3.32-.38,1.27-.88,2.36-1.29,3.12-.21,.38-.39,.68-.53,.88-.13,.2-.22,.31-.23,.3-.03-.02,.24-.48,.62-1.25,.38-.77,.85-1.86,1.22-3.11,.37-1.25,.58-2.42,.68-3.27,.1-.85,.13-1.38,.16-1.38Z"/>
          <path class="cls-5" d="M46.26,271.68s0,.61,.01,1.6c.02,.98,.14,2.34,.48,3.8,.34,1.46,.84,2.73,1.25,3.62,.41,.89,.73,1.42,.69,1.44-.01,0-.1-.12-.25-.35-.15-.23-.35-.58-.58-1.02-.45-.88-.97-2.16-1.32-3.64-.34-1.48-.44-2.86-.43-3.85,0-.5,.03-.9,.06-1.17,.03-.28,.05-.43,.07-.43Z"/>
          <path class="cls-5" d="M47.93,269.79s-.09,.36-.16,.93c-.08,.58-.06,1.39,.12,2.26,.4,1.73,1.04,3.07,.96,3.1-.03,.01-.19-.31-.43-.86-.23-.54-.54-1.31-.73-2.2-.19-.89-.18-1.73-.07-2.32,.11-.59,.29-.92,.31-.91Z"/>
          <path class="cls-5" d="M44.85,282.89c.06-.03,.64,1.09,1.6,2.3,.96,1.21,1.92,2.03,1.88,2.08-.02,.02-.28-.16-.66-.5-.39-.34-.89-.84-1.37-1.45-.49-.61-.86-1.21-1.11-1.67-.24-.45-.36-.75-.33-.76Z"/>
          <path class="cls-5" d="M52.67,284.22s-.17,.32-.51,.78c-.35,.46-.85,1.08-1.47,1.72-.61,.63-1.21,1.16-1.67,1.52-.45,.36-.75,.56-.77,.54-.02-.02,.25-.26,.67-.65,.42-.39,1-.93,1.61-1.56,.61-.63,1.13-1.23,1.5-1.66,.37-.44,.6-.71,.63-.69Z"/>
        </g>
        <g>
          <path class="cls-5" d="M31.09,359.1c-.06,0,.18-5.78,.54-12.91,.35-7.13,.69-12.9,.74-12.9,.06,0-.18,5.78-.54,12.91-.35,7.13-.69,12.9-.74,12.9Z"/>
          <path class="cls-5" d="M35.59,339.06s.03,.17,.05,.48c.02,.31,.03,.76,0,1.31-.05,1.11-.29,2.63-.85,4.23-.57,1.6-1.36,2.93-2.02,3.82-.33,.45-.61,.79-.83,1.01-.21,.23-.33,.35-.34,.34-.03-.03,.43-.53,1.05-1.44,.62-.9,1.38-2.23,1.94-3.8,.56-1.58,.81-3.08,.9-4.17,.09-1.09,.06-1.78,.1-1.78Z"/>
          <path class="cls-5" d="M27.41,339.86s.09,.6,.27,1.54c.18,.95,.54,2.24,1.14,3.58,.61,1.34,1.34,2.46,1.92,3.23,.59,.77,1,1.2,.97,1.23-.01,.01-.12-.09-.32-.28-.2-.19-.46-.48-.77-.85-.62-.75-1.39-1.87-2-3.23-.61-1.36-.94-2.68-1.09-3.64-.07-.48-.12-.87-.13-1.15-.01-.27-.01-.42,0-.42Z"/>
          <path class="cls-5" d="M34.55,335.64s.02,.13,.03,.38c0,.24,0,.59-.04,1.02-.07,.86-.25,2.05-.62,3.32-.38,1.27-.88,2.36-1.29,3.12-.21,.38-.39,.68-.53,.88-.13,.2-.22,.31-.23,.3-.03-.02,.24-.48,.62-1.24,.38-.77,.85-1.86,1.22-3.11,.37-1.25,.58-2.42,.68-3.27,.1-.85,.13-1.38,.16-1.38Z"/>
          <path class="cls-5" d="M29.28,336.33s0,.61,.01,1.6c.02,.98,.14,2.34,.48,3.8,.34,1.46,.84,2.73,1.25,3.62,.41,.89,.73,1.42,.69,1.44-.01,0-.1-.12-.25-.35-.15-.23-.35-.58-.58-1.02-.45-.88-.97-2.16-1.32-3.64-.34-1.48-.44-2.86-.43-3.85,0-.5,.03-.9,.06-1.17,.03-.28,.05-.43,.07-.43Z"/>
          <path class="cls-5" d="M30.95,334.43s-.09,.36-.16,.93c-.08,.58-.06,1.39,.12,2.26,.4,1.73,1.04,3.07,.96,3.1-.03,.01-.19-.31-.43-.86-.23-.54-.54-1.31-.73-2.2-.19-.89-.18-1.73-.07-2.32,.11-.59,.29-.92,.31-.91Z"/>
          <path class="cls-5" d="M27.87,347.54c.06-.03,.64,1.09,1.6,2.3,.96,1.21,1.92,2.03,1.88,2.08-.02,.02-.28-.16-.66-.5-.39-.34-.89-.84-1.38-1.45-.49-.61-.86-1.22-1.11-1.67-.24-.45-.36-.75-.33-.76Z"/>
          <path class="cls-5" d="M35.69,348.87s-.17,.32-.51,.78c-.35,.46-.85,1.08-1.47,1.72-.61,.63-1.21,1.16-1.67,1.52-.45,.36-.75,.56-.77,.54-.02-.02,.25-.26,.67-.65,.42-.39,1-.93,1.61-1.56,.61-.63,1.13-1.23,1.5-1.66,.37-.44,.6-.71,.63-.69Z"/>
        </g>
        <g>
          <path class="cls-5" d="M68.09,276.17c-.06,0,.18-5.78,.54-12.91,.35-7.13,.69-12.9,.74-12.9,.06,0-.18,5.78-.54,12.91-.35,7.13-.69,12.9-.74,12.9Z"/>
          <path class="cls-5" d="M72.59,256.13s.03,.17,.05,.48c.02,.31,.03,.76,0,1.31-.05,1.1-.29,2.63-.85,4.23-.57,1.6-1.36,2.93-2.02,3.82-.33,.45-.61,.79-.83,1.01-.21,.23-.33,.35-.34,.34-.03-.03,.43-.53,1.05-1.44,.62-.9,1.38-2.23,1.94-3.8,.56-1.58,.81-3.08,.9-4.17,.09-1.09,.06-1.78,.1-1.78Z"/>
          <path class="cls-5" d="M64.41,256.93s.09,.6,.27,1.54c.18,.95,.54,2.24,1.14,3.58,.61,1.34,1.34,2.46,1.92,3.23,.59,.77,1,1.2,.97,1.23-.01,.01-.12-.09-.32-.28-.2-.19-.46-.48-.77-.85-.62-.75-1.39-1.87-2-3.23-.61-1.36-.94-2.68-1.09-3.64-.07-.48-.12-.87-.13-1.15-.01-.27-.01-.42,0-.42Z"/>
          <path class="cls-5" d="M71.55,252.71s.02,.13,.03,.38c0,.24,0,.59-.04,1.02-.07,.86-.25,2.05-.62,3.32-.38,1.27-.88,2.36-1.29,3.12-.21,.38-.39,.68-.53,.88-.13,.2-.21,.31-.23,.3-.03-.02,.24-.48,.62-1.25,.38-.77,.85-1.86,1.22-3.11,.37-1.25,.58-2.42,.68-3.27,.1-.85,.13-1.38,.16-1.38Z"/>
          <path class="cls-5" d="M66.27,253.4s0,.61,.01,1.6c.02,.98,.14,2.34,.48,3.8,.34,1.46,.84,2.73,1.25,3.62,.41,.89,.73,1.42,.69,1.44-.01,0-.1-.12-.25-.35-.15-.23-.35-.58-.58-1.02-.45-.88-.97-2.16-1.32-3.64-.34-1.48-.44-2.86-.43-3.85,0-.5,.03-.9,.06-1.17,.03-.28,.05-.43,.07-.43Z"/>
          <path class="cls-5" d="M67.95,251.5s-.09,.36-.16,.93c-.08,.58-.06,1.39,.12,2.26,.4,1.73,1.04,3.07,.96,3.1-.03,.01-.19-.31-.43-.86-.23-.54-.54-1.31-.73-2.2-.19-.89-.18-1.73-.07-2.32,.11-.59,.29-.92,.31-.91Z"/>
          <path class="cls-5" d="M64.87,264.61c.06-.03,.64,1.09,1.6,2.3,.96,1.21,1.92,2.03,1.88,2.08-.02,.02-.28-.16-.66-.5-.39-.34-.89-.84-1.38-1.45-.49-.61-.86-1.21-1.11-1.67-.24-.45-.36-.75-.33-.76Z"/>
          <path class="cls-5" d="M72.69,265.94s-.17,.32-.51,.78c-.35,.46-.86,1.08-1.47,1.72-.61,.63-1.21,1.16-1.67,1.52-.45,.36-.75,.56-.77,.54-.02-.02,.25-.26,.67-.65,.42-.39,1-.93,1.61-1.56,.61-.63,1.13-1.23,1.5-1.66,.37-.44,.6-.71,.63-.69Z"/>
        </g>
        <g>
          <path class="cls-5" d="M89.77,271.53c-.06,0,.18-5.78,.54-12.91,.35-7.13,.69-12.9,.74-12.9,.06,0-.18,5.78-.54,12.91-.35,7.13-.69,12.9-.74,12.9Z"/>
          <path class="cls-5" d="M94.27,251.48s.03,.17,.05,.48c.02,.31,.03,.76,0,1.31-.05,1.1-.29,2.63-.85,4.23-.57,1.6-1.36,2.93-2.02,3.82-.33,.45-.61,.79-.83,1.01-.21,.23-.33,.35-.34,.34-.03-.03,.43-.53,1.05-1.44,.62-.9,1.38-2.23,1.94-3.8,.56-1.58,.81-3.08,.9-4.17,.09-1.09,.06-1.78,.1-1.78Z"/>
          <path class="cls-5" d="M86.09,252.29s.09,.6,.27,1.54c.18,.95,.54,2.24,1.14,3.58,.61,1.34,1.34,2.46,1.92,3.23,.59,.77,1,1.2,.97,1.23-.01,.01-.12-.09-.32-.28-.2-.19-.46-.48-.77-.85-.62-.75-1.39-1.87-2-3.23-.61-1.36-.94-2.68-1.09-3.64-.07-.48-.12-.87-.13-1.15-.01-.27-.01-.42,0-.42Z"/>
          <path class="cls-5" d="M93.23,248.07s.02,.13,.03,.38c0,.24,0,.59-.04,1.02-.07,.86-.25,2.05-.62,3.32-.38,1.27-.88,2.36-1.29,3.12-.21,.38-.39,.68-.53,.88-.13,.2-.22,.31-.23,.3-.03-.02,.24-.48,.62-1.24,.38-.77,.85-1.86,1.22-3.11,.37-1.25,.58-2.42,.68-3.27,.1-.85,.13-1.38,.16-1.38Z"/>
          <path class="cls-5" d="M87.95,248.76s0,.61,.01,1.6c.02,.98,.14,2.34,.48,3.8,.34,1.46,.84,2.73,1.25,3.62,.41,.89,.73,1.42,.69,1.44-.01,0-.1-.12-.25-.35-.15-.23-.35-.58-.58-1.02-.45-.88-.97-2.16-1.32-3.64-.34-1.48-.44-2.86-.43-3.85,0-.5,.03-.9,.06-1.17,.03-.28,.05-.43,.07-.43Z"/>
          <path class="cls-5" d="M89.63,246.86s-.09,.36-.16,.93c-.08,.58-.06,1.39,.12,2.26,.4,1.73,1.04,3.07,.96,3.1-.03,.01-.19-.31-.43-.86-.23-.54-.54-1.31-.73-2.2-.19-.89-.18-1.73-.07-2.32,.11-.59,.29-.92,.31-.91Z"/>
          <path class="cls-5" d="M86.54,259.97c.06-.03,.64,1.09,1.6,2.3,.96,1.21,1.92,2.03,1.88,2.08-.02,.02-.28-.16-.66-.5-.39-.34-.89-.84-1.38-1.45-.49-.61-.86-1.21-1.11-1.67-.24-.45-.36-.75-.33-.76Z"/>
          <path class="cls-5" d="M94.36,261.3s-.17,.32-.51,.78c-.35,.46-.85,1.08-1.47,1.72-.61,.63-1.21,1.16-1.67,1.52-.45,.36-.75,.56-.77,.54-.02-.02,.25-.26,.67-.65,.42-.39,1-.93,1.61-1.56,.61-.63,1.13-1.23,1.5-1.66,.37-.44,.6-.71,.63-.69Z"/>
        </g>
        <g>
          <path class="cls-5" d="M98.68,291.77c-.06,0,.18-5.78,.54-12.91,.35-7.13,.69-12.9,.74-12.9,.06,0-.18,5.78-.54,12.91-.35,7.13-.69,12.9-.74,12.9Z"/>
          <path class="cls-5" d="M103.18,271.73s.03,.17,.05,.48c.02,.31,.03,.76,0,1.31-.05,1.1-.29,2.63-.85,4.23-.57,1.6-1.36,2.93-2.02,3.82-.33,.45-.61,.79-.83,1.01-.21,.23-.33,.35-.34,.34-.03-.03,.43-.53,1.05-1.44,.62-.9,1.38-2.23,1.94-3.8,.56-1.58,.81-3.08,.9-4.17,.09-1.09,.06-1.78,.1-1.78Z"/>
          <path class="cls-5" d="M95,272.53s.09,.6,.27,1.54c.18,.95,.54,2.24,1.14,3.58,.61,1.34,1.34,2.46,1.92,3.23,.59,.77,1,1.2,.97,1.23-.01,.01-.12-.09-.32-.28-.2-.19-.46-.48-.77-.85-.62-.75-1.39-1.87-2-3.23-.61-1.36-.94-2.68-1.09-3.64-.07-.48-.12-.87-.13-1.15-.01-.27-.01-.42,0-.42Z"/>
          <path class="cls-5" d="M102.14,268.31s.02,.13,.03,.38c0,.24,0,.59-.04,1.02-.07,.86-.25,2.05-.62,3.32-.38,1.27-.88,2.36-1.29,3.12-.21,.38-.39,.68-.53,.88-.13,.2-.22,.31-.23,.3-.03-.02,.24-.48,.62-1.24,.38-.77,.85-1.86,1.22-3.11,.37-1.25,.58-2.42,.68-3.27,.1-.85,.13-1.38,.16-1.38Z"/>
          <path class="cls-5" d="M96.86,269s0,.61,.01,1.6c.02,.98,.14,2.34,.48,3.8,.34,1.46,.84,2.73,1.25,3.62,.41,.89,.73,1.42,.69,1.44-.01,0-.1-.12-.25-.35-.15-.23-.35-.58-.58-1.02-.45-.88-.97-2.16-1.32-3.64-.34-1.48-.44-2.86-.43-3.85,0-.5,.03-.9,.06-1.17,.03-.28,.05-.43,.07-.43Z"/>
          <path class="cls-5" d="M98.54,267.1s-.09,.36-.16,.93c-.08,.58-.06,1.39,.12,2.26,.4,1.73,1.04,3.07,.96,3.1-.03,.01-.19-.31-.43-.86-.23-.54-.54-1.31-.73-2.2-.19-.89-.18-1.73-.07-2.32,.11-.59,.29-.92,.31-.91Z"/>
          <path class="cls-5" d="M95.46,280.21c.06-.03,.64,1.09,1.6,2.3,.96,1.21,1.92,2.03,1.88,2.08-.02,.02-.28-.16-.66-.5-.39-.34-.89-.84-1.38-1.45-.49-.61-.86-1.22-1.11-1.67-.24-.45-.36-.75-.33-.76Z"/>
          <path class="cls-5" d="M103.28,281.54s-.17,.32-.51,.78c-.35,.46-.85,1.08-1.47,1.72-.61,.63-1.21,1.16-1.67,1.52-.45,.36-.75,.56-.77,.54-.02-.02,.25-.26,.67-.65,.42-.39,1-.93,1.61-1.56,.61-.63,1.13-1.23,1.5-1.66,.37-.44,.6-.71,.63-.69Z"/>
        </g>
        <g>
          <path class="cls-5" d="M129.61,299.79c-.05,.02-1.89-5.47-4.09-12.26-2.2-6.79-3.94-12.3-3.89-12.32,.05-.02,1.88,5.47,4.09,12.26,2.2,6.79,3.94,12.3,3.89,12.32Z"/>
          <path class="cls-5" d="M126.69,279.45s.09,.15,.22,.43c.13,.28,.29,.7,.46,1.22,.34,1.05,.67,2.56,.71,4.26,.03,1.7-.23,3.22-.53,4.29-.15,.53-.29,.96-.41,1.24-.12,.29-.19,.44-.2,.44-.04-.01,.21-.65,.47-1.72,.26-1.06,.5-2.57,.47-4.24-.04-1.67-.33-3.17-.64-4.22-.3-1.05-.58-1.68-.54-1.7Z"/>
          <path class="cls-5" d="M119.33,283.12s.29,.53,.8,1.35c.51,.82,1.3,1.9,2.33,2.94,1.04,1.04,2.13,1.83,2.95,2.33,.82,.51,1.36,.77,1.35,.8,0,.01-.15-.04-.4-.15-.25-.11-.6-.28-1.03-.52-.85-.48-1.96-1.26-3.02-2.31-1.05-1.06-1.83-2.17-2.31-3.01-.24-.42-.42-.78-.52-1.03-.11-.25-.16-.39-.15-.4Z"/>
          <path class="cls-5" d="M124.51,276.63s.07,.12,.16,.34c.09,.22,.2,.56,.33,.97,.25,.83,.5,2,.6,3.32,.1,1.32,.02,2.52-.1,3.37-.06,.43-.12,.77-.18,1.01-.05,.24-.09,.36-.11,.36-.03,0,.06-.53,.14-1.38,.08-.85,.13-2.04,.04-3.34-.1-1.3-.32-2.47-.53-3.3-.21-.83-.37-1.34-.34-1.35Z"/>
          <path class="cls-5" d="M119.82,279.15s.21,.58,.58,1.49c.37,.91,.96,2.14,1.8,3.38,.84,1.24,1.75,2.26,2.46,2.94,.7,.69,1.18,1.07,1.16,1.1,0,.01-.14-.07-.36-.24-.22-.16-.53-.42-.9-.75-.74-.66-1.68-1.67-2.53-2.93-.85-1.26-1.43-2.51-1.77-3.44-.17-.47-.29-.85-.36-1.12-.07-.27-.1-.42-.09-.42Z"/>
          <path class="cls-5" d="M120.71,276.78s.04,.37,.18,.93c.13,.56,.44,1.32,.92,2.06,.99,1.48,2.06,2.5,1.99,2.55-.02,.02-.29-.22-.71-.65-.41-.42-.97-1.03-1.46-1.79-.49-.77-.79-1.56-.89-2.15-.11-.59-.06-.96-.03-.96Z"/>
          <path class="cls-5" d="M122.49,290.13s.98,.79,2.31,1.58c1.33,.79,2.51,1.22,2.49,1.28,0,.02-.32-.05-.8-.23-.48-.18-1.13-.47-1.8-.87-.67-.4-1.24-.83-1.63-1.16-.39-.34-.6-.57-.58-.59Z"/>
          <path class="cls-5" d="M130.27,288.59s-.04,.36-.2,.92c-.16,.56-.41,1.31-.76,2.13-.35,.81-.72,1.52-1.02,2.02-.29,.5-.5,.79-.53,.77-.03-.02,.14-.33,.4-.84,.26-.51,.61-1.22,.95-2.03,.34-.8,.62-1.55,.81-2.09,.19-.54,.31-.88,.34-.87Z"/>
        </g>
        <g>
          <path class="cls-5" d="M162.64,271.54s-3.57,4.55-8.08,10.08c-4.51,5.53-8.2,9.99-8.24,9.95-.04-.04,3.57-4.55,8.08-10.08,4.51-5.53,8.2-9.99,8.24-9.95Z"/>
          <path class="cls-5" d="M147.13,285.02s.07-.16,.24-.42c.16-.26,.43-.63,.78-1.05,.7-.86,1.79-1.95,3.19-2.9,1.41-.95,2.83-1.55,3.89-1.88,.53-.16,.96-.27,1.27-.33,.3-.06,.47-.08,.48-.07,0,.04-.66,.18-1.7,.54-1.04,.36-2.43,.98-3.82,1.91-1.39,.94-2.48,2-3.2,2.83-.72,.83-1.1,1.4-1.13,1.37Z"/>
          <path class="cls-5" d="M154.2,289.22s.28-.53,.7-1.4c.41-.87,.89-2.12,1.21-3.56,.31-1.44,.38-2.78,.36-3.74-.02-.96-.1-1.56-.06-1.57,.01,0,.05,.15,.09,.41,.05,.27,.09,.66,.12,1.15,.06,.97,0,2.33-.31,3.79-.32,1.46-.83,2.72-1.28,3.58-.22,.43-.42,.77-.58,1-.15,.23-.24,.35-.25,.34Z"/>
          <path class="cls-5" d="M145.95,288.38s.06-.12,.2-.32c.14-.2,.36-.47,.64-.8,.56-.66,1.41-1.5,2.47-2.3,1.06-.8,2.11-1.38,2.89-1.75,.39-.18,.72-.32,.94-.4,.23-.08,.36-.12,.36-.11,.01,.03-.48,.24-1.24,.63-.76,.39-1.79,.99-2.83,1.78-1.04,.79-1.9,1.61-2.48,2.23-.59,.62-.92,1.04-.95,1.02Z"/>
          <path class="cls-5" d="M150.61,290.96s.37-.49,.94-1.29c.56-.8,1.27-1.97,1.86-3.35,.59-1.38,.94-2.7,1.14-3.66,.19-.96,.26-1.57,.29-1.57,.01,0,.01,.15,0,.43-.01,.28-.06,.68-.14,1.17-.16,.98-.5,2.32-1.09,3.71-.6,1.39-1.34,2.56-1.94,3.35-.3,.4-.56,.7-.75,.91-.19,.2-.3,.31-.31,.3Z"/>
          <path class="cls-5" d="M148.13,291.49s.29-.23,.68-.65c.4-.42,.87-1.08,1.24-1.89,.71-1.63,.98-3.09,1.06-3.06,.03,0-.03,.37-.16,.94-.13,.57-.34,1.37-.71,2.2-.38,.83-.88,1.5-1.32,1.91-.44,.41-.78,.57-.79,.55Z"/>
          <path class="cls-5" d="M158.38,282.76c-.06,0,.13-1.26,.07-2.8-.05-1.54-.34-2.77-.28-2.79,.03,0,.13,.29,.24,.79,.11,.5,.22,1.2,.25,1.99,.03,.78-.02,1.49-.1,2-.07,.51-.15,.81-.18,.81Z"/>
          <path class="cls-5" d="M152.87,277.06s.32-.16,.88-.33c.55-.17,1.33-.36,2.2-.51,.87-.15,1.67-.22,2.25-.24,.58-.02,.94,0,.94,.02,0,.03-.35,.06-.93,.12-.57,.06-1.36,.15-2.22,.3-.86,.15-1.64,.32-2.2,.45-.56,.13-.91,.22-.91,.19Z"/>
        </g>
        <g>
          <path class="cls-5" d="M95.46,342.27c-.06,0-.25-5.78-.44-12.91-.18-7.13-.29-12.92-.23-12.92,.06,0,.25,5.78,.44,12.91,.18,7.13,.29,12.92,.23,12.92Z"/>
          <path class="cls-5" d="M98.44,321.94s.04,.17,.09,.47c.05,.31,.08,.75,.1,1.31,.03,1.11-.09,2.65-.53,4.28-.45,1.64-1.14,3.02-1.73,3.96-.29,.47-.55,.84-.75,1.07-.19,.24-.3,.37-.32,.36-.03-.02,.39-.56,.94-1.51,.55-.95,1.21-2.32,1.65-3.94,.44-1.61,.58-3.13,.59-4.23,0-1.1-.08-1.78-.04-1.78Z"/>
          <path class="cls-5" d="M90.34,323.36s.13,.59,.39,1.52c.25,.93,.7,2.19,1.4,3.48,.7,1.29,1.52,2.35,2.16,3.07,.64,.72,1.09,1.12,1.06,1.15,0,.01-.13-.08-.34-.26-.21-.17-.5-.44-.84-.79-.68-.7-1.52-1.76-2.24-3.07-.71-1.31-1.14-2.6-1.36-3.55-.11-.47-.18-.86-.21-1.13-.03-.27-.05-.42-.03-.42Z"/>
          <path class="cls-5" d="M97.15,318.61s.03,.13,.05,.37c.02,.24,.04,.59,.04,1.02,0,.86-.09,2.06-.37,3.35-.28,1.29-.7,2.42-1.06,3.21-.18,.39-.34,.71-.46,.91-.12,.21-.19,.32-.2,.32-.03-.02,.21-.49,.53-1.29,.32-.79,.71-1.92,.99-3.19,.28-1.28,.39-2.46,.43-3.31,.04-.86,.02-1.39,.06-1.39Z"/>
          <path class="cls-5" d="M91.94,319.7s.04,.61,.13,1.59c.1,.98,.32,2.32,.77,3.75,.45,1.43,1.04,2.66,1.52,3.52,.48,.86,.83,1.36,.8,1.38-.01,0-.11-.11-.28-.33-.17-.22-.39-.55-.65-.98-.52-.85-1.13-2.08-1.59-3.53-.45-1.45-.65-2.82-.71-3.8-.03-.5-.04-.9-.02-1.17,.01-.28,.02-.43,.04-.43Z"/>
          <path class="cls-5" d="M93.47,317.68s-.07,.36-.09,.94c-.03,.58,.04,1.39,.29,2.24,.53,1.7,1.27,2.98,1.19,3.02-.02,.01-.22-.3-.49-.82-.27-.52-.64-1.26-.89-2.14-.26-.87-.31-1.72-.24-2.31,.07-.6,.22-.94,.24-.93Z"/>
          <path class="cls-5" d="M91.38,330.98c.05-.03,.72,1.04,1.77,2.17,1.05,1.14,2.07,1.88,2.03,1.93-.02,.02-.29-.14-.7-.44-.41-.31-.95-.77-1.48-1.35-.53-.57-.95-1.15-1.23-1.58-.28-.43-.41-.72-.39-.73Z"/>
          <path class="cls-5" d="M99.28,331.71s-.14,.33-.45,.82c-.31,.49-.77,1.14-1.34,1.82-.57,.68-1.12,1.25-1.55,1.65-.42,.39-.71,.61-.73,.59-.02-.02,.23-.28,.62-.7,.39-.42,.93-1,1.49-1.67,.56-.67,1.04-1.31,1.37-1.77,.34-.46,.55-.75,.57-.74Z"/>
        </g>
        <g>
          <path class="cls-5" d="M117.47,321.81c-.05,.02-1.89-5.47-4.09-12.26-2.2-6.79-3.94-12.3-3.89-12.32s1.88,5.47,4.09,12.26c2.2,6.79,3.94,12.3,3.89,12.32Z"/>
          <path class="cls-5" d="M114.55,301.47s.09,.15,.22,.43c.13,.28,.29,.7,.46,1.22,.34,1.05,.67,2.56,.71,4.26,.03,1.7-.23,3.22-.53,4.29-.15,.53-.29,.96-.41,1.24-.12,.29-.19,.44-.2,.44-.04-.01,.21-.65,.47-1.72,.26-1.06,.5-2.57,.47-4.24-.04-1.67-.33-3.17-.64-4.22-.3-1.05-.58-1.68-.54-1.7Z"/>
          <path class="cls-5" d="M107.19,305.13s.29,.53,.8,1.35c.51,.82,1.3,1.9,2.33,2.94,1.04,1.04,2.13,1.83,2.95,2.33,.82,.51,1.36,.77,1.35,.8,0,.01-.15-.04-.4-.15-.25-.11-.6-.28-1.03-.52-.85-.48-1.96-1.26-3.02-2.31-1.05-1.06-1.83-2.17-2.31-3.01-.24-.42-.42-.78-.52-1.03-.11-.25-.16-.39-.15-.4Z"/>
          <path class="cls-5" d="M112.37,298.64s.07,.12,.16,.34c.09,.22,.2,.56,.33,.97,.25,.83,.5,2,.6,3.32,.1,1.32,.02,2.52-.1,3.37-.06,.43-.12,.77-.18,1.01-.05,.24-.09,.36-.11,.36-.03,0,.06-.53,.14-1.38,.08-.85,.13-2.04,.04-3.34-.1-1.3-.32-2.47-.53-3.3-.21-.83-.37-1.34-.34-1.35Z"/>
          <path class="cls-5" d="M107.68,301.16s.21,.58,.58,1.49c.37,.91,.96,2.14,1.8,3.38,.84,1.24,1.75,2.26,2.46,2.94,.7,.69,1.18,1.07,1.16,1.1,0,.01-.14-.07-.36-.24-.22-.16-.53-.42-.9-.75-.74-.66-1.68-1.67-2.53-2.93-.85-1.26-1.43-2.51-1.77-3.44-.17-.47-.29-.85-.36-1.12-.07-.27-.1-.42-.09-.42Z"/>
          <path class="cls-5" d="M108.57,298.79s.04,.37,.18,.93c.13,.56,.44,1.32,.92,2.06,.99,1.48,2.06,2.5,1.99,2.55-.02,.02-.29-.22-.71-.65-.41-.42-.97-1.03-1.46-1.79-.49-.77-.79-1.56-.89-2.15-.11-.59-.06-.96-.03-.96Z"/>
          <path class="cls-5" d="M110.34,312.14s.98,.79,2.31,1.58c1.33,.79,2.51,1.22,2.49,1.28,0,.03-.32-.05-.8-.23-.48-.18-1.13-.47-1.8-.87-.67-.4-1.24-.83-1.63-1.16-.39-.34-.6-.57-.58-.59Z"/>
          <path class="cls-5" d="M118.13,310.6s-.04,.36-.2,.92c-.16,.56-.41,1.31-.76,2.13-.35,.81-.72,1.52-1.02,2.02-.29,.5-.5,.79-.53,.77-.03-.02,.14-.33,.4-.84,.26-.51,.61-1.22,.95-2.03,.34-.8,.62-1.55,.81-2.09,.19-.54,.31-.88,.34-.87Z"/>
        </g>
        <g>
          <path class="cls-5" d="M49.16,329.84c-.05,.02-1.89-5.47-4.09-12.26-2.2-6.79-3.94-12.3-3.89-12.32,.05-.02,1.88,5.47,4.09,12.26,2.2,6.79,3.94,12.3,3.89,12.32Z"/>
          <path class="cls-5" d="M46.24,309.5s.09,.15,.22,.43c.13,.28,.29,.7,.46,1.22,.34,1.05,.67,2.56,.71,4.26,.03,1.7-.23,3.22-.53,4.29-.15,.53-.29,.96-.41,1.24-.12,.29-.19,.44-.2,.44-.04-.01,.21-.65,.47-1.72,.26-1.06,.5-2.57,.47-4.24-.04-1.67-.33-3.17-.64-4.22-.3-1.05-.58-1.68-.54-1.7Z"/>
          <path class="cls-5" d="M38.88,313.16s.29,.53,.8,1.35c.51,.82,1.3,1.9,2.33,2.94,1.04,1.04,2.13,1.83,2.95,2.33,.82,.51,1.36,.77,1.35,.8,0,.01-.15-.04-.4-.15-.25-.11-.6-.28-1.03-.52-.85-.48-1.96-1.26-3.02-2.31-1.05-1.06-1.83-2.17-2.31-3.01-.24-.42-.42-.78-.52-1.03-.11-.25-.16-.39-.15-.4Z"/>
          <path class="cls-5" d="M44.06,306.68s.07,.12,.16,.34c.09,.22,.2,.56,.33,.97,.25,.83,.5,2,.6,3.32,.1,1.32,.02,2.52-.1,3.37-.06,.43-.12,.77-.18,1.01-.05,.24-.09,.36-.11,.36-.03,0,.06-.53,.14-1.38,.08-.85,.13-2.04,.04-3.34-.1-1.3-.32-2.47-.53-3.3-.21-.83-.37-1.34-.34-1.35Z"/>
          <path class="cls-5" d="M39.37,309.2s.21,.58,.58,1.49c.37,.91,.96,2.14,1.8,3.38,.84,1.24,1.75,2.26,2.46,2.94,.7,.69,1.18,1.07,1.16,1.1,0,.01-.14-.07-.36-.24-.22-.16-.53-.42-.9-.75-.74-.66-1.68-1.67-2.53-2.93-.85-1.26-1.43-2.51-1.77-3.44-.17-.47-.29-.85-.36-1.12-.07-.27-.1-.42-.09-.42Z"/>
          <path class="cls-5" d="M40.26,306.83s.04,.37,.18,.93c.13,.56,.44,1.32,.92,2.06,.99,1.48,2.06,2.5,1.99,2.55-.02,.02-.29-.22-.71-.65-.41-.42-.97-1.03-1.46-1.79-.49-.77-.79-1.56-.89-2.15-.11-.59-.06-.96-.03-.96Z"/>
          <path class="cls-5" d="M42.03,320.17s.98,.79,2.31,1.58c1.33,.79,2.51,1.22,2.49,1.28,0,.02-.32-.05-.8-.23-.48-.18-1.13-.47-1.8-.87-.67-.4-1.24-.83-1.63-1.16-.39-.34-.6-.57-.58-.59Z"/>
          <path class="cls-5" d="M49.82,318.63s-.04,.36-.2,.92c-.16,.56-.42,1.31-.76,2.13-.35,.81-.72,1.52-1.02,2.02-.29,.5-.5,.79-.53,.77-.03-.02,.14-.33,.4-.84,.26-.51,.61-1.22,.95-2.03,.34-.8,.62-1.55,.81-2.09,.19-.54,.31-.88,.34-.87Z"/>
        </g>
        <g>
          <path class="cls-5" d="M78.23,310.07c-.06,0,.18-5.78,.54-12.91,.35-7.13,.69-12.9,.74-12.9,.06,0-.18,5.78-.54,12.91-.35,7.13-.69,12.9-.74,12.9Z"/>
          <path class="cls-5" d="M82.73,290.02s.03,.17,.05,.48c.02,.31,.03,.76,0,1.31-.05,1.1-.29,2.63-.85,4.23-.57,1.6-1.36,2.93-2.02,3.82-.33,.45-.61,.79-.83,1.01-.21,.23-.33,.35-.34,.34-.03-.03,.43-.53,1.05-1.44,.62-.9,1.38-2.23,1.94-3.8,.56-1.58,.81-3.08,.9-4.17,.09-1.09,.06-1.78,.1-1.78Z"/>
          <path class="cls-5" d="M74.55,290.83s.09,.6,.27,1.54c.18,.95,.54,2.24,1.14,3.58,.61,1.34,1.34,2.46,1.92,3.23,.59,.77,1,1.2,.98,1.23-.01,.01-.12-.09-.32-.28-.2-.19-.46-.48-.77-.85-.62-.75-1.39-1.87-2-3.23-.61-1.36-.94-2.68-1.09-3.64-.07-.48-.12-.87-.13-1.15-.01-.27-.01-.42,0-.42Z"/>
          <path class="cls-5" d="M81.69,286.61s.02,.13,.03,.38c0,.24,0,.59-.04,1.02-.07,.86-.25,2.05-.62,3.32-.38,1.27-.88,2.36-1.29,3.12-.21,.38-.39,.68-.53,.88-.13,.2-.22,.31-.23,.3-.03-.02,.24-.48,.62-1.24,.38-.77,.85-1.86,1.22-3.11,.37-1.25,.58-2.42,.68-3.27,.1-.85,.13-1.38,.16-1.38Z"/>
          <path class="cls-5" d="M76.41,287.3s0,.61,.01,1.6c.02,.98,.14,2.34,.48,3.8,.34,1.46,.84,2.73,1.25,3.62,.41,.89,.73,1.42,.69,1.44-.01,0-.1-.12-.25-.35-.15-.23-.35-.58-.58-1.02-.45-.88-.97-2.16-1.32-3.64-.34-1.48-.44-2.86-.43-3.85,0-.5,.03-.9,.06-1.17,.03-.28,.05-.43,.07-.43Z"/>
          <path class="cls-5" d="M78.09,285.4s-.09,.36-.16,.93c-.08,.58-.06,1.39,.12,2.26,.4,1.73,1.04,3.07,.96,3.1-.03,.01-.19-.31-.43-.86-.23-.54-.54-1.31-.73-2.2-.19-.89-.18-1.73-.07-2.32,.11-.59,.29-.92,.31-.91Z"/>
          <path class="cls-5" d="M75.01,298.51c.06-.03,.64,1.09,1.6,2.3,.96,1.21,1.92,2.03,1.88,2.08-.02,.02-.28-.16-.66-.5-.39-.34-.89-.84-1.37-1.45-.49-.61-.86-1.22-1.11-1.67-.24-.45-.36-.75-.33-.76Z"/>
          <path class="cls-5" d="M82.83,299.83s-.17,.32-.51,.78c-.35,.46-.85,1.08-1.47,1.72-.61,.63-1.21,1.16-1.67,1.52-.45,.36-.75,.56-.77,.54-.02-.02,.25-.26,.67-.65,.42-.39,1-.93,1.61-1.56,.61-.63,1.13-1.23,1.5-1.66,.37-.44,.6-.71,.63-.69Z"/>
        </g>
        <g class="cls-8">
          <path d="M72.4,250.36c3.91,3.1,8.39,5.46,13.16,6.93,2.05,.63,4.21,1.1,6.32,.72,2.11-.38,4.14-1.77,4.74-3.83,.15-.51,.13-1.19-.35-1.41-.51-.24-1.04,.23-1.49,.56-1.44,1.07-5.69,1.33-7.48,1.12-5.83-.68-9.62-2.1-14.9-4.07"/>
        </g>
        <path class="cls-13" d="M109.98,290.94s.07,.16,.17,.49c.08,.33,.24,.8,.36,1.43,.28,1.25,.57,3.09,.67,5.39,.22,4.56-.66,11.1-4.08,17.29-3.42,6.19-8.49,10.42-12.47,12.67-1.99,1.14-3.71,1.88-4.92,2.31-.6,.23-1.08,.35-1.4,.46-.32,.09-.5,.14-.5,.12-.01-.04,.65-.28,1.83-.76,1.18-.48,2.85-1.26,4.8-2.43,3.88-2.3,8.83-6.51,12.2-12.6,3.36-6.09,4.28-12.52,4.16-17.03-.05-2.27-.28-4.11-.5-5.36-.22-1.26-.37-1.95-.33-1.96Z"/>
        <g class="cls-4">
          <path d="M110.82,297.52c.17,4.32-1.76,8.68-5.08,11.44-2.15,1.8-4.8,2.92-6.95,4.73-1.96,1.65-3.45,3.86-4.25,6.3-.41,1.26-.59,2.81,.33,3.78,1.03,1.09,2.83,.81,4.21,.23,4.51-1.91,7.73-6.14,9.45-10.73s2.15-9.55,2.45-14.44"/>
        </g>
        <path class="cls-13" d="M136.12,293.82c-.11,.06-1.19-2.62-1.14-6.13,.03-3.51,1.17-6.16,1.28-6.1,.16,.05-.73,2.7-.76,6.11-.06,3.4,.77,6.08,.61,6.12Z"/>
        <path class="cls-13" d="M139.14,292.6c-.09,.09-1.74-2.1-2.46-5.33-.75-3.23-.2-5.91-.08-5.87,.16,.01-.13,2.64,.59,5.76,.69,3.13,2.1,5.37,1.96,5.45Z"/>
      </g>
      <path class="cls-12" d="M188.59,264.35s-.3-.23-.86-.5c-.54-.26-1.43-.49-2.39-.22l-.45,.13,.23-.41c.3-.54,.52-1.19,.62-1.89,.23-1.5-.14-2.89-.58-3.78-.43-.91-.9-1.35-.84-1.4,.02-.03,.58,.34,1.11,1.26,.54,.89,.98,2.37,.74,3.98-.11,.75-.36,1.45-.7,2.02l-.22-.28c1.1-.28,2.06,.05,2.61,.39,.56,.35,.77,.69,.74,.71Z"/>
      <g>
        <path class="cls-7" d="M195.3,259.99c.93-2.28,10.25-6.3,9.03-7.73-1.59-1.86-9.54,4.64-10.26,5.14-.69,.49-1.43-.53-.77-.95,.96-.6,10.87-7.13,9.32-8.97-.86-1.02-2.52,.74-2.52,.74,0,0-8.84,6.8-9.54,5.91-.71-.91,4.35-5.08,6.15-6.37,1.78-1.27,1.92-2.65,.73-2.98-.82-.23-6.42,3.57-8.18,4.88-1.75,1.31-6.5,5-5.59,1.24,.91-3.76,.24-6.98-.54-7.72-.78-.74-2.07,.11-1.85,1.29,.18,.95-.01,2.63-.21,3.89-.16,1.04-.58,2-.97,2.97-.41,1.04-1.61,3.39-4.37,5.45l9.85,11.6,1.26-.86c4.87-3.31,9.44-4.58,12.08-6.1,4.91-2.83,4.67-3.28,4.26-3.81-1.11-1.41-8.82,4.65-7.89,2.37Z"/>
        <g>
          <path class="cls-3" d="M181.95,241.65l3.19,20.7,12.49-.21,.58-3.87s7.07-.02,7.62-6c.54-5.98-5.52-6.06-5.52-6.06l.92-5.41-19.27,.84Zm16.55,14.52l1.47-7.68s4.28-.07,3.95,3.38c-.33,3.45-5.42,4.3-5.42,4.3Z"/>
          <path class="cls-13" d="M191.28,213.78s.09,.05,.23,.19c.14,.14,.31,.36,.48,.69,.34,.65,.54,1.76,.3,3.06-.19,1.31-.92,2.72-1.64,4.23-.35,.76-.68,1.58-.85,2.45-.17,.87-.12,1.8,.21,2.67,.67,1.77,2.05,3.08,3.16,4.36,1.13,1.26,2.05,2.61,2.3,3.94,.27,1.31-.02,2.42-.41,3.05-.18,.32-.39,.53-.53,.66-.15,.12-.23,.18-.25,.16-.04-.04,.3-.28,.6-.91,.31-.62,.52-1.66,.23-2.87-.27-1.21-1.16-2.47-2.29-3.7-1.11-1.24-2.56-2.57-3.29-4.5-.37-.96-.42-2.01-.23-2.95,.19-.94,.55-1.79,.92-2.56,.76-1.53,1.49-2.85,1.71-4.1,.28-1.23,.14-2.26-.12-2.9-.27-.64-.57-.93-.53-.96Z"/>
          <path class="cls-13" d="M187.96,213.83s.09,.05,.23,.19c.14,.14,.31,.36,.48,.69,.34,.65,.54,1.76,.3,3.06-.19,1.31-.92,2.72-1.64,4.23-.35,.76-.68,1.58-.85,2.45-.17,.87-.12,1.8,.21,2.67,.67,1.77,2.05,3.08,3.16,4.36,1.13,1.26,2.05,2.61,2.3,3.94,.27,1.31-.02,2.42-.41,3.05-.18,.32-.39,.53-.53,.66-.15,.12-.23,.18-.25,.16-.04-.04,.3-.28,.6-.91,.31-.62,.52-1.66,.23-2.87-.27-1.21-1.16-2.47-2.3-3.7-1.11-1.24-2.56-2.57-3.29-4.5-.37-.96-.42-2.01-.23-2.95,.19-.94,.55-1.79,.92-2.56,.76-1.53,1.49-2.85,1.71-4.1,.28-1.23,.14-2.26-.12-2.9-.27-.64-.57-.93-.53-.96Z"/>
          <path class="cls-2" d="M183.17,250.15s.03-.3,.43-.62c.39-.31,1.14-.56,2.03-.34,.89,.23,1.7,.95,2.5,1.7,.79,.73,1.78,1.57,2.97,1.41,1.18-.16,2.17-.98,3.21-1.44,.52-.24,1.07-.4,1.6-.43,.53,0,1.02,.11,1.43,.29,.81,.37,1.3,.94,1.53,1.37,.23,.43,.26,.7,.24,.71-.04,.01-.14-.23-.41-.6-.27-.36-.75-.84-1.5-1.14-.37-.14-.81-.22-1.26-.2-.46,.04-.94,.19-1.42,.43-.97,.44-1.95,1.31-3.36,1.52-.7,.09-1.41-.12-1.95-.45-.55-.33-1-.74-1.41-1.13-.79-.79-1.52-1.45-2.27-1.7-.75-.24-1.44-.08-1.81,.15-.38,.23-.5,.48-.54,.46Z"/>
          <path class="cls-2" d="M182.72,247.49s.04-.32,.46-.66c.41-.33,1.21-.59,2.15-.35,.94,.25,1.8,1,2.65,1.81,.84,.77,1.9,1.67,3.17,1.5,1.26-.17,2.31-1.04,3.42-1.53,.55-.25,1.13-.43,1.7-.45,.56-.01,1.08,.11,1.51,.3,.86,.39,1.38,1,1.63,1.45,.25,.46,.28,.75,.26,.75-.04,.02-.14-.25-.43-.64-.28-.39-.8-.9-1.6-1.22-.4-.15-.86-.24-1.35-.21-.49,.04-1,.2-1.52,.46-1.04,.47-2.07,1.39-3.57,1.61-.74,.1-1.49-.12-2.07-.47-.59-.35-1.06-.78-1.49-1.2-.84-.83-1.61-1.55-2.43-1.81-.81-.25-1.54-.08-1.93,.17-.41,.25-.53,.52-.57,.49Z"/>
        </g>
      </g>
      <g>
        <polygon class="cls-13" points="89.25 352.22 106.48 376.55 295.63 376.45 295.52 354.99 199.87 345.88 120.4 334.07 89.25 352.22"/>
        <path class="cls-13" d="M119.66,334.78l13.43-18.54,37.83-46.72c5.29-5.7,12.95-8.57,20.69-7.75h0c9.47,1,17.51,7.37,20.67,16.35l24.96,76.24-33.1-5.19-16.82-47.16-26.51,37.03-41.15-4.25Z"/>
        <path class="cls-3" d="M237.25,349.44s-.1,0-.3,0c-.22-.01-.51-.03-.86-.05-.79-.06-1.9-.14-3.31-.24-2.91-.23-7.06-.56-12.17-.96-10.3-.87-24.47-2.06-40.12-3.37-7.83-.68-15.29-1.33-22.08-1.92-3.39-.31-6.62-.55-9.64-.88-3.02-.35-5.81-.81-8.33-1.41-2.51-.59-4.77-1.32-6.57-2.33-1.81-1-3.19-2.15-4.16-3.23-.97-1.08-1.54-2.07-1.87-2.75-.33-.69-.43-1.08-.43-1.08,.08-.05,.49,1.58,2.45,3.69,.97,1.05,2.35,2.16,4.14,3.12,1.79,.97,4.02,1.66,6.52,2.22,2.5,.57,5.29,1.01,8.29,1.33,3.01,.31,6.24,.54,9.63,.83,6.79,.58,14.25,1.21,22.09,1.88,15.64,1.38,29.81,2.62,40.1,3.52,5.1,.47,9.24,.86,12.15,1.13,1.4,.14,2.51,.25,3.3,.33,.35,.04,.64,.07,.86,.1,.19,.03,.29,.04,.29,.05Z"/>
        <path class="cls-3" d="M189.96,284.94c.07,.03-.29,.94-.77,2.44-.48,1.5-1.05,3.6-1.41,5.97-.35,2.37-.43,4.55-.41,6.12,.02,1.57,.1,2.55,.01,2.56-.06,0-.27-.96-.38-2.55-.12-1.59-.1-3.8,.26-6.21,.36-2.41,1-4.53,1.57-6.01,.58-1.49,1.06-2.35,1.11-2.32Z"/>
        <path class="cls-3" d="M182.7,291.3c.16-.02,.5,2.68,1.82,5.71,1.29,3.05,3,5.16,2.87,5.26-.08,.09-2.02-1.92-3.35-5.06-1.35-3.13-1.46-5.92-1.34-5.92Z"/>
        <path class="cls-3" d="M290.71,361.41c.16,.06-1.25,3.27-1.59,7.51-.38,4.24,.47,7.64,.3,7.67-.06,.02-.35-.81-.59-2.2-.25-1.39-.4-3.35-.22-5.51,.19-2.16,.67-4.06,1.15-5.39,.48-1.33,.9-2.1,.96-2.07Z"/>
      </g>
      <path class="cls-13" d="M96.81,252.15s-.04,.09-.16,.22c-.11,.14-.3,.32-.56,.54-.52,.44-1.39,.95-2.57,1.3-2.37,.72-5.78,.55-9.4-.02-3.64-.59-6.82-1.64-9.04-2.59-1.11-.46-1.98-.9-2.58-1.22-.59-.33-.91-.52-.89-.55,.04-.08,1.37,.59,3.6,1.43,2.23,.85,5.39,1.83,8.99,2.41,3.59,.56,6.92,.78,9.22,.18,2.32-.57,3.32-1.8,3.39-1.71Z"/>
    </g>
  </g>
  <g id="Plant">
    <g>
      <g>
        <path class="cls-12" d="M628.52,297.14c4.19-2.16,9.13-2.45,13.79-1.68,2.5,.41,5.11,1.16,6.81,3.04,1.7,1.88,2.02,5.18,.07,6.8-1.16,.96-2.79,1.11-4.29,1.09-3.64-.04-7.69-.68-10.6,1.51-1.66,1.25-2.77,3.33-4.75,3.95-1.94,.6-4.14-.54-5.17-2.3s-1.06-3.95-.58-5.92c0,0,.51-4.31,4.73-6.49Z"/>
        <path class="cls-12" d="M618.91,278.59c2.56,3.66,7.55,2.45,9.86,.21,2.31-2.24,3.29-5.48,4.18-8.56,2.03-7.06,4.08-14.46,2.57-21.65-.45-2.15-1.26-4.29-2.77-5.89-1.51-1.59-3.83-2.54-5.96-1.98-2.51,.66-4.07,3.12-5.2,5.47-3.32,6.88-5.07,14.51-5.1,22.15-.01,3.57,.41,7.31,2.42,10.26"/>
        <path class="cls-12" d="M611.87,283.84c2.78-3.3,3.31-8.12,2.07-12.26-1.24-4.14-4.04-7.66-7.26-10.54-3.78-3.37-8.23-5.99-13.01-7.67-1.88-.66-3.86-1.18-5.85-.99-1.98,.19-3.98,1.2-4.91,2.97-1.37,2.61-.06,5.78,1.36,8.36,2.5,4.55,5.36,8.91,8.54,13.01,2.56,3.3,5.49,6.56,9.4,8.05,3.9,1.49,7.96,1.32,10.02-1.39"/>
        <path class="cls-13" d="M618.74,333.84s.13-.59,.23-1.66c.12-1.21,.27-2.73,.44-4.54,.21-1.91,.49-4.19,1.02-6.66,.53-2.47,1.36-5.15,2.42-7.86,1.1-2.7,2.44-5.15,4.01-7.11,1.56-1.97,3.37-3.4,5.08-4.22,1.7-.84,3.22-1.18,4.27-1.33,1.06-.11,1.66-.19,1.66-.24,0-.05-.6-.06-1.69-.03-1.08,.07-2.67,.35-4.46,1.16-1.8,.8-3.72,2.25-5.35,4.26-1.65,2-3.04,4.51-4.16,7.26-1.08,2.76-1.9,5.47-2.4,7.99-.5,2.52-.73,4.82-.89,6.75-.14,1.93-.2,3.49-.22,4.57-.02,1.08-.01,1.68,.03,1.68Z"/>
        <path class="cls-13" d="M619.05,330.34s.04-.27,.04-.77c0-.58,0-1.31,0-2.21,0-1.92,0-4.69,.1-8.11,.17-6.85,.76-14.22,1.9-24.61,1.08-9.77,2.53-21.14,4.05-28.54,.33-1.68,.66-3.2,.97-4.52,.3-1.33,.55-2.47,.79-3.4,.21-.87,.38-1.58,.52-2.15,.11-.49,.16-.76,.14-.76-.02,0-.11,.24-.27,.72-.17,.56-.38,1.26-.64,2.12-.28,.92-.58,2.06-.91,3.38-.35,1.32-.71,2.83-1.07,4.51-1.51,6.7-3.11,16.06-4.26,26.48-1.14,10.41-1.66,19.9-1.7,26.76-.04,3.43,.03,6.21,.12,8.13,.05,.9,.1,1.63,.13,2.21,.04,.5,.07,.77,.09,.77Z"/>
        <path class="cls-13" d="M619.1,312.05s.04-.82-.02-2.31c-.08-1.48-.29-3.62-.71-6.25-.44-2.62-1.06-5.73-2.03-9.11-.42-1.54-1.41-5.24-3.81-10.77-3.16-7.49-7.45-13.62-11.18-17.41-.88-1.01-1.85-1.73-2.63-2.45-.4-.34-.76-.68-1.12-.95-.37-.25-.71-.49-1.02-.7-1.23-.84-1.92-1.28-1.94-1.24-.11,.15,2.75,1.83,6.37,5.68,3.6,3.84,7.77,9.92,10.9,17.35,1.75,4.03,2.96,7.62,3.83,10.67,1,3.35,1.66,6.42,2.16,9.01,.48,2.6,.75,4.72,.92,6.19,.14,1.47,.24,2.29,.28,2.28Z"/>
      </g>
      <polygon class="cls-13" points="601.42 344.31 603.25 369.42 635.5 369.42 637.34 344.31 601.42 344.31"/>
      <rect class="cls-13" x="598.3" y="334.42" width="42.88" height="9.9"/>
      <polygon class="cls-3" points="598.3 368.46 598.3 371.2 600.32 371.2 640.48 371.2 640.48 368.46 598.3 368.46"/>
      <polygon class="cls-3" points="602.29 376.03 600.32 371.2 638.94 371.2 636.64 376.03 602.29 376.03"/>
      <path class="cls-5" d="M636.74,352.52s-.04,.08-.15,.23c-.13,.17-.29,.38-.48,.64-.46,.59-1.09,1.39-1.88,2.4l-.08,.11-.08-.11c-1.18-1.63-2.76-3.82-4.62-6.38h.27c-1.37,1.94-2.9,4.11-4.54,6.43l-.14,.2-.16-.19c-1.68-2-3.5-4.16-5.39-6.41h.31c-.09,.11-.19,.24-.3,.37-1.67,2.1-3.29,4.12-4.82,6.04l-.16,.2-.15-.21c-1.64-2.31-3.16-4.48-4.55-6.43h.26c-2.24,2.57-4.14,4.73-5.6,6.39l-.1,.11-.08-.13c-.74-1.24-1.33-2.23-1.75-2.95-.18-.32-.33-.58-.45-.78-.1-.18-.15-.27-.14-.28,0,0,.07,.08,.19,.25,.13,.2,.29,.45,.5,.75,.45,.7,1.07,1.67,1.84,2.89h-.18c1.44-1.7,3.31-3.89,5.51-6.47l.14-.16,.13,.18c1.39,1.95,2.94,4.1,4.59,6.4h-.31c1.53-1.93,3.14-3.96,4.81-6.06,.1-.13,.2-.26,.3-.37l.15-.19,.16,.19c1.89,2.25,3.7,4.43,5.37,6.43h-.3c1.66-2.3,3.2-4.46,4.59-6.39l.13-.19,.13,.19c1.82,2.6,3.36,4.8,4.52,6.45h-.16c.82-.99,1.48-1.78,1.95-2.35,.21-.25,.38-.44,.52-.61,.12-.13,.19-.2,.19-.2Z"/>
      <path class="cls-3" d="M637.79,344.15c0,.11-8.08,.2-18.05,.2s-18.05-.09-18.05-.2,8.08-.2,18.05-.2,18.05,.09,18.05,.2Z"/>
      <path class="cls-13" d="M639.41,371.47c0,.11-8.78,.2-19.61,.2s-19.62-.09-19.62-.2,8.78-.2,19.62-.2,19.61,.09,19.61,.2Z"/>
    </g>
  </g>
</svg>