<?xml version="1.0" encoding="UTF-8"?>
<svg xmlns="http://www.w3.org/2000/svg" viewBox="0 0 426.3 454">
  <defs>
    <style>
      .cls-1, .cls-2 {
        fill: #fff;
      }

      .cls-3 {
        fill: #fafafa;
      }

      .cls-2 {
        fill-rule: evenodd;
      }

      .cls-4 {
        fill: #f5f5f5;
      }

      .cls-5 {
        fill: #455a64;
      }

      .cls-6 {
        fill: #e0e0e0;
      }

      .cls-7 {
        opacity: .3;
      }

      .cls-8 {
        fill: #ffbe9d;
      }

      .cls-9 {
        fill: #ebebeb;
      }

      .cls-10 {
        fill: #7393a2;
      }

      .cls-11 {
        fill: #263238;
      }
    </style>
  </defs>
  <g id="Background_Complete" data-name="Background Complete">
    <g>
      <rect class="cls-6" x="32.89" y="261.77" width="96.42" height="182.26"/>
      <rect class="cls-4" x="4.28" y="261.77" width="96.42" height="182.26"/>
      <g>
        <path class="cls-6" d="M93.6,299.29H10.84v-28.89H93.6v28.89Zm-81.74-1.02H92.58v-26.86H11.85v26.86Z"/>
        <path class="cls-9" d="M37.07,270.91h31.41v.81c0,2.73-2.22,4.95-4.95,4.95h-21.51c-2.73,0-4.95-2.22-4.95-4.95v-.81h0Z"/>
      </g>
      <g>
        <path class="cls-6" d="M93.6,335.99H10.84v-28.89H93.6v28.89Zm-81.74-1.02H92.58v-26.86H11.85v26.86Z"/>
        <path class="cls-9" d="M37.07,307.61h31.41v.81c0,2.73-2.22,4.95-4.95,4.95h-21.51c-2.73,0-4.95-2.22-4.95-4.95v-.81h0Z"/>
      </g>
      <g>
        <path class="cls-6" d="M93.6,372.69H10.84v-28.89H93.6v28.89Zm-81.74-1.02H92.58v-26.86H11.85v26.86Z"/>
        <path class="cls-9" d="M37.07,344.31h31.41v.81c0,2.73-2.22,4.95-4.95,4.95h-21.51c-2.73,0-4.95-2.22-4.95-4.95v-.81h0Z"/>
      </g>
      <g>
        <path class="cls-6" d="M93.6,409.39H10.84v-28.89H93.6v28.89Zm-81.74-1.02H92.58v-26.86H11.85v26.86Z"/>
        <path class="cls-9" d="M37.07,381h31.41v.81c0,2.73-2.22,4.95-4.95,4.95h-21.51c-2.73,0-4.95-2.22-4.95-4.95v-.81h0Z"/>
      </g>
      <rect class="cls-9" y="254.95" width="104.73" height="9.08"/>
      <rect class="cls-6" x="104.73" y="254.95" width="31.49" height="9.08"/>
      <rect class="cls-6" x="4.28" y="444.04" width="5.07" height="9.31"/>
      <rect class="cls-6" x="35.58" y="444.04" width="5.07" height="9.31"/>
      <rect class="cls-6" x="92.77" y="444.04" width="5.07" height="9.31"/>
      <rect class="cls-6" x="121.36" y="444.04" width="5.07" height="9.31"/>
    </g>
    <g>
      <polygon class="cls-6" points="93.55 230.71 103.31 255.68 97.24 255.65 92.38 240.31 93.55 230.71"/>
      <g>
        <g>
          <polygon class="cls-9" points="60.22 207.64 56.87 255.48 91.5 256.21 95.4 207.64 60.22 207.64"/>
          <polygon class="cls-3" points="63.69 211.5 60.89 251.32 86.64 252.52 90.24 211.26 63.69 211.5"/>
        </g>
        <polygon class="cls-6" points="69.34 217.13 67.25 245.12 81.45 245.12 83.96 217.13 69.34 217.13"/>
      </g>
    </g>
    <g>
      <rect class="cls-9" x="284.42" y="22.05" width="129.28" height="232.25"/>
      <rect class="cls-3" x="289.58" y="28.78" width="117.62" height="218.59"/>
      <polygon class="cls-6" points="419.17 256.39 413.7 254.29 413.7 18.11 419.17 18.11 419.17 256.39"/>
      <rect class="cls-6" x="289.58" y="91.66" width="120.17" height="2.33"/>
      <rect class="cls-6" x="289.58" y="143.72" width="120.17" height="2.33"/>
      <rect class="cls-6" x="289.58" y="195.78" width="120.17" height="2.33"/>
      <rect class="cls-6" x="268.02" y="170.23" width="160.74" height="5.94" transform="translate(175.19 521.59) rotate(-90)"/>
      <rect class="cls-6" x="312.23" y="28.78" width="2.69" height="64.05"/>
      <rect class="cls-6" x="335.45" y="28.78" width="2.69" height="64.05"/>
      <rect class="cls-6" x="358.67" y="28.78" width="2.69" height="64.05"/>
      <rect class="cls-6" x="381.89" y="28.78" width="2.69" height="64.05"/>
      <rect class="cls-6" x="278.95" y="18.11" width="5.47" height="237.62"/>
      <rect class="cls-6" x="278.95" y="15.71" width="140.22" height="6.34"/>
      <rect class="cls-6" x="275.07" y="257.17" width="147.8" height="5.9"/>
      <polygon class="cls-6" points="413.7 254.29 422.87 257.17 275.07 257.17 284.42 254.29 413.7 254.29"/>
    </g>
    <g>
      <g>
        <path class="cls-6" d="M84.4,30.07c2.29-1.38,4.72-2.43,7.23-3.14l1.49-7.16,12.1-.21,1.74,7.1c2.54,.62,5.01,1.59,7.34,2.89l6.11-4.01,8.71,8.41-3.79,6.25c1.38,2.29,2.43,4.72,3.14,7.24l7.16,1.49,.21,12.1-7.1,1.74c-.62,2.53-1.59,5.01-2.89,7.34l4.01,6.12-8.4,8.71-6.25-3.79c-2.29,1.38-4.72,2.43-7.24,3.14l-1.49,7.16-12.1,.21-1.74-7.1c-2.54-.62-5.01-1.59-7.34-2.89l-6.11,4.01-8.71-8.41,3.79-6.25c-1.38-2.29-2.43-4.72-3.14-7.24l-7.16-1.49-.21-12.1,7.1-1.74c.62-2.53,1.59-5.01,2.89-7.34l-4.01-6.12,8.4-8.71,6.25,3.79h0Zm6.45,16.12c-4.98,5.16-4.84,13.38,.32,18.36,5.16,4.98,13.38,4.84,18.36-.32,4.98-5.16,4.84-13.38-.32-18.36-5.16-4.98-13.38-4.83-18.36,.32Z"/>
        <path class="cls-6" d="M90.85,46.19s.68-.96,2.42-2.12c1.71-1.14,4.69-2.4,8.47-2,1.86,.21,3.9,.82,5.76,2.04,1.84,1.23,3.57,2.98,4.65,5.24,.57,1.11,.97,2.35,1.18,3.64,.23,1.29,.27,2.65,.07,4-.33,2.71-1.61,5.38-3.6,7.48-2.03,2.07-4.65,3.44-7.35,3.87-1.34,.24-2.7,.26-4,.07-1.3-.17-2.55-.52-3.68-1.05-2.31-1-4.11-2.68-5.41-4.47-1.29-1.81-1.97-3.83-2.25-5.68-.53-3.76,.63-6.79,1.7-8.53,1.1-1.78,2.03-2.49,2.03-2.49,.07,.06-.78,.85-1.78,2.63-.98,1.75-2.01,4.71-1.43,8.31,.3,1.77,.97,3.69,2.23,5.4,1.25,1.69,2.99,3.27,5.18,4.2,1.08,.5,2.27,.82,3.5,.97,1.23,.17,2.51,.15,3.78-.08,2.55-.41,5.02-1.71,6.94-3.67,1.88-1.99,3.1-4.5,3.42-7.06,.19-1.28,.16-2.56-.05-3.78-.2-1.22-.56-2.4-1.1-3.46-1.01-2.16-2.64-3.84-4.38-5.03-1.76-1.19-3.69-1.8-5.48-2.04-3.62-.45-6.54,.69-8.25,1.73-1.75,1.06-2.51,1.94-2.57,1.88Z"/>
        <path class="cls-6" d="M84.4,30.07s-.14-.06-.4-.21c-.29-.17-.69-.4-1.2-.69-1.09-.65-2.67-1.58-4.71-2.78l.15-.02c-2.14,2.24-4.95,5.19-8.35,8.75l.02-.23c1.22,1.85,2.58,3.9,4.03,6.1l.07,.11-.06,.12c-1.19,2.15-2.19,4.6-2.84,7.29l-.03,.14-.14,.04c-2.21,.55-4.61,1.14-7.1,1.76l.2-.26c.08,3.81,.16,7.85,.24,12.1l-.23-.28c2.22,.46,4.66,.96,7.16,1.48l.18,.04,.05,.18c.66,2.34,1.7,4.82,3.12,7.15l.1,.17-.1,.17c-1.17,1.94-2.46,4.08-3.78,6.26l-.05-.41c2.74,2.64,5.69,5.48,8.72,8.39l-.43-.04c1.9-1.25,3.99-2.62,6.11-4.01l.18-.12,.19,.1c2.13,1.19,4.63,2.21,7.25,2.85l.21,.05,.05,.21c.55,2.22,1.14,4.65,1.75,7.1l-.36-.28c3.83-.07,7.94-.14,12.1-.22l-.36,.29c.47-2.26,.98-4.7,1.49-7.16l.05-.22,.22-.06c2.38-.67,4.85-1.72,7.14-3.1h0s.2-.12,.2-.12l.19,.12c2.1,1.27,4.18,2.54,6.25,3.79l-.46,.06c2.84-2.94,5.64-5.84,8.41-8.7l-.04,.46c-1.35-2.06-2.68-4.1-4-6.12l-.12-.19,.11-.19c1.28-2.3,2.24-4.75,2.86-7.25l.05-.21,.21-.05c2.4-.59,4.77-1.17,7.1-1.74l-.27,.35c-.07-4.13-.14-8.16-.2-12.1l.27,.33c-2.43-.51-4.81-1.01-7.16-1.5l-.2-.04-.05-.19c-.72-2.57-1.78-4.97-3.1-7.16l-.1-.17,.1-.17c1.3-2.14,2.57-4.22,3.8-6.24l.05,.38c-3.06-2.96-5.94-5.76-8.69-8.42l.35,.03c-2.15,1.4-4.18,2.72-6.12,3.99l-.14,.09-.14-.08c-2.44-1.36-4.88-2.28-7.27-2.88l-.14-.04-.03-.14c-.62-2.58-1.19-4.91-1.72-7.11l.22,.17c-4.69,.06-8.68,.11-12.1,.16l.16-.13c-.61,2.86-1.12,5.2-1.54,7.15l-.02,.07-.07,.02c-2.56,.71-4.36,1.55-5.53,2.13-.56,.29-.99,.52-1.3,.68-.29,.16-.43,.23-.43,.22,0,0,.14-.1,.4-.27,.28-.17,.7-.43,1.28-.74,1.16-.62,2.95-1.49,5.52-2.25l-.08,.09c.39-1.96,.87-4.31,1.44-7.17l.03-.13h.13c3.42-.08,7.41-.17,12.1-.27h.17s.04,.17,.04,.17c.55,2.19,1.12,4.52,1.76,7.1l-.18-.18c2.43,.59,4.92,1.52,7.41,2.89h-.28c1.94-1.27,3.96-2.6,6.1-4.01l.19-.12,.16,.16c2.76,2.65,5.65,5.44,8.72,8.39l.18,.17-.13,.21c-1.23,2.03-2.48,4.11-3.78,6.26v-.33c1.35,2.23,2.44,4.69,3.19,7.31l-.25-.24c2.34,.49,4.73,.98,7.16,1.48l.27,.06v.27c.08,3.93,.15,7.97,.23,12.1v.28s-.27,.07-.27,.07c-2.34,.57-4.7,1.16-7.1,1.75l.26-.26c-.63,2.56-1.6,5.07-2.92,7.43v-.38c1.31,2.02,2.65,4.06,4,6.11l.16,.25-.2,.21c-2.76,2.86-5.56,5.77-8.4,8.71l-.21,.21-.25-.15c-2.07-1.25-4.15-2.52-6.25-3.79h.38s0,0,0,0c-2.35,1.42-4.88,2.49-7.32,3.18l.26-.28c-.51,2.46-1.02,4.9-1.49,7.16l-.06,.29h-.3c-4.16,.08-8.27,.15-12.1,.21h-.29s-.07-.28-.07-.28c-.6-2.45-1.19-4.88-1.74-7.1l.26,.26c-2.69-.66-5.24-1.71-7.43-2.93h.37c-2.12,1.37-4.21,2.74-6.12,3.99l-.23,.15-.2-.19c-3.02-2.92-5.96-5.77-8.7-8.42l-.19-.18,.14-.23c1.32-2.17,2.62-4.31,3.8-6.24v.33c-1.44-2.39-2.5-4.93-3.17-7.32l.23,.22c-2.5-.53-4.94-1.04-7.16-1.5l-.23-.05v-.23c-.07-4.25-.13-8.29-.19-12.1v-.21s.2-.05,.2-.05c2.49-.6,4.89-1.19,7.11-1.72l-.18,.18c.68-2.73,1.71-5.21,2.93-7.39v.23c-1.43-2.21-2.77-4.27-3.98-6.13l-.08-.13,.1-.11c3.44-3.53,6.29-6.44,8.45-8.66l.07-.07,.08,.05c2,1.24,3.54,2.2,4.61,2.87,.5,.32,.89,.57,1.18,.75,.27,.17,.4,.26,.4,.27Z"/>
      </g>
      <g>
        <path class="cls-4" d="M158.86,6.43c1.37-.83,2.83-1.45,4.33-1.88l.89-4.29,7.24-.13,1.04,4.25c1.52,.37,3,.95,4.39,1.73l3.66-2.4,5.21,5.03-2.27,3.74c.83,1.37,1.46,2.83,1.88,4.33l4.29,.89,.13,7.24-4.25,1.04c-.37,1.52-.95,3-1.73,4.39l2.4,3.66-5.03,5.21-3.74-2.27c-1.37,.83-2.83,1.45-4.33,1.88l-.89,4.29-7.24,.13-1.04-4.25c-1.52-.37-3-.95-4.39-1.73l-3.66,2.4-5.21-5.03,2.27-3.74c-.83-1.37-1.46-2.83-1.88-4.33l-4.29-.89-.13-7.24,4.25-1.04c.37-1.52,.95-3,1.73-4.39l-2.4-3.66,5.03-5.21,3.74,2.27h0Zm3.86,9.65c-2.98,3.09-2.89,8.01,.19,10.99,3.09,2.98,8.01,2.89,10.99-.19,2.98-3.09,2.89-8.01-.19-10.99-3.09-2.98-8.01-2.89-10.99,.19Z"/>
        <path class="cls-4" d="M162.72,16.08s.41-.57,1.45-1.27c1.02-.68,2.81-1.44,5.07-1.2,1.11,.13,2.33,.49,3.45,1.22,1.1,.73,2.14,1.78,2.79,3.14,.34,.67,.58,1.41,.71,2.18,.14,.77,.16,1.58,.04,2.39-.2,1.62-.96,3.22-2.16,4.48-1.21,1.24-2.79,2.06-4.4,2.31-.8,.14-1.62,.15-2.39,.04-.78-.1-1.53-.31-2.2-.63-1.38-.6-2.46-1.6-3.24-2.67-.77-1.09-1.18-2.29-1.34-3.4-.32-2.25,.38-4.06,1.02-5.11,.66-1.06,1.22-1.49,1.22-1.49,.04,.04-.47,.51-1.07,1.58-.59,1.05-1.2,2.82-.86,4.97,.18,1.06,.58,2.21,1.33,3.23,.75,1.01,1.79,1.96,3.1,2.51,.65,.3,1.36,.49,2.09,.58,.74,.1,1.5,.09,2.26-.05,1.53-.25,3.01-1.03,4.16-2.19,1.13-1.19,1.85-2.69,2.04-4.23,.11-.76,.1-1.53-.03-2.26-.12-.73-.34-1.44-.66-2.07-.6-1.29-1.58-2.3-2.62-3.01-1.05-.71-2.21-1.08-3.28-1.22-2.17-.27-3.91,.41-4.94,1.03-1.05,.64-1.5,1.16-1.54,1.12Z"/>
        <path class="cls-4" d="M158.86,6.43s-.08-.04-.24-.13c-.18-.1-.41-.24-.72-.41-.65-.39-1.6-.94-2.82-1.67h.09c-1.28,1.33-2.96,3.09-5,5.23v-.14c.74,1.11,1.56,2.34,2.43,3.65l.04,.07-.04,.07c-.71,1.29-1.31,2.76-1.7,4.37l-.02,.09-.09,.02c-1.32,.33-2.76,.68-4.25,1.05l.12-.16c.05,2.28,.09,4.7,.14,7.24l-.14-.17c1.33,.27,2.79,.57,4.29,.88l.11,.02,.03,.11c.4,1.4,1.02,2.88,1.87,4.28l.06,.1-.06,.1c-.7,1.16-1.48,2.44-2.26,3.75l-.03-.25c1.64,1.58,3.41,3.28,5.22,5.02l-.26-.02c1.14-.75,2.39-1.57,3.66-2.4l.11-.07,.11,.06c1.28,.71,2.77,1.32,4.34,1.7l.13,.03,.03,.13c.33,1.33,.68,2.78,1.05,4.25l-.22-.17c2.29-.04,4.75-.09,7.24-.13l-.21,.18c.28-1.35,.58-2.81,.89-4.29l.03-.13,.13-.04c1.43-.4,2.9-1.03,4.27-1.86h0s.12-.07,.12-.07l.11,.07c1.26,.76,2.51,1.52,3.74,2.27l-.28,.04c1.7-1.76,3.38-3.5,5.03-5.21l-.03,.27c-.81-1.23-1.61-2.45-2.4-3.66l-.07-.11,.06-.12c.77-1.38,1.34-2.84,1.71-4.34l.03-.13,.13-.03c1.44-.35,2.85-.7,4.25-1.04l-.16,.21c-.04-2.47-.08-4.89-.12-7.24l.16,.2c-1.45-.3-2.88-.6-4.28-.9l-.12-.03-.03-.12c-.43-1.54-1.07-2.98-1.85-4.29l-.06-.1,.06-.1c.78-1.28,1.54-2.52,2.27-3.74l.03,.23c-1.83-1.77-3.56-3.45-5.2-5.04l.21,.02c-1.29,.84-2.5,1.63-3.67,2.39l-.08,.05-.08-.05c-1.46-.82-2.92-1.37-4.35-1.73l-.09-.02-.02-.09c-.37-1.55-.71-2.94-1.03-4.26l.13,.1c-2.81,.04-5.2,.07-7.24,.1l.1-.08c-.37,1.71-.67,3.11-.92,4.28v.04s-.05,.01-.05,.01c-1.53,.43-2.61,.93-3.31,1.27-.33,.17-.59,.31-.78,.41-.18,.1-.26,.14-.26,.13,0,0,.08-.06,.24-.16,.17-.1,.42-.25,.76-.44,.69-.37,1.77-.89,3.31-1.35l-.05,.05c.24-1.17,.52-2.58,.86-4.29l.02-.08h.08c2.05-.05,4.44-.1,7.24-.16h.1s.03,.1,.03,.1c.33,1.31,.67,2.7,1.06,4.25l-.11-.11c1.46,.36,2.95,.91,4.44,1.73h-.17c1.16-.76,2.37-1.56,3.65-2.4l.11-.07,.1,.1c1.65,1.59,3.38,3.25,5.22,5.02l.11,.1-.08,.13c-.73,1.22-1.49,2.46-2.26,3.75v-.2c.81,1.33,1.46,2.81,1.91,4.38l-.15-.14c1.4,.29,2.83,.59,4.29,.89l.16,.03v.16c.05,2.35,.09,4.77,.14,7.24v.17s-.16,.04-.16,.04c-1.4,.34-2.81,.69-4.25,1.05l.16-.16c-.38,1.53-.96,3.04-1.75,4.45v-.23c.78,1.21,1.58,2.43,2.39,3.66l.1,.15-.12,.13c-1.65,1.71-3.33,3.45-5.03,5.21l-.12,.13-.15-.09c-1.24-.75-2.49-1.51-3.74-2.27h.23s0,0,0,0c-1.4,.85-2.92,1.49-4.38,1.9l.16-.17c-.31,1.47-.61,2.93-.89,4.29l-.04,.17h-.18c-2.49,.05-4.95,.09-7.24,.13h-.17s-.04-.17-.04-.17c-.36-1.47-.71-2.92-1.04-4.25l.16,.16c-1.61-.4-3.14-1.02-4.45-1.75h.22c-1.27,.82-2.52,1.64-3.66,2.39l-.14,.09-.12-.12c-1.81-1.75-3.57-3.46-5.2-5.04l-.11-.11,.08-.14c.79-1.3,1.57-2.58,2.27-3.74v.2c-.86-1.43-1.49-2.95-1.89-4.38l.14,.13c-1.5-.31-2.96-.62-4.28-.9l-.14-.03v-.14c-.04-2.54-.08-4.96-.11-7.24v-.13s.12-.03,.12-.03c1.49-.36,2.93-.71,4.26-1.03l-.11,.11c.41-1.63,1.03-3.12,1.76-4.42v.14c-.85-1.32-1.66-2.56-2.38-3.67l-.05-.08,.06-.06c2.06-2.11,3.76-3.86,5.06-5.18l.04-.04,.05,.03c1.2,.74,2.12,1.32,2.76,1.72,.3,.19,.53,.34,.71,.45,.16,.1,.24,.16,.24,.16Z"/>
      </g>
    </g>
    <g>
      <rect class="cls-6" x="9.83" y="112.74" width="81.86" height="85.34"/>
      <rect class="cls-9" x="4.29" y="112.74" width="81.86" height="85.34"/>
      <rect class="cls-3" x="15.3" y="124.21" width="59.86" height="62.39"/>
      <path class="cls-6" d="M15.3,187.02s-.53,.69-1.5,1.7c-.96,1-2.31,2.37-3.81,3.85-1.51,1.48-2.89,2.81-3.9,3.75-1.02,.94-1.67,1.51-1.71,1.46-.04-.04,.53-.69,1.49-1.69,.96-1,2.31-2.37,3.82-3.86,1.51-1.49,2.89-2.81,3.91-3.76,1.02-.94,1.66-1.5,1.7-1.46Z"/>
      <path class="cls-6" d="M75.15,186.87s.69,.53,1.7,1.5c1,.96,2.37,2.31,3.85,3.81,1.48,1.51,2.81,2.89,3.75,3.9,.94,1.02,1.51,1.67,1.46,1.71-.04,.04-.69-.53-1.69-1.49s-2.37-2.31-3.86-3.82c-1.49-1.51-2.81-2.89-3.76-3.91-.94-1.02-1.5-1.66-1.46-1.7Z"/>
      <path class="cls-6" d="M74.99,124.38s.53-.69,1.5-1.7c.96-1,2.31-2.37,3.81-3.85,1.51-1.48,2.89-2.81,3.9-3.75,1.02-.94,1.67-1.51,1.71-1.46,.04,.04-.53,.69-1.49,1.69-.96,1-2.31,2.37-3.82,3.86-1.51,1.49-2.89,2.81-3.91,3.76-1.02,.94-1.66,1.5-1.7,1.46Z"/>
      <path class="cls-6" d="M15.13,124.53s-.69-.53-1.7-1.5c-1-.96-2.37-2.31-3.85-3.81-1.48-1.51-2.81-2.89-3.75-3.9s-1.51-1.67-1.46-1.71c.04-.04,.69,.53,1.69,1.49,1,.96,2.37,2.31,3.86,3.82,1.49,1.51,2.81,2.89,3.76,3.91,.94,1.02,1.5,1.66,1.46,1.7Z"/>
      <path class="cls-6" d="M74.99,186.61s0-.11-.01-.3c0-.21,0-.5-.01-.87,0-.78-.01-1.9-.02-3.36-.01-2.95-.03-7.25-.05-12.71-.02-10.93-.06-26.5-.1-45.15l.2,.2c-17.42,0-37.89,.02-59.69,.03h0l.22-.22c-.01,22.9-.02,44.33-.03,62.39l-.19-.19c17.89,.04,32.79,.07,43.23,.1,5.22,.02,9.32,.04,12.14,.05,1.4,0,2.47,.02,3.21,.02,.36,0,.63,0,.83,.01,.19,0,.29,.01,.29,.01,0,0-.09,0-.27,.01-.19,0-.46,0-.81,.01-.73,0-1.79,.01-3.17,.02-2.8,.01-6.89,.03-12.09,.05-10.47,.02-25.41,.06-43.35,.1h-.19s0-.19,0-.19c0-18.07-.02-39.49-.03-62.39v-.22s.22,0,.22,0h0c21.8,.01,42.26,.02,59.69,.03h.2s0,.2,0,.2c-.04,18.7-.08,34.32-.1,45.27-.02,5.44-.04,9.73-.05,12.67,0,1.45-.02,2.56-.02,3.33,0,.36,0,.64-.01,.85,0,.19-.01,.28-.01,.28Z"/>
      <g>
        <path class="cls-9" d="M31.09,150.28s-1.28,15.45,15.45,15.45c0-8.24-6.8-14.75-15.45-15.45Z"/>
        <path class="cls-9" d="M61.71,150.29s-15.45-1.28-15.45,15.45c8.24,0,14.75-6.8,15.45-15.45Z"/>
        <path class="cls-6" d="M45.8,141.84s-12.62,11.33,.69,23.89c6.19-6.56,5.67-16.84-.69-23.89Z"/>
      </g>
    </g>
  </g>
  <g id="Plant">
    <g>
      <g>
        <g>
          <path class="cls-10" d="M349.51,392.48c-17.04-9.21-36.2-25.98-43.65-45.02,18.42,9.5,33.95,25.51,43.65,45.02"/>
          <path class="cls-10" d="M348.4,363.92c-17.04-9.21-36.2-25.98-43.65-45.02,18.42,9.5,33.95,25.51,43.65,45.02"/>
          <path class="cls-10" d="M345.86,336c-17.04-9.21-36.2-25.98-43.65-45.02,18.42,9.5,33.95,25.51,43.65,45.02"/>
          <path class="cls-10" d="M342.13,306.67c-15.81-11.52-32.82-30.83-37.96-50.75,17.15,12,30.65,30.05,37.96,50.75"/>
          <path class="cls-10" d="M337.32,284.04c-10.7-17.12-19.83-41.94-17.74-62.51,11.77,18.11,18.08,40.34,17.74,62.51"/>
          <path class="cls-10" d="M339.75,294.81c4.5-21.35,15.46-47.7,31.24-62.54-4.45,22.91-15.56,45.16-31.24,62.54"/>
          <path class="cls-10" d="M343.26,318.96c6.45-21.84,20.03-48.33,37.69-62.41-6.52,23.48-19.92,45.68-37.69,62.41"/>
          <path class="cls-10" d="M347.13,348.37c6.45-21.84,20.03-48.33,37.69-62.41-6.52,23.48-19.92,45.68-37.69,62.41"/>
          <path class="cls-10" d="M349.08,384.22c6.45-21.84,20.03-48.33,37.69-62.41-6.52,23.48-19.92,45.68-37.69,62.41"/>
          <path class="cls-11" d="M336.9,279.73s.05,.11,.11,.35c.06,.27,.14,.61,.24,1.03,.21,.96,.5,2.28,.87,3.97,.75,3.44,1.74,8.45,2.85,14.66,1.13,6.2,2.32,13.62,3.48,21.87,1.13,8.26,2.22,17.36,3.11,26.94,.87,9.59,1.46,18.74,1.85,27.07,.36,8.33,.54,15.84,.56,22.14,.03,6.3-.02,11.41-.13,14.93-.05,1.72-.1,3.08-.13,4.06-.02,.43-.04,.78-.05,1.05-.02,.24-.03,.36-.04,.36-.01,0-.02-.12-.03-.36,0-.28-.01-.63-.02-1.06,0-.98,0-2.34,0-4.06,.03-3.52,0-8.62-.09-14.92-.09-6.3-.32-13.8-.71-22.12-.43-8.32-1.03-17.46-1.9-27.03-.89-9.57-1.96-18.66-3.05-26.92-1.13-8.25-2.27-15.67-3.33-21.88-1.06-6.21-1.96-11.23-2.63-14.69-.31-1.69-.56-3.03-.74-3.99-.07-.42-.13-.77-.17-1.04-.04-.24-.05-.36-.04-.36Z"/>
          <g class="cls-7">
            <path d="M349.51,392.48c-17.04-9.21-36.2-25.98-43.65-45.02,18.42,9.5,33.95,25.51,43.65,45.02"/>
          </g>
          <g class="cls-7">
            <path d="M348.4,363.92c-17.04-9.21-36.2-25.98-43.65-45.02,18.42,9.5,33.95,25.51,43.65,45.02"/>
          </g>
          <g class="cls-7">
            <path d="M345.86,336c-17.04-9.21-36.2-25.98-43.65-45.02,18.42,9.5,33.95,25.51,43.65,45.02"/>
          </g>
          <g class="cls-7">
            <path d="M342.13,306.67c-15.81-11.52-32.82-30.83-37.96-50.75,17.15,12,30.65,30.05,37.96,50.75"/>
          </g>
          <g class="cls-7">
            <path d="M337.32,284.04c-10.7-17.12-19.83-41.94-17.74-62.51,11.77,18.11,18.08,40.34,17.74,62.51"/>
          </g>
          <g class="cls-7">
            <path d="M339.75,294.81c4.5-21.35,15.46-47.7,31.24-62.54-4.45,22.91-15.56,45.16-31.24,62.54"/>
          </g>
          <g class="cls-7">
            <path d="M343.26,318.96c6.45-21.84,20.03-48.33,37.69-62.41-6.52,23.48-19.92,45.68-37.69,62.41"/>
          </g>
          <g class="cls-7">
            <path d="M347.13,348.37c6.45-21.84,20.03-48.33,37.69-62.41-6.52,23.48-19.92,45.68-37.69,62.41"/>
          </g>
          <g class="cls-7">
            <path d="M349.08,384.22c6.45-21.84,20.03-48.33,37.69-62.41-6.52,23.48-19.92,45.68-37.69,62.41"/>
          </g>
        </g>
        <g>
          <path class="cls-10" d="M353.82,398.25c-10.37-13.69-20.03-33.95-19.89-51.34,11.35,14.45,18.43,32.72,19.89,51.34"/>
          <path class="cls-10" d="M361.84,376.12c-10.37-13.69-20.03-33.95-19.89-51.34,11.35,14.45,18.43,32.72,19.89,51.34"/>
          <path class="cls-10" d="M368.55,353.91c-10.37-13.69-20.03-33.95-19.89-51.34,11.35,14.45,18.43,32.72,19.89,51.34"/>
          <path class="cls-10" d="M374.77,330.16c-8.69-14.96-15.9-36.31-13.69-53.46,9.58,15.85,14.45,34.87,13.69,53.46"/>
          <path class="cls-10" d="M378.08,311.09c-2.98-17.2-2.36-39.65,5.67-54.45,3.51,18.38,1.49,37.75-5.67,54.45"/>
          <path class="cls-10" d="M376.61,320.22c10.14-14.45,26.84-30.16,43.71-35.23-10.58,15.66-26.12,28.19-43.71,35.23"/>
          <path class="cls-10" d="M371.83,339.94c11.8-14.06,30.58-28.85,48.67-32.61-12.36,15.27-29.67,26.87-48.67,32.61"/>
          <path class="cls-10" d="M365.69,363.81c11.8-14.06,30.58-28.85,48.67-32.61-12.36,15.27-29.67,26.87-48.67,32.61"/>
          <path class="cls-10" d="M356.06,391.81c11.8-14.06,30.58-28.85,48.67-32.61-12.36,15.27-29.67,26.87-48.67,32.61"/>
          <path class="cls-11" d="M379.09,307.65s0,.1-.02,.3c-.03,.23-.08,.52-.13,.87-.13,.81-.32,1.92-.55,3.32-.48,2.88-1.26,7.03-2.31,12.14-2.09,10.22-5.41,24.27-9.99,39.53-2.3,7.63-4.69,14.83-6.98,21.34-2.33,6.5-4.52,12.31-6.49,17.15-1.95,4.84-3.6,8.73-4.79,11.39-.58,1.29-1.04,2.31-1.38,3.06-.15,.32-.27,.58-.37,.79-.09,.18-.14,.26-.15,.26-.01,0,.02-.1,.09-.29,.08-.22,.19-.49,.31-.82,.31-.76,.73-1.8,1.27-3.11,1.12-2.69,2.7-6.61,4.6-11.46,1.91-4.85,4.06-10.68,6.35-17.18,2.26-6.51,4.63-13.71,6.93-21.33,4.57-15.24,7.96-29.25,10.17-39.44,1.1-5.1,1.95-9.23,2.51-12.09,.28-1.39,.5-2.49,.67-3.29,.08-.34,.14-.62,.19-.85,.05-.19,.08-.29,.09-.29Z"/>
        </g>
      </g>
      <polygon class="cls-5" points="370.08 454 333.64 454 326.84 403.78 377.07 403.78 370.08 454"/>
      <rect class="cls-5" x="322.33" y="403.27" width="59.26" height="7.81"/>
      <path class="cls-11" d="M381.58,411.21c0,.14-13.11,.26-29.29,.26s-29.29-.12-29.29-.26,13.11-.26,29.29-.26,29.29,.12,29.29,.26Z"/>
    </g>
  </g>
  <g id="Device">
    <g>
      <g>
        <rect class="cls-5" x="112.9" y="36.23" width="210.64" height="417.11" rx="25.34" ry="25.34"/>
        <rect class="cls-11" x="12.98" y="142.79" width="410.48" height="204" rx="22.23" ry="22.23" transform="translate(463.01 26.57) rotate(90)"/>
        <g>
          <path class="cls-5" d="M203.09,52.7c-1.29,0-2.34-1.05-2.34-2.34s1.05-2.34,2.34-2.34h30.13c1.29,0,2.34,1.05,2.34,2.34s-1.05,2.34-2.34,2.34h-30.13Z"/>
          <g>
            <path class="cls-5" d="M186.94,52.7c-1.29,0-2.34-1.05-2.34-2.34s1.05-2.34,2.34-2.34,2.34,1.05,2.34,2.34-1.05,2.34-2.34,2.34Z"/>
            <path class="cls-5" d="M195.56,52.7c-1.29,0-2.34-1.05-2.34-2.34s1.05-2.34,2.34-2.34,2.34,1.05,2.34,2.34-1.05,2.34-2.34,2.34Z"/>
            <path class="cls-5" d="M249.5,52.7c-1.29,0-2.34-1.05-2.34-2.34s1.05-2.34,2.34-2.34,2.34,1.05,2.34,2.34-1.05,2.34-2.34,2.34Z"/>
            <path class="cls-5" d="M240.88,52.7c-1.29,0-2.34-1.05-2.34-2.34s1.05-2.34,2.34-2.34,2.34,1.05,2.34,2.34-1.05,2.34-2.34,2.34Z"/>
          </g>
        </g>
        <path class="cls-3" d="M301,42.36h-36.46c-2.75,0-5.17,1.82-5.94,4.46l-2.32,7.99c-.86,2.96-3.57,4.99-6.65,4.99h-62.82c-3.08,0-5.79-2.04-6.65-4.99l-2.32-7.99c-.77-2.64-3.19-4.46-5.94-4.46h-28.36c-12.47,0-22.58,10.11-22.58,22.58V429.23c0,8.43,6.83,15.26,15.26,15.26h165.84c7.4,0,13.4-6,13.4-13.4V56.84c0-7.99-6.48-14.47-14.47-14.47Z"/>
        <path class="cls-4" d="M308.96,49.09c-4.09-4.15-9.78-6.72-16.07-6.72h-33l-5.06,17.44h-73.22l-5.06-17.44h-40.83c-8.15,0-14.75,6.61-14.75,14.75V320.89l.58,.07c18.96,2.06,37.4-9.86,47.81-25.84,10.41-15.98,14.08-35.38,15.91-54.36,1.83-18.98,2.06-38.23,6.52-56.77,7.48-31.13,27.22-59.14,54.02-76.66,13.23-8.65,28.04-14.81,40.65-24.34,11.1-8.38,20.64-20.37,22.5-33.89Z"/>
        <path class="cls-4" d="M315.47,435.35v-116.71c-29.95,3.03-57.97,21.17-73.02,47.24-13.57,23.51-16.26,52.94-7.59,78.63h71.46c5.05,0,9.15-4.1,9.15-9.15Z"/>
        <path class="cls-5" d="M324.6,126.89h.31v47.94h-.31c-.59,0-1.07-.48-1.07-1.07v-45.81c0-.59,.48-1.07,1.07-1.07Z" transform="translate(648.45 301.72) rotate(180)"/>
        <path class="cls-5" d="M112.53,156.44h.37v30.35h-.37c-.59,0-1.07-.48-1.07-1.07v-28.22c0-.59,.48-1.07,1.07-1.07Z"/>
        <path class="cls-5" d="M112.53,116.78h.37v30.35h-.37c-.59,0-1.07-.48-1.07-1.07v-28.22c0-.59,.48-1.07,1.07-1.07Z"/>
        <path class="cls-5" d="M112.61,87.02h.29v14.11h-.29c-.52,0-.95-.42-.95-.95v-12.22c0-.52,.42-.95,.95-.95Z"/>
        <g>
          <g>
            <rect class="cls-11" x="268.25" y="55.94" width="1.45" height="2.03"/>
            <rect class="cls-11" x="270.61" y="55.03" width="1.45" height="2.93"/>
            <rect class="cls-11" x="272.96" y="54.35" width="1.45" height="3.61"/>
            <rect class="cls-11" x="275.32" y="53.04" width="1.45" height="4.92"/>
          </g>
          <g>
            <path class="cls-11" d="M298.12,58.07h-7.26c-.29,0-.52-.23-.52-.52v-3.61c0-.29,.23-.52,.52-.52h7.27s.07,.01,.09,.04c.02,.02,.04,.06,.04,.09v1.19h.78c.07,0,.13,.06,.13,.13v1.74c0,.07-.06,.13-.13,.13h-.78v1.19c0,.07-.06,.13-.13,.13Zm-.13-4.39h-7.13c-.14,0-.25,.11-.25,.26v3.61c0,.14,.11,.25,.25,.25h7.13v-1.19c0-.07,.06-.13,.13-.13h.78v-1.47h-.78c-.07,0-.13-.06-.13-.13v-1.19Z"/>
            <polygon class="cls-11" points="291.2 57.21 291.2 54.27 297.4 54.27 297.4 55.6 297.4 55.89 297.4 57.21 291.2 57.21"/>
          </g>
          <g>
            <path class="cls-11" d="M283.69,57.79c0-.29-.24-.53-.53-.53s-.53,.24-.53,.53,.24,.53,.53,.53,.53-.24,.53-.53Z"/>
            <g>
              <path class="cls-11" d="M281.35,56.51l.68,.68c.29-.29,.69-.47,1.13-.47s.84,.18,1.13,.47l.68-.68c-.46-.46-1.1-.75-1.81-.75s-1.35,.29-1.81,.75Z"/>
              <path class="cls-11" d="M283.16,54.25c-1.12,0-2.14,.46-2.88,1.19l.68,.68c.56-.56,1.34-.91,2.2-.91s1.64,.35,2.2,.91l.68-.68c-.74-.74-1.75-1.19-2.88-1.19Z"/>
              <path class="cls-11" d="M279.18,54.34l.68,.68c.85-.85,2.01-1.37,3.3-1.37s2.46,.52,3.3,1.37l.68-.68c-1.02-1.02-2.43-1.65-3.98-1.65s-2.96,.63-3.98,1.65Z"/>
            </g>
          </g>
        </g>
        <circle class="cls-4" cx="240.2" cy="199.35" r="25.69" transform="translate(-34.96 346.74) rotate(-67.87)"/>
      </g>
      <g>
        <path class="cls-11" d="M149.48,147.93c0-6.53,3.43-10.42,8.17-10.42s8.2,3.89,8.2,10.42-3.45,10.42-8.2,10.42-8.17-3.89-8.17-10.42Zm14.2,0c0-5.48-2.46-8.49-6.03-8.49s-6.03,3.02-6.03,8.49,2.46,8.49,6.03,8.49,6.03-3.02,6.03-8.49Z"/>
        <path class="cls-11" d="M183.65,147.75c0,6.97-3.81,10.6-9.37,10.6-1.84,0-3.57-.32-4.86-1.11l.85-1.7c1.05,.7,2.46,.97,3.98,.97,4.42,0,7.26-2.84,7.26-8.4,0-.47-.03-1.05-.09-1.67-1.02,2.25-3.43,3.51-6.27,3.51-4.07,0-6.91-2.4-6.91-6.15s3.02-6.3,7-6.3c5.45,0,8.4,3.78,8.4,10.25Zm-2.9-4.07c0-2.25-1.87-4.39-5.42-4.39-2.96,0-5.01,1.73-5.01,4.45s1.99,4.42,5.15,4.42,5.27-1.93,5.27-4.48Z"/>
        <path class="cls-11" d="M186.73,144.24c0-.91,.7-1.58,1.55-1.58s1.58,.67,1.58,1.58-.73,1.61-1.58,1.61-1.55-.7-1.55-1.61Zm0,12.47c0-.91,.7-1.58,1.55-1.58s1.58,.67,1.58,1.58-.73,1.61-1.58,1.61-1.55-.7-1.55-1.61Z"/>
        <path class="cls-11" d="M192.9,147.93c0-6.53,3.43-10.42,8.17-10.42s8.2,3.89,8.2,10.42-3.45,10.42-8.2,10.42-8.17-3.89-8.17-10.42Zm14.2,0c0-5.48-2.46-8.49-6.03-8.49s-6.03,3.02-6.03,8.49,2.46,8.49,6.03,8.49,6.03-3.02,6.03-8.49Z"/>
        <path class="cls-11" d="M212.29,147.93c0-6.53,3.43-10.42,8.17-10.42s8.2,3.89,8.2,10.42-3.46,10.42-8.2,10.42-8.17-3.89-8.17-10.42Zm14.2,0c0-5.48-2.46-8.49-6.03-8.49s-6.03,3.02-6.03,8.49,2.46,8.49,6.03,8.49,6.03-3.02,6.03-8.49Z"/>
      </g>
      <g>
        <path class="cls-6" d="M286.31,113.96H154.31c-7.25,0-13.13-5.88-13.13-13.13h0c0-7.25,5.88-13.13,13.13-13.13h132c7.25,0,13.13,5.88,13.13,13.13h0c0,7.25-5.88,13.13-13.13,13.13Z"/>
        <path class="cls-11" d="M282.89,105.84c-2.76,0-5.01-2.25-5.01-5.01s2.25-5.01,5.01-5.01,5.01,2.25,5.01,5.01-2.25,5.01-5.01,5.01Zm0-9.02c-2.21,0-4.01,1.8-4.01,4.01s1.8,4.01,4.01,4.01,4.01-1.8,4.01-4.01-1.8-4.01-4.01-4.01Z"/>
        <path class="cls-11" d="M289.61,107.14c-.12,0-.23-.04-.33-.12l-3.29-2.88c-.21-.18-.23-.5-.05-.71,.18-.21,.5-.23,.71-.05l3.29,2.88c.21,.18,.23,.5,.05,.71-.1,.11-.24,.17-.38,.17Z"/>
      </g>
      <g>
        <g>
          <path class="cls-11" d="M282.12,156.11s.37,.04,1.06-.05c.68-.09,1.7-.37,2.71-1.18,.5-.4,.99-.93,1.36-1.62,.2-.33,.33-.72,.45-1.12,.1-.41,.15-.84,.15-1.28-.01-.45-.07-.91-.2-1.36-.13-.46-.32-.91-.58-1.34-.51-.86-1.29-1.64-2.29-2.09l-.05-.02v-.06c.06-1.37-.73-2.85-2.09-3.54-1.35-.69-3.21-.43-4.36,.73l-.13,.13-.04-.17c-.46-2.2-2.19-4.23-4.47-5.12-.59-.22-1.19-.4-1.81-.45-.15-.02-.31-.04-.46-.03-.15,0-.31-.01-.46,0-.3,.03-.61,.03-.91,.1-1.2,.21-2.29,.79-3.18,1.53-.88,.76-1.58,1.69-2.03,2.7-.44,1.01-.65,2.09-.6,3.12v.12s-.11-.03-.11-.03c-1.22-.3-2.49-.09-3.52,.42-.52,.26-.98,.58-1.39,.94-.4,.37-.73,.79-1.01,1.23-.25,.45-.45,.91-.55,1.38-.1,.47-.14,.94-.1,1.39,.06,.9,.35,1.69,.73,2.34,.75,1.31,1.79,2,2.52,2.33,.74,.33,1.19,.36,1.18,.39,0,0-.03,0-.08-.01-.06-.01-.14-.03-.23-.04-.1-.02-.23-.04-.38-.1-.15-.05-.32-.09-.51-.19-.74-.32-1.8-1-2.58-2.33-.39-.65-.69-1.46-.76-2.38-.05-.46,0-.94,.09-1.42,.11-.49,.3-.97,.56-1.43,.28-.45,.62-.88,1.03-1.27,.42-.38,.9-.71,1.43-.97,1.06-.52,2.36-.75,3.63-.44l-.11,.09c-.06-1.06,.15-2.17,.6-3.2,.46-1.03,1.17-1.99,2.08-2.77,.92-.76,2.03-1.36,3.27-1.58,.31-.07,.62-.08,.94-.11,.16,0,.32,0,.47,0,.16,0,.32,.01,.47,.04,.64,.06,1.26,.24,1.86,.47,2.35,.91,4.11,2.99,4.59,5.26l-.16-.05c1.22-1.22,3.16-1.48,4.58-.76,1.43,.73,2.24,2.27,2.18,3.71l-.05-.08c1.03,.48,1.83,1.28,2.35,2.17,.26,.45,.45,.91,.58,1.38,.13,.47,.19,.94,.2,1.4,0,.46-.06,.9-.16,1.32-.12,.41-.26,.8-.47,1.14-.38,.69-.89,1.23-1.4,1.64-1.04,.81-2.07,1.08-2.76,1.16-.35,.04-.62,.04-.79,.02-.18-.01-.27-.03-.27-.03Z"/>
          <path class="cls-11" d="M282.63,156.65c-.11,0-.2,0-.29-.01-.19-.01-.29-.03-.29-.03-.19-.03-.35-.16-.41-.34-.06-.18,0-.38,.13-.51,.16-.15,.33-.15,.47-.14,.14,0,.44,.01,.87-.04,.61-.08,1.54-.34,2.46-1.08,.52-.41,.93-.91,1.24-1.46,.2-.34,.32-.72,.41-1.02,.09-.37,.13-.76,.13-1.14-.01-.43-.08-.85-.18-1.23-.12-.43-.3-.84-.53-1.23-.5-.84-1.23-1.51-2.06-1.89-.19-.09-.35-.3-.34-.5,.06-1.29-.69-2.55-1.82-3.12-1.19-.61-2.82-.33-3.78,.64l-.12,.13c-.13,.13-.32,.18-.5,.13-.18-.05-.31-.2-.35-.38l-.04-.17c-.43-2.07-2.07-3.94-4.17-4.76-.65-.24-1.18-.38-1.67-.42-.16-.02-.29-.03-.41-.03h-.19c-.09,0-.18-.01-.26,0l-.22,.02c-.2,.01-.39,.03-.59,.07-1.04,.18-2.06,.67-2.98,1.43-.81,.7-1.47,1.57-1.9,2.52-.41,.94-.6,1.94-.55,2.89v.12c.02,.16-.05,.31-.17,.41-.12,.1-.28,.14-.44,.1l-.12-.03c-1.03-.25-2.16-.12-3.18,.38-.46,.23-.89,.52-1.28,.87-.34,.32-.65,.7-.91,1.12-.23,.41-.4,.83-.49,1.23-.09,.46-.12,.87-.09,1.23,.05,.75,.28,1.48,.66,2.13,.74,1.28,1.75,1.88,2.29,2.13,.47,.21,.81,.29,.97,.32,.14,.03,.31,.07,.42,.26,.07,.12,.09,.26,.06,.39-.07,.25-.39,.4-.65,.36l-.24-.04c-.15-.03-.3-.06-.46-.12l-.11-.04c-.14-.04-.29-.09-.45-.17-.63-.27-1.88-.98-2.79-2.52-.47-.79-.76-1.69-.83-2.59-.05-.46-.02-.98,.1-1.56,.12-.53,.32-1.05,.62-1.58,.32-.52,.69-.98,1.12-1.39,.47-.43,.99-.78,1.54-1.06,1.03-.51,2.16-.72,3.25-.61,.04-.91,.26-1.83,.65-2.7,.5-1.12,1.26-2.13,2.21-2.95,1.08-.9,2.29-1.48,3.51-1.69,.22-.05,.48-.07,.74-.09l.23-.02c.15,0,.26,0,.37,0h.15c.19,0,.36,.02,.55,.05,.57,.05,1.2,.21,1.96,.49,2.16,.84,3.91,2.64,4.65,4.73,1.31-.82,3.04-.95,4.41-.25,1.43,.73,2.38,2.22,2.45,3.79,.9,.5,1.69,1.27,2.23,2.2,.27,.47,.48,.97,.63,1.49,.13,.47,.21,.99,.22,1.53,0,.47-.05,.96-.17,1.45-.16,.56-.32,.94-.52,1.28-.37,.67-.89,1.28-1.53,1.77-1.13,.89-2.26,1.17-3.01,1.26-.23,.02-.43,.04-.61,.04Z"/>
        </g>
        <g>
          <path class="cls-11" d="M270.26,152.53s-.57,1.15-1.39,2.5c-.81,1.35-1.51,2.43-1.56,2.4-.05-.03,.57-1.15,1.39-2.5,.81-1.35,1.51-2.43,1.56-2.4Z"/>
          <path class="cls-11" d="M267.35,157.97c-.09,0-.18-.05-.29-.11-.48-.29-.48-.38,1.21-3.19,1.53-2.54,1.65-2.57,1.86-2.62,.13-.03,.27-.01,.38,.06h0s0,0,0,0c0,0,0,0,0,0h0s0,0,0,0c.11,.07,.2,.18,.23,.31,.05,.21,.08,.33-1.45,2.88-1.3,2.16-1.64,2.68-1.95,2.68Z"/>
        </g>
        <g>
          <path class="cls-11" d="M274.87,152.53s-.57,1.15-1.39,2.5c-.81,1.35-1.51,2.43-1.56,2.4-.05-.03,.57-1.15,1.39-2.5,.81-1.35,1.51-2.43,1.56-2.4Z"/>
          <path class="cls-11" d="M271.93,157.93c-.09,0-.18-.02-.26-.07-.47-.29-.47-.38,1.22-3.18,1.53-2.54,1.65-2.57,1.86-2.63,.13-.03,.27,0,.38,.06h0c.47,.29,.47,.38-1.22,3.18-1.53,2.54-1.65,2.57-1.86,2.63-.04,0-.08,.01-.12,.01Z"/>
        </g>
        <g>
          <path class="cls-11" d="M279.48,152.53s-.57,1.15-1.39,2.5c-.81,1.35-1.51,2.43-1.56,2.4-.05-.03,.57-1.15,1.39-2.5,.81-1.35,1.51-2.43,1.56-2.4Z"/>
          <path class="cls-11" d="M276.58,157.97c-.09,0-.18-.05-.29-.11-.48-.29-.48-.38,1.21-3.19,1.53-2.54,1.65-2.57,1.86-2.62,.13-.03,.27-.01,.38,.06h0s0,0,0,0c0,0,0,0,0,0h0s0,0,0,0c.11,.07,.2,.18,.23,.31,.05,.21,.08,.33-1.45,2.88-1.3,2.16-1.64,2.68-1.95,2.68Z"/>
        </g>
        <g>
          <path class="cls-11" d="M264.92,159.4s-.57,1.15-1.39,2.5c-.81,1.35-1.51,2.43-1.56,2.4-.05-.03,.57-1.15,1.39-2.5,.81-1.35,1.51-2.43,1.56-2.4Z"/>
          <path class="cls-11" d="M261.98,164.8c-.09,0-.18-.02-.26-.07-.11-.07-.2-.18-.23-.31-.05-.21-.08-.33,1.45-2.88,1.68-2.8,1.76-2.85,2.24-2.57,0,0,0,0,0,0,.47,.29,.47,.38-1.22,3.18-1.53,2.54-1.65,2.57-1.86,2.63-.04,0-.08,.01-.12,.01Z"/>
        </g>
        <g>
          <path class="cls-11" d="M269.53,159.4s-.57,1.15-1.39,2.5c-.81,1.35-1.51,2.43-1.56,2.4-.05-.03,.57-1.15,1.39-2.5,.81-1.35,1.51-2.43,1.56-2.4Z"/>
          <path class="cls-11" d="M266.59,164.8c-.09,0-.18-.02-.26-.07-.11-.07-.2-.18-.23-.31-.05-.21-.08-.33,1.45-2.88,1.69-2.81,1.76-2.85,2.24-2.57,0,0,0,0,0,0,.47,.29,.46,.38-1.22,3.18-1.53,2.54-1.65,2.57-1.86,2.63-.04,0-.08,.01-.12,.01Z"/>
        </g>
        <g>
          <path class="cls-11" d="M274.14,159.4s-.57,1.15-1.39,2.5c-.81,1.35-1.51,2.43-1.56,2.4-.05-.03,.57-1.15,1.39-2.5,.81-1.35,1.51-2.43,1.56-2.4Z"/>
          <path class="cls-11" d="M271.2,164.8c-.09,0-.18-.02-.26-.07-.11-.07-.2-.18-.23-.31-.05-.21-.08-.33,1.45-2.88,1.68-2.8,1.76-2.85,2.24-2.57,0,0,0,0,0,0,.47,.29,.47,.38-1.22,3.18-1.53,2.54-1.65,2.57-1.86,2.63-.04,0-.08,.01-.12,.01Z"/>
        </g>
        <g>
          <path class="cls-11" d="M278.96,159.51s-.57,1.15-1.39,2.5c-.81,1.35-1.51,2.43-1.56,2.4s.57-1.15,1.39-2.5c.81-1.35,1.51-2.43,1.56-2.4Z"/>
          <path class="cls-11" d="M276.05,164.94c-.09,0-.18-.05-.29-.11-.48-.29-.48-.38,1.21-3.19,1.53-2.54,1.65-2.57,1.86-2.62,.13-.03,.27-.01,.38,.06h0s0,0,0,0c0,0,0,0,0,0h0s0,0,0,0c.11,.07,.2,.18,.23,.31,.05,.21,.08,.33-1.45,2.88-1.3,2.16-1.64,2.68-1.95,2.68Z"/>
        </g>
      </g>
      <circle class="cls-9" cx="199.79" cy="364.19" r="4.24"/>
      <circle class="cls-6" cx="213.95" cy="364.19" r="4.24"/>
      <circle class="cls-6" cx="228.12" cy="364.19" r="4.24"/>
      <circle class="cls-6" cx="242.29" cy="364.19" r="4.24"/>
      <rect class="cls-10" x="139.38" y="385.27" width="34.15" height="34.15" rx="9.07" ry="9.07"/>
      <path class="cls-6" d="M191.57,384.96h14.92c5.31,0,9.61,4.31,9.61,9.61v14.92c0,5.31-4.31,9.61-9.61,9.61h-14.92c-5.31,0-9.61-4.31-9.61-9.61v-14.92c0-5.31,4.31-9.61,9.61-9.61Z"/>
      <rect class="cls-5" x="224.52" y="384.64" width="34.15" height="34.15" rx="10.16" ry="10.16"/>
      <rect class="cls-11" x="267.09" y="385.27" width="34.15" height="34.15" rx="10.28" ry="10.28"/>
      <rect class="cls-5" x="139.38" y="311.34" width="34.15" height="34.15" rx="8.99" ry="8.99"/>
      <rect class="cls-11" x="181.95" y="311.02" width="34.15" height="34.15" rx="10.54" ry="10.54"/>
      <rect class="cls-6" x="224.52" y="310.71" width="34.15" height="34.15" rx="9.33" ry="9.33"/>
      <rect class="cls-10" x="267.09" y="310.39" width="34.15" height="34.15" rx="10.2" ry="10.2"/>
      <path class="cls-1" d="M152.79,322.33c.55-.33,1.13-.58,1.72-.75l.36-1.71,2.88-.05,.41,1.69c.6,.15,1.19,.38,1.75,.69l1.46-.95,2.07,2-.9,1.49c.33,.55,.58,1.13,.75,1.72l1.71,.36,.05,2.88-1.69,.41c-.15,.6-.38,1.19-.69,1.75l.95,1.46-2,2.07-1.49-.9c-.55,.33-1.13,.58-1.72,.75l-.36,1.71-2.88,.05-.41-1.69c-.6-.15-1.19-.38-1.75-.69l-1.46,.96-2.07-2,.9-1.49c-.33-.55-.58-1.13-.75-1.72l-1.71-.36-.05-2.88,1.69-.42c.15-.6,.38-1.19,.69-1.75l-.95-1.46,2-2.07,1.49,.9h0Zm.97,3.47c-1.44,1.49-1.4,3.87,.09,5.31,1.49,1.44,3.87,1.4,5.31-.09,1.44-1.49,1.4-3.87-.09-5.31-1.49-1.44-3.87-1.4-5.31,.09Z"/>
      <g>
        <path class="cls-1" d="M233.63,410l1.24-4.64c-.7-1.27-1.08-2.7-1.08-4.14,0-4.73,3.85-8.57,8.57-8.57s8.57,3.85,8.57,8.57-3.85,8.57-8.57,8.57c-1.42,0-2.82-.36-4.07-1.04l-4.67,1.25Zm4.9-2.99l.29,.18c1.08,.64,2.31,.98,3.55,.98,3.83,0,6.95-3.12,6.95-6.95s-3.12-6.95-6.95-6.95-6.95,3.12-6.95,6.95c0,1.27,.35,2.51,1.02,3.6l.18,.3-.69,2.59,2.61-.7Z"/>
        <path class="cls-2" d="M245.46,402.46c-.35-.21-.81-.45-1.23-.28-.32,.13-.52,.63-.73,.88-.11,.13-.23,.15-.4,.09-1.2-.48-2.11-1.28-2.77-2.38-.11-.17-.09-.31,.04-.46,.2-.23,.45-.5,.5-.82,.05-.32-.09-.69-.23-.97-.17-.36-.35-.87-.72-1.08-.33-.19-.77-.08-1.06,.16-.51,.42-.76,1.07-.75,1.71,0,.18,.02,.37,.07,.54,.1,.43,.3,.82,.52,1.2,.17,.28,.35,.56,.54,.83,.64,.87,1.44,1.63,2.36,2.19,.46,.28,.96,.53,1.47,.7,.58,.19,1.09,.39,1.71,.27,.65-.12,1.29-.53,1.55-1.16,.08-.19,.11-.39,.07-.59-.09-.41-.64-.65-.97-.84Z"/>
      </g>
      <path class="cls-2" d="M162.49,404.4c-.67-.4-1.54-.85-2.33-.53-.61,.25-.99,1.2-1.38,1.68-.2,.25-.44,.29-.75,.16-2.27-.91-4.02-2.42-5.27-4.51-.21-.33-.17-.58,.08-.88,.38-.45,.86-.95,.96-1.55,.1-.6-.18-1.3-.43-1.84-.32-.68-.67-1.66-1.36-2.05-.63-.36-1.46-.16-2.02,.3-.97,.79-1.44,2.03-1.42,3.25,0,.35,.05,.7,.13,1.03,.2,.81,.57,1.56,.99,2.28,.32,.54,.66,1.07,1.03,1.57,1.22,1.65,2.73,3.09,4.48,4.16,.88,.54,1.82,1.01,2.79,1.33,1.09,.36,2.07,.74,3.25,.51,1.24-.24,2.46-1,2.95-2.19,.15-.35,.22-.75,.14-1.12-.17-.77-1.21-1.23-1.84-1.6Z"/>
      <g>
        <path class="cls-1" d="M289.51,396.88c-.55,0-1,.45-1,1s.45,1,1,1,1-.45,1-1-.45-1-1-1Z"/>
        <path class="cls-1" d="M285.07,397.87c-2.31,0-4.19,1.88-4.19,4.19s1.88,4.19,4.19,4.19,4.19-1.88,4.19-4.19-1.88-4.19-4.19-4.19Zm0,6.88c-1.48,0-2.68-1.2-2.68-2.68s1.2-2.68,2.68-2.68,2.68,1.2,2.68,2.68-1.2,2.68-2.68,2.68Z"/>
        <path class="cls-1" d="M288.4,410.86h-6.79c-2.82,0-5.11-2.29-5.11-5.11v-6.79c0-2.82,2.29-5.11,5.11-5.11h6.79c2.82,0,5.11,2.29,5.11,5.11v6.79c0,2.82-2.29,5.11-5.11,5.11Zm-6.79-15.42c-1.94,0-3.51,1.57-3.51,3.51v6.79c0,1.94,1.57,3.51,3.51,3.51h6.79c1.94,0,3.51-1.57,3.51-3.51v-6.79c0-1.94-1.58-3.51-3.51-3.51h-6.79Z"/>
      </g>
      <path class="cls-1" d="M191.47,410.35c-.2,0-.39-.08-.54-.22-.3-.3-.3-.78,0-1.07l4.06-4.06c-2.19-2.73-1.98-6.77,.51-9.25,1.31-1.31,3.05-2.03,4.91-2.03s3.6,.72,4.91,2.03c2.7,2.71,2.7,7.11,0,9.82-1.31,1.31-3.05,2.03-4.91,2.03-1.6,0-3.1-.53-4.34-1.53l-4.06,4.06c-.14,.14-.33,.22-.54,.22Zm8.93-15.12c-1.45,0-2.81,.56-3.84,1.59-1.02,1.02-1.59,2.38-1.59,3.83s.56,2.81,1.59,3.83c1.02,1.02,2.39,1.59,3.84,1.59s2.81-.56,3.83-1.59c1.02-1.02,1.59-2.38,1.59-3.83s-.56-2.81-1.59-3.83c-1.02-1.02-2.39-1.59-3.83-1.59Z"/>
      <path class="cls-11" d="M222.61,168.07c0,.14-16.02,.26-35.78,.26s-35.78-.12-35.78-.26,16.02-.26,35.78-.26,35.78,.12,35.78,.26Z"/>
      <path class="cls-1" d="M200.51,327.92c1.46-.61,2.49-2.11,2.5-3.88,0-2.32-1.74-4.2-3.92-4.21-2.17-.01-3.94,1.86-3.95,4.18,0,1.79,1.04,3.3,2.51,3.92-6.05,.91-5.78,7.49-5.78,7.49l14.31,.07s.33-6.65-5.67-7.56Z"/>
      <path class="cls-1" d="M252.8,333.27c.76-1.77,.3-3.63-.95-5.1-1.25-1.47-3.36-2.16-5.23-1.7-.33-1.87-1.63-3.53-3.36-4.31-1.73-.78-3.84-.64-5.46,.35-1.62,.99-2.69,2.81-2.78,4.71-1.28,.22-2.45,1.04-3.09,2.17s-.73,2.56-.25,3.77l21.12,.1Z"/>
      <g>
        <path class="cls-1" d="M287.11,333.37c0,.77-.63,1.39-1.4,1.39-.77,0-1.39-.63-1.39-1.4s.63-1.39,1.4-1.39c.77,0,1.39,.63,1.39,1.4Z"/>
        <path class="cls-1" d="M282.93,331.58c1.53-1.61,4.01-1.65,5.58-.07,.71,.72,1.82-.39,1.11-1.1-2.15-2.17-5.68-2.16-7.8,.06-.69,.73,.41,1.84,1.1,1.11h0Z"/>
        <path class="cls-1" d="M278.21,325.1c2.12-1.83,4.64-2.98,7.47-2.99,2.8,0,5.57,.99,7.63,2.92,.73,.69,1.85-.41,1.11-1.1-2.35-2.21-5.51-3.39-8.73-3.38-3.26,0-6.15,1.34-8.58,3.44-.76,.66,.34,1.77,1.1,1.11h0Z"/>
        <path class="cls-1" d="M280.07,328.7c1.42-1.53,3.41-2.5,5.51-2.54,2.16-.05,4.24,.84,5.75,2.38,.7,.72,1.82-.38,1.11-1.1-1.78-1.83-4.29-2.9-6.85-2.85-2.5,.06-4.92,1.16-6.62,3-.68,.74,.42,1.85,1.1,1.11h0Z"/>
      </g>
    </g>
  </g>
  <g id="Character">
    <g>
      <g>
        <g>
          <path class="cls-10" d="M81.79,420.9l-.37,20.84s21.06,7.37,21.37,11.23l-40.43,.74-.76-32.49,20.19-.31Z"/>
          <path class="cls-6" d="M68.89,440.22c-.78,.23-1.3,1.12-1.11,1.91,.2,.79,1.1,1.33,1.88,1.11,.78-.21,1.44-1.26,1.16-2.02-.28-.76-1.37-1.34-2.08-.94"/>
          <path class="cls-11" d="M62.36,453.71l.05-3.28,38.75,.52s1.81,.75,1.63,2.02l-40.43,.74Z"/>
          <path class="cls-11" d="M82.07,441.53c0,.2-.99,.31-1.95,.96-.98,.63-1.46,1.49-1.65,1.42-.18-.03,.09-1.22,1.27-1.99,1.17-.78,2.37-.57,2.33-.38Z"/>
          <path class="cls-11" d="M86.35,443.2c.05,.19-.8,.54-1.46,1.39-.68,.83-.83,1.73-1.03,1.73-.18,.03-.34-1.12,.49-2.16,.83-1.05,1.99-1.15,1.99-.96Z"/>
          <path class="cls-11" d="M88.85,448.23c-.18,.05-.47-.94,.02-2.03,.48-1.09,1.4-1.54,1.49-1.37,.11,.16-.47,.75-.86,1.65-.41,.89-.45,1.73-.64,1.75Z"/>
          <path class="cls-11" d="M81.63,436.77c-.08,.18-.99-.07-2.1,.02-1.12,.07-1.98,.46-2.08,.3-.12-.14,.72-.89,2.03-.98,1.31-.1,2.25,.51,2.16,.66Z"/>
        </g>
        <g>
          <path class="cls-10" d="M58.28,409.79l-14.46,15.01s10.4,19.74,7.99,22.78l-30.1-27,21.58-24.31,15,13.53Z"/>
          <path class="cls-6" d="M35.68,415.14c-.73-.36-1.72-.07-2.11,.64-.39,.71-.1,1.72,.62,2.1,.72,.38,1.92,.06,2.23-.69,.31-.75-.09-1.92-.88-2.11"/>
          <path class="cls-11" d="M21.71,420.57l2.27-2.36,28.01,26.77s.82,1.79-.18,2.59l-30.1-27Z"/>
          <path class="cls-11" d="M44.45,425.08c-.14,.14-.93-.45-2.08-.63-1.14-.21-2.09,.1-2.17-.08-.11-.15,.9-.83,2.28-.59,1.39,.23,2.12,1.2,1.97,1.3Z"/>
          <path class="cls-11" d="M46.43,429.22c-.09,.17-.95-.15-2.01,.03-1.06,.14-1.79,.7-1.93,.56-.16-.1,.51-1.05,1.83-1.24,1.32-.2,2.24,.51,2.11,.65Z"/>
          <path class="cls-11" d="M44.84,434.6c-.16-.09,.29-1.01,1.39-1.47,1.1-.47,2.07-.17,2.03,0-.03,.2-.86,.23-1.76,.62-.91,.38-1.5,.96-1.66,.84Z"/>
          <path class="cls-11" d="M47.36,421.29c-.18,.08-.67-.73-1.56-1.42-.87-.71-1.76-1.01-1.73-1.2,.01-.18,1.13-.16,2.16,.67,1.03,.82,1.3,1.9,1.13,1.95Z"/>
        </g>
        <g>
          <path class="cls-8" d="M138.01,195.04l-17.78,11.74,.26,4.65,4.64,9.78s2.14,2.03,8.44-4.34c6.3-6.38,14.26-19.05,14.26-19.05l-9.82-2.79Z"/>
          <g>
            <path class="cls-11" d="M167.94,170.58c-.2-.47-.64-.79-1.16-.86l-8.71-1.17c-.77-.09-1.54,.14-2.12,.64l-24.94,21.42,1.13,1.1,9.35,2.25,26.61-22.99-.17-.39Z"/>
            <path class="cls-1" d="M161.03,172.35c.13,.2,.47,.22,.74,.05,.28-.18,.39-.48,.26-.69s-.47-.22-.74-.05c-.28,.18-.39,.48-.26,.68Z"/>
            <path class="cls-5" d="M168.11,170.97s-.61-.01-1.71-.13c-1.18-.14-2.75-.32-4.64-.54-.99-.12-2.06-.26-3.2-.4-.54-.1-1.09,.04-1.51,.39-.46,.4-.94,.81-1.42,1.23-1.97,1.69-4.12,3.55-6.37,5.49-4.53,3.88-8.66,7.38-11.66,9.89-1.46,1.2-2.66,2.2-3.57,2.95-.85,.69-1.33,1.06-1.36,1.03-.02-.03,.41-.45,1.22-1.18,.88-.78,2.05-1.82,3.46-3.08,2.94-2.58,7.02-6.12,11.56-10,2.27-1.93,4.43-3.77,6.4-5.46,.49-.42,.98-.83,1.45-1.22,.52-.44,1.26-.59,1.86-.47,1.14,.17,2.21,.32,3.19,.46,1.88,.29,3.44,.53,4.62,.71,1.09,.18,1.69,.29,1.68,.33Z"/>
          </g>
          <g>
            <path class="cls-8" d="M159.06,175.44s-.79-.38-1.89,1.77c-1.1,2.16-4.41,8.3-4.41,8.3l-3.73-3.56-5.68-.82s-1.51,.77-.8,1.61c.71,.85,4,2.44,4,2.44l1.52,4.39-6.34-5.59s-2.62-.05-2.33,1.65c.3,1.69,3.93,7.75,3.93,7.75l-3.59-1.31-3.62-3.88s-1.36-.32-1.18,.97c.18,1.28,3.56,6.68,3.56,6.68l4.76,4.22s3.07,.61,3.61-.19c.54-.8,.96-2.04,.96-2.04,0,0,1.72,.02,2.23-.67,.52-.69,.67-1.97,.67-1.97,0,0,2.38,1.14,3.08-.17,.7-1.31,1.21-4.13,1.26-5.28,.05-1.15,4.17-10.76,4.15-11.09-.02-.33,1.58-3.43-.17-3.21Z"/>
            <path class="cls-10" d="M147.06,199.93c0,.07-.6,.15-1.56,.04-.96-.11-2.28-.46-3.58-1.18-1.3-.73-2.3-1.66-2.9-2.42-.6-.76-.85-1.31-.79-1.35,.14-.11,1.46,1.89,3.97,3.25,2.48,1.41,4.88,1.47,4.86,1.65Z"/>
            <path class="cls-10" d="M146.31,197.59c-.12,.1-.95-.68-1.76-1.83-.8-1.15-1.26-2.2-1.12-2.28,.14-.08,.81,.82,1.6,1.94,.78,1.12,1.4,2.06,1.28,2.17Z"/>
            <path class="cls-10" d="M150.54,193.65c-.12,.1-.95-.67-1.67-1.85-.73-1.18-1.04-2.26-.89-2.32,.15-.06,.69,.88,1.39,2.02,.7,1.14,1.3,2.05,1.17,2.15Z"/>
            <path class="cls-10" d="M154.66,190.68c-.17,.02-.43-1.17-.99-2.54-.55-1.38-1.18-2.42-1.04-2.52,.12-.1,1,.84,1.59,2.3,.59,1.45,.6,2.74,.44,2.76Z"/>
          </g>
        </g>
        <g>
          <g>
            <path class="cls-8" d="M111.69,171.5c-6.75-.23-20.97-19.83-20.89-26.58l.53-40.67c-.21-10.93,5.98-20.16,16.91-20.06l1.01,.07c10.16,.68,18.1,9.05,18.23,19.24,.13,9.47,.14,19.95-.26,25-.83,10.46-11.41,11.38-11.41,11.38-.02,0-.09,2.43-.17,5.51-.17,6.91,2.53,26.33-4.38,26.09l.41,.04Z"/>
            <path class="cls-10" d="M115.82,139.86s-6.62-.06-13.36-4.95c0,0,2.75,8.09,13.26,7.85l.1-2.9Z"/>
            <path class="cls-11" d="M123.95,112.07c-.02,.79-.72,1.42-1.54,1.41-.83-.01-1.48-.66-1.45-1.45,.02-.79,.72-1.42,1.54-1.41,.83,.01,1.48,.66,1.45,1.45Z"/>
            <path class="cls-11" d="M124.95,107.96c-.2,.18-1.27-.73-2.88-.84-1.61-.13-2.84,.62-3,.41-.08-.09,.13-.43,.67-.77,.53-.34,1.42-.64,2.42-.57,1,.07,1.82,.5,2.28,.91,.47,.41,.61,.78,.52,.86Z"/>
            <path class="cls-11" d="M109.23,111.74c-.03,.79-.72,1.42-1.54,1.41-.83-.01-1.48-.66-1.45-1.45,.03-.79,.72-1.42,1.54-1.41,.83,.01,1.48,.66,1.45,1.45Z"/>
            <path class="cls-11" d="M109.16,107.27c-.2,.18-1.28-.73-2.88-.84-1.61-.13-2.84,.62-3,.41-.08-.09,.13-.43,.67-.77,.53-.34,1.42-.64,2.42-.57,1,.07,1.82,.5,2.28,.91,.47,.41,.61,.78,.52,.86Z"/>
            <path class="cls-11" d="M114.1,120.02c0-.09,1.01-.2,2.64-.3,.41-.01,.81-.07,.9-.35,.12-.29-.03-.74-.19-1.24-.32-1.02-.65-2.09-1-3.21-1.39-4.57-2.36-8.31-2.18-8.36,.18-.05,1.46,3.6,2.85,8.17,.33,1.13,.65,2.2,.95,3.22,.12,.48,.36,1.02,.1,1.63-.13,.3-.45,.5-.72,.56-.27,.06-.5,.05-.7,.05-1.64-.02-2.65-.08-2.65-.17Z"/>
            <path class="cls-11" d="M109.42,101.25c-.25,.4-1.78-.14-3.68-.31-1.89-.21-3.5,.02-3.66-.42-.07-.21,.27-.56,.97-.84,.69-.29,1.72-.48,2.86-.37,1.14,.11,2.12,.51,2.73,.92,.62,.42,.89,.83,.78,1.02Z"/>
            <path class="cls-11" d="M124.82,104.17c-.35,.35-1.64-.1-3.22-.2-1.57-.15-2.92,.09-3.21-.3-.12-.19,.1-.55,.71-.86,.59-.32,1.57-.55,2.65-.46,1.08,.09,2,.47,2.53,.87,.54,.4,.7,.79,.54,.96Z"/>
            <path class="cls-8" d="M91.66,112.05c-.17-.09-7.05-2.61-7.3,4.56-.25,7.17,7,5.95,7.02,5.74,.02-.21,.28-10.3,.28-10.3Z"/>
            <path class="cls-10" d="M89.28,119.56s-.13,.08-.34,.17c-.21,.09-.57,.14-.93-.01-.75-.3-1.34-1.53-1.33-2.82,0-.65,.16-1.27,.41-1.78,.24-.52,.59-.87,.97-.93,.38-.07,.64,.16,.73,.37,.09,.2,.04,.35,.08,.36,.02,.02,.16-.11,.11-.41-.02-.14-.1-.32-.27-.46-.17-.15-.42-.23-.68-.21-.55,.02-1.07,.51-1.34,1.07-.3,.56-.5,1.25-.5,1.98,0,1.45,.69,2.82,1.71,3.16,.5,.15,.93,.01,1.15-.15,.23-.17,.27-.33,.25-.34Z"/>
          </g>
          <path class="cls-11" d="M109.65,120.77c-.1,.01-.17,.4-.04,1.02,.11,.62,.51,1.48,1.24,2.14,.72,.67,1.5,1.04,2.06,1.27,.57,.22,.94,.29,.99,.2,.05-.09-.25-.34-.74-.67-.49-.34-1.17-.77-1.8-1.35-1.28-1.14-1.48-2.66-1.71-2.61Z"/>
        </g>
        <g>
          <path class="cls-11" d="M57.59,245.45l-4.64,28.86,3.39,23.85,.14,5.18,3.43,25.44s-1.28,23.98-1.91,29.18c-.63,5.21,1.62,78.49,1.62,78.49l23.32-1.03s8.82-108.73,8.78-109.93c-.03-1.2,12.13-81.35,12.13-81.35l-46.26,1.29Z"/>
          <path class="cls-11" d="M116.54,249.91s-.47,97.67-2.64,103.31c-2.18,5.65-63.45,66.36-63.45,66.36l-19.4-15.12,49.54-66.67,3.05-93.06,32.9,5.18Z"/>
          <path class="cls-5" d="M100.28,275.44c.13,.02-2.77,24.68-6.47,55.08-3.71,30.41-6.82,55.04-6.95,55.03-.13-.02,2.77-24.67,6.47-55.08,3.71-30.4,6.82-55.04,6.95-55.02Z"/>
          <path class="cls-5" d="M59.92,328.79s0,.08,0,.24c-.01,.19-.02,.42-.04,.71-.05,.66-.11,1.56-.19,2.71-.19,2.35-.41,5.75-.67,9.96-.47,8.42-.87,20.06-.76,32.92,.08,12.87,.48,24.51,.7,32.94,.1,4.19,.18,7.59,.23,9.98,.01,1.15,.02,2.06,.03,2.72,0,.29,0,.52,0,.71,0,.16,0,.24-.02,.24s-.02-.08-.03-.24c-.01-.19-.03-.42-.04-.71-.03-.66-.07-1.56-.12-2.71-.09-2.4-.22-5.8-.39-9.98-.31-8.43-.76-20.07-.84-32.95-.1-12.87,.34-24.53,.91-32.95,.3-4.21,.57-7.61,.82-9.96,.12-1.14,.21-2.05,.28-2.7,.03-.28,.06-.52,.09-.7,.02-.16,.04-.24,.05-.24Z"/>
        </g>
        <path class="cls-5" d="M83.49,273.38c.06,.12-4.19,2.36-9.48,5-5.3,2.64-9.64,4.68-9.7,4.57-.06-.12,4.19-2.36,9.48-5,5.3-2.64,9.64-4.68,9.7-4.56Z"/>
        <g>
          <path class="cls-10" d="M130.46,197.82l11.71,10.53s-18.33,20.02-23.99,24.45c-5.66,4.43,1.81-30.21,1.81-30.21l10.47-4.76Z"/>
          <path class="cls-10" d="M90.7,135.21l-4.87,6.75-18.95,7.01-8.6,64.45-5.42,57.54s7.58-10.82,13.39-10.97c5.81-.15,35.19,8.06,37.18,9.56l3.88-13.03,3.14,15.08s5.52,1.24,8.4-7.01l-1.22-28.6s3.88-51.56,3.67-59.33c-.22-7.77-5.48-29.37-5.48-29.37l-1.96,6.37-17.06-14.55-6.09-3.9Z"/>
          <path class="cls-10" d="M72.35,147s-12.45-.04-16.48,23.02c-4.03,23.07-9.82,47.81-6.84,57.07,2.98,9.25,14.68,35.91,14.68,35.91l16.04-5.78-6.58-41.87,7.62-40.97s.94-25.7-8.44-27.38Z"/>
          <path class="cls-8" d="M86.67,266.47s-7.64-8.99-8.22-8.78l-12.7,4.58s-.47,4.5,.09,9.81c.49,4.69,1.3,9.72,1.3,9.72l16.71-8.91s.7,3.48,1.63,5.42c.93,1.94,4.15-.12,4.15-.12l-2.95-11.73Z"/>
          <path class="cls-11" d="M80.8,174.38s-.03,.25-.11,.73c-.09,.5-.21,1.21-.37,2.14-.34,1.9-.84,4.66-1.47,8.2-1.3,7.12-3.18,17.36-5.48,29.93v-.06c1.89,11.92,4.15,26.2,6.63,41.86l.03,.19-.18,.07c-5.13,1.85-10.52,3.8-16.04,5.79l-.21,.08-.09-.21c-1.63-3.78-3.35-7.77-5.1-11.82-3.06-7.25-6.04-14.34-8.61-21.31-.33-.87-.61-1.75-.91-2.62-.14-.44-.23-.9-.34-1.35-.12-.45-.22-.9-.25-1.36-.11-.91-.24-1.82-.24-2.73-.04-.91-.07-1.81-.03-2.7,.08-3.58,.43-7.07,.88-10.46,.88-6.77,2.08-13.15,3.17-19.11,1.11-5.96,2.15-11.51,3.09-16.58,.43-2.54,.94-4.95,1.44-7.22,.32-1.12,.64-2.21,.94-3.26,.36-1.04,.75-2.03,1.11-2.99,1.58-3.8,3.61-6.79,5.75-8.76,2.12-1.99,4.21-2.97,5.66-3.42,.73-.23,1.3-.32,1.69-.37,.18-.01,.33-.02,.44-.03,.1,0,.15,0,.15,0,0,0-.2,.02-.58,.07-.38,.07-.95,.17-1.67,.41-1.43,.47-3.48,1.47-5.56,3.46-2.1,1.96-4.09,4.95-5.63,8.73-.35,.96-.74,1.94-1.09,2.97-.3,1.05-.6,2.13-.92,3.25-.49,2.26-.98,4.66-1.4,7.21-.93,5.07-1.95,10.63-3.04,16.59-1.07,5.97-2.26,12.34-3.12,19.1-.45,3.37-.79,6.85-.87,10.41-.04,.89-.01,1.78,.03,2.68,0,.9,.13,1.79,.24,2.68,.03,.45,.14,.89,.25,1.32,.11,.44,.19,.88,.33,1.31,.3,.87,.58,1.74,.91,2.61,2.57,6.95,5.55,14.04,8.61,21.28,1.74,4.05,3.46,8.04,5.09,11.82l-.3-.13c5.52-1.99,10.91-3.93,16.04-5.78l-.15,.25c-2.44-15.66-4.67-29.95-6.53-41.87v-.03s0-.03,0-.03c2.37-12.55,4.3-22.78,5.64-29.9,.68-3.53,1.21-6.29,1.57-8.18,.18-.92,.32-1.63,.42-2.13,.1-.48,.16-.72,.16-.72Z"/>
          <path class="cls-11" d="M113.86,153.66s-.11,.31-.37,.86c-.3,.61-.69,1.38-1.16,2.33-1.06,2.06-2.5,4.84-4.19,8.1l-.16,.32-.21-.29c-1.49-2.04-3.2-4.26-5.08-6.51-3.69-4.44-7.35-8.18-10.08-10.79-1.36-1.31-2.5-2.34-3.27-3.06-.78-.71-1.21-1.12-1.19-1.14,.02-.03,.49,.33,1.31,1,.82,.68,1.99,1.67,3.38,2.95,2.8,2.55,6.52,6.27,10.22,10.73,1.89,2.27,3.6,4.5,5.07,6.56l-.37,.03c1.75-3.23,3.24-5.98,4.34-8.02,.52-.92,.94-1.68,1.27-2.27,.3-.52,.48-.8,.5-.79Z"/>
          <path class="cls-11" d="M118.06,157.1c.16-.06,.97,2.87,.39,6.77l-.1,.69-.34-.63c-.18-.33-.36-.69-.53-1.06-.9-2.03-1.39-3.96-1.89-5.29-.48-1.34-.87-2.14-.81-2.17,.05-.03,.56,.71,1.13,2.05,.59,1.32,1.13,3.24,2.01,5.22,.16,.36,.34,.7,.51,1.03l-.44,.06c.34-1.81,.25-3.54,.22-4.73-.04-1.21-.2-1.91-.15-1.93Z"/>
          <path class="cls-11" d="M114.67,156.99s.02,.09,.02,.26c0,.2,0,.45,.01,.76,0,.67,0,1.65-.01,2.91-.04,2.53-.14,6.18-.39,10.69-.48,9.03-1.58,21.46-2.71,35.19-1.17,13.72-2.24,26.14-3.01,35.17-.41,4.47-.74,8.1-.97,10.65-.12,1.23-.22,2.2-.29,2.89-.04,.31-.06,.55-.09,.75-.02,.17-.04,.26-.05,.25,0,0,0-.09,0-.26,.01-.2,.02-.45,.04-.76,.05-.7,.11-1.67,.2-2.9,.2-2.56,.47-6.19,.81-10.66,.74-9.03,1.75-21.45,2.87-35.18,1.13-13.73,2.28-26.16,2.85-35.17,.29-4.5,.45-8.15,.54-10.68,.04-1.23,.08-2.21,.1-2.91,.01-.31,.03-.56,.04-.76,.01-.17,.02-.26,.03-.26Z"/>
          <path class="cls-11" d="M121.39,179.4c.13,.01-.58,12.75-1.6,28.46-1.02,15.71-1.95,28.44-2.08,28.43-.13-.01,.58-12.75,1.6-28.46,1.02-15.71,1.95-28.43,2.08-28.42Z"/>
          <path class="cls-11" d="M83.91,163.98c-.09,0-.09-1.15-.54-2.92-.44-1.76-1.46-4.14-3.34-6.19-1.88-2.05-4.17-3.26-5.89-3.86-1.73-.61-2.88-.7-2.86-.79,0-.03,.29-.04,.81,.02,.52,.05,1.26,.18,2.16,.45,1.78,.52,4.18,1.73,6.14,3.85,1.95,2.13,2.95,4.62,3.32,6.44,.19,.92,.26,1.67,.27,2.19,0,.52-.02,.81-.05,.81Z"/>
          <g class="cls-7">
            <path d="M118.37,232.4c3.51-9.47,4.06-19.98,1.76-29.82-.63,10.02-1.16,20.04-1.79,30.05"/>
          </g>
          <g class="cls-7">
            <path d="M80.13,177.95c-4.11,21.35-7.45,41.6-6.98,38.8l6.61,40.47,3.9,5.78c-3.4-27.16-6.2-58-3.53-85.05Z"/>
          </g>
        </g>
      </g>
      <path class="cls-11" d="M134.95,91.27c-.06-1.38-.93-2.67-2.13-3.35,.02-.41,0-.82-.04-1.2-.34-2.41-2.48-4.52-4.91-4.56-.26-1.86-1.61-3.52-3.38-4.15-1.76-.63-3.86-.21-5.25,1.05-1.66-1.69-4.37-2.25-6.57-1.36-.28,.11-.56,.25-.73,.5-.11,.16-.15,.37-.11,.56-.58-1.11-1.73-1.91-2.98-2.04-.43-.04-.85,0-1.27,.1-1.14,.05-2.25,.46-3.05,1.3-2.79-1.22-6.43,.09-7.8,2.82-2.35-.04-4.65,1.51-5.5,3.71-1.51,.02-2.99,.9-3.73,2.22-.74,1.32-.72,3.03,.05,4.34,0,0-5.11,.79-4.12,5.37,.51,2.34,3.61,2.16,3.61,2.16l2.84,14.77c-.07,.07,.78,1.83,1.67,1.53,.89-.3,1.45-1.16,2-1.92,.64-.87,1.37-1.71,1.7-2.73,.33-1.03,.13-2.33-.79-2.89,1.27-.32,2.16-1.53,2.48-2.8,.32-1.27,.19-2.6,.05-3.9-.21-1.92-.41-3.84-.62-5.76,2.61,.12,5.22-1.35,6.48-3.64,1.76,1.57,4.93,1.02,6.06-1.04,.65,2.63,3.65,4.43,6.27,3.76-.39,1.47,2.18,3.03,3.62,3.53s3.34-.41,3.34-.41c0,0,1.5,1.03,2.83,1.25h0s0,0,0,0c.05,0,.1,.02,.15,.02,2.01,.34,4.12-1.36,5.23-3.08,.52,.08,1.05,.08,1.56-.06,1.76-.46,3.08-2.25,3-4.07Z"/>
      <path class="cls-1" d="M76.55,198.69c-.04,.07-1.35-.54-3.5-1.43-2.15-.89-5.18-2-8.6-2.95-3.43-.94-6.59-1.54-8.9-1.88-2.3-.35-3.74-.49-3.74-.57,0-.04,.37-.04,1.02-.01,.65,.02,1.6,.09,2.77,.22,2.33,.25,5.53,.8,8.99,1.75,3.45,.96,6.48,2.14,8.61,3.12,1.07,.49,1.91,.91,2.49,1.23,.57,.31,.88,.5,.87,.54Z"/>
      <path class="cls-1" d="M67.41,261.25s-.05-.09-.13-.26c-.08-.2-.19-.46-.32-.78-.29-.73-.69-1.74-1.2-3.03-1.02-2.64-2.49-6.46-4.11-11.26-1.61-4.8-3.38-10.58-4.61-17.18-.61-3.3-1.09-6.79-1.27-10.44-.18-3.65-.09-7.44,.31-11.29,.78-7.71,2.47-14.9,4-21.41,1.55-6.51,3.07-12.34,4.42-17.22,1.35-4.88,2.51-8.8,3.34-11.51,.42-1.32,.74-2.36,.98-3.11,.11-.33,.2-.59,.27-.8,.06-.18,.1-.27,.11-.27,0,0-.01,.1-.06,.28-.06,.21-.13,.48-.22,.82-.21,.75-.51,1.8-.89,3.13-.77,2.72-1.88,6.66-3.18,11.55-1.3,4.89-2.79,10.72-4.31,17.23-1.5,6.51-3.17,13.69-3.95,21.35-.4,3.83-.49,7.59-.32,11.21,.18,3.62,.64,7.1,1.24,10.38,1.19,6.57,2.92,12.35,4.49,17.15,1.57,4.8,2.99,8.64,3.95,11.31,.47,1.3,.84,2.33,1.1,3.06,.11,.33,.2,.59,.28,.8,.06,.18,.09,.28,.08,.28Z"/>
      <path class="cls-1" d="M74.93,231.18s-.27,.18-.79,.4c-.52,.23-1.29,.53-2.26,.87-1.93,.68-4.64,1.49-7.71,2.1-3.07,.61-5.88,.9-7.93,1-1.02,.05-1.85,.07-2.42,.05-.57-.01-.89-.03-.89-.07,0-.08,1.26-.16,3.28-.35,2.02-.19,4.81-.54,7.85-1.14,3.04-.6,5.75-1.34,7.69-1.94,1.95-.59,3.14-1,3.17-.93Z"/>
      <path class="cls-1" d="M83.43,167.78c-.08,.06-.89-1.2-2.55-2.92-.82-.86-1.89-1.8-3.15-2.75-1.28-.92-2.75-1.83-4.39-2.6-1.65-.75-3.3-1.29-4.83-1.67-1.53-.35-2.94-.56-4.13-.62-2.38-.15-3.86,.05-3.87-.05,0-.04,.36-.1,1.03-.19,.33-.05,.75-.1,1.23-.11,.48-.01,1.03-.06,1.63-.02,1.21,.02,2.65,.19,4.22,.52,1.56,.36,3.25,.9,4.94,1.66,1.68,.79,3.18,1.73,4.46,2.69,1.27,.98,2.33,1.97,3.13,2.88,.42,.43,.74,.88,1.04,1.26,.3,.37,.54,.72,.71,1,.37,.57,.55,.89,.52,.91Z"/>
      <path class="cls-1" d="M92,264.8s-.02-.11-.02-.32c0-.24,0-.55,0-.95,0-.87,.01-2.08,.02-3.64,.04-3.19,.11-7.75,.18-13.37,.21-11.32,.49-26.9,.8-44.11,.16-8.61,.28-16.82,0-24.27-.13-3.73-.37-7.26-.69-10.56-.32-3.3-.75-6.36-1.49-9.07-.73-2.71-1.76-5.06-2.97-6.93-1.21-1.88-2.56-3.27-3.78-4.25-1.23-.98-2.31-1.56-3.06-1.9-.75-.35-1.17-.48-1.16-.5,0,0,.43,.09,1.2,.41,.77,.31,1.88,.87,3.15,1.84,1.25,.97,2.65,2.37,3.89,4.25,1.26,1.88,2.33,4.25,3.08,6.99,.77,2.73,1.23,5.82,1.57,9.12,.34,3.31,.6,6.85,.74,10.59,.3,7.47,.2,15.69,.04,24.3-.37,17.21-.71,32.79-.95,44.1-.15,5.62-.27,10.18-.35,13.37-.05,1.55-.09,2.77-.12,3.63-.02,.39-.03,.7-.04,.95-.01,.21-.02,.32-.03,.32Z"/>
      <path class="cls-1" d="M108.14,243.49s-.46-.01-1.26-.13c-.81-.11-1.97-.3-3.41-.55-2.88-.49-6.84-1.23-11.2-2.13-4.36-.9-8.29-1.8-11.13-2.49-1.42-.34-2.56-.64-3.35-.85-.79-.21-1.22-.35-1.21-.39s.46,.03,1.26,.19c.9,.18,2.04,.41,3.39,.69,2.96,.62,6.85,1.43,11.15,2.33,4.3,.88,8.2,1.67,11.16,2.28,1.35,.28,2.48,.52,3.38,.71,.8,.18,1.23,.29,1.23,.33Z"/>
      <path class="cls-1" d="M110.85,207.62c-.01,.14-8.04-.34-17.93-1.08-9.89-.74-17.9-1.46-17.89-1.6,.01-.14,8.04,.34,17.93,1.08,9.89,.74,17.9,1.46,17.89,1.6Z"/>
      <path class="cls-1" d="M113.47,176.06s-.46,.09-1.29,.16c-.83,.07-2.04,.15-3.53,.23-2.98,.15-7.11,.27-11.67,.24-4.56-.03-8.68-.2-11.67-.38-1.49-.09-2.7-.19-3.53-.27-.83-.08-1.29-.14-1.29-.18s.46-.04,1.3-.02c.94,.03,2.12,.06,3.53,.1,2.98,.09,7.1,.2,11.65,.23,4.55,.03,8.67-.03,11.65-.09,1.41-.02,2.59-.04,3.53-.06,.83,0,1.3,0,1.3,.04Z"/>
      <path class="cls-1" d="M92.18,146.59c0,.08-.91,.24-2.39,.56-1.48,.31-3.5,.8-5.69,1.5-2.19,.71-4.12,1.49-5.5,2.1-1.38,.61-2.23,1.01-2.26,.94-.03-.06,.75-.58,2.11-1.28,1.35-.7,3.28-1.55,5.5-2.26,2.21-.71,4.28-1.15,5.78-1.37,1.51-.22,2.45-.26,2.45-.19Z"/>
      <path class="cls-1" d="M112.21,157.89s-.35-.26-.92-.79c-.65-.61-1.45-1.37-2.4-2.26-2.02-1.91-4.83-4.53-8.02-7.34-3.19-2.8-6.14-5.26-8.29-7.03-1.01-.83-1.86-1.53-2.55-2.09-.6-.5-.92-.79-.9-.82,.02-.03,.38,.21,1.02,.65,.64,.45,1.55,1.12,2.65,1.96,2.21,1.69,5.21,4.11,8.41,6.93,3.19,2.81,5.97,5.48,7.93,7.46,.98,.99,1.76,1.81,2.28,2.38,.53,.58,.8,.91,.78,.93Z"/>
      <path class="cls-1" d="M105.65,147.09c.11,.1-1.26,1.76-3.04,3.72-1.79,1.96-3.32,3.47-3.43,3.37-.11-.1,1.26-1.76,3.04-3.72,1.79-1.96,3.32-3.47,3.43-3.37Z"/>
      <path class="cls-1" d="M121.37,176.64c-.03,.15-1.66-.02-3.68-.11-2.02-.09-3.66-.06-3.68-.21-.01-.14,1.64-.4,3.7-.31,2.06,.09,3.68,.49,3.66,.63Z"/>
      <path class="cls-1" d="M119.01,210c0,.14-1.68,.22-3.74,.17-2.06-.05-3.73-.2-3.73-.35,0-.14,1.68-.22,3.74-.17,2.06,.05,3.73,.2,3.73,.35Z"/>
      <path class="cls-1" d="M118.35,164.56s.02,.09,.03,.27c0,.21,.01,.47,.02,.8,.01,.74,.03,1.77,.04,3.08,.03,1.34,0,2.97-.02,4.87-.02,1.9-.06,4.06-.14,6.45-.27,9.56-1.08,22.75-2.11,37.3-1.03,14.55-1.91,27.73-2.28,37.28-.11,2.39-.18,4.55-.22,6.44-.06,1.9-.11,3.53-.11,4.87-.02,1.31-.04,2.33-.05,3.08-.01,.33-.02,.59-.03,.8,0,.18-.02,.27-.03,.27s-.02-.09-.03-.27c0-.21-.01-.47-.02-.8-.01-.74-.03-1.77-.05-3.08-.03-1.34,0-2.97,.02-4.87,.01-1.9,.06-4.06,.15-6.45,.28-9.56,1.1-22.75,2.13-37.3,1.03-14.55,1.9-27.73,2.26-37.28,.11-2.39,.18-4.55,.22-6.44,.06-1.9,.1-3.53,.11-4.87,.02-1.31,.04-2.33,.05-3.08,.01-.33,.02-.59,.03-.8,0-.18,.02-.27,.03-.27Z"/>
      <path class="cls-1" d="M117.85,243.35c.03,.14-2.09,.65-4.72,1.13-2.63,.48-4.78,.76-4.81,.62-.03-.14,2.09-.65,4.72-1.13,2.63-.48,4.78-.76,4.81-.62Z"/>
      <path class="cls-1" d="M136.68,203.86c.04,.07-.98,.69-2.62,1.71-1.64,1.02-3.89,2.46-6.31,4.13-2.42,1.68-4.55,3.28-6.08,4.46-1.53,1.18-2.47,1.92-2.52,1.86-.04-.05,.81-.89,2.29-2.14,1.48-1.26,3.58-2.91,6.02-4.6,2.43-1.69,4.72-3.08,6.42-4.02,1.69-.94,2.78-1.45,2.81-1.4Z"/>
      <path class="cls-1" d="M133.49,217.27c-.07,.03-.57-.86-1.39-2.29-.82-1.44-1.96-3.41-3.29-5.54-1.33-2.13-2.61-4.03-3.54-5.39-.93-1.36-1.51-2.21-1.45-2.25,.05-.04,.74,.72,1.75,2.04,1.01,1.31,2.34,3.18,3.68,5.33,1.34,2.15,2.44,4.16,3.17,5.65,.74,1.49,1.12,2.44,1.06,2.47Z"/>
    </g>
  </g>
  <g id="Floor">
    <path class="cls-11" d="M426.3,453.15c0,.14-95.16,.26-212.52,.26s-212.54-.12-212.54-.26,95.14-.26,212.54-.26,212.52,.12,212.52,.26Z"/>
  </g>
</svg>