<?xml version="1.0" encoding="UTF-8"?>
<svg xmlns="http://www.w3.org/2000/svg" viewBox="0 0 710.83 441.89">
  <defs>
    <style>
      .cls-1 {
        fill: #fff;
      }

      .cls-2 {
        fill: #fafafa;
      }

      .cls-3 {
        opacity: .6;
      }

      .cls-4 {
        fill: #f5f5f5;
      }

      .cls-5 {
        fill: #455a64;
      }

      .cls-6 {
        fill: #ffbf9d;
      }

      .cls-7 {
        fill: #e0e0e0;
      }

      .cls-8 {
        fill: #ff9a6c;
      }

      .cls-9 {
        opacity: .4;
      }

      .cls-10 {
        opacity: .3;
      }

      .cls-11 {
        fill: #ebebeb;
      }

      .cls-12 {
        fill: #7393a2;
      }

      .cls-13 {
        fill: #263238;
      }
    </style>
  </defs>
  <g id="Background_Complete" data-name="Background Complete">
    <g>
      <rect class="cls-7" x="10.56" y="216.98" width="70.8" height="73.81"/>
      <g>
        <rect class="cls-4" x="5.77" y="216.98" width="70.8" height="73.81"/>
        <path class="cls-7" d="M76.59,290.81H5.74v-73.85H76.59v73.85Zm-70.8-.04H76.55v-73.76H5.79v73.76Z"/>
      </g>
      <rect class="cls-1" x="15.28" y="226.91" width="51.77" height="53.96"/>
      <path class="cls-7" d="M15.28,281.23s-.45,.61-1.28,1.49c-.83,.87-1.99,2.05-3.29,3.34-1.3,1.28-2.5,2.43-3.38,3.24-.88,.81-1.45,1.29-1.5,1.25-.04-.05,.44-.61,1.27-1.48,.83-.87,1.99-2.06,3.3-3.34,1.31-1.29,2.51-2.43,3.39-3.24,.88-.81,1.45-1.29,1.49-1.24Z"/>
      <path class="cls-7" d="M67.05,281.09s.61,.45,1.49,1.28c.87,.83,2.05,1.99,3.34,3.29,1.28,1.3,2.43,2.5,3.24,3.38,.81,.88,1.29,1.45,1.25,1.5-.05,.04-.61-.44-1.48-1.27-.87-.83-2.06-1.99-3.34-3.3-1.29-1.31-2.43-2.51-3.24-3.39-.81-.88-1.29-1.45-1.24-1.49Z"/>
      <path class="cls-7" d="M66.91,227.05s.45-.61,1.28-1.49c.83-.87,1.99-2.05,3.29-3.34,1.3-1.28,2.5-2.43,3.38-3.24,.88-.81,1.45-1.29,1.5-1.25,.04,.05-.44,.61-1.27,1.48s-1.99,2.06-3.3,3.34c-1.31,1.29-2.51,2.43-3.39,3.24-.88,.81-1.45,1.29-1.49,1.24Z"/>
      <path class="cls-7" d="M15.14,227.18s-.61-.45-1.49-1.28c-.87-.83-2.05-1.99-3.34-3.29-1.28-1.3-2.43-2.5-3.24-3.38-.81-.88-1.29-1.45-1.25-1.5,.04-.04,.61,.44,1.48,1.27,.87,.83,2.06,1.99,3.34,3.3,1.29,1.31,2.43,2.51,3.24,3.39,.81,.88,1.29,1.45,1.24,1.49Z"/>
      <path class="cls-7" d="M66.91,280.87s0-.09-.01-.26c0-.18,0-.43-.01-.75,0-.68-.01-1.65-.02-2.91-.01-2.56-.03-6.28-.05-11-.02-9.45-.06-22.91-.1-39.04l.2,.2c-15.07,0-32.77,.02-51.62,.03h0l.23-.23c-.01,19.81-.02,38.34-.03,53.96l-.2-.2c15.47,.04,28.35,.08,37.38,.1,4.51,.02,8.06,.04,10.5,.05,1.2,.01,2.13,.02,2.78,.02,.31,0,.54,0,.72,.01,.16,0,.25,0,.25,.01,0,0-.07,0-.23,.01-.17,0-.4,0-.7,.01-.64,0-1.55,.01-2.74,.02-2.43,.01-5.96,.03-10.45,.05-9.06,.02-21.98,.06-37.51,.1h-.2s0-.2,0-.2c0-15.63-.02-34.16-.03-53.96v-.23s.23,0,.23,0h0c18.85,.01,36.55,.02,51.62,.03h.2v.2c-.04,16.17-.08,29.68-.1,39.16-.02,4.7-.04,8.41-.05,10.95,0,1.25-.02,2.21-.02,2.87,0,.31,0,.55-.01,.73,0,.16,0,.24-.01,.24Z"/>
      <rect class="cls-11" x="32.53" y="245.25" width="17.27" height="17.27"/>
    </g>
    <g>
      <rect class="cls-7" x="608.11" y="34.53" width="90.43" height="131.08"/>
      <rect class="cls-4" x="603.58" y="34.53" width="90.43" height="131.08"/>
      <g>
        <rect class="cls-1" x="614.81" y="48.73" width="67.96" height="102.69"/>
        <path class="cls-7" d="M682.77,151.41s0-.17-.01-.5c0-.34,0-.82-.01-1.46,0-1.29-.02-3.18-.03-5.63-.01-4.92-.03-12.09-.06-21.15-.03-18.11-.07-43.75-.11-73.94l.23,.23c-20.76,0-43.77,.01-67.96,.02h0l.25-.25c-.02,38.74-.04,74.45-.05,102.69l-.2-.2c20.7,.04,37.66,.08,49.47,.1,5.91,.02,10.52,.04,13.67,.05,1.57,0,2.76,.02,3.59,.02,.81,0,1.24,.02,1.24,.02,0,0-.4,.01-1.2,.02-.81,0-2,.01-3.55,.02-3.14,.01-7.74,.03-13.62,.05-11.83,.02-28.84,.06-49.59,.1h-.2s0-.2,0-.2c-.01-28.23-.03-63.95-.05-102.69v-.25s.25,0,.25,0h0c24.18,0,47.19,.01,67.96,.02h.23v.23c-.05,30.26-.08,55.95-.11,74.09-.03,9.04-.05,16.19-.06,21.1-.01,2.43-.02,4.31-.03,5.59,0,.62-.01,1.1-.01,1.43,0,.32-.01,.48-.01,.48Z"/>
      </g>
      <path class="cls-7" d="M694.26,34.53c.05,.04-.56,.94-1.61,2.34-1.05,1.4-2.54,3.32-4.24,5.38-1.7,2.07-3.29,3.9-4.47,5.2-1.18,1.3-1.94,2.07-1.99,2.03-.05-.05,.62-.9,1.73-2.26,1.21-1.47,2.7-3.28,4.35-5.28,1.65-2,3.14-3.81,4.35-5.28,1.12-1.35,1.83-2.17,1.88-2.13Z"/>
      <g>
        <path class="cls-1" d="M683.12,151.08c3.38,5.37,7.36,10.35,11.85,14.82"/>
        <path class="cls-7" d="M694.97,165.91s-.85-.65-2.07-1.88c-1.22-1.22-2.83-2.99-4.47-5.04-1.64-2.06-3.01-4.02-3.94-5.47-.93-1.45-1.43-2.4-1.38-2.43,.06-.04,.67,.84,1.67,2.23,1,1.4,2.4,3.31,4.03,5.36,1.64,2.04,3.19,3.83,4.34,5.11,1.15,1.28,1.86,2.07,1.81,2.12Z"/>
      </g>
      <g>
        <path class="cls-1" d="M603.56,165.51c3.95-4.87,7.9-9.74,11.85-14.62"/>
        <path class="cls-7" d="M615.41,150.89c.11,.09-2.46,3.43-5.73,7.46-3.27,4.04-6.01,7.24-6.11,7.15-.11-.09,2.46-3.43,5.73-7.46,3.27-4.04,6.01-7.24,6.11-7.15Z"/>
      </g>
      <path class="cls-7" d="M603.58,34.53c.11-.08,2.68,2.99,5.75,6.87,3.07,3.88,5.47,7.09,5.36,7.18-.11,.08-2.68-2.99-5.75-6.87-3.07-3.88-5.47-7.09-5.36-7.18Z"/>
      <rect class="cls-7" x="638.84" y="69.58" width="22.76" height="64.61"/>
    </g>
    <g>
      <rect class="cls-7" x="4.86" y="47.55" width="96.6" height="140.02"/>
      <rect class="cls-4" x=".02" y="47.55" width="96.6" height="140.02"/>
      <g>
        <rect class="cls-1" x="12.02" y="62.71" width="72.6" height="109.69"/>
        <path class="cls-7" d="M84.62,172.4s0-.19-.01-.54c0-.36,0-.88-.01-1.56,0-1.38-.02-3.4-.03-6.02-.02-5.26-.04-12.92-.06-22.6-.03-19.34-.07-46.73-.12-78.99l.24,.24c-22.18,0-46.76,.01-72.59,.02h0l.26-.26c-.02,41.38-.04,79.53-.05,109.69l-.21-.21c22.11,.05,40.23,.08,52.84,.11,6.31,.02,11.23,.04,14.6,.05,1.67,.01,2.95,.02,3.83,.02,.87,0,1.32,.02,1.32,.02,0,0-.43,.02-1.28,.02-.87,0-2.14,.01-3.79,.02-3.35,.01-8.26,.03-14.55,.05-12.64,.03-30.81,.06-52.97,.11h-.21s0-.21,0-.21c-.01-30.16-.03-68.31-.05-109.69v-.26s.26,0,.26,0h0c25.83,0,50.41,.02,72.59,.02h.24v.24c-.05,32.32-.09,59.76-.12,79.14-.03,9.65-.05,17.3-.06,22.54-.01,2.6-.02,4.6-.03,5.97,0,.66-.01,1.17-.01,1.53,0,.34-.01,.51-.01,.51Z"/>
      </g>
      <path class="cls-7" d="M96.89,47.55c.06,.04-.6,1-1.72,2.5-1.12,1.5-2.71,3.54-4.53,5.75-1.82,2.21-3.52,4.16-4.77,5.55-1.26,1.39-2.07,2.22-2.13,2.17-.06-.05,.66-.96,1.84-2.41,1.3-1.57,2.89-3.5,4.65-5.64,1.76-2.14,3.35-4.07,4.65-5.65,1.2-1.44,1.96-2.32,2.01-2.27Z"/>
      <g>
        <path class="cls-1" d="M84.99,172.05c3.61,5.73,7.86,11.06,12.66,15.84"/>
        <path class="cls-7" d="M97.65,187.88s-.91-.7-2.21-2.01c-1.3-1.31-3.02-3.19-4.78-5.39-1.76-2.2-3.22-4.29-4.2-5.85-.99-1.55-1.53-2.56-1.47-2.6,.07-.04,.72,.89,1.78,2.39,1.06,1.49,2.56,3.54,4.31,5.73,1.75,2.18,3.41,4.09,4.64,5.46,1.22,1.37,1.99,2.21,1.94,2.26Z"/>
      </g>
      <g>
        <path class="cls-1" d="M0,187.46c4.22-5.2,8.44-10.41,12.65-15.61"/>
        <path class="cls-7" d="M12.66,171.84c.11,.09-2.63,3.66-6.12,7.97C3.04,184.13,.12,187.55,0,187.46c-.11-.09,2.63-3.66,6.12-7.97,3.49-4.31,6.42-7.73,6.53-7.64Z"/>
      </g>
      <path class="cls-7" d="M.02,47.55c.11-.09,2.86,3.2,6.14,7.34,3.28,4.15,5.84,7.58,5.73,7.67-.11,.09-2.86-3.2-6.14-7.34C2.47,51.07-.1,47.64,.02,47.55Z"/>
      <rect class="cls-7" x="37.69" y="84.98" width="24.31" height="69.02"/>
    </g>
    <g>
      <rect class="cls-7" x="515.19" y="16.47" width="8.86" height="44.11" transform="translate(-.2 2.78) rotate(-.31)"/>
      <g>
        <rect class="cls-11" x="438.34" y="16.63" width="22.96" height="24.35" transform="translate(-.15 2.41) rotate(-.31)"/>
        <rect class="cls-4" x="461.19" y="16.5" width="22.96" height="24.35" transform="translate(-.15 2.53) rotate(-.31)"/>
        <path class="cls-7" d="M438.31,23.41c15.26,.13,30.55,.04,45.8-.21,.31,0,.31-.49,0-.49-15.26-.08-30.55,0-45.8,.28-.27,0-.27,.42,0,.42h0Z"/>
      </g>
      <g>
        <rect class="cls-11" x="424.02" y="40.62" width="41.71" height="19.85" transform="translate(-.26 2.38) rotate(-.31)"/>
        <rect class="cls-4" x="465.53" y="40.4" width="41.71" height="19.85" transform="translate(-.26 2.61) rotate(-.31)"/>
        <path class="cls-7" d="M423.99,46.25c27.71,.31,55.51,.03,83.22-.41,.31,0,.31-.49,0-.49-27.71-.15-55.52-.13-83.22,.48-.27,0-.27,.42,0,.42h0Z"/>
      </g>
      <g>
        <rect class="cls-7" x="408.4" y="60.58" width="161.59" height="9.48"/>
        <rect class="cls-7" x="434.85" y="64" width="6.56" height="12.13"/>
        <rect class="cls-7" x="532.78" y="64" width="6.56" height="12.13"/>
      </g>
      <rect class="cls-11" x="523.89" y=".02" width="8.86" height="60.67" transform="translate(-.16 2.83) rotate(-.31)"/>
      <g>
        <rect class="cls-4" x="532.8" y="11.33" width="13.77" height="49.16" transform="translate(-.18 2.9) rotate(-.31)"/>
        <path class="cls-7" d="M546.35,20.77c0,.13-3.08,.24-6.89,.24s-6.89-.11-6.89-.24,3.08-.24,6.89-.24,6.89,.11,6.89,.24Z"/>
        <path class="cls-7" d="M546.35,18.7c0,.13-3.08,.24-6.89,.24s-6.89-.11-6.89-.24,3.08-.24,6.89-.24,6.89,.11,6.89,.24Z"/>
        <path class="cls-7" d="M546.35,53.06c0,.13-3.08,.24-6.89,.24s-6.89-.11-6.89-.24,3.08-.24,6.89-.24,6.89,.11,6.89,.24Z"/>
        <path class="cls-7" d="M546.35,50.99c0,.13-3.08,.24-6.89,.24s-6.89-.11-6.89-.24,3.08-.24,6.89-.24,6.89,.11,6.89,.24Z"/>
        <path class="cls-7" d="M539.68,46.49c-.13,0-.24-4.96-.24-11.08s.11-11.08,.24-11.08,.24,4.96,.24,11.08-.11,11.08-.24,11.08Z"/>
      </g>
      <rect class="cls-11" x="546.5" y="23.37" width="14.99" height="37.11"/>
      <path class="cls-7" d="M530.58,10.36c0,1.41-1.14,2.55-2.55,2.55s-2.55-1.14-2.55-2.55,1.14-2.55,2.55-2.55,2.55,1.14,2.55,2.55Z"/>
      <rect class="cls-7" x="527.24" y="17.37" width="1.58" height="36.09"/>
    </g>
    <g>
      <rect class="cls-4" x="208.03" y="40.24" width="48.65" height="12.87"/>
      <path class="cls-7" d="M236.11,66.67s0-.08-.02-.23c0-.17,0-.39-.02-.66,0-.61-.02-1.45-.04-2.53-.02-2.22-.05-5.42-.08-9.44l.15,.15c-11.11,.02-28.78,.06-48.65,.1,.11-.11-.25,.25,.25-.25h0v.82s0,.83,0,.83c0,.55,0,1.1,0,1.64,0,1.09,0,2.17,0,3.25,0,2.15,0,4.26,0,6.33l-.24-.24c13.85,.04,25.98,.08,34.67,.11,4.33,.03,7.81,.05,10.23,.07,1.18,.01,2.11,.02,2.77,.03,.3,0,.54,.01,.72,.02,.16,0,.25,.01,.26,.02,0,0-.07,.01-.23,.02-.18,0-.41,0-.69,.02-.65,0-1.56,.02-2.71,.03-2.41,.02-5.87,.04-10.18,.07-8.74,.03-20.92,.07-34.84,.11h-.24s0-.24,0-.24c0-2.07,0-4.18,0-6.33,0-1.07,0-2.16,0-3.25,0-.55,0-1.09,0-1.64v-.83s0-.41,0-.41v-.39h0v-.02h0c.5-.5,.14-.14,.25-.25,19.87,.04,37.54,.07,48.65,.1h.15s0,.15,0,.15c-.04,4.07-.06,7.29-.08,9.53-.02,1.07-.03,1.9-.04,2.5,0,.26-.01,.47-.02,.63,0,.14,0,.21-.01,.2Z"/>
    </g>
    <g>
      <rect class="cls-4" x="631.76" y="188.78" width="48.65" height="12.87"/>
      <path class="cls-7" d="M659.84,215.21s0-.08-.02-.23c0-.17,0-.39-.02-.66,0-.61-.02-1.45-.04-2.53-.02-2.22-.05-5.42-.08-9.44l.15,.15c-11.11,.02-28.78,.06-48.65,.1,.11-.11-.25,.25,.24-.25h0v.82s0,.83,0,.83c0,.55,0,1.1,0,1.64,0,1.09,0,2.17,0,3.25,0,2.15,0,4.26,0,6.33l-.24-.24c13.85,.04,25.98,.08,34.67,.11,4.33,.03,7.81,.05,10.23,.07,1.18,.01,2.11,.02,2.77,.03,.3,0,.54,.01,.72,.02,.16,0,.25,.01,.26,.02,0,0-.07,.01-.23,.02-.18,0-.41,0-.69,.02-.65,0-1.56,.02-2.71,.03-2.41,.02-5.87,.04-10.18,.07-8.74,.03-20.92,.07-34.84,.11h-.24s0-.24,0-.24c0-2.07,0-4.18,0-6.33,0-1.07,0-2.16,0-3.25,0-.55,0-1.09,0-1.64v-.83s0-.41,0-.41v-.39h0v-.02h0c.5-.5,.14-.14,.25-.25,19.87,.04,37.54,.07,48.65,.1h.15s0,.15,0,.15c-.04,4.07-.06,7.29-.08,9.53-.02,1.07-.03,1.9-.04,2.5,0,.26-.01,.47-.02,.63,0,.14,0,.21-.01,.2Z"/>
    </g>
    <g>
      <path class="cls-7" d="M360.8,26.07s0-.08-.01-.23c0-.17,0-.39-.02-.66,0-.61-.02-1.45-.04-2.53-.02-2.22-.05-5.42-.08-9.44l.15,.15c-11.11,.02-28.78,.06-48.65,.1,.11-.11-.25,.25,.24-.25h0v.41s0,.41,0,.41v.83c0,.55,0,1.1,0,1.64,0,1.09,0,2.17,0,3.25,0,2.15,0,4.26,0,6.33l-.24-.24c13.85,.04,25.98,.08,34.67,.11,4.33,.03,7.81,.05,10.23,.07,1.18,.01,2.11,.02,2.77,.03,.3,0,.54,.01,.72,.02,.16,0,.25,.01,.26,.02,0,0-.07,.01-.23,.02-.18,0-.41,0-.69,.02-.65,0-1.56,.02-2.72,.03-2.41,.02-5.87,.04-10.18,.07-8.74,.03-20.92,.07-34.84,.11h-.24s0-.24,0-.24c0-2.07,0-4.18,0-6.33,0-1.07,0-2.16,0-3.25,0-.55,0-1.09,0-1.64v-.83s0-.41,0-.41v-.39h0v-.02h0c.5-.5,.14-.14,.25-.25,19.87,.04,37.54,.07,48.65,.1h.15s0,.15,0,.15c-.04,4.07-.06,7.29-.08,9.53-.02,1.07-.03,1.9-.04,2.5,0,.26-.01,.47-.02,.63,0,.14,0,.21-.02,.2Z"/>
      <path class="cls-7" d="M367.39,13.2s-.01-.09-.02-.24c0-.18-.01-.41-.02-.68-.01-.63-.03-1.49-.04-2.58-.02-2.26-.06-5.44-.1-9.36l.18,.18c-7.57,.02-17.88,.04-29.23,.07-.22,.22,.3-.3,.25-.25h0v.42s0,.42,0,.42v.84c0,.56,0,1.12,0,1.67,0,1.11,0,2.2,0,3.28,0,2.15,0,4.24,0,6.24l-.24-.24c8.44,.05,15.7,.08,20.91,.11,2.57,.03,4.63,.05,6.09,.07,.68,.01,1.23,.02,1.64,.03,.38,0,.58,.02,.59,.03,0,0-.17,.02-.53,.03-.4,0-.93,.02-1.59,.03-1.45,.02-3.49,.04-6.04,.07-5.25,.03-12.57,.07-21.07,.11h-.24s0-.24,0-.24c0-2,0-4.09,0-6.24,0-1.08,0-2.17,0-3.28,0-.55,0-1.11,0-1.67v-.84s0-.42,0-.42V.36h0v-.02h0c-.05,.05,.47-.47,.25-.25,11.35,.03,21.66,.05,29.23,.07h.18s0,.18,0,.18c-.04,3.96-.07,7.19-.1,9.47-.02,1.07-.03,1.92-.04,2.54-.01,.58-.03,.87-.04,.86Z"/>
    </g>
    <path class="cls-7" d="M674.38,18.46s0-.08-.01-.23c0-.17,0-.39-.02-.66,0-.61-.02-1.45-.04-2.53-.02-2.22-.05-5.42-.08-9.44l.15,.15c-11.11,.02-28.78,.06-48.65,.1,.11-.11-.25,.25,.24-.25h0v.41s0,.41,0,.41v.83c0,.55,0,1.1,0,1.64,0,1.09,0,2.17,0,3.25,0,2.15,0,4.26,0,6.33l-.24-.24c13.85,.04,25.98,.08,34.67,.11,4.33,.03,7.81,.05,10.23,.07,1.18,.01,2.11,.02,2.77,.03,.3,0,.54,.01,.72,.02,.16,0,.25,.01,.26,.02,0,0-.07,.01-.23,.02-.18,0-.41,0-.69,.02-.65,0-1.56,.02-2.71,.03-2.41,.02-5.87,.04-10.18,.07-8.74,.03-20.92,.07-34.84,.11h-.24s0-.24,0-.24c0-2.07,0-4.18,0-6.33,0-1.07,0-2.16,0-3.25,0-.55,0-1.09,0-1.64v-.83s0-.41,0-.41v-.39h0v-.02h0c.5-.5,.14-.14,.25-.25,19.87,.04,37.54,.07,48.65,.1h.15s0,.15,0,.15c-.04,4.07-.06,7.29-.08,9.53-.02,1.07-.03,1.9-.04,2.5,0,.26-.01,.47-.02,.63,0,.14,0,.21-.02,.2Z"/>
    <path class="cls-7" d="M121.08,23.81s-.01-.08-.02-.23c0-.17,0-.39-.02-.66,0-.61-.02-1.45-.04-2.53-.02-2.22-.05-5.42-.08-9.44l.15,.15c-11.11,.02-28.78,.06-48.65,.1,.11-.11-.25,.25,.25-.25h0v.41s0,.41,0,.41v.83c0,.55,0,1.1,0,1.64,0,1.09,0,2.17,0,3.25,0,2.15,0,4.26,0,6.33l-.24-.24c13.85,.04,25.98,.08,34.67,.11,4.33,.03,7.81,.05,10.23,.07,1.18,.01,2.11,.02,2.77,.03,.3,0,.54,.01,.72,.02,.16,0,.25,.01,.26,.02,0,0-.07,.01-.23,.02-.18,0-.41,0-.69,.02-.65,0-1.56,.02-2.72,.03-2.41,.02-5.87,.04-10.18,.07-8.74,.03-20.92,.07-34.84,.11h-.24s0-.24,0-.24c0-2.07,0-4.18,0-6.33,0-1.07,0-2.16,0-3.25,0-.55,0-1.09,0-1.64v-.83s0-.41,0-.41v-.39h0v-.02h0c.5-.5,.14-.14,.25-.25,19.87,.04,37.54,.07,48.65,.1h.15s0,.15,0,.15c-.04,4.07-.06,7.29-.08,9.53-.02,1.07-.03,1.9-.04,2.5,0,.26-.01,.47-.02,.63,0,.14-.01,.21-.02,.2Z"/>
  </g>
  <g id="Floor">
    <path class="cls-13" d="M686.26,426.74c0,.14-149.83,.26-334.61,.26s-334.64-.12-334.64-.26,149.79-.26,334.64-.26,334.61,.12,334.61,.26Z"/>
  </g>
  <g id="Device">
    <g>
      <g>
        <g>
          <g>
            <path class="cls-7" d="M565.36,421.63H144.39c-13.91,0-25.19-11.28-25.19-25.19V107.52c0-10.15,8.23-18.38,18.38-18.38h435.61c9.59,0,17.37,7.78,17.37,17.37V396.44c0,13.91-11.28,25.19-25.19,25.19Z"/>
            <path class="cls-13" d="M565.36,421.63s.34-.03,1.02-.06c.34-.02,.76-.04,1.27-.07,.51-.02,1.08-.15,1.74-.24,.33-.05,.68-.11,1.05-.17,.36-.09,.75-.19,1.15-.3,.4-.1,.82-.22,1.27-.33,.43-.16,.87-.32,1.34-.49,.95-.3,1.89-.82,2.93-1.31,.51-.26,1-.6,1.53-.91,.26-.16,.53-.32,.8-.49,.25-.19,.51-.38,.77-.58,2.1-1.54,4.23-3.6,6.02-6.28,1.79-2.67,3.22-5.98,3.84-9.74,.07-.47,.14-.95,.22-1.43,.07-.48,.06-.97,.1-1.47,.07-.99,.07-2,.06-3.03,0-2.06,0-4.19,0-6.39,0-4.4,0-9.09-.01-14.06-.02-39.74-.05-97.25-.08-168.31,0-17.76-.01-36.38-.02-55.77,0-9.7,0-19.59,0-29.67,0-2.52,0-5.05,0-7.59,0-1.27,0-2.55,0-3.82,0-1.27,.03-2.57-.06-3.82-.29-5.08-3.1-9.94-7.34-12.88-2.11-1.49-4.59-2.44-7.16-2.83-.32-.04-.64-.11-.97-.14l-.98-.05c-.65-.05-1.31-.03-1.97-.03-1.32,0-2.65,0-3.97,0-5.31,0-10.67,0-16.06,0-10.79,0-21.76,0-32.89,0-22.25,0-45.16,0-68.65,.01-93.95,0-197.24,.01-305.66,.02h-5.08c-.84,.01-1.7-.03-2.53,.03l-1.25,.06c-.41,.05-.82,.12-1.24,.18-.41,.05-.82,.13-1.22,.25-.4,.11-.81,.2-1.21,.32-.78,.3-1.58,.53-2.31,.93-1.52,.69-2.9,1.64-4.15,2.73-1.28,1.06-2.32,2.38-3.26,3.74-.92,1.38-1.59,2.91-2.12,4.48-.44,1.59-.79,3.22-.8,4.88-.05,1.66-.01,3.35-.03,5.02,0,13.39,0,26.69,0,39.89,0,26.41,0,52.42,0,77.99,0,51.13-.01,100.45-.02,147.43,0,5.87,0,11.71,0,17.51-.02,1.46,.05,2.88,.15,4.31l.32,2.12c.14,.7,.34,1.39,.51,2.08,.8,2.74,2.06,5.33,3.71,7.63,3.27,4.65,8.2,7.99,13.57,9.49,.68,.16,1.35,.39,2.04,.48l2.07,.32c1.39,.08,2.78,.16,4.18,.13,2.8,0,5.59,0,8.38,0,22.26,0,43.86,0,64.75,.01,41.78,.01,80.7,.02,116.23,.03,71.06,.03,128.56,.06,168.3,.08,19.87,.02,35.29,.04,45.76,.05,5.23,.01,9.22,.02,11.9,.03,2.68,0,4.05,.03,4.05,.03,0,0-1.37,.02-4.05,.03-2.68,0-6.67,.01-11.9,.03-10.46,.01-25.89,.03-45.76,.05-39.74,.02-97.24,.05-168.3,.08-35.53,0-74.45,.02-116.23,.03-20.89,0-42.5,0-64.75,.01-2.78,0-5.57,0-8.38,0-1.4,.03-2.81-.06-4.23-.14l-2.11-.32c-.7-.1-1.38-.33-2.08-.49-5.48-1.53-10.5-4.93-13.83-9.67-1.68-2.35-2.97-4.99-3.78-7.78-.17-.71-.38-1.4-.52-2.12l-.33-2.16c-.1-1.45-.18-2.92-.16-4.36,0-5.8,0-11.63,0-17.51,0-46.98,0-96.3-.02-147.43,0-25.57,0-51.58,0-77.99,0-13.2,0-26.5,0-39.89,.01-1.68-.03-3.34,.03-5.03,0-1.7,.37-3.38,.82-5.02,.55-1.61,1.24-3.18,2.18-4.61,.96-1.4,2.03-2.75,3.35-3.85,1.29-1.11,2.71-2.1,4.27-2.8,.76-.41,1.58-.65,2.38-.96,.41-.12,.83-.22,1.24-.33,.41-.12,.83-.2,1.26-.26,.42-.06,.85-.14,1.27-.19l1.28-.07c.86-.06,1.69-.02,2.54-.03h5.08c108.42,0,211.71,.01,305.66,.02,23.49,0,46.39,0,68.65,.01,11.13,0,22.09,0,32.89,0,5.4,0,10.75,0,16.06,0,1.33,0,2.65,0,3.97,0,.66,0,1.32-.01,1.99,.03l1,.05c.33,.03,.66,.09,.99,.14,2.63,.41,5.17,1.39,7.34,2.91,4.34,3.02,7.22,8,7.51,13.21,.09,1.3,.05,2.57,.06,3.85,0,1.28,0,2.55,0,3.82,0,2.54,0,5.07,0,7.59,0,10.08,0,19.97,0,29.67,0,19.39-.01,38-.02,55.77-.03,71.06-.06,128.56-.08,168.31,0,4.97,0,9.66-.01,14.06,0,2.2,0,4.33,0,6.39,0,1.03,0,2.04-.07,3.04-.04,.5-.03,.99-.1,1.48-.07,.48-.15,.96-.22,1.44-.64,3.79-2.08,7.11-3.89,9.79-1.81,2.69-3.96,4.75-6.07,6.29-.26,.2-.52,.39-.78,.58-.27,.17-.54,.33-.8,.49-.53,.31-1.03,.65-1.54,.91-1.04,.49-1.99,1-2.95,1.3-.47,.17-.92,.33-1.35,.49-.44,.11-.87,.22-1.27,.33-.4,.1-.79,.2-1.15,.29-.37,.06-.72,.11-1.06,.16-.66,.09-1.24,.21-1.75,.23-.5,.02-.93,.04-1.27,.06-.68,.03-1.02,.04-1.02,.04Z"/>
          </g>
          <g>
            <path class="cls-7" d="M590.06,426.69H123.84c-13.45,0-24.36-10.91-24.36-24.36v-3.8c0-.52,.42-.94,.94-.94h508.8c.52,0,.94,.42,.94,.94v8.05c0,11.1-9,20.1-20.1,20.1Z"/>
            <path class="cls-13" d="M590.06,426.69s.23-.02,.69-.05c.45-.05,1.14,0,2.03-.18,1.78-.23,4.48-.82,7.5-2.64,1.53-.87,3.08-2.12,4.55-3.72,1.46-1.6,2.81-3.59,3.78-5.98,.98-2.38,1.5-5.14,1.46-8.11,0-1.49,0-3.02,0-4.6,0-.79,0-1.59,0-2.41,0-.41,.04-.82-.27-1.07-.27-.29-.69-.22-1.11-.22-26.82,.02-65.61,.05-113.55,.08-95.88,.02-228.33,.05-374.61,.08-4.57,0-9.13,0-13.68,0h-3.41s-1.7,0-1.7,0h-1.27c-.13,0-.21,.01-.31,.05-.19,.08-.34,.25-.39,.45-.04,.16-.02,.52-.02,.78v1.7c-.02,1.14,.03,2.25,.09,3.37,.19,2.22,.62,4.43,1.43,6.51,.34,1.06,.89,2.04,1.35,3.05,.59,.94,1.09,1.94,1.8,2.8,2.6,3.6,6.25,6.39,10.31,8.08,2.04,.82,4.19,1.36,6.37,1.63,2.18,.21,4.4,.17,6.61,.17,4.42,0,8.82,0,13.21,0,8.77,0,17.47,0,26.09,0,34.49,0,67.77,.01,99.46,.02,63.39,.02,120.47,.04,168.41,.06,47.94,.03,86.73,.06,113.54,.08,13.4,.02,23.81,.04,30.87,.05,3.53,.01,6.21,.02,8.03,.03,1.81,0,2.73,.03,2.73,.03,0,0-.93,.02-2.73,.03-1.81,0-4.5,.01-8.03,.03-7.06,.01-17.47,.03-30.87,.05-26.81,.02-65.6,.05-113.54,.08-47.94,.02-105.02,.03-168.41,.06-31.7,0-64.97,0-99.46,.02-8.62,0-17.32,0-26.09,0-4.39,0-8.79,0-13.21,0-2.21,0-4.42,.05-6.67-.17-2.23-.27-4.42-.82-6.51-1.66-4.15-1.73-7.87-4.57-10.53-8.25-.72-.88-1.24-1.9-1.84-2.86-.48-1.03-1.04-2.03-1.38-3.11-.83-2.12-1.27-4.38-1.46-6.65-.07-1.14-.12-2.28-.1-3.41v-1.7c.02-.3-.04-.52,.04-.91,.09-.35,.35-.65,.68-.79,.16-.07,.36-.1,.52-.1h2.98s3.41,0,3.41,0c4.55,0,9.1,0,13.68,0,146.28,.03,278.73,.06,374.61,.08,47.94,.03,86.73,.06,113.55,.08h.63c.23,.03,.45,.12,.62,.28,.17,.16,.28,.37,.32,.59,.03,.24,0,.42,.01,.63,0,.81,0,1.62,0,2.41,0,1.58,0,3.12,0,4.6,.03,2.98-.51,5.78-1.5,8.17-.98,2.4-2.35,4.41-3.83,6.01-1.48,1.6-3.05,2.85-4.59,3.72-3.05,1.82-5.76,2.4-7.55,2.61-.89,.17-1.58,.11-2.04,.16-.46,.02-.69,.02-.69,.02Z"/>
          </g>
          <g>
            <rect class="cls-5" x="138.52" y="109.44" width="431.39" height="272.36" rx="5.25" ry="5.25"/>
            <path class="cls-13" d="M564.66,381.8s.31,.01,.9-.1c.59-.11,1.48-.37,2.41-1.12,.9-.74,1.83-2.07,1.88-3.85,0-1.77,0-3.82,0-6.15-.01-9.32-.03-23.06-.05-40.75-.02-35.39-.05-86.59-.08-149.86,0-15.82-.01-32.39-.02-49.66,0-4.32,0-8.68,0-13.08v-1.65c0-.56,.02-1.11-.06-1.62-.13-1.06-.65-2.05-1.39-2.81-.75-.75-1.74-1.29-2.81-1.44-.52-.09-1.08-.06-1.64-.07h-1.68c-8.97,0-18.11,0-27.41,0-37.2,0-76.95,.02-118.77,.02-83.65,0-175.62,.01-272.15,.02-1.44-.02-2.86,.64-3.8,1.72-.47,.54-.83,1.18-1.02,1.87-.21,.69-.21,1.4-.2,2.16,0,3.01,0,6.01,0,9.01,0,6,0,11.98,0,17.94,0,11.92,0,23.76,0,35.52,0,23.51,0,46.68,0,69.44,0,22.76,0,45.12,0,67.02,0,10.95,0,21.78,0,32.49,0,5.36,0,10.68,0,15.97,0,2.65,0,5.29,0,7.92,0,1.32,0,2.63,0,3.94,.03,1.32-.14,2.64,.39,3.78,.48,1.15,1.41,2.11,2.54,2.62,.57,.26,1.18,.41,1.8,.44,.62,.03,1.29,0,1.94,.01,2.6,0,5.19,0,7.77,0,5.16,0,10.29,0,15.39,0,10.19,0,20.24,0,30.15,0,19.82,0,39.05,0,57.66,.01,37.2,.01,71.85,.02,103.49,.03,63.27,.03,114.46,.06,149.85,.08,17.69,.02,31.42,.04,40.74,.05,4.65,.01,8.2,.02,10.59,.03,2.39,0,3.61,.03,3.61,.03,0,0-1.22,.02-3.61,.03-2.39,0-5.94,.01-10.59,.03-9.32,.01-23.05,.03-40.74,.05-35.38,.02-86.58,.05-149.85,.08-31.63,0-66.29,.02-103.49,.03-18.6,0-37.84,0-57.66,.01-9.91,0-19.96,0-30.15,0-5.1,0-10.22,0-15.39,0-2.58,0-5.17,0-7.77,0-.66,0-1.29,.02-1.96-.01-.68-.04-1.35-.2-1.97-.48-1.24-.56-2.26-1.61-2.79-2.87-.27-.63-.41-1.31-.42-2v-1.97c0-1.31,0-2.62,0-3.94,0-2.63,0-5.27,0-7.92,0-5.29,0-10.62,0-15.97,0-10.71,0-21.54,0-32.49,0-21.9,0-44.26,0-67.02,0-22.76,0-45.93,0-69.44,0-11.76,0-23.6,0-35.52,0-5.96,0-11.94,0-17.94,0-3,0-6,0-9.01,0-.73-.01-1.55,.22-2.31,.22-.76,.61-1.47,1.13-2.06,1.03-1.2,2.6-1.92,4.19-1.9,96.53,0,188.5,.01,272.15,.02,41.83,0,81.57,.02,118.77,.02,9.3,0,18.44,0,27.41,0h1.68c.55,0,1.12-.03,1.7,.07,1.15,.17,2.22,.74,3.04,1.56,.8,.83,1.36,1.9,1.5,3.05,.08,.58,.06,1.14,.06,1.68v1.65c0,4.4,0,8.76,0,13.08,0,17.27-.01,33.84-.02,49.66-.03,63.27-.06,114.47-.08,149.86-.02,17.69-.04,31.43-.05,40.75,0,2.33-.02,4.38-.02,6.15-.06,1.81-1.01,3.15-1.93,3.89-.94,.75-1.85,1.01-2.44,1.1-.3,.05-.53,.06-.68,.07-.15,0-.23,0-.23,0Z"/>
          </g>
          <polygon class="cls-13" points="308.41 397.04 314.74 407.79 403.91 407.79 409.8 397.04 308.41 397.04"/>
        </g>
        <path class="cls-13" d="M358.36,100.22c0,1.95-1.58,3.54-3.54,3.54s-3.54-1.58-3.54-3.54,1.58-3.54,3.54-3.54,3.54,1.58,3.54,3.54Z"/>
      </g>
      <g>
        <g>
          <rect class="cls-4" x="286.13" y="243.01" width="137.09" height="23.68" rx="1.45" ry="1.45"/>
          <rect class="cls-4" x="286.27" y="275.53" width="137.09" height="23.68" rx="1.45" ry="1.45"/>
          <g>
            <path class="cls-13" d="M295.52,254.69v-3.11h.78v3.08c0,1.21,.55,1.76,1.54,1.76s1.55-.55,1.55-1.76v-3.08h.76v3.11c0,1.59-.87,2.42-2.31,2.42s-2.31-.84-2.31-2.42Z"/>
            <path class="cls-13" d="M301.12,256.61l.31-.59c.35,.25,.91,.43,1.45,.43,.7,0,.98-.21,.98-.56,0-.93-2.62-.12-2.62-1.77,0-.74,.66-1.24,1.73-1.24,.54,0,1.15,.14,1.51,.38l-.32,.59c-.38-.24-.79-.33-1.2-.33-.66,0-.98,.24-.98,.57,0,.98,2.62,.18,2.62,1.79,0,.75-.69,1.23-1.79,1.23-.69,0-1.37-.21-1.71-.48Z"/>
            <path class="cls-13" d="M309.29,255.23h-3.36c.09,.73,.68,1.21,1.5,1.21,.48,0,.89-.16,1.2-.5l.41,.48c-.37,.44-.95,.67-1.63,.67-1.34,0-2.23-.88-2.23-2.12s.88-2.11,2.08-2.11,2.05,.86,2.05,2.13c0,.06,0,.16-.02,.23Zm-3.36-.54h2.66c-.08-.7-.6-1.19-1.33-1.19s-1.25,.48-1.33,1.19Z"/>
            <path class="cls-13" d="M312.58,252.87v.73c-.06,0-.12,0-.17,0-.8,0-1.3,.49-1.3,1.4v2.06h-.75v-4.14h.72v.7c.27-.48,.78-.73,1.51-.73Z"/>
            <path class="cls-13" d="M317.43,254.66v2.38h-.75v-2.3c0-.81-.41-1.21-1.12-1.21-.8,0-1.31,.48-1.31,1.38v2.13h-.75v-4.14h.72v.62c.3-.42,.84-.66,1.49-.66,1.01,0,1.72,.58,1.72,1.8Z"/>
            <path class="cls-13" d="M322.11,254.55v2.5h-.71v-.55c-.25,.38-.71,.59-1.36,.59-.94,0-1.53-.5-1.53-1.22,0-.66,.43-1.21,1.66-1.21h1.19v-.15c0-.63-.37-1-1.11-1-.49,0-.99,.17-1.31,.45l-.31-.56c.43-.34,1.05-.53,1.71-.53,1.13,0,1.77,.55,1.77,1.68Zm-.75,1.23v-.58h-1.16c-.74,0-.95,.29-.95,.64,0,.41,.34,.67,.91,.67s1.01-.26,1.2-.73Z"/>
            <path class="cls-13" d="M330.38,254.66v2.38h-.75v-2.3c0-.81-.39-1.21-1.07-1.21-.75,0-1.24,.48-1.24,1.38v2.13h-.75v-2.3c0-.81-.39-1.21-1.07-1.21-.75,0-1.24,.48-1.24,1.38v2.13h-.75v-4.14h.72v.62c.3-.42,.8-.66,1.43-.66s1.16,.25,1.44,.77c.31-.47,.89-.77,1.59-.77,1.01,0,1.7,.58,1.7,1.8Z"/>
            <path class="cls-13" d="M335.52,255.23h-3.36c.09,.73,.68,1.21,1.5,1.21,.48,0,.89-.16,1.2-.5l.41,.48c-.37,.44-.95,.67-1.63,.67-1.34,0-2.23-.88-2.23-2.12s.88-2.11,2.08-2.11,2.05,.86,2.05,2.13c0,.06,0,.16-.02,.23Zm-3.36-.54h2.66c-.08-.7-.6-1.19-1.33-1.19s-1.25,.48-1.33,1.19Z"/>
          </g>
          <rect class="cls-12" x="286.48" y="312.21" width="137.09" height="23.68" rx="1.45" ry="1.45"/>
          <g>
            <path class="cls-1" d="M342.64,321.49h1.55v4.25h2.61v1.23h-4.16v-5.48Z"/>
            <path class="cls-1" d="M347.06,324.84c0-1.28,1.01-2.18,2.4-2.18s2.4,.91,2.4,2.18-.99,2.2-2.4,2.2-2.4-.92-2.4-2.2Zm3.29,0c0-.64-.38-1-.89-1s-.89,.36-.89,1,.39,1.02,.89,1.02,.89-.37,.89-1.02Z"/>
            <path class="cls-1" d="M357.1,322.72v3.47c0,1.61-.91,2.36-2.49,2.36-.81,0-1.59-.19-2.11-.56l.54-1.04c.35,.28,.93,.45,1.43,.45,.8,0,1.13-.36,1.13-1.03v-.14c-.29,.34-.72,.5-1.26,.5-1.13,0-2.08-.8-2.08-2.05s.96-2.04,2.08-2.04c.59,0,1.04,.19,1.33,.59v-.52h1.42Zm-1.47,1.97c0-.52-.39-.86-.92-.86s-.93,.34-.93,.86,.4,.87,.93,.87,.92-.35,.92-.87Z"/>
            <path class="cls-1" d="M360.4,321.49h1.55v5.48h-1.55v-5.48Z"/>
            <path class="cls-1" d="M367.5,324.54v2.43h-1.49v-2.18c0-.61-.27-.87-.7-.87-.48,0-.85,.3-.85,1v2.05h-1.49v-4.24h1.42v.46c.34-.35,.81-.53,1.35-.53,.99,0,1.75,.57,1.75,1.89Z"/>
          </g>
          <path class="cls-13" d="M296.94,287.51c0,1.14-.92,2.06-2.06,2.06s-2.06-.92-2.06-2.06,.92-2.06,2.06-2.06,2.06,.92,2.06,2.06Z"/>
          <path class="cls-13" d="M303.42,287.51c0,1.14-.92,2.06-2.06,2.06s-2.06-.92-2.06-2.06,.92-2.06,2.06-2.06,2.06,.92,2.06,2.06Z"/>
          <path class="cls-13" d="M309.91,287.51c0,1.14-.92,2.06-2.06,2.06s-2.06-.92-2.06-2.06,.92-2.06,2.06-2.06,2.06,.92,2.06,2.06Z"/>
          <path class="cls-13" d="M316.39,287.51c0,1.14-.92,2.06-2.06,2.06s-2.06-.92-2.06-2.06,.92-2.06,2.06-2.06,2.06,.92,2.06,2.06Z"/>
          <path class="cls-13" d="M322.87,287.51c0,1.14-.92,2.06-2.06,2.06s-2.06-.92-2.06-2.06,.92-2.06,2.06-2.06,2.06,.92,2.06,2.06Z"/>
          <path class="cls-13" d="M329.35,287.51c0,1.14-.92,2.06-2.06,2.06s-2.06-.92-2.06-2.06,.92-2.06,2.06-2.06,2.06,.92,2.06,2.06Z"/>
          <path class="cls-13" d="M335.83,287.51c0,1.14-.92,2.06-2.06,2.06s-2.06-.92-2.06-2.06,.92-2.06,2.06-2.06,2.06,.92,2.06,2.06Z"/>
          <path class="cls-13" d="M342.31,287.51c0,1.14-.92,2.06-2.06,2.06s-2.06-.92-2.06-2.06,.92-2.06,2.06-2.06,2.06,.92,2.06,2.06Z"/>
          <path class="cls-7" d="M412.67,286.01h-.53v-.75c0-1.41-1.14-2.55-2.55-2.55s-2.55,1.14-2.55,2.55v.75h-.77c-.52,0-.94,.42-.94,.94v4.15c0,.52,.42,.94,.94,.94h6.42c.52,0,.94-.42,.94-.94v-4.15c0-.52-.42-.94-.94-.94Zm-2.23,4.68h-1.94l.5-1.27c-.35-.17-.6-.53-.6-.95,0-.59,.48-1.06,1.06-1.06s1.06,.48,1.06,1.06c0,.42-.25,.78-.61,.95l.52,1.26Zm.92-4.68h-3.55v-.75c0-.98,.8-1.78,1.78-1.78s1.78,.8,1.78,1.78v.75Z"/>
        </g>
        <g>
          <circle class="cls-2" cx="354.37" cy="179.18" r="35.74" transform="translate(121.32 500.69) rotate(-80.88)"/>
          <path class="cls-13" d="M390.11,179.18s-.03-.2-.06-.58c-.03-.4-.06-.96-.11-1.7-.02-.37-.05-.79-.08-1.25-.05-.46-.15-.95-.23-1.49-.17-1.08-.33-2.33-.75-3.69-.63-2.76-1.92-6.02-3.96-9.48-2.05-3.44-5.02-7.04-9.05-10.09-4.02-3.02-9.1-5.59-14.96-6.63-1.47-.21-2.95-.51-4.49-.52-.77-.03-1.54-.1-2.32-.09-.78,.04-1.56,.08-2.35,.12-.39,.03-.79,.02-1.19,.08l-1.18,.18c-.79,.13-1.59,.22-2.39,.39-1.57,.43-3.19,.74-4.73,1.39-1.59,.51-3.09,1.3-4.63,2.04-.75,.41-1.47,.88-2.21,1.32-.76,.42-1.45,.95-2.14,1.48-1.44,.99-2.7,2.23-4.03,3.42-1.19,1.32-2.45,2.61-3.48,4.11-2.11,2.93-3.96,6.19-5.07,9.78-1.16,3.56-1.78,7.34-1.83,11.19,.05,3.85,.67,7.64,1.83,11.2,.32,.88,.64,1.76,.96,2.63,.4,.84,.8,1.67,1.21,2.5,.19,.42,.41,.82,.66,1.21l.71,1.18,.71,1.17,.82,1.09c1.03,1.5,2.28,2.79,3.48,4.11,1.32,1.19,2.58,2.43,4.03,3.42,.69,.53,1.39,1.06,2.14,1.48,.74,.44,1.46,.91,2.21,1.32,1.54,.74,3.04,1.53,4.63,2.04,1.54,.65,3.17,.96,4.73,1.39,.79,.16,1.6,.26,2.39,.39l1.18,.18c.39,.05,.79,.05,1.19,.08,.79,.04,1.57,.08,2.35,.12,.78,.01,1.55-.06,2.32-.09,1.54,0,3.02-.31,4.49-.52,5.86-1.04,10.94-3.61,14.96-6.63,4.03-3.05,7-6.65,9.05-10.09,2.04-3.46,3.33-6.72,3.96-9.47,.41-1.36,.57-2.61,.75-3.69,.08-.54,.18-1.03,.23-1.49,.03-.46,.05-.87,.08-1.25,.05-.73,.09-1.29,.11-1.7,.03-.38,.06-.58,.06-.58,0,0,0,.2,0,.58-.01,.4-.03,.97-.06,1.7-.02,.38-.03,.79-.05,1.25-.04,.46-.13,.96-.2,1.5-.16,1.08-.3,2.34-.7,3.71-.6,2.78-1.88,6.08-3.91,9.57-2.05,3.48-5.02,7.13-9.08,10.23-4.05,3.07-9.17,5.69-15.1,6.77-1.49,.22-2.99,.53-4.55,.54-.78,.03-1.56,.11-2.34,.1-.79-.04-1.58-.08-2.38-.12-.4-.03-.8-.02-1.2-.08l-1.2-.18c-.8-.13-1.62-.22-2.42-.39-1.59-.43-3.24-.75-4.8-1.4-1.62-.51-3.14-1.31-4.7-2.06-.76-.41-1.49-.89-2.24-1.34-.77-.43-1.47-.96-2.17-1.49-1.46-1-2.75-2.26-4.09-3.47-1.21-1.34-2.49-2.65-3.53-4.17l-.83-1.11-.73-1.18-.72-1.19c-.25-.39-.48-.8-.67-1.23-.41-.84-.81-1.69-1.22-2.54-.32-.89-.65-1.77-.98-2.67-1.18-3.61-1.81-7.46-1.86-11.36,.05-3.91,.68-7.74,1.86-11.36,1.14-3.64,3.01-6.94,5.15-9.91,1.05-1.52,2.32-2.83,3.53-4.17,1.34-1.21,2.62-2.46,4.09-3.47,.7-.54,1.41-1.07,2.17-1.49,.75-.45,1.48-.92,2.24-1.33,1.56-.75,3.08-1.54,4.7-2.05,1.57-.65,3.21-.97,4.8-1.4,.81-.16,1.62-.26,2.42-.39l1.2-.18c.4-.05,.8-.05,1.2-.08,.8-.04,1.59-.08,2.38-.12,.79-.01,1.57,.07,2.34,.1,1.56,.01,3.06,.32,4.55,.54,5.93,1.07,11.05,3.69,15.1,6.76,4.06,3.1,7.03,6.75,9.08,10.23,2.03,3.5,3.3,6.79,3.91,9.57,.4,1.37,.55,2.63,.7,3.71,.07,.54,.16,1.04,.2,1.5,.02,.46,.04,.88,.05,1.25,.03,.73,.05,1.3,.06,1.7,.01,.38,0,.58,0,.58Z"/>
        </g>
        <path class="cls-7" d="M357.92,179.7c3.02-1.19,5.17-4.12,5.19-7.57,.02-4.52-3.62-8.2-8.13-8.22-4.51-.02-8.19,3.63-8.2,8.15-.02,3.48,2.15,6.45,5.21,7.64-12.57,1.78-12,14.61-12,14.61l29.73,.13s.68-12.97-11.79-14.74Z"/>
        <path class="cls-13" d="M291.35,351.87h-4.29c-.68,0-1.23-.55-1.23-1.23v-4.29c0-.68,.55-1.23,1.23-1.23h4.29c.68,0,1.23,.55,1.23,1.23v4.29c0,.68-.55,1.23-1.23,1.23Zm-4.29-6.25c-.4,0-.73,.33-.73,.73v4.29c0,.4,.33,.73,.73,.73h4.29c.4,0,.73-.33,.73-.73v-4.29c0-.4-.33-.73-.73-.73h-4.29Z"/>
        <g>
          <path class="cls-13" d="M299.56,350.95l-.88-1.27c-.06,0-.11,0-.17,0h-.98v1.26h-.8v-4.33h1.78c1.14,0,1.84,.58,1.84,1.54,0,.66-.33,1.14-.92,1.37l1,1.42h-.87Zm-1.09-3.65h-.94v1.72h.94c.7,0,1.07-.32,1.07-.87s-.36-.86-1.07-.86Z"/>
          <path class="cls-13" d="M304.26,349.55h-2.59c.09,.48,.49,.79,1.07,.79,.37,0,.66-.12,.9-.36l.41,.48c-.3,.35-.76,.54-1.33,.54-1.11,0-1.82-.71-1.82-1.69s.72-1.69,1.71-1.69,1.67,.67,1.67,1.71c0,.06,0,.16-.01,.23Zm-2.6-.51h1.87c-.06-.48-.43-.8-.93-.8s-.87,.32-.94,.8Z"/>
          <path class="cls-13" d="M310.53,349.06v1.89h-.77v-1.79c0-.59-.27-.87-.74-.87-.51,0-.86,.33-.86,.99v1.67h-.77v-1.79c0-.59-.27-.87-.74-.87-.51,0-.86,.33-.86,.99v1.67h-.77v-3.3h.74v.42c.25-.3,.63-.46,1.08-.46,.48,0,.88,.18,1.11,.55,.27-.34,.71-.55,1.24-.55,.8,0,1.35,.45,1.35,1.45Z"/>
          <path class="cls-13" d="M314.64,349.55h-2.59c.09,.48,.49,.79,1.07,.79,.37,0,.66-.12,.9-.36l.41,.48c-.3,.35-.76,.54-1.33,.54-1.11,0-1.82-.71-1.82-1.69s.72-1.69,1.71-1.69,1.67,.67,1.67,1.71c0,.06,0,.16-.01,.23Zm-2.6-.51h1.87c-.06-.48-.43-.8-.93-.8s-.87,.32-.94,.8Z"/>
          <path class="cls-13" d="M320.92,349.06v1.89h-.77v-1.79c0-.59-.27-.87-.74-.87-.51,0-.86,.33-.86,.99v1.67h-.77v-1.79c0-.59-.27-.87-.74-.87-.51,0-.86,.33-.86,.99v1.67h-.77v-3.3h.74v.42c.25-.3,.63-.46,1.08-.46,.48,0,.88,.18,1.11,.55,.27-.34,.71-.55,1.24-.55,.8,0,1.35,.45,1.35,1.45Z"/>
          <path class="cls-13" d="M325.41,349.3c0,1.03-.71,1.69-1.67,1.69-.45,0-.83-.15-1.09-.47v.43h-.74v-4.58h.77v1.69c.27-.3,.64-.44,1.06-.44,.96,0,1.67,.66,1.67,1.69Zm-.78,0c0-.63-.42-1.03-.98-1.03s-.98,.4-.98,1.03,.43,1.03,.98,1.03,.98-.4,.98-1.03Z"/>
          <path class="cls-13" d="M329.23,349.55h-2.59c.09,.48,.49,.79,1.07,.79,.37,0,.66-.12,.9-.36l.41,.48c-.3,.35-.76,.54-1.33,.54-1.11,0-1.82-.71-1.82-1.69s.72-1.69,1.71-1.69,1.67,.67,1.67,1.71c0,.06,0,.16-.01,.23Zm-2.6-.51h1.87c-.06-.48-.43-.8-.93-.8s-.87,.32-.94,.8Z"/>
          <path class="cls-13" d="M331.9,347.61v.74c-.07-.01-.12-.02-.18-.02-.59,0-.96,.35-.96,1.02v1.6h-.77v-3.3h.74v.48c.22-.35,.62-.52,1.17-.52Z"/>
          <path class="cls-13" d="M339.81,349.06v1.89h-.77v-1.79c0-.59-.27-.87-.74-.87-.51,0-.86,.33-.86,.99v1.67h-.77v-1.79c0-.59-.27-.87-.74-.87-.51,0-.86,.33-.86,.99v1.67h-.77v-3.3h.74v.42c.25-.3,.63-.46,1.08-.46,.48,0,.88,.18,1.11,.55,.27-.34,.71-.55,1.24-.55,.8,0,1.35,.45,1.35,1.45Z"/>
          <path class="cls-13" d="M343.92,349.55h-2.59c.09,.48,.49,.79,1.07,.79,.37,0,.66-.12,.9-.36l.41,.48c-.3,.35-.76,.54-1.33,.54-1.11,0-1.82-.71-1.82-1.69s.72-1.69,1.71-1.69,1.67,.67,1.67,1.71c0,.06,0,.16-.01,.23Zm-2.6-.51h1.87c-.06-.48-.43-.8-.93-.8s-.87,.32-.94,.8Z"/>
        </g>
        <g>
          <path class="cls-12" d="M367.42,347.3v1.32h2.09v.68h-2.09v1.66h-.8v-4.33h3.16v.67h-2.36Z"/>
          <path class="cls-12" d="M370.12,349.3c0-.99,.74-1.69,1.76-1.69s1.76,.7,1.76,1.69-.74,1.69-1.76,1.69-1.76-.7-1.76-1.69Zm2.74,0c0-.63-.42-1.03-.98-1.03s-.98,.4-.98,1.03,.42,1.03,.98,1.03,.98-.4,.98-1.03Z"/>
          <path class="cls-12" d="M376.29,347.61v.74c-.07-.01-.12-.02-.18-.02-.59,0-.96,.35-.96,1.02v1.6h-.77v-3.3h.74v.48c.22-.35,.62-.52,1.17-.52Z"/>
          <path class="cls-12" d="M380.19,347.65v2.8c0,1.2-.62,1.74-1.78,1.74-.62,0-1.23-.16-1.61-.47l.35-.58c.29,.24,.76,.4,1.22,.4,.73,0,1.05-.33,1.05-1v-.17c-.27,.3-.66,.44-1.11,.44-.95,0-1.67-.64-1.67-1.6s.72-1.59,1.67-1.59c.46,0,.87,.15,1.14,.48v-.44h.74Zm-.76,1.55c0-.56-.42-.93-1-.93s-1.01,.38-1.01,.93,.42,.95,1.01,.95,1-.38,1-.95Z"/>
          <path class="cls-12" d="M380.93,349.3c0-.99,.74-1.69,1.76-1.69s1.76,.7,1.76,1.69-.74,1.69-1.76,1.69-1.76-.7-1.76-1.69Zm2.74,0c0-.63-.42-1.03-.98-1.03s-.98,.4-.98,1.03,.42,1.03,.98,1.03,.98-.4,.98-1.03Z"/>
          <path class="cls-12" d="M387.17,350.77c-.19,.15-.46,.22-.74,.22-.72,0-1.14-.38-1.14-1.11v-1.59h-.54v-.62h.54v-.75h.77v.75h.88v.62h-.88v1.57c0,.32,.16,.49,.46,.49,.16,0,.32-.04,.43-.14l.22,.55Z"/>
          <path class="cls-12" d="M393.21,348.16c0,.95-.7,1.54-1.84,1.54h-.98v1.25h-.8v-4.33h1.78c1.14,0,1.84,.58,1.84,1.54Zm-.81,0c0-.54-.36-.86-1.07-.86h-.94v1.72h.94c.71,0,1.07-.32,1.07-.86Z"/>
          <path class="cls-12" d="M396.67,349.02v1.93h-.73v-.4c-.19,.28-.54,.44-1.04,.44-.75,0-1.23-.41-1.23-.99s.37-.98,1.37-.98h.85v-.05c0-.45-.27-.72-.82-.72-.37,0-.75,.12-1,.33l-.3-.56c.35-.27,.87-.41,1.4-.41,.95,0,1.5,.45,1.5,1.4Zm-.77,.9v-.38h-.8c-.53,0-.67,.2-.67,.44,0,.28,.23,.46,.63,.46s.71-.17,.83-.51Z"/>
          <path class="cls-12" d="M397.28,350.62l.3-.59c.29,.19,.74,.33,1.15,.33,.49,0,.69-.14,.69-.37,0-.63-2.04-.04-2.04-1.35,0-.62,.56-1.03,1.45-1.03,.44,0,.94,.1,1.24,.28l-.3,.59c-.32-.19-.63-.25-.95-.25-.47,0-.69,.15-.69,.37,0,.67,2.04,.07,2.04,1.37,0,.62-.57,1.02-1.5,1.02-.55,0-1.1-.16-1.4-.37Z"/>
          <path class="cls-12" d="M400.46,350.62l.3-.59c.29,.19,.74,.33,1.15,.33,.49,0,.69-.14,.69-.37,0-.63-2.04-.04-2.04-1.35,0-.62,.56-1.03,1.45-1.03,.44,0,.94,.1,1.24,.28l-.3,.59c-.32-.19-.63-.25-.95-.25-.47,0-.69,.15-.69,.37,0,.67,2.04,.07,2.04,1.37,0,.62-.57,1.02-1.5,1.02-.55,0-1.1-.16-1.4-.37Z"/>
          <path class="cls-12" d="M409.11,347.65l-1.22,3.3h-.74l-.85-2.27-.87,2.27h-.74l-1.21-3.3h.73l.87,2.43,.91-2.43h.65l.89,2.45,.9-2.45h.69Z"/>
          <path class="cls-12" d="M409.28,349.3c0-.99,.74-1.69,1.76-1.69s1.76,.7,1.76,1.69-.74,1.69-1.76,1.69-1.76-.7-1.76-1.69Zm2.74,0c0-.63-.42-1.03-.98-1.03s-.98,.4-.98,1.03,.42,1.03,.98,1.03,.98-.4,.98-1.03Z"/>
          <path class="cls-12" d="M415.44,347.61v.74c-.07-.01-.12-.02-.18-.02-.59,0-.96,.35-.96,1.02v1.6h-.77v-3.3h.74v.48c.22-.35,.62-.52,1.17-.52Z"/>
          <path class="cls-12" d="M419.3,346.37v4.58h-.74v-.43c-.26,.32-.64,.47-1.09,.47-.96,0-1.67-.67-1.67-1.69s.71-1.69,1.67-1.69c.43,0,.8,.14,1.06,.44v-1.69h.77Zm-.76,2.93c0-.63-.43-1.03-.98-1.03s-.98,.4-.98,1.03,.43,1.03,.98,1.03,.98-.4,.98-1.03Z"/>
          <path class="cls-12" d="M422.21,347.81c0-.35-.3-.58-.77-.58s-.79,.17-1.01,.48l-.6-.39c.35-.47,.9-.75,1.67-.75,.91,0,1.51,.41,1.51,1.12,0,1.01-1.06,1.1-1.06,1.83h-.79c0-.91,1.03-1.09,1.03-1.71Zm-1.13,2.7c0-.27,.2-.48,.49-.48s.49,.21,.49,.48-.2,.48-.49,.48-.49-.22-.49-.48Z"/>
        </g>
        <path class="cls-13" d="M288.88,349.91c-.08,0-.17-.03-.24-.08l-.98-.8c-.16-.13-.18-.37-.05-.53,.13-.16,.37-.18,.53-.05l.7,.58,1.67-1.81c.14-.15,.38-.16,.53-.02,.15,.14,.16,.38,.02,.53l-1.91,2.08c-.07,.08-.17,.12-.28,.12Z"/>
        <path class="cls-7" d="M411.54,255.03c1-.42,1.71-1.45,1.71-2.66,0-1.59-1.19-2.88-2.68-2.89-1.49,0-2.7,1.27-2.71,2.86,0,1.22,.71,2.26,1.72,2.68-4.15,.62-3.96,5.13-3.96,5.13l9.81,.05s.22-4.56-3.89-5.18Z"/>
        <g>
          <path class="cls-13" d="M336.64,223.83h2.3v6.31h3.88v1.82h-6.18v-8.13Z"/>
          <path class="cls-13" d="M343.2,228.8c0-1.89,1.5-3.24,3.55-3.24s3.55,1.35,3.55,3.24-1.47,3.26-3.55,3.26-3.55-1.36-3.55-3.26Zm4.88,0c0-.95-.57-1.49-1.32-1.49s-1.32,.53-1.32,1.49,.58,1.51,1.32,1.51,1.32-.55,1.32-1.51Z"/>
          <path class="cls-13" d="M358.1,225.66v5.14c0,2.38-1.35,3.51-3.69,3.51-1.21,0-2.36-.28-3.12-.82l.8-1.54c.52,.42,1.38,.67,2.12,.67,1.19,0,1.68-.53,1.68-1.52v-.21c-.43,.5-1.07,.74-1.87,.74-1.67,0-3.09-1.18-3.09-3.04s1.42-3.03,3.09-3.03c.87,0,1.54,.28,1.97,.87v-.77h2.1Zm-2.18,2.93c0-.77-.58-1.28-1.37-1.28s-1.38,.51-1.38,1.28,.59,1.29,1.38,1.29,1.37-.52,1.37-1.29Z"/>
          <path class="cls-13" d="M363,223.83h2.3v8.13h-2.3v-8.13Z"/>
          <path class="cls-13" d="M373.53,228.35v3.6h-2.21v-3.24c0-.91-.39-1.29-1.03-1.29-.71,0-1.25,.44-1.25,1.49v3.04h-2.21v-6.29h2.1v.69c.5-.52,1.21-.79,2-.79,1.47,0,2.6,.85,2.6,2.8Z"/>
        </g>
      </g>
      <g>
        <path class="cls-13" d="M545.6,133.69h-16.52c-.65,0-1.18-.53-1.18-1.18v-8.21c0-.65,.53-1.18,1.17-1.18h16.53c.08,0,.16,.03,.22,.09,.06,.06,.09,.13,.09,.21v2.71h1.77c.17,0,.3,.14,.3,.3v3.96c0,.17-.14,.3-.3,.3h-1.77v2.71c0,.17-.13,.3-.3,.3Zm-.3-9.98h-16.23c-.32,0-.57,.26-.57,.58v8.21c0,.32,.26,.58,.58,.58h16.22v-2.71c0-.17,.13-.3,.3-.3h1.77v-3.35h-1.77c-.17,0-.3-.14-.3-.3v-2.71Z"/>
        <path class="cls-13" d="M529.84,130.73v-4.66c0-.56,.45-1.01,1.01-1.01h7.78c.56,0,1.01,.45,1.01,1.01v4.66c0,.56-.45,1.01-1.01,1.01h-7.78c-.56,0-1.01-.45-1.01-1.01Z"/>
      </g>
    </g>
  </g>
  <g id="Plants">
    <g>
      <path class="cls-5" d="M690.89,205.08c-11.75,6.09-20.76,16.57-27.24,28.11-6.48,11.54-10.66,24.2-14.79,36.77l-3.62,64.84c13.67-23.26,24.65-50.61,27.61-77.43-3.03-.27-6.07-.54-9.1-.81,6.1-.93,11.22-5.35,14.48-10.59,3.26-5.24,4.94-11.29,6.57-17.24-3.7,.55-7.4,1.1-11.1,1.65,8.69-5.8,15-15.08,17.19-25.3Z"/>
      <g class="cls-10">
        <path d="M690.89,205.08c-11.75,6.09-20.76,16.57-27.24,28.11-6.48,11.54-10.66,24.2-14.79,36.77l-3.62,64.84c13.67-23.26,24.65-50.61,27.61-77.43-3.03-.27-6.07-.54-9.1-.81,6.1-.93,11.22-5.35,14.48-10.59,3.26-5.24,4.94-11.29,6.57-17.24-3.7,.55-7.4,1.1-11.1,1.65,8.69-5.8,15-15.08,17.19-25.3Z"/>
      </g>
      <path class="cls-5" d="M643.21,349.99s-29.68-35.52-29.34-69.44h11.99s-13.02-8.56-11.99-13.36c1.03-4.8,1.37-22.95,1.37-22.95l10.96,2.74s-8.22-4.11-9.25-10.62c-1.03-6.51,2.4-36.65,2.4-36.65,0,0,13.36,14.04,17.47,28.43,4.11,14.39,14.9,31.17,11.73,75.02-3.17,43.85-5.35,46.83-5.35,46.83Z"/>
      <path class="cls-5" d="M658.25,353.34s32.15-21.42,39.3-48.76l-9.64-2.62s12.34-4.04,12.56-8.12,3.92-18.75,3.92-18.75l-9.41-.19s7.51-1.51,9.76-6.51c2.25-5.01,6.09-29.99,6.09-29.99,0,0-13.81,8.37-20.27,19.04-6.45,10.67-18.8,21.8-25.84,57.74-7.05,35.94-6.47,38.17-6.47,38.17Z"/>
      <path class="cls-13" d="M627.46,230.69s.04,.12,.1,.37c.06,.27,.15,.63,.26,1.09,.22,.99,.54,2.41,.94,4.22,.41,1.83,.89,4.07,1.41,6.69,.53,2.61,1.14,5.58,1.74,8.88,1.27,6.59,2.61,14.46,3.99,23.22,1.34,8.77,2.67,18.43,3.86,28.59,1.16,10.17,2.07,19.88,2.77,28.73,.66,8.85,1.15,16.82,1.41,23.52,.17,3.35,.25,6.38,.33,9.05,.09,2.66,.14,4.96,.16,6.83,.02,1.85,.04,3.3,.05,4.32,0,.47,0,.84,0,1.12,0,.25,0,.38-.02,.38,0,0-.02-.13-.04-.38-.01-.28-.03-.65-.05-1.12-.03-1.02-.08-2.46-.15-4.32-.05-1.87-.13-4.17-.25-6.83-.11-2.66-.22-5.69-.41-9.04-.31-6.7-.84-14.66-1.53-23.5-.72-8.83-1.64-18.54-2.8-28.7-1.19-10.16-2.51-19.81-3.82-28.58-1.35-8.76-2.65-16.64-3.88-23.23-.58-3.3-1.17-6.28-1.67-8.89-.49-2.62-.94-4.87-1.32-6.7-.36-1.82-.64-3.24-.84-4.24-.09-.46-.16-.83-.21-1.1-.04-.25-.06-.38-.05-.38Z"/>
      <path class="cls-5" d="M639.09,371.74s-27.16-30.82-35.59-49.45l6.37-2.72c-4.61,.76-9.34-1.22-12.92-4.23-3.58-3.01-6.21-6.97-8.78-10.88l8.39-1.42c-7.63-2.14-14.35-7.34-18.32-14.19,9.9,1.63,18.85,7.06,26.23,13.86,5.98,5.5,11.03,11.89,15.89,18.42,2.37,3.18,4.44,6.58,6.17,10.15,4.56,9.44,12.59,29.15,12.57,40.47Z"/>
      <path class="cls-13" d="M697.98,256.33s-.04,.11-.13,.31c-.11,.23-.24,.52-.42,.89-.39,.81-.95,1.96-1.66,3.42-1.46,2.96-3.52,7.26-6.02,12.6-2.51,5.34-5.39,11.74-8.48,18.89-3.07,7.16-6.34,15.08-9.59,23.47-3.23,8.4-6.14,16.46-8.69,23.83-2.52,7.38-4.69,14.05-6.43,19.69-1.74,5.63-3.11,10.2-4.02,13.37-.46,1.56-.82,2.78-1.07,3.64-.12,.39-.22,.7-.29,.94-.07,.21-.11,.32-.12,.32,0,0,.01-.11,.07-.33,.06-.24,.14-.56,.24-.96,.23-.87,.56-2.1,.98-3.67,.85-3.19,2.16-7.78,3.87-13.42,1.69-5.65,3.83-12.34,6.33-19.73,2.52-7.38,5.42-15.46,8.66-23.86,3.26-8.39,6.54-16.31,9.64-23.47,3.12-7.15,6.04-13.54,8.59-18.86,2.54-5.32,4.66-9.6,6.17-12.53,.75-1.44,1.33-2.57,1.74-3.37,.19-.36,.35-.65,.47-.87,.11-.2,.17-.29,.17-.29Z"/>
      <path class="cls-13" d="M641.4,384.95s-.06-.19-.13-.57c-.07-.43-.16-.97-.26-1.64-.1-.71-.23-1.58-.42-2.59-.18-1-.36-2.15-.63-3.41-.49-2.52-1.18-5.5-2.07-8.78-.92-3.27-2.04-6.83-3.42-10.5-1.39-3.66-2.9-7.08-4.38-10.14-1.5-3.05-2.95-5.74-4.25-7.96-.63-1.12-1.25-2.1-1.78-2.98-.52-.88-1-1.62-1.39-2.22-.36-.57-.65-1.03-.88-1.4-.2-.32-.29-.5-.28-.51,.01-.01,.14,.14,.37,.45,.25,.35,.57,.8,.97,1.35,.42,.59,.92,1.31,1.47,2.18,.55,.86,1.2,1.83,1.85,2.94,1.35,2.2,2.83,4.89,4.36,7.93,1.5,3.06,3.03,6.49,4.43,10.17,1.38,3.69,2.5,7.27,3.39,10.56,.87,3.3,1.53,6.3,1.97,8.84,.25,1.26,.4,2.42,.56,3.43,.16,1.01,.26,1.89,.34,2.6,.07,.67,.12,1.22,.17,1.65,.03,.38,.04,.58,.02,.58Z"/>
      <rect class="cls-12" x="617.79" y="377.7" width="59.44" height="12.13"/>
      <polygon class="cls-12" points="623.45 389.83 629.88 426.69 665.8 426.69 671.8 389.83 623.45 389.83"/>
      <path class="cls-13" d="M673.59,389.83c0,.14-11.24,.26-25.11,.26s-25.12-.12-25.12-.26,11.24-.26,25.12-.26,25.11,.12,25.11,.26Z"/>
    </g>
    <g>
      <polygon class="cls-12" points="24.17 391.17 29.57 426.67 60.95 426.67 68.24 391.68 24.17 391.17"/>
      <g>
        <path class="cls-2" d="M63.85,413.92c0,.1-8.04,.18-17.96,.18s-17.96-.08-17.96-.18,8.04-.18,17.96-.18,17.96,.08,17.96,.18Z"/>
        <path class="cls-2" d="M63.97,412.17c0,.1-8.1,.18-18.08,.18s-18.08-.08-18.08-.18,8.09-.18,18.08-.18,18.08,.08,18.08,.18Z"/>
        <path class="cls-2" d="M63.91,410.2c0,.1-8.1,.18-18.08,.18s-18.08-.08-18.08-.18,8.09-.18,18.08-.18,18.08,.08,18.08,.18Z"/>
        <path class="cls-2" d="M33.18,424.64c-.1,.02-.53-1.98-.96-4.47-.43-2.49-.7-4.52-.6-4.53s.53,1.98,.96,4.47c.43,2.49,.7,4.51,.6,4.53Z"/>
        <path class="cls-2" d="M35.31,424.26c-.1,0-.22-1.95-.39-4.36-.16-2.41-.31-4.36-.2-4.37,.1-.01,.41,1.93,.57,4.35,.17,2.42,.12,4.38,.02,4.39Z"/>
        <path class="cls-2" d="M39.2,424.26c-.1,.02-.53-1.98-.82-4.47-.29-2.5-.34-4.53-.24-4.54,.1,0,.31,2.01,.6,4.5,.29,2.48,.55,4.5,.45,4.51Z"/>
        <path class="cls-2" d="M41.93,424.45c-.1,0-.35-2.02-.43-4.54-.08-2.52,.04-4.56,.14-4.56,.1,0,.15,2.04,.23,4.55,.08,2.51,.17,4.55,.07,4.56Z"/>
        <path class="cls-2" d="M46.77,424.26c-.1,0-.25-1.93-.33-4.31-.08-2.39-.06-4.32,.04-4.32,.1,0,.25,1.93,.33,4.31,.08,2.38,.06,4.32-.04,4.32Z"/>
        <path class="cls-2" d="M50.3,424.45c-.1,0-.17-2-.15-4.46,.02-2.46,.12-4.46,.22-4.46,.1,0,.17,2,.15,4.46-.02,2.46-.12,4.46-.22,4.46Z"/>
        <path class="cls-2" d="M53.61,423.98c-.1,0,.02-2.1,.27-4.66,.25-2.57,.53-4.64,.63-4.63,.1,0-.02,2.1-.27,4.66-.25,2.56-.53,4.64-.63,4.63Z"/>
        <path class="cls-2" d="M57.88,423.51c-.1-.01,.06-1.8,.53-3.96,.47-2.16,1.07-3.86,1.17-3.83,.1,.03-.34,1.76-.81,3.9-.47,2.14-.78,3.9-.89,3.89Z"/>
      </g>
      <g>
        <path class="cls-5" d="M54.86,321.12s0,.06-.04,.18c-.04,.13-.09,.3-.15,.5-.15,.47-.34,1.11-.6,1.92-.27,.83-.59,1.84-.92,3.04-.34,1.19-.76,2.54-1.13,4.05-.4,1.51-.83,3.15-1.22,4.94-.44,1.78-.8,3.7-1.21,5.72-.75,4.05-1.44,8.52-1.92,13.25-.46,4.73-.67,9.25-.73,13.37,0,2.06-.02,4.01,.06,5.84,.03,1.83,.13,3.53,.22,5.09,.07,1.56,.21,2.96,.31,4.19,.09,1.23,.2,2.29,.3,3.16,.09,.84,.16,1.51,.21,2,.02,.21,.03,.38,.04,.52,0,.12,0,.18,0,.18,0,0-.02-.06-.04-.17-.02-.14-.05-.31-.08-.52-.07-.48-.16-1.15-.28-1.99-.12-.86-.26-1.92-.37-3.16-.12-1.23-.28-2.64-.36-4.19-.11-1.56-.22-3.26-.27-5.1-.09-1.83-.08-3.79-.09-5.86,.04-4.13,.25-8.66,.71-13.4,.49-4.74,1.18-9.22,1.96-13.27,.42-2.02,.8-3.94,1.25-5.72,.41-1.79,.85-3.44,1.27-4.94,.39-1.51,.83-2.85,1.19-4.04,.35-1.19,.69-2.2,.98-3.02,.28-.8,.5-1.43,.66-1.9,.07-.2,.13-.36,.18-.49,.04-.11,.07-.16,.07-.16Z"/>
        <path class="cls-5" d="M49.2,343.1c.85-2.54,2.61-4.76,4.88-6.16,.78-.48,1.76-.87,2.58-.47,1.09,.53,1.18,2.07,.86,3.24-.55,1.97-1.84,3.73-3.55,4.84s-3.31,1.64-5.33,1.34"/>
        <path class="cls-5" d="M47.29,357.95c.81-3.06,3.25-7.42,5.79-9.32,.4-.3,.83-.58,1.32-.7,.49-.12,1.05-.04,1.41,.3,.52,.5,.47,1.33,.32,2.03-.97,4.47-4.69,8.22-9.16,9.22"/>
        <path class="cls-5" d="M46.76,371.01c1.25-2.91,3.29-5.48,5.84-7.35,.6-.44,1.31-.86,2.04-.73,1.11,.2,1.61,1.56,1.51,2.68-.2,2.31-1.97,4.16-3.79,5.6-1.96,1.55-5.41,2.78-5.41,2.78"/>
        <path class="cls-5" d="M47.06,380.4c1.28-2.18,2.88-4.24,4.97-5.66,.45-.31,.95-.59,1.49-.67,.54-.07,1.15,.1,1.46,.56,.5,.73,.02,1.72-.51,2.43-1.85,2.44-4.17,4.29-7.1,5.2"/>
        <path class="cls-5" d="M46.81,376.59c-2.14-2.63-4.53-5.05-7.11-7.24-.4-.34-.91-.7-1.42-.54-.39,.13-.62,.55-.65,.96-.03,.41,.11,.81,.27,1.19,1.55,3.76,5.22,6.7,9.15,7.7"/>
        <path class="cls-5" d="M47.04,364.36c-1.86-2.27-3.72-4.54-5.59-6.81-.53-.65-1.08-1.31-1.81-1.72-.73-.41-1.7-.51-2.38-.03-.68,.48-.91,1.43-.76,2.25,.15,.82,.61,1.55,1.09,2.24,1.14,1.64,2.43,3.2,4.07,4.32,1.64,1.13,3.13,1.86,5.1,1.57"/>
        <path class="cls-5" d="M47.82,350.61c-1.08-3.24-3.05-6.19-5.62-8.44-.43-.38-.9-.75-1.46-.85-1.12-.22-2.2,.72-2.56,1.8-.41,1.22-.13,2.59,.51,3.7,.64,1.11,1.61,2,2.63,2.78,1.88,1.44,3.98,2.57,6.21,3.35"/>
        <path class="cls-5" d="M50.05,338.34c-.54-3.95-2.6-7.23-4.98-10.43-.5-.67-1.2-1.39-2.03-1.26-.53,.08-.96,.51-1.17,1-.21,.49-.24,1.04-.22,1.58,.12,4.77,3.42,9.3,7.91,10.89"/>
        <path class="cls-5" d="M51.61,332.07c-.2-2.03-.39-4.07-.2-6.1,.19-2.03,.78-4.07,2.03-5.69,.53-.69,1.2-1.32,2.03-1.62,.82-.3,1.82-.23,2.49,.33,.62,.52,.88,1.38,.85,2.19-.03,.81-.32,1.59-.63,2.34-1.49,3.58-3.97,7.54-6.56,8.55"/>
      </g>
      <g>
        <path class="cls-13" d="M27.28,336.78s.02,.17,.03,.5c0,.36,0,.84,.02,1.43,0,.62,0,1.38,.04,2.27,.03,.88,.04,1.89,.11,3,.1,2.22,.31,4.86,.65,7.78,.36,2.92,.86,6.11,1.55,9.43,.7,3.32,1.53,6.44,2.37,9.26,.86,2.81,1.73,5.31,2.53,7.38,.38,1.05,.78,1.97,1.11,2.79,.32,.82,.63,1.52,.88,2.09,.23,.55,.42,.98,.56,1.32,.12,.3,.18,.47,.17,.47-.01,0-.09-.15-.24-.44-.16-.33-.37-.76-.62-1.29-.27-.56-.59-1.25-.94-2.07-.35-.81-.76-1.73-1.16-2.77-.84-2.07-1.73-4.57-2.61-7.38-.86-2.82-1.7-5.95-2.41-9.28-.69-3.33-1.18-6.54-1.52-9.46-.32-2.93-.51-5.58-.57-7.81-.06-1.11-.04-2.12-.05-3.01-.01-.88,0-1.65,.03-2.27,.02-.59,.04-1.07,.05-1.43,.02-.33,.03-.5,.04-.5Z"/>
        <path class="cls-13" d="M28.15,352.96c.03-1.91,.75-3.8,2-5.25,.43-.49,1.01-.97,1.66-.88,.86,.12,1.25,1.15,1.28,2.02,.05,1.46-.45,2.93-1.38,4.06s-1.9,1.83-3.34,2.06"/>
        <path class="cls-13" d="M30.05,363.47c-.11-2.26,.62-5.75,1.94-7.59,.21-.29,.44-.58,.75-.76,.31-.18,.7-.25,1.02-.1,.46,.23,.6,.81,.65,1.32,.3,3.25-1.43,6.61-4.25,8.25"/>
        <path class="cls-13" d="M32.5,372.48c.22-2.25,1.06-4.44,2.4-6.26,.31-.43,.71-.87,1.23-.93,.8-.1,1.43,.71,1.61,1.5,.36,1.62-.44,3.26-1.37,4.63-1,1.48-3.08,3.06-3.08,3.06"/>
        <path class="cls-13" d="M34.73,378.81c.4-1.76,1.05-3.5,2.17-4.92,.24-.31,.52-.61,.87-.78,.35-.17,.81-.18,1.12,.06,.5,.39,.39,1.17,.17,1.76-.73,2.06-1.92,3.82-3.71,5.07"/>
        <path class="cls-13" d="M33.74,376.27c-2.02-1.33-4.17-2.47-6.4-3.4-.35-.15-.77-.28-1.08-.06-.24,.17-.31,.51-.24,.79,.07,.28,.25,.53,.44,.75,1.87,2.22,4.99,3.44,7.89,3.27"/>
        <path class="cls-13" d="M31.26,367.9c-1.76-1.14-3.51-2.29-5.27-3.43-.5-.33-1.02-.66-1.6-.78-.59-.12-1.27,.02-1.63,.49-.36,.47-.32,1.17-.04,1.7,.28,.53,.75,.92,1.22,1.29,1.12,.87,2.34,1.65,3.7,2.07,1.36,.42,2.53,.59,3.81-.03"/>
        <path class="cls-13" d="M28.83,358.36c-1.44-1.97-3.41-3.56-5.64-4.54-.37-.16-.78-.31-1.18-.27-.81,.09-1.34,.96-1.36,1.78-.02,.92,.47,1.79,1.14,2.41,.67,.62,1.52,1.01,2.39,1.33,1.59,.57,3.27,.89,4.95,.95"/>
        <path class="cls-13" d="M27.71,349.53c-1.22-2.57-3.32-4.37-5.63-6.03-.49-.35-1.12-.69-1.66-.42-.34,.17-.54,.55-.58,.93-.04,.38,.06,.76,.19,1.12,1.11,3.22,4.33,5.6,7.73,5.71"/>
        <path class="cls-13" d="M27.42,344.93c-.57-1.34-1.14-2.69-1.45-4.11-.31-1.42-.34-2.94,.16-4.31,.21-.59,.54-1.16,1.03-1.54,.5-.38,1.19-.55,1.77-.31,.54,.22,.9,.75,1.05,1.31s.13,1.15,.07,1.73c-.24,2.76-1.08,5.99-2.63,7.23"/>
      </g>
      <g>
        <path class="cls-5" d="M66.95,336.43s.03,.17,.04,.5c.01,.36,.03,.84,.05,1.43,.02,.62,.04,1.38,.03,2.27,0,.88,0,1.89-.05,3.01-.06,2.23-.25,4.88-.57,7.81-.34,2.93-.83,6.13-1.52,9.46-.71,3.33-1.55,6.46-2.41,9.28-.88,2.81-1.78,5.31-2.61,7.38-.4,1.04-.81,1.96-1.16,2.77-.34,.82-.67,1.51-.94,2.07-.26,.53-.47,.96-.62,1.29-.15,.29-.23,.44-.24,.44-.01,0,.05-.17,.17-.47,.14-.34,.33-.77,.56-1.32,.25-.57,.55-1.27,.88-2.09,.33-.82,.73-1.74,1.11-2.79,.8-2.07,1.67-4.58,2.53-7.38,.84-2.82,1.67-5.94,2.37-9.26,.69-3.32,1.18-6.51,1.55-9.43,.34-2.92,.55-5.56,.65-7.78,.07-1.11,.08-2.12,.11-3,.03-.88,.04-1.64,.04-2.27,0-.59,.01-1.07,.02-1.43,0-.33,.02-.5,.03-.5Z"/>
        <path class="cls-5" d="M66.08,352.62c-.03-1.91-.75-3.8-2-5.25-.43-.49-1.01-.97-1.66-.88-.86,.12-1.25,1.15-1.28,2.02-.05,1.46,.45,2.93,1.38,4.06,.93,1.13,1.9,1.83,3.34,2.06"/>
        <path class="cls-5" d="M64.18,363.13c.11-2.26-.62-5.75-1.94-7.59-.21-.29-.44-.58-.75-.76-.31-.18-.7-.25-1.02-.1-.46,.23-.6,.81-.65,1.32-.3,3.25,1.43,6.61,4.25,8.25"/>
        <path class="cls-5" d="M61.73,372.14c-.22-2.25-1.06-4.44-2.4-6.26-.31-.43-.71-.87-1.23-.93-.8-.1-1.43,.71-1.61,1.5-.36,1.62,.44,3.26,1.37,4.63,1,1.48,3.08,3.06,3.08,3.06"/>
        <path class="cls-5" d="M59.51,378.47c-.4-1.76-1.05-3.5-2.17-4.92-.24-.31-.52-.61-.87-.78-.35-.17-.81-.18-1.12,.06-.5,.39-.39,1.17-.18,1.76,.73,2.06,1.92,3.82,3.71,5.07"/>
        <path class="cls-5" d="M60.49,375.93c2.02-1.33,4.17-2.47,6.4-3.4,.35-.15,.77-.28,1.08-.06,.24,.17,.31,.51,.24,.79-.07,.28-.25,.53-.44,.75-1.87,2.22-4.99,3.44-7.89,3.27"/>
        <path class="cls-5" d="M62.97,367.56c1.76-1.14,3.51-2.29,5.27-3.43,.5-.33,1.02-.66,1.6-.78,.59-.12,1.27,.02,1.63,.49,.36,.48,.32,1.17,.04,1.7-.28,.53-.75,.92-1.22,1.29-1.12,.87-2.34,1.65-3.7,2.07-1.36,.42-2.53,.59-3.81-.03"/>
        <path class="cls-5" d="M65.4,358.02c1.44-1.97,3.41-3.56,5.64-4.54,.37-.16,.78-.31,1.18-.27,.81,.09,1.34,.96,1.36,1.78,.02,.92-.47,1.79-1.14,2.41-.67,.62-1.52,1.01-2.39,1.33-1.59,.57-3.27,.89-4.95,.95"/>
        <path class="cls-5" d="M66.52,349.19c1.22-2.57,3.32-4.37,5.63-6.03,.49-.35,1.12-.69,1.66-.42,.34,.17,.54,.55,.58,.93,.04,.38-.06,.76-.19,1.12-1.11,3.22-4.33,5.6-7.73,5.71"/>
        <path class="cls-5" d="M66.81,344.58c.57-1.34,1.14-2.69,1.45-4.11,.31-1.42,.34-2.94-.16-4.31-.21-.59-.54-1.16-1.03-1.54-.5-.38-1.19-.55-1.77-.31-.54,.22-.9,.75-1.05,1.31-.15,.56-.13,1.15-.07,1.73,.24,2.76,1.08,5.99,2.63,7.23"/>
      </g>
      <path class="cls-12" d="M20.57,384.14v6.64c0,1.44,1.17,2.61,2.62,2.61h45.44c1.44,0,2.61-1.17,2.61-2.61v-6.64H20.57Z"/>
      <g class="cls-9">
        <polygon points="24.51 393.4 24.89 395.51 66.82 398.5 67.88 393.4 24.51 393.4"/>
      </g>
    </g>
  </g>
  <g id="Books">
    <g>
      <g>
        <g>
          <rect class="cls-12" x="457.75" y="379.82" width="86.22" height="7.38"/>
          <rect class="cls-1" x="537.5" y="379.82" width="1.47" height="7.38"/>
          <rect class="cls-1" x="534.41" y="379.82" width="1.47" height="7.38"/>
          <rect class="cls-1" x="465.74" y="379.82" width="1.47" height="7.38"/>
          <rect class="cls-1" x="462.65" y="379.82" width="1.47" height="7.38"/>
          <path class="cls-1" d="M526.47,385.53s.1,0,.28-.04c.18-.04,.46-.14,.72-.41,.13-.13,.24-.31,.31-.53,.07-.21,.08-.47,.05-.73-.04-.26-.16-.54-.38-.76-.22-.22-.52-.38-.87-.4-2.82,0-6.9,0-11.93,.01-10.08,0-24,.01-39.38,.02-.46,0-.91,.25-1.14,.64-.12,.19-.18,.42-.19,.65-.01,.24,.02,.46,.11,.67,.18,.42,.58,.73,1.03,.79,.22,.03,.46,.01,.7,.02h.7c1.87,0,3.72,0,5.53,0,3.63,0,7.12,0,10.46,0,6.66,0,12.66,0,17.7,.01,5.04,0,9.11,.02,11.94,.02,1.41,0,2.5,0,3.24,.01,.37,0,.65,0,.84,0,.19,0,.29,0,.29,0,0,0-.1,0-.29,0-.19,0-.47,0-.84,0-.74,0-1.84,0-3.24,.01-2.82,0-6.9,.01-11.94,.02-5.04,0-11.04,0-17.7,.01-3.33,0-6.83,0-10.46,0-1.81,0-3.66,0-5.53,0-.23,0-.47,0-.7,0-.24,0-.46,.01-.71-.02-.49-.07-.93-.41-1.13-.87-.1-.23-.13-.49-.12-.73,0-.25,.08-.5,.21-.71,.25-.43,.75-.71,1.25-.71,15.38,0,29.3,.01,39.38,.02,5.04,.01,9.12,.02,11.94,.03,.36,.03,.68,.2,.9,.42,.22,.23,.35,.51,.39,.78,.03,.27,.02,.53-.06,.75-.07,.22-.19,.4-.32,.53-.26,.27-.55,.37-.73,.4-.09,.02-.17,.02-.21,.02-.05,0-.07,0-.07,0Z"/>
        </g>
        <g>
          <rect class="cls-5" x="461.97" y="387.11" width="80.05" height="10.57"/>
          <rect class="cls-11" x="461.97" y="388.42" width="80.05" height="7.5"/>
          <path class="cls-13" d="M541.33,388.62s-17.64,.06-39.4,.06-39.4-.03-39.4-.06,17.64-.06,39.4-.06,39.4,.03,39.4,.06Z"/>
          <path class="cls-13" d="M541.33,390.86s-17.64,.06-39.4,.06-39.4-.03-39.4-.06,17.64-.06,39.4-.06,39.4,.03,39.4,.06Z"/>
          <path class="cls-13" d="M541.33,393.1s-17.64,.06-39.4,.06-39.4-.03-39.4-.06,17.64-.06,39.4-.06,39.4,.03,39.4,.06Z"/>
          <path class="cls-13" d="M541.33,395.34s-17.64,.06-39.4,.06-39.4-.03-39.4-.06,17.64-.06,39.4-.06,39.4,.03,39.4,.06Z"/>
        </g>
      </g>
      <g>
        <g>
          <rect class="cls-2" x="465.78" y="358.12" width="10.97" height="20.79" transform="translate(942.53 737.04) rotate(180)"/>
          <rect class="cls-13" x="476.75" y="357.39" width="58.88" height="22.55" transform="translate(1012.38 737.33) rotate(180)"/>
          <path class="cls-13" d="M464.92,379.94h13.24v-1.46h-13.24c-.4,0-.73,.33-.73,.73h0c0,.4,.33,.73,.73,.73Z"/>
          <path class="cls-13" d="M464.92,358.85h13.24v-1.46h-13.24c-.4,0-.73,.33-.73,.73h0c0,.4,.33,.73,.73,.73Z"/>
          <path class="cls-7" d="M465.78,360.91s2.46,.06,5.49,.06,5.49-.03,5.49-.06-2.46-.06-5.49-.06-5.49,.03-5.49,.06Z"/>
          <path class="cls-7" d="M465.78,363.58s2.46,.06,5.49,.06,5.49-.03,5.49-.06-2.46-.06-5.49-.06-5.49,.03-5.49,.06Z"/>
          <path class="cls-7" d="M465.78,366.24s2.46,.06,5.49,.06,5.49-.03,5.49-.06-2.46-.06-5.49-.06-5.49,.03-5.49,.06Z"/>
          <path class="cls-7" d="M465.78,368.91s2.46,.06,5.49,.06,5.49-.03,5.49-.06-2.46-.06-5.49-.06-5.49,.03-5.49,.06Z"/>
          <path class="cls-7" d="M465.78,371.58s2.46,.06,5.49,.06,5.49-.03,5.49-.06-2.46-.06-5.49-.06-5.49,.03-5.49,.06Z"/>
          <path class="cls-7" d="M465.78,374.24s2.46,.06,5.49,.06,5.49-.03,5.49-.06-2.46-.06-5.49-.06-5.49,.03-5.49,.06Z"/>
          <path class="cls-7" d="M465.78,376.91s2.46,.06,5.49,.06,5.49-.03,5.49-.06-2.46-.06-5.49-.06-5.49,.03-5.49,.06Z"/>
        </g>
        <rect class="cls-1" x="485.22" y="366.75" width="43.09" height="3.81"/>
      </g>
    </g>
  </g>
  <g id="Character">
    <g>
      <g>
        <path class="cls-13" d="M138.16,192.26l-6.7-2c-8.11-2.83-14.82-.65-19.21,4.83-4.39,5.48-6.09,12.75-5.84,19.77,.16,4.53,1.04,9.28-.79,13.43-1.01,2.31-2.78,4.19-4.46,6.07s-3.35,3.88-4.1,6.29c-.75,2.41-.38,5.33,1.54,6.97,.81,.69,1.84,1.12,2.49,1.96,.9,1.17,.82,2.78,.9,4.26,.4,6.91,5.99,13.18,12.81,14.37,6.82,1.19,14.2-2.82,16.92-9.18,1.96-4.58,1.6-9.77,1.4-14.75-.7-17.45,1-35,5.02-52Z"/>
        <g>
          <g>
            <path class="cls-13" d="M152.7,184.09c-5.8-1.71-11.27-.06-16.66,2.68-5.39,2.74-9.75,7.32-12.59,12.66-2.99,5.62-4.34,12.18-3.31,18.47,1.03,6.28,4.54,12.22,9.83,15.75,7.23,4.83,17.23,4.65,24.74,.27,7.51-4.38,12.48-12.52,13.84-21.1,.94-5.92,.25-12.17-2.48-17.5-2.73-5.33-7.59-9.65-13.37-11.22"/>
            <g>
              <path class="cls-13" d="M133.46,202.19c1.14-2.16,1.1-4.73,1.73-7.09,1.39-5.19,6.15-8.92,11.32-10.39,4.81-1.37,10.35-.28,15.65,2.17,3.64,1.68,6.94,4.23,9.09,7.61,2.86,4.48,3.35,10.38,1.26,15.27l-26.56-7.18c-2.78,1.79-5.63,3.61-8.84,4.41-.94,.23-1.94,.38-2.88,.11-.93-.27-1.78-1.02-1.89-1.99-.12-1.05,.6-1.99,1.1-2.92Z"/>
              <path class="cls-6" d="M161.85,194.42l-24.2,2.17c-2.3-.12-4.31,1.54-4.63,3.82l-5.84,51.1c-.4,3.49,.36,7.02,2.17,10.03l1.9,3.17c4.34,7.23,14.81,7.81,19.62,.88,.34-.48,.58-.91,.7-1.27,.13-.45,.29-.74,.36-1.13l1.05-4.92c.77-4.52,1.36-9.14,1.36-9.09,0,0,9.8-.06,13.77-12.21,1.97-6.04,3.28-16.25,4.08-24.64,.72-7.55-2.77-17.51-10.34-17.91Z"/>
              <g>
                <g>
                  <path class="cls-13" d="M167.63,222.44c-.1,.85-.91,1.46-1.8,1.37-.89-.09-1.52-.85-1.42-1.7,.1-.85,.91-1.46,1.8-1.37,.89,.09,1.52,.86,1.42,1.7Z"/>
                  <path class="cls-13" d="M169.15,217.26c-.23,.18-1.3-.91-3.02-1.18-1.71-.29-3.12,.39-3.27,.15-.08-.11,.19-.45,.8-.76,.6-.31,1.59-.55,2.66-.38,1.07,.18,1.91,.71,2.36,1.2,.46,.49,.58,.9,.47,.97Z"/>
                </g>
                <g>
                  <path class="cls-13" d="M152.29,220.6c-.1,.85-.91,1.46-1.8,1.37-.89-.09-1.52-.85-1.42-1.7,.1-.85,.91-1.46,1.8-1.37,.89,.09,1.52,.86,1.42,1.7Z"/>
                  <path class="cls-13" d="M152.8,214.87c-.23,.18-1.3-.91-3.02-1.18-1.71-.29-3.12,.39-3.27,.15-.08-.11,.18-.45,.8-.76,.6-.31,1.59-.55,2.66-.38,1.07,.18,1.91,.71,2.36,1.2,.46,.49,.58,.9,.47,.97Z"/>
                </g>
                <path class="cls-13" d="M156.41,228.64c0-.1,1.11-.11,2.87-.06,.45,.02,.88,0,1-.28,.15-.3,.05-.8-.09-1.35-.24-1.13-.5-2.31-.77-3.55-1.04-5.05-1.73-9.17-1.52-9.21,.2-.04,1.22,4.02,2.26,9.07,.25,1.24,.48,2.43,.71,3.56,.09,.53,.28,1.14-.05,1.76-.17,.31-.53,.5-.82,.53-.3,.04-.54,0-.76-.02-1.76-.18-2.84-.35-2.83-.45Z"/>
                <path class="cls-8" d="M154.35,249.18s-8.47-.8-15.98-7.11c0,0,2.82,9.29,15.48,10.12l.5-3.01Z"/>
                <path class="cls-8" d="M155.02,232.66c-.49-.92-1.5-1.54-2.59-1.59-.76-.04-1.57,.2-2.12,.74-.55,.53-.78,1.38-.46,2.03,.36,.73,1.31,1.03,2.16,.93,.86-.1,1.65-.53,2.41-.96,.21-.12,.42-.24,.57-.43,.15-.19,.22-.45,.1-.64"/>
                <path class="cls-13" d="M151.16,229.02c.28,.03-.01,1.9,1.37,3.48,1.38,1.58,3.41,1.69,3.38,1.95,0,.12-.5,.29-1.34,.18-.83-.1-1.99-.56-2.84-1.53-.85-.97-1.09-2.12-1.03-2.89,.05-.79,.33-1.22,.46-1.19Z"/>
              </g>
              <path class="cls-13" d="M154.19,208.8c-.24,.44-1.93-.05-3.98-.13-2.06-.12-3.78,.21-3.98-.25-.09-.22,.27-.61,1-.96,.72-.35,1.83-.61,3.07-.55,1.23,.06,2.31,.43,3,.85,.69,.42,1.01,.84,.9,1.05Z"/>
              <path class="cls-13" d="M170.64,209.74c-.36,.34-1.48-.25-2.91-.5-1.41-.3-2.67-.16-2.89-.61-.09-.22,.16-.58,.75-.86,.58-.29,1.5-.45,2.47-.26,.97,.19,1.77,.68,2.2,1.16,.44,.48,.54,.91,.38,1.08Z"/>
              <path class="cls-13" d="M129.57,198.03c3.31-6.89,15.16-15.4,22.64-13.82l11.05,8.92c-1.31,4.01-4.98,7.14-9.14,7.8-2.22,.35-4.82,.17-6.34,1.83-1.56,1.69-1.18,4.52-2.66,6.29-2.05,2.44-6.59,1.68-8.25,4.4-.72,1.19-.65,2.74-1.4,3.91-.99,1.57-5.52,3.09-7.2,2.29-1.67-.8-1.26-3.78-1.61-5.42-.6-2.81,0-4.13,.52-5.58,1.26-3.42,.81-7.33,2.39-10.62Z"/>
              <path class="cls-6" d="M133.23,221.85c.15-.93,.33-2.25-.51-2.67-2.51-1.26-7.79-2.18-8.83,4.03-1.41,8.49,7.4,8.15,7.46,7.91,.04-.19,1.37-6.06,1.88-9.27Z"/>
              <path class="cls-8" d="M129.3,227.47s-.17,.08-.43,.15c-.26,.07-.69,.08-1.11-.16-.84-.48-1.36-2.03-1.15-3.56,.11-.78,.39-1.48,.77-2.05,.36-.58,.84-.94,1.3-.95,.47-.03,.74,.29,.81,.55,.07,.26,0,.42,.03,.44,.02,.03,.21-.11,.2-.47,0-.17-.07-.39-.25-.59-.18-.2-.46-.33-.78-.35-.66-.06-1.35,.44-1.76,1.06-.45,.62-.79,1.41-.91,2.28-.23,1.72,.38,3.46,1.55,4.02,.57,.25,1.1,.16,1.39,0,.3-.17,.37-.35,.35-.37Z"/>
            </g>
            <path class="cls-13" d="M161.09,190.26c.37,3.57,5.12,8.66,7.11,11.64,3.8,5.69,4.47,7.51,3.04,19.04,2.57-3.73,4.63-7.45,5.01-11.96,.38-4.52-.74-9.22-3.48-12.83-2.74-3.61-7.16-6-11.69-5.89"/>
          </g>
          <path class="cls-13" d="M126.63,195.83c4.85-6.99,11-10.71,16.55-11.85"/>
        </g>
        <path class="cls-5" d="M124.76,228.71s-.14-.13-.36-.4c-.23-.27-.53-.69-.9-1.24-.73-1.12-1.61-2.87-2.24-5.17-.65-2.3-.99-5.15-1.06-8.3-.19-3.17,.51-6.67,1.8-10.07,1.3-3.41,3.02-6.46,4.95-8.97,1.93-2.5,3.97-4.51,5.87-5.96,1.9-1.45,3.63-2.34,4.85-2.88,.61-.26,1.09-.45,1.43-.56,.33-.11,.51-.16,.51-.15,.02,.04-.67,.31-1.86,.89-1.18,.59-2.86,1.52-4.71,2.98-1.85,1.46-3.83,3.47-5.72,5.96-1.88,2.48-3.56,5.5-4.84,8.86-1.27,3.36-1.96,6.76-1.81,9.87,.04,3.12,.34,5.93,.94,8.21,.58,2.28,1.4,4.03,2.06,5.16,.66,1.14,1.13,1.71,1.09,1.75Z"/>
      </g>
      <g>
        <path class="cls-13" d="M167.66,337.67s48.81-5.53,56.78-6.88c15.26-2.59,30.52-.12,37,13,2.95,5.97-.79,17.48-9.73,26.04-6.67,6.38-39.8,39.89-39.8,39.89l-28.4-23.71,35.15-27.33-68.13,9.57,17.13-30.57Z"/>
        <g>
          <path class="cls-13" d="M218.29,393.35l-18.27,19.28s13.81,25.34,10.78,29.23l-39.33-34.65,27.21-31.24,19.61,17.37Z"/>
          <path class="cls-7" d="M189.32,400.24c-.94-.47-2.21-.09-2.7,.82-.49,.91-.09,2.21,.84,2.69,.93,.48,2.47,.08,2.85-.89,.38-.96-.17-2.46-1.18-2.71"/>
          <path class="cls-5" d="M171.47,407.22l2.75-3.15,36.91,34.62s.56,1.61-.3,3.21l-39.36-34.68Z"/>
          <path class="cls-1" d="M200.83,413c-.17,.18-1.21-.58-2.69-.8-1.48-.26-2.68,.12-2.79-.11-.14-.19,1.14-1.07,2.92-.76,1.79,.29,2.75,1.54,2.56,1.67Z"/>
          <path class="cls-1" d="M203.48,418.32c-.12,.22-1.23-.19-2.59,.03-1.36,.18-2.29,.9-2.47,.73-.21-.13,.63-1.35,2.33-1.6,1.69-.26,2.89,.66,2.74,.84Z"/>
          <path class="cls-1" d="M201.55,425.24c-.21-.11,.35-1.29,1.76-1.89,1.4-.61,2.67-.22,2.61,0-.03,.25-1.1,.29-2.25,.8-1.16,.48-1.91,1.23-2.12,1.08Z"/>
          <path class="cls-1" d="M204.49,408.14c-.23,.1-.88-.94-2.03-1.82-1.13-.91-2.29-1.29-2.25-1.54,0-.23,1.45-.21,2.79,.85,1.35,1.05,1.72,2.45,1.5,2.51Z"/>
        </g>
        <path class="cls-5" d="M231.46,389.99s-.11,.16-.35,.42c-.28,.3-.64,.68-1.08,1.15-1,1.04-2.38,2.46-4.07,4.22-3.53,3.59-8.38,8.53-13.87,14.1l-.17,.17-.18-.15c-1.14-.95-2.33-1.94-3.54-2.95-6.82-5.74-13-10.93-17.53-14.74-2.19-1.87-3.98-3.4-5.27-4.51-.58-.51-1.05-.93-1.42-1.25-.32-.29-.48-.45-.47-.46s.2,.12,.54,.38c.38,.3,.87,.69,1.48,1.17,1.32,1.08,3.15,2.56,5.38,4.38,4.55,3.78,10.76,8.93,17.63,14.62,1.21,1.01,2.4,2.01,3.54,2.96l-.35,.02c5.53-5.53,10.43-10.42,13.99-13.98,1.74-1.71,3.16-3.1,4.18-4.11,.47-.45,.85-.81,1.14-1.09,.26-.24,.41-.37,.42-.36Z"/>
      </g>
      <g>
        <path class="cls-13" d="M273,388.44l23.97,21.15,23.78,11.26c1.71,.81,2.38,2.91,1.46,4.56h0c-.52,.93-1.44,1.54-2.5,1.66-6.72,.72-31.46,3.23-33.12,1.58-1.93-1.91-26.76-20.63-26.76-20.63l13.18-19.58Z"/>
        <path class="cls-5" d="M322.21,425.41l-37.27,1.85,1.65,1.39c1.03,.73,1.41,.65,2.58,.65,3.13-.02,11.78-.25,30.48-2.16,1.09-.11,2.05-.76,2.56-1.73h0Z"/>
        <g class="cls-3">
          <path class="cls-1" d="M284.92,418.14c.94-.26,2.03,.32,2.33,1.25,.29,.93-.29,2.05-1.22,2.32-.93,.27-2.27-.38-2.46-1.34-.19-.96,.56-2.23,1.54-2.27"/>
        </g>
        <path class="cls-1" d="M306.82,422c.18-.08-.63-1.71-.1-3.75,.47-2.05,1.96-3.11,1.83-3.27-.04-.07-.49,.08-1.06,.58-.56,.5-1.18,1.39-1.46,2.52-.28,1.13-.15,2.21,.11,2.91,.26,.71,.59,1.05,.66,1.01Z"/>
        <path class="cls-1" d="M311.56,423.01c.2-.03,.07-1.48,.77-3.05,.67-1.59,1.82-2.48,1.7-2.65-.07-.18-1.58,.56-2.35,2.37-.79,1.79-.3,3.4-.13,3.33Z"/>
        <path class="cls-1" d="M299.9,421.7c.21-.02,0-2.25,.87-4.79,.84-2.55,2.37-4.2,2.21-4.34-.1-.15-1.97,1.38-2.87,4.11-.94,2.72-.38,5.07-.21,5.01Z"/>
        <path class="cls-1" d="M292.07,415.88c.2,.06,.77-1.77,2.19-3.58,1.39-1.83,3.01-2.85,2.91-3.03-.06-.17-1.96,.64-3.46,2.6-1.52,1.95-1.81,3.99-1.64,4.01Z"/>
        <path class="cls-1" d="M286.73,412.13c.21,.04,.53-2,2.18-3.79,1.61-1.82,3.61-2.36,3.54-2.56-.02-.08-.55-.07-1.35,.21-.8,.28-1.84,.9-2.72,1.87-.87,.97-1.38,2.07-1.59,2.89-.21,.83-.16,1.36-.08,1.36Z"/>
      </g>
      <g>
        <path class="cls-13" d="M89.79,359.37c.49,1.22-1.67,40.46,35.55,40.7,33.42,.21,78.37-30.41,83.5-28.45,3.35,1.28,61.04,51.4,61.04,51.4l20.82-24.44s-53.38-50.95-58.62-54.61c-11.24-7.86-19.14-7.8-37.64-4.45-16.54,2.99-57.07,16.45-57.07,16.45l-3.9-3.31-43.68,6.71Z"/>
        <path class="cls-5" d="M182.43,343.46s.21-.1,.63-.26c.42-.16,1.04-.41,1.86-.7,1.64-.6,4.09-1.44,7.29-2.34,3.21-.89,7.18-1.85,11.87-2.5,2.34-.33,4.88-.58,7.58-.53,2.69,.05,5.54,.38,8.46,1.08,5.82,1.39,11.93,4.27,17.26,8.92,5.16,4.8,10.52,10.04,16.25,15.51,11.42,10.96,24,23.03,37.24,35.74l.18,.17-.16,.19c-.91,1.07-1.89,2.22-2.87,3.37-3.08,3.63-6.28,7.32-9.45,10.72-3.11,3.4-6.03,6.82-8.94,10.2l.09,.17c-11.75-10.16-22.77-19.69-32.69-28.27-4.96-4.29-9.64-8.35-14-12.12-2.18-1.89-4.28-3.71-6.29-5.45-1.01-.87-1.99-1.73-2.96-2.56-.48-.42-.95-.84-1.44-1.21-.49-.36-1.02-.65-1.57-.89-2.2-.95-4.66-.82-6.58,.11-1.96,.96-3.8,1.86-5.51,2.7-3.43,1.68-6.38,3.13-8.79,4.31-2.39,1.16-4.25,2.07-5.52,2.69-.62,.3-1.1,.52-1.43,.68-.32,.15-.49,.22-.49,.22,0,0,.16-.09,.47-.26,.33-.17,.8-.41,1.41-.73,1.26-.64,3.11-1.57,5.48-2.76,2.4-1.2,5.33-2.67,8.75-4.38,1.72-.85,3.55-1.77,5.5-2.74,1.99-.97,4.55-1.12,6.84-.15,.57,.25,1.12,.55,1.64,.92,.51,.38,.98,.8,1.46,1.22,.97,.83,1.96,1.68,2.97,2.55,2.02,1.74,4.13,3.55,6.31,5.43,4.37,3.77,9.07,7.81,14.04,12.09,9.94,8.57,20.97,18.08,32.73,28.22l.09,.17c2.89-3.43,5.87-6.94,8.75-10.57,2.83-3.64,5.71-7.1,8.78-10.69,.97-1.14,1.93-2.27,2.83-3.32l.02,.36c-13.23-12.72-25.8-24.8-37.21-35.78-5.71-5.47-11.09-10.74-16.2-15.53-5.26-4.62-11.31-7.49-17.07-8.89-2.88-.7-5.71-1.04-8.38-1.1-2.67-.06-5.19,.18-7.53,.49-4.68,.63-8.65,1.55-11.86,2.41-3.21,.87-5.66,1.68-7.31,2.24-.81,.28-1.44,.5-1.88,.65-.42,.15-.64,.21-.64,.21Z"/>
      </g>
      <g>
        <path class="cls-12" d="M162.02,256.39s12.35,4.9,13.82,15.34c1.22,8.7-1.49,31.88-1.45,33.45,.05,1.87,.64,3.03,1.3,3.75,1.51,1.62,2.34,3.75,2.33,5.96,0,1.67-.18,3.37-.76,4.34-1.42,2.38-15.07,18.21-15.07,18.21l-12.15-25.24s7.96-23.65,8.02-24.26c.06-.61,3.95-31.54,3.95-31.54Z"/>
        <path class="cls-6" d="M176,318.2c.53,.07,18.33,12.73,18.33,12.73,0,0,4.35-8.4,6.3-8.65,1.95-.25,7.95,2.06,8.48,2.69,.53,.63,1.71,.74,2.88,.85,1.17,.11,3.26,3.06,3.26,3.06l4.01,2.98s-1.26,2.34-1.59,2.74c-.33,.4-3.04-.72-3-1.15s.34,2.63-1.74,2.72c-2.08,.09-4.76-1.32-4.76-1.32l-.7-3.53-5.16-3.36-.62,3.39s5.23,1.08,5.06,2.79-1.69,2.22-1.69,2.22l-4.32-.1-9.5,2.28s-24.94-5.51-25.86-8.35c-.91-2.83,3.31-12.98,10.62-12Z"/>
        <path class="cls-12" d="M176.18,312.3s2.84,2.05,4.93,6.85c1.1,2.53,12.99,11.22,12.99,11.22l-9.63,7.81s-20.11,.83-21.06-2.15c-.95-2.99,2.2-16.33,2.2-16.33l10.57-7.4Z"/>
      </g>
      <g>
        <path class="cls-7" d="M163.65,346.24h0c.24,.88,1.12,1.42,2.02,1.22l34.99-7.65,30.05-5.47,.25-2.67-28.73,4.12-37.31,8.33c-.95,.21-1.53,1.17-1.28,2.11Z"/>
        <path class="cls-7" d="M218.29,294.66l-16.17,41.4c-.65,1.65,.75,3.38,2.5,3.09l35.7-6.59c.8-.13,1.46-.68,1.75-1.43l16.22-41.07c.32-.84-.34-1.73-1.24-1.66l-36.82,4.82c-.87,.07-1.62,.63-1.94,1.44Z"/>
        <path class="cls-13" d="M221.95,293.23c.13,.05-3.74,10.36-8.65,23.02-4.91,12.66-9,22.89-9.14,22.83s3.74-10.36,8.65-23.02c4.91-12.66,9-22.88,9.14-22.83Z"/>
        <path class="cls-1" d="M230.89,312.8c-1.01,2-.94,4.06,.14,4.61s2.78-.63,3.79-2.62c1.01-2,.94-4.06-.14-4.61s-2.78,.63-3.79,2.62Z"/>
      </g>
      <g>
        <path class="cls-12" d="M164.23,339.8s-2.91-12.27-2.33-14.52c1.68-6.47,10.33-22.8,9.61-32.58-.72-9.78-9.49-36.31-9.49-36.31l-8.36-2.91c-3.38,7.37-16.5,5.72-27.2-2.91l-13.43,2.71-21.02,65.38-3.53,23.83c-8.51,11.11,1.3,16.97,1.3,16.97,0,0,16.19,5.1,29,2.82,9.57-1.71,23.53-8.46,26.66-10.91,7.49-5.87,19.37-5.47,19.37-5.47l-.57-6.1Z"/>
        <path class="cls-6" d="M140.76,340.41l8.76,3.57s4.87-2.9,5.58-3.16c.71-.27,10.37-1.59,12.31-1.52,1.94,.07,4.06-.26,4.06-.26l-11.58,7.12-7.33,9.76s-3.02,1.06-6.24,1.09c-3.22,.03-10.81-1.83-10.81-1.83l5.25-14.77Z"/>
        <g>
          <path class="cls-12" d="M114.71,253.09s-15.37,.91-20.78,13.18c-3.61,8.19-11.04,44.22-12.14,50.82s.02,14.62,5.28,18.77,49.07,22.81,49.07,22.81l9.13-17.59-36.93-22.94h-1.21s4.42-26.48,4.42-26.48"/>
          <path class="cls-13" d="M111.55,291.66s-.01,.16-.05,.46c-.05,.32-.11,.76-.2,1.34-.19,1.2-.47,2.95-.83,5.2-.74,4.56-1.82,11.17-3.18,19.49l-.16-.19c.36,0,.78,0,1.21,.01h.05s.04,.02,.04,.02c9.85,6.1,22.52,13.94,36.97,22.88l.19,.12-.1,.2c-2.9,5.6-5.95,11.49-9.11,17.6l-.11,.21-.22-.09c-8.89-3.8-18.36-7.92-28.06-12.32-3.84-1.74-7.61-3.49-11.31-5.27-1.84-.9-3.68-1.8-5.47-2.74-1.76-.96-3.62-1.85-5.11-3.25-1.48-1.39-2.56-3.13-3.32-4.95-.76-1.83-1.22-3.75-1.43-5.66-.22-1.92-.21-3.83-.03-5.71,.18-1.88,.57-3.69,.9-5.49,1.4-7.17,2.86-13.95,4.28-20.28,1.43-6.33,2.83-12.22,4.28-17.55,.72-2.67,1.46-5.19,2.27-7.55,.8-2.37,2.02-4.44,3.35-6.19,1.41-1.71,2.96-3.07,4.51-4.15,1.57-1.04,3.09-1.87,4.53-2.45,2.86-1.2,5.22-1.72,6.82-2,.8-.13,1.42-.21,1.83-.25,.42-.04,.63-.03,.63-.03,0,0-.21,.03-.62,.09-.41,.06-1.02,.15-1.82,.3-1.59,.31-3.94,.86-6.76,2.08-1.42,.59-2.92,1.43-4.47,2.47-1.52,1.08-3.05,2.43-4.43,4.12-1.3,1.74-2.49,3.76-3.27,6.12-.79,2.35-1.52,4.87-2.23,7.54-1.42,5.33-2.8,11.21-4.21,17.55-1.4,6.33-2.85,13.12-4.23,20.28-.33,1.79-.71,3.6-.89,5.44-.17,1.84-.17,3.73,.04,5.61,.43,3.72,1.77,7.59,4.61,10.3,1.42,1.33,3.23,2.2,5,3.17,1.78,.94,3.61,1.83,5.45,2.73,3.7,1.77,7.47,3.52,11.3,5.26,9.7,4.39,19.17,8.52,28.05,12.33l-.32,.12c3.17-6.1,6.23-11.99,9.14-17.58l.09,.31c-14.42-8.99-27.07-16.87-36.9-23l.09,.02c-.42,0-.84-.01-1.21-.02h-.19s.03-.19,.03-.19c1.42-8.31,2.55-14.92,3.33-19.47,.39-2.25,.7-3.99,.91-5.19,.11-.58,.19-1.02,.25-1.34,.06-.3,.1-.45,.1-.45Z"/>
        </g>
        <path class="cls-13" d="M170.18,271.73c.06,.01-.2,.92-.39,2.6-.09,.84-.13,1.88-.09,3.07,.05,1.2,.19,2.56,.4,4.06,.41,3,1.01,6.6,1.09,10.64,.11,4.02-.35,8.55-2.05,12.92-1.69,4.35-3.9,8.21-5.27,11.95-1.4,3.75-1.26,7.44-1.09,10.44,.19,3.03,.48,5.47,.65,7.16,.08,.8,.15,1.45,.2,1.95,.04,.45,.05,.68,.03,.68-.02,0-.06-.23-.14-.67-.08-.49-.17-1.14-.3-1.94-.23-1.68-.58-4.12-.81-7.16-.21-3-.4-6.77,1.01-10.63,1.37-3.82,3.57-7.68,5.24-11.98,1.68-4.3,2.15-8.74,2.06-12.73-.05-4-.6-7.58-.97-10.6-.18-1.51-.3-2.89-.32-4.1,0-1.21,.06-2.26,.18-3.11,.12-.84,.26-1.49,.39-1.93,.12-.43,.19-.66,.2-.65Z"/>
        <path class="cls-13" d="M115.91,278.82c-.1-.03,.38-1.39,.63-3.66,.15-1.13,.15-2.5,.06-4-.14-1.5-.43-3.14-.95-4.8-1.05-3.33-2.79-6.03-4.26-7.77-1.48-1.75-2.61-2.64-2.54-2.72,.02-.03,.31,.18,.82,.58,.52,.39,1.21,1.04,1.99,1.89,1.57,1.71,3.41,4.44,4.48,7.86,.53,1.7,.81,3.39,.93,4.92,.07,1.54,.02,2.94-.17,4.09-.06,.58-.2,1.09-.3,1.54-.09,.45-.21,.83-.32,1.14-.21,.62-.34,.95-.38,.94Z"/>
        <path class="cls-13" d="M137.21,315.42c-.03-.13,1.74-.28,4.16-1.62,.62-.3,1.22-.78,1.89-1.22,.62-.53,1.32-1.04,1.94-1.71,1.31-1.27,2.57-2.85,3.65-4.66,2.22-3.6,3.33-7.32,3.89-10.03,.53-2.72,.56-4.45,.67-4.45,.04,0,.04,.43,.02,1.22,0,.79-.13,1.91-.33,3.3-.47,2.75-1.55,6.56-3.81,10.23-1.1,1.84-2.4,3.45-3.76,4.73-.65,.67-1.38,1.19-2.02,1.71-.71,.44-1.32,.91-1.97,1.19-.63,.31-1.2,.6-1.75,.75-.53,.17-.98,.35-1.38,.39-.78,.14-1.2,.19-1.21,.16Z"/>
        <path class="cls-13" d="M97.41,322.93c-.1-.07,1.8-2.21,4.98-3.6,3.17-1.42,6.04-1.38,6.02-1.26,.02,.16-2.74,.36-5.81,1.73-3.08,1.34-5.09,3.25-5.19,3.12Z"/>
        <g>
          <path class="cls-6" d="M173.75,341.35c-.11,.63-.57,1.16-1.19,1.29-.12,.03-.26,.04-.4,.04-.95-.01-1.41-1.79-1.41-1.79l-4.34,.59s-6.2,7.86-8.39,10.09c-8.61,8.78-10.85,2.44-10.85,2.44l2.67-10.32,5.5-9.21s-.34,.55-.21-.9c.13-1.45,2.67-1.69,2.67-1.69,.18-.75,1.67-1.46,1.67-1.46l6.91-1.28c1.42-.26,2.89,.13,3.99,1.08l4.19,3.6s2.48,2.76,2.47,3.58c-.02,1.24-1.29,1.35-1.29,1.35,0,0,.32,2.22-.21,2.46-.53,.24-1.77,.11-1.77,.11h0Z"/>
          <path class="cls-8" d="M157.61,339.37c.03,.07,.89-.29,2.34-.66,1.44-.37,3.49-.72,5.76-.65,1.13,.03,2.21,.16,3.18,.34,.95,.21,1.9,.32,2.34,.83,.22,.25,.25,.56,.17,.82-.07,.26-.22,.46-.37,.58-.31,.25-.56,.22-.56,.27-.01,.01,.26,.12,.66-.13,.19-.12,.39-.33,.51-.64,.13-.3,.11-.75-.16-1.09-.26-.35-.69-.54-1.12-.68-.44-.13-.89-.25-1.39-.35-.98-.21-2.08-.35-3.25-.38-2.33-.07-4.41,.34-5.86,.79-1.45,.46-2.27,.92-2.25,.96Z"/>
          <path class="cls-8" d="M158.44,343.77c.05,.12,2.73-.82,6.13-1.65,3.4-.84,6.21-1.24,6.19-1.37,0-.06-.72-.03-1.87,.11-1.15,.14-2.72,.41-4.43,.83-1.71,.42-3.23,.91-4.31,1.31-1.08,.4-1.73,.71-1.71,.77Z"/>
          <path class="cls-8" d="M173.66,341.19s-.02-.27-.13-.74c-.11-.47-.29-1.14-.59-1.96-.15-.41-.34-.85-.6-1.3-.26-.46-.65-.9-1.1-1.25-.88-.73-2.01-1.41-3.29-1.8-1.27-.37-2.52-.64-3.69-.64-1.16,0-2.18,.23-3.02,.44-.83,.22-1.49,.45-1.95,.6-.45,.16-.7,.26-.69,.29,.02,.07,1.05-.21,2.71-.59,.83-.17,1.83-.36,2.94-.34,1.1,.01,2.32,.29,3.56,.65,1.24,.37,2.28,1,3.17,1.69,.9,.64,1.32,1.57,1.67,2.35,.66,1.57,.93,2.61,1.02,2.58Z"/>
          <path class="cls-8" d="M160.31,332.04c.02,.06,1.03-.22,2.68-.52,1.61-.24,4.1-.88,6.15,.81,2.11,1.46,3.95,2.89,4.97,4.21,1.05,1.3,1.31,2.34,1.4,2.31,.02,0-.01-.27-.18-.72-.16-.45-.46-1.09-.97-1.78-.99-1.42-2.85-2.91-4.97-4.38-.54-.37-1.1-.7-1.7-.91-.6-.22-1.23-.27-1.8-.26-1.14,.03-2.14,.24-2.97,.42-1.65,.39-2.63,.78-2.61,.83Z"/>
          <path class="cls-8" d="M161.91,347.61s.12-.14,.3-.42c.22-.32,.49-.73,.84-1.24,.75-1.06,1.89-2.6,3.46-4.37l-.09,.05c1.3-.17,2.76-.36,4.35-.56l-.19-.13c.09,.34,.21,.66,.39,.99,.17,.32,.39,.65,.77,.85,.2,.1,.44,.12,.63,.08,.2,0,.4-.05,.59-.14,.38-.18,.68-.5,.85-.88,.04-.1,.08-.2,.1-.3l.02-.08v-.04s.01-.02,.01-.02h0s-.41,.31-.22,.16h0s0,0,0,0h.15c.2,.03,.39,.04,.59,.04,.2,0,.4,0,.61-.03,.1-.01,.21-.03,.32-.06,.1-.03,.22-.06,.36-.19,.18-.24,.21-.46,.24-.67,.03-.21,.03-.42,.03-.63,0-.42-.04-.83-.09-1.25l-.19,.24c.56-.07,1.16-.39,1.38-1,.1-.28,.15-.6,.03-.92-.1-.29-.24-.52-.39-.75-.6-.93-1.31-1.77-2.05-2.62h0s-.01-.02-.01-.02c-.71-.61-1.47-1.26-2.24-1.92-.48-.41-.95-.82-1.42-1.22-.47-.39-.92-.84-1.5-1.14-.56-.3-1.18-.48-1.8-.54-.62-.07-1.25,.06-1.81,.17-2.29,.43-4.47,.84-6.51,1.22h-.03s-.02,.02-.02,.02c-.37,.18-.7,.39-1.01,.63-.3,.25-.62,.52-.75,.96l.21-.14c-.8-.07-1.62,.17-2.11,.78-.5,.6-.58,1.35-.54,2.02l.02-.1c-1.58,2.64-2.88,4.79-3.8,6.32-.42,.72-.76,1.3-1.01,1.73-.23,.4-.34,.61-.33,.62,.01,0,.15-.19,.41-.57,.27-.42,.64-.99,1.09-1.69,.96-1.52,2.29-3.64,3.93-6.25l.03-.04v-.06c-.03-.59,.07-1.28,.48-1.75,.4-.49,1.12-.7,1.78-.63l.17,.02,.04-.16c.07-.27,.34-.53,.62-.74,.29-.22,.61-.41,.95-.58l-.05,.02c2.04-.37,4.23-.77,6.52-1.18,.58-.11,1.12-.22,1.69-.16,.56,.05,1.12,.22,1.63,.49,.51,.26,.93,.69,1.42,1.09,.47,.4,.94,.81,1.42,1.22,.77,.66,1.52,1.31,2.24,1.92l-.02-.02c.73,.83,1.44,1.68,2.01,2.56,.14,.22,.27,.45,.35,.66,.08,.18,.05,.42-.02,.63-.14,.41-.59,.67-1.01,.73l-.22,.03,.03,.21c.05,.4,.09,.8,.09,1.2,0,.37-.02,.83-.16,1.03,0,0-.07,.05-.16,.07-.08,.02-.17,.04-.26,.05-.18,.02-.37,.03-.56,.03-.19,0-.38,0-.56-.02h-.14s0-.01,0-.01h0c.19-.15-.27,.2-.22,.16h0s0,.02,0,.02v.03s-.02,.06-.02,.06c-.02,.08-.05,.16-.08,.24-.13,.31-.37,.56-.66,.7-.14,.07-.3,.1-.46,.11-.17,.03-.3,.01-.43-.04-.52-.29-.8-1.01-.98-1.59l-.05-.15-.15,.02c-1.58,.23-3.04,.44-4.34,.62h-.06s-.03,.05-.03,.05c-1.56,1.81-2.66,3.38-3.38,4.47-.35,.55-.61,.99-.78,1.29-.17,.3-.25,.46-.23,.47Z"/>
        </g>
        <g class="cls-10">
          <path d="M153.06,296.42c-.76,3.59-2.17,7.37-4.17,10.44-2.38,3.66-5.38,5.59-9.1,7.89l-.28,.11c4.45,.05,8.87-2.16,11.5-5.74,2.64-3.59,3.42-8.46,2.05-12.69Z"/>
        </g>
      </g>
    </g>
  </g>
</svg>